<svg xmlns="http://www.w3.org/2000/svg" width="48.63" height="30.394" viewBox="0 0 48.63 30.394"><defs><style>.a{fill:#1c3663;}.b{fill:#fff;}</style></defs><g transform="translate(-61 -396)"><path class="a" d="M4.182,0H44.45a4.18,4.18,0,0,1,4.18,4.18V26.213a4.181,4.181,0,0,1-4.181,4.181H4.182A4.182,4.182,0,0,1,0,26.212V4.182A4.182,4.182,0,0,1,4.182,0Z" transform="translate(61 396)"/><g transform="translate(71 408.032)"><path class="b" d="M942.191,275.947a.694.694,0,0,0-.508.31s-1.16,1.989-1.274,2.187c-.063.107-.125.039-.136,0l-.359-2.174a.444.444,0,0,0-.442-.317h-.723a.24.24,0,0,0-.244.308s.552,3.134.661,3.871c.054.407-.006.48-.006.48l-.716,1.25c-.105.169-.048.308.126.308h.838a.681.681,0,0,0,.507-.308l3.225-5.454s.308-.466.024-.462c-.194,0-.972,0-.972,0" transform="translate(-928.433 -274.626)"/><path class="b" d="M916.285,274.97a1.7,1.7,0,0,1-1.021.268h-.2a.242.242,0,0,1-.247-.309l.244-1.05a.412.412,0,0,1,.386-.308l.265,0a1.279,1.279,0,0,1,.7.158.529.529,0,0,1,.233.482.874.874,0,0,1-.365.761m1.748-1.619a1.213,1.213,0,0,0-.444-.476,2.044,2.044,0,0,0-.7-.26,5.852,5.852,0,0,0-.956-.076h-1.69a.422.422,0,0,0-.388.308l-1.139,4.954a.241.241,0,0,0,.244.309h.81a.414.414,0,0,0,.388-.309l.28-1.2a.414.414,0,0,1,.385-.307h.232a3.838,3.838,0,0,0,2.31-.609,1.892,1.892,0,0,0,.825-1.6,1.5,1.5,0,0,0-.155-.73" transform="translate(-912.706 -272.54)"/><path class="b" d="M929.88,276.05a3.086,3.086,0,0,0-1.446-.258,6.351,6.351,0,0,0-.98.077c-.242.037-.265.043-.416.076a.475.475,0,0,0-.355.375l-.1.406c-.056.261.092.25.157.229a4.381,4.381,0,0,1,.482-.143,3.554,3.554,0,0,1,.759-.1,2.011,2.011,0,0,1,.735.1.373.373,0,0,1,.245.368.27.27,0,0,1-.013.114c-.014.033-.039.063-.117.073-.461.028-.793.07-1.194.128a3.728,3.728,0,0,0-1.027.282,1.589,1.589,0,0,0-.7.551,1.493,1.493,0,0,0-.233.845.993.993,0,0,0,.331.767,1.239,1.239,0,0,0,.853.293,2.286,2.286,0,0,0,.508-.048,2.554,2.554,0,0,0,.39-.133,2.069,2.069,0,0,0,.334-.185c.118-.079.2-.135.305-.2l0,.006-.029.13,0,0,0,0a.238.238,0,0,0,.215.3l0,0h.014v0l.623,0h.115a.013.013,0,0,0,.011,0,.423.423,0,0,0,.347-.3l.591-2.553a1.675,1.675,0,0,0,.03-.209,1.622,1.622,0,0,0,.014-.195A.853.853,0,0,0,929.88,276.05Zm-1.432,3.041a2.114,2.114,0,0,1-.318.164,1.15,1.15,0,0,1-.423.092.942.942,0,0,1-.46-.089.315.315,0,0,1-.159-.3.615.615,0,0,1,.118-.4.843.843,0,0,1,.345-.233,3.032,3.032,0,0,1,.535-.12c.185-.023.55-.065.6-.066s.078-.026.057.1c-.008.054-.114.487-.163.684A.39.39,0,0,1,928.448,279.091Z" transform="translate(-920.651 -274.531)"/><path class="b" d="M967.8,276.06a3.084,3.084,0,0,0-1.446-.258,6.342,6.342,0,0,0-.98.077c-.242.036-.267.043-.415.075a.473.473,0,0,0-.356.376l-.1.407c-.055.26.092.249.158.229a4.176,4.176,0,0,1,.482-.143,3.576,3.576,0,0,1,.76-.1,2.013,2.013,0,0,1,.735.1.372.372,0,0,1,.244.367.285.285,0,0,1-.013.115c-.014.032-.039.063-.116.073-.463.027-.8.069-1.2.128a3.734,3.734,0,0,0-1.027.282,1.6,1.6,0,0,0-.7.55,1.5,1.5,0,0,0-.232.845.993.993,0,0,0,.331.767,1.239,1.239,0,0,0,.853.293,2.287,2.287,0,0,0,.508-.048,2.569,2.569,0,0,0,.39-.133,2.064,2.064,0,0,0,.333-.185c.118-.079.2-.135.305-.2l0,.007-.029.131,0,0v0a.24.24,0,0,0,.216.3l0,0h.753a.011.011,0,0,0,.01,0,.422.422,0,0,0,.348-.3l.591-2.551a1.348,1.348,0,0,0,.031-.209,1.607,1.607,0,0,0,.014-.2A.852.852,0,0,0,967.8,276.06Zm-1.432,3.04a2.154,2.154,0,0,1-.317.164,1.148,1.148,0,0,1-.423.092.939.939,0,0,1-.46-.09.312.312,0,0,1-.158-.3.614.614,0,0,1,.118-.4.838.838,0,0,1,.345-.233,2.931,2.931,0,0,1,.533-.119c.185-.023.55-.066.6-.066s.077-.026.057.1c-.01.054-.115.487-.163.684A.385.385,0,0,1,966.365,279.1Z" transform="translate(-943.868 -274.537)"/><path class="b" d="M954.193,275.019a1.71,1.71,0,0,1-1.021.265h-.2a.24.24,0,0,1-.245-.308l.242-1.051a.414.414,0,0,1,.386-.306l.266,0a1.323,1.323,0,0,1,.7.157.543.543,0,0,1,.235.483.89.89,0,0,1-.365.763m1.747-1.621a1.243,1.243,0,0,0-.446-.477,2,2,0,0,0-.7-.259,5.578,5.578,0,0,0-.952-.075h-1.694a.422.422,0,0,0-.386.309l-1.138,4.955a.238.238,0,0,0,.242.308h.813a.421.421,0,0,0,.388-.307l.275-1.2a.416.416,0,0,1,.389-.307h.231a3.827,3.827,0,0,0,2.31-.609,1.907,1.907,0,0,0,.825-1.606,1.568,1.568,0,0,0-.154-.729" transform="translate(-935.915 -272.569)"/><path class="b" d="M.226,5.527h0a.24.24,0,0,1-.218-.3l0,0C.01,5.2.028,5.125.054,5.006l1-4.523L1.09.308l0-.012A.419.419,0,0,1,1.478,0H2.2a.242.242,0,0,1,.244.307h0L1.365,5.219l0,.009a.419.419,0,0,1-.386.3Z" transform="translate(24.517 0.059)"/><g transform="translate(27.325 0.052)"><path class="b" d="M983.68,273.681a.6.6,0,0,1-.082.016.509.509,0,0,1-.079.007.245.245,0,0,1-.183-.065.293.293,0,0,1-.063-.208v-.419h-.089V272.9h.089v-.226h.133v.226h.274v.112h-.274v.359c0,.041,0,.073,0,.1a.16.16,0,0,0,.019.065.094.094,0,0,0,.043.042.209.209,0,0,0,.083.013.272.272,0,0,0,.068-.01.387.387,0,0,0,.05-.016h.008Z" transform="translate(-983.184 -272.675)"/><path class="b" d="M986.025,274.011h-.133v-.449c0-.033,0-.066,0-.1a.221.221,0,0,0-.02-.076.106.106,0,0,0-.047-.045.19.19,0,0,0-.087-.016.246.246,0,0,0-.112.028.646.646,0,0,0-.111.071c0,.011,0,.023,0,.038s0,.028,0,.042v.505h-.133v-.449c0-.035,0-.068,0-.1a.221.221,0,0,0-.019-.075.112.112,0,0,0-.047-.046.208.208,0,0,0-.088-.015.243.243,0,0,0-.109.027.63.63,0,0,0-.109.068v.589h-.133v-.788h.133v.087a.608.608,0,0,1,.124-.08.309.309,0,0,1,.131-.029.258.258,0,0,1,.137.034.206.206,0,0,1,.083.094.645.645,0,0,1,.147-.1.337.337,0,0,1,.141-.03.231.231,0,0,1,.192.079.348.348,0,0,1,.062.22Z" transform="translate(-984.219 -272.997)"/></g></g></g></svg>