<svg xmlns="http://www.w3.org/2000/svg" width="38" height="24.744" viewBox="0 0 38 24.744"><defs><style>.a{fill:#203e4b;}</style></defs><g transform="translate(0 -100)"><g transform="translate(0 100)"><g transform="translate(0 0)"><path class="a" d="M37.293,103.535H6.363v-.353a3.181,3.181,0,1,0-6.363,0v18.028a3.539,3.539,0,0,0,3.535,3.535H32.344a.707.707,0,0,0,.707-.707v-2.121h4.242a.707.707,0,0,0,.707-.707V104.242A.707.707,0,0,0,37.293,103.535Zm-35.879-.353a1.767,1.767,0,0,1,3.535,0v15.04a3.148,3.148,0,0,0-3.535-.008ZM31.637,123.33H3.535a2.121,2.121,0,0,1-2.121-2.121v-.353a1.767,1.767,0,1,1,3.535,0v.353a.707.707,0,0,0,.707.707H31.637Zm4.949-2.828H6.363V104.949H36.586Z" transform="translate(0 -100)"/></g></g><g transform="translate(7.777 106.363)"><path class="a" d="M114.688,172H88.707a.707.707,0,0,0-.707.707v11.312a.707.707,0,0,0,.707.707h25.981a.707.707,0,0,0,.707-.707V172.707A.707.707,0,0,0,114.688,172Zm-.707,11.312H89.414v-9.9h24.567Z" transform="translate(-88 -172)"/></g><g transform="translate(10.776 109.431)"><g transform="translate(0 0)"><rect class="a" width="4" height="1" transform="translate(0.224 0.313)"/></g></g><g transform="translate(10.776 112.267)"><g transform="translate(0 0)"><rect class="a" width="11" height="1" transform="translate(0.224 0.478)"/></g></g><g transform="translate(23.254 112.267)"><g transform="translate(0 0)"><rect class="a" width="9" height="1" transform="translate(-0.254 0.478)"/></g></g><g transform="translate(20.418 115.102)"><g transform="translate(0 0)"><rect class="a" width="12" height="1" transform="translate(-0.418 -0.358)"/></g></g></g></svg>