<svg xmlns="http://www.w3.org/2000/svg" width="62" height="62" viewBox="0 0 62 62"><defs><style>.a{fill:#336a82;}</style></defs><g transform="translate(-16 -16)"><path class="a" d="M72.833,66.6A1.033,1.033,0,0,0,71.8,67.633v12.4a3.1,3.1,0,0,1-3.1,3.1H44.933V77.967a5.167,5.167,0,0,0-10.333,0v5.167H21.167a3.1,3.1,0,0,1-3.1-3.1V53.167a3.1,3.1,0,0,1,3.1-3.1H54.233a1.033,1.033,0,1,0,0-2.067H21.167A5.173,5.173,0,0,0,16,53.167V80.033A5.173,5.173,0,0,0,21.167,85.2H23.71l-2.646,5.963a5.191,5.191,0,0,0,.207,4.608l3.646,6.561a3.112,3.112,0,0,1,.384,1.507v1a1.033,1.033,0,0,0,2.067,0v-1a5.188,5.188,0,0,0-.65-2.51l-3.646-6.561A3.119,3.119,0,0,1,22.948,92l3.024-6.8H34.6v7.233a1.033,1.033,0,0,0,2.067,0V77.967a3.1,3.1,0,1,1,6.2,0v26.867a1.033,1.033,0,0,0,2.067,0V89.809A6.168,6.168,0,0,0,49.067,91.4h3.1A1.033,1.033,0,0,0,53.2,90.367V85.2H68.7a5.173,5.173,0,0,0,5.167-5.167v-12.4A1.033,1.033,0,0,0,72.833,66.6Zm-21.7,22.733H49.067A4.133,4.133,0,0,1,44.933,85.2h6.2Z" transform="translate(0 -27.867)"/><path class="a" d="M331.367,16a11.367,11.367,0,1,0,11.367,11.367A11.367,11.367,0,0,0,331.367,16Zm0,20.667a9.3,9.3,0,1,1,9.3-9.3A9.3,9.3,0,0,1,331.367,36.667Z" transform="translate(-264.733)"/><path class="a" d="M370.795,71.649l-6.576,6.576-2.369-2.369a1.033,1.033,0,0,0-1.461,1.461l3.1,3.1a1.033,1.033,0,0,0,1.461,0l7.307-7.307a1.033,1.033,0,1,0-1.436-1.486Z" transform="translate(-299.652 -48.187)"/><path class="a" d="M76.4,99.1A3.1,3.1,0,0,0,73.3,96H67.1A3.1,3.1,0,0,0,64,99.1v4.133a3.1,3.1,0,0,0,3.1,3.1h6.2a3.1,3.1,0,0,0,3.1-3.1Zm-2.067,0v1.033H72.267V98.067H73.3A1.033,1.033,0,0,1,74.333,99.1Zm-8.267,4.133V99.1A1.033,1.033,0,0,1,67.1,98.067h3.1v6.2H67.1A1.033,1.033,0,0,1,66.067,103.233Zm7.233,1.033H72.267V102.2h2.067v1.033A1.033,1.033,0,0,1,73.3,104.267Z" transform="translate(-41.8 -69.667)"/><path class="a" d="M224,120h2.067v4.133H224Z" transform="translate(-181.133 -90.567)"/><path class="a" d="M256,120h2.067v4.133H256Z" transform="translate(-209 -90.567)"/><path class="a" d="M192,120h2.067v4.133H192Z" transform="translate(-153.267 -90.567)"/><path class="a" d="M288,120h2.067v4.133H288Z" transform="translate(-236.867 -90.567)"/><path class="a" d="M293.167,218.333a5.116,5.116,0,0,0,3.088-1.05,5.167,5.167,0,1,0,0-8.234,5.158,5.158,0,1,0-3.088,9.283Zm9.3-5.167a3.081,3.081,0,0,1-4.835,2.552,4.993,4.993,0,0,0,0-5.1,3.082,3.082,0,0,1,4.835,2.552Zm-9.3-3.1a3.1,3.1,0,1,1-3.1,3.1A3.1,3.1,0,0,1,293.167,210.067Z" transform="translate(-236.867 -167.2)"/><path class="a" d="M64,272H74.333v2.067H64Z" transform="translate(-41.8 -222.933)"/><path class="a" d="M64,240h2.067v2.067H64Z" transform="translate(-41.8 -195.067)"/><path class="a" d="M96,240h2.067v2.067H96Z" transform="translate(-69.667 -195.067)"/><path class="a" d="M128,240h2.067v2.067H128Z" transform="translate(-97.533 -195.067)"/><path class="a" d="M248,272h2.067v2.067H248Z" transform="translate(-202.033 -222.933)"/><path class="a" d="M128,192h4.133v2.067H128Z" transform="translate(-97.533 -153.267)"/><path class="a" d="M192,192h4.133v2.067H192Z" transform="translate(-153.267 -153.267)"/><path class="a" d="M256,192h4.133v2.067H256Z" transform="translate(-209 -153.267)"/></g></svg>