<svg xmlns="http://www.w3.org/2000/svg" width="33" height="33" viewBox="0 0 33 33"><defs><style>.a{fill:#203e4b;}.b{fill:#fff;stroke:#203e4b;stroke-width:0.5px;}</style></defs><g transform="translate(-159 -365)"><circle class="a" cx="16.5" cy="16.5" r="16.5" transform="translate(159 365)"/><g transform="translate(168.5 371)"><g transform="translate(0 0)"><path class="b" d="M64.576,6.794h-1.3V3.822a3.9,3.9,0,0,0-7.806,0V6.794h-1.3A2.171,2.171,0,0,0,52,8.962v7.372A2.171,2.171,0,0,0,54.168,18.5H64.576a2.171,2.171,0,0,0,2.168-2.168V8.962A2.171,2.171,0,0,0,64.576,6.794ZM56.913,3.822a2.459,2.459,0,0,1,4.915,0V6.794H56.913V3.822ZM65.3,16.334a.724.724,0,0,1-.723.723H54.168a.724.724,0,0,1-.723-.723V8.962a.724.724,0,0,1,.723-.723H64.576a.724.724,0,0,1,.723.723Z" transform="translate(-52 0)"/></g><g transform="translate(6.035 10.335)"><path class="b" d="M220.337,286a1.337,1.337,0,0,0-.724,2.461v1.586a.723.723,0,1,0,1.445,0v-1.585a1.337,1.337,0,0,0-.721-2.463Z" transform="translate(-219 -286)"/></g></g></g></svg>