<svg xmlns="http://www.w3.org/2000/svg" width="57" height="57" viewBox="0 0 57 57"><defs><style>.a{fill:#203e4b;}.b{fill:#fff;stroke:#203e4b;stroke-width:0.5px;}</style></defs><g transform="translate(-49 -532)"><circle class="a" cx="28.5" cy="28.5" r="28.5" transform="translate(49 532)"/><path class="b" d="M22.12,76.97A7.057,7.057,0,1,0,10.7,72.207a5.623,5.623,0,0,0-6.559,9.032A6.927,6.927,0,0,0,0,87.575v6.536a2.182,2.182,0,0,0,2.18,2.18H25.368a2.529,2.529,0,0,0,2.526-2.526V85.192A8.755,8.755,0,0,0,22.12,76.97ZM17.734,66.551a4.9,4.9,0,1,1-4.933,4.9A4.923,4.923,0,0,1,17.734,66.551ZM8,73.654a3.483,3.483,0,0,1,3.408,4.307,8.811,8.811,0,0,0-2.463,2.534A3.488,3.488,0,1,1,8,73.654ZM2.137,94.112V87.575a4.786,4.786,0,0,1,4.781-4.781h.99a8.716,8.716,0,0,0-.334,2.4v8.573a2.538,2.538,0,0,0,.03.39H2.18A.047.047,0,0,1,2.137,94.112Zm23.621-.346a.4.4,0,0,1-.39.39H10.1a.4.4,0,0,1-.39-.39V85.192a6.611,6.611,0,0,1,6.6-6.6h2.841a6.611,6.611,0,0,1,6.6,6.6Z" transform="translate(62.751 477.975)"/></g></svg>