<svg xmlns="http://www.w3.org/2000/svg" xmlns:xlink="http://www.w3.org/1999/xlink" width="216" height="106.576" viewBox="0 0 216 106.576"><defs><style>.a{fill:#f47b4e;}.b{fill:#fff;}.c{fill:url(#a);}.d{fill:#284654;}.e,.g,.h{fill:#587581;}.f{fill:url(#d);}.g{stroke:#152a33;stroke-width:4px;}.h{stroke:#6f92a1;stroke-width:1.5px;}.i{filter:url(#e);}.j{filter:url(#b);}</style><linearGradient id="a" x1="0.5" y1="0.238" x2="0.5" y2="0.795" gradientUnits="objectBoundingBox"><stop offset="0" stop-color="#6590a2"/><stop offset="0.649" stop-color="#1f3b48"/><stop offset="1" stop-color="#060c0f"/></linearGradient><filter id="b" x="0" y="48.905" width="216" height="57.671" filterUnits="userSpaceOnUse"><feOffset dy="3" input="SourceAlpha"/><feGaussianBlur stdDeviation="3" result="c"/><feFlood flood-opacity="0.161"/><feComposite operator="in" in2="c"/><feComposite in="SourceGraphic"/></filter><linearGradient id="d" x2="1" gradientUnits="objectBoundingBox"><stop offset="0" stop-color="#203e4b"/><stop offset="0.49" stop-color="#13262e"/><stop offset="1" stop-color="#203e4b"/></linearGradient><filter id="e" x="0" y="46.905" width="216" height="57.671" filterUnits="userSpaceOnUse"><feOffset dy="3" input="SourceAlpha"/><feGaussianBlur stdDeviation="3" result="f"/><feFlood flood-opacity="0.161"/><feComposite operator="in" in2="f"/><feComposite in="SourceGraphic"/></filter></defs><g transform="translate(-80 -85)"><circle class="a" cx="44.5" cy="44.5" r="44.5" transform="translate(143 85)"/><path class="b" d="M37,0A37,37,0,1,1,0,37,37,37,0,0,1,37,0Z" transform="translate(150.4 92.4)"/><path class="c" d="M36.09,0A36.09,36.09,0,1,1,0,36.09,36.09,36.09,0,0,1,36.09,0Z" transform="translate(151.3 93.3)"/><g transform="translate(0 -15)"><g transform="translate(167 117.578)"><g transform="translate(36.776 24.011)"><path class="d" d="M470.848,330.883l-1.92-1.9a.787.787,0,1,0-1.108,1.117l1.92,1.9a.787.787,0,0,0,1.108-1.117Z" transform="translate(-467.587 -328.751)"/></g><g transform="translate(34.817 22.061)"><path class="d" d="M444.019,304.182a.787.787,0,0,0-1.113,0h0a.787.787,0,1,0,1.114,0Z" transform="translate(-442.675 -303.951)"/></g><g transform="translate(0 0)"><path class="d" d="M29.454,49.381l7.631-7.631a2.962,2.962,0,0,0-1.43-4.983A2.965,2.965,0,0,0,33.47,32.6a2.959,2.959,0,0,0-2.309-3.848,2.966,2.966,0,0,0-4.231-3.536l-.076-.082a5.25,5.25,0,0,0-3.831-1.668H16.847a.787.787,0,0,0-.787.787V25.28a3.574,3.574,0,0,0,.2,1.193,2.965,2.965,0,0,0-3.951,3.669A2.964,2.964,0,0,0,10,33.991a2.964,2.964,0,0,0-2.183,4.169,2.965,2.965,0,0,0-1.43,4.985l1.569,1.569L.23,52.44a.787.787,0,1,0,1.112,1.113l7.8-7.8a2.963,2.963,0,0,0,4.425-2.7l.12,0a2.962,2.962,0,0,0,2.964-2.963c0-.04,0-.08,0-.12l.118,0a2.962,2.962,0,0,0,2.964-2.963c0-.04,0-.08,0-.12l.118,0a2.963,2.963,0,0,0,2.293-4.842l5.222-5.222A1.391,1.391,0,1,1,29.33,28.8l-.77.77-2.794,2.794a.787.787,0,1,0,1.112,1.113l2.794-2.794a1.391,1.391,0,1,1,1.967,1.967l-.77.77-2.024,2.024a.787.787,0,1,0,1.112,1.113l2.024-2.024A1.391,1.391,0,1,1,33.949,36.5l-1.057,1.057-.967.967a.787.787,0,1,0,1.112,1.113l.967-.967a1.391,1.391,0,0,1,1.967,1.968l-7.631,7.631a10.657,10.657,0,0,1-7.171,3.124.786.786,0,0,0-.529.231L13.591,58.7a.787.787,0,1,0,1.114,1.11l5.185-5.2a7.312,7.312,0,0,0,4.441,1.143l4.058,4.058A.787.787,0,1,0,29.5,58.694l-4.315-4.315a.787.787,0,0,0-.621-.228l-.249.02a5.742,5.742,0,0,1-3.283-.715l.506-.507A12.223,12.223,0,0,0,29.454,49.381ZM11.592,44.157a1.391,1.391,0,0,1-1.967,0L7.5,42.032a1.391,1.391,0,1,1,1.967-1.967l2.126,2.126A1.393,1.393,0,0,1,11.592,44.157Zm3.08-3.08a1.393,1.393,0,0,1-1.967,0l-2.126-2.126L9.522,37.9a1.391,1.391,0,1,1,1.967-1.967l3.182,3.182h0a1.391,1.391,0,0,1,0,1.967ZM17.752,38a1.393,1.393,0,0,1-1.967,0l-3.952-3.952A1.391,1.391,0,0,1,13.8,32.077l1.8,1.8,2.152,2.152h0a1.391,1.391,0,0,1,0,1.967Zm3.08-3.08a1.393,1.393,0,0,1-1.967,0l-3.952-3.952h0l-.769-.769a1.391,1.391,0,0,1,1.967-1.967l4.722,4.722a1.391,1.391,0,0,1,0,1.967Zm.207-3.985-2.161-2.161a3.6,3.6,0,0,0,.753.08h.017l2.159-.01a.787.787,0,0,0,0-1.573h0l-2.159.01h-.01a2,2,0,0,1-2-2v-.245h5.391A3.671,3.671,0,0,1,25.7,26.2l.032.034Z" transform="translate(0 -23.462)"/></g></g><g transform="translate(167 118.578)"><g transform="translate(36.776 24.011)"><path class="b" d="M470.848,330.883l-1.92-1.9a.787.787,0,1,0-1.108,1.117l1.92,1.9a.787.787,0,0,0,1.108-1.117Z" transform="translate(-467.587 -328.751)"/></g><g transform="translate(34.817 22.061)"><path class="b" d="M444.019,304.182a.787.787,0,0,0-1.113,0h0a.787.787,0,1,0,1.114,0Z" transform="translate(-442.675 -303.951)"/></g><g transform="translate(0 0)"><path class="b" d="M29.454,49.381l7.631-7.631a2.962,2.962,0,0,0-1.43-4.983A2.965,2.965,0,0,0,33.47,32.6a2.959,2.959,0,0,0-2.309-3.848,2.966,2.966,0,0,0-4.231-3.536l-.076-.082a5.25,5.25,0,0,0-3.831-1.668H16.847a.787.787,0,0,0-.787.787V25.28a3.574,3.574,0,0,0,.2,1.193,2.965,2.965,0,0,0-3.951,3.669A2.964,2.964,0,0,0,10,33.991a2.964,2.964,0,0,0-2.183,4.169,2.965,2.965,0,0,0-1.43,4.985l1.569,1.569L.23,52.44a.787.787,0,1,0,1.112,1.113l7.8-7.8a2.963,2.963,0,0,0,4.425-2.7l.12,0a2.962,2.962,0,0,0,2.964-2.963c0-.04,0-.08,0-.12l.118,0a2.962,2.962,0,0,0,2.964-2.963c0-.04,0-.08,0-.12l.118,0a2.963,2.963,0,0,0,2.293-4.842l5.222-5.222A1.391,1.391,0,1,1,29.33,28.8l-.77.77-2.794,2.794a.787.787,0,1,0,1.112,1.113l2.794-2.794a1.391,1.391,0,1,1,1.967,1.967l-.77.77-2.024,2.024a.787.787,0,1,0,1.112,1.113l2.024-2.024A1.391,1.391,0,1,1,33.949,36.5l-1.057,1.057-.967.967a.787.787,0,1,0,1.112,1.113l.967-.967a1.391,1.391,0,0,1,1.967,1.968l-7.631,7.631a10.657,10.657,0,0,1-7.171,3.124.786.786,0,0,0-.529.231L13.591,58.7a.787.787,0,1,0,1.114,1.11l5.185-5.2a7.312,7.312,0,0,0,4.441,1.143l4.058,4.058A.787.787,0,1,0,29.5,58.694l-4.315-4.315a.787.787,0,0,0-.621-.228l-.249.02a5.742,5.742,0,0,1-3.283-.715l.506-.507A12.223,12.223,0,0,0,29.454,49.381ZM11.592,44.157a1.391,1.391,0,0,1-1.967,0L7.5,42.032a1.391,1.391,0,1,1,1.967-1.967l2.126,2.126A1.393,1.393,0,0,1,11.592,44.157Zm3.08-3.08a1.393,1.393,0,0,1-1.967,0l-2.126-2.126L9.522,37.9a1.391,1.391,0,1,1,1.967-1.967l3.182,3.182h0a1.391,1.391,0,0,1,0,1.967ZM17.752,38a1.393,1.393,0,0,1-1.967,0l-3.952-3.952A1.391,1.391,0,0,1,13.8,32.077l1.8,1.8,2.152,2.152h0a1.391,1.391,0,0,1,0,1.967Zm3.08-3.08a1.393,1.393,0,0,1-1.967,0l-3.952-3.952h0l-.769-.769a1.391,1.391,0,0,1,1.967-1.967l4.722,4.722a1.391,1.391,0,0,1,0,1.967Zm.207-3.985-2.161-2.161a3.6,3.6,0,0,0,.753.08h.017l2.159-.01a.787.787,0,0,0,0-1.573h0l-2.159.01h-.01a2,2,0,0,1-2-2v-.245h5.391A3.671,3.671,0,0,1,25.7,26.2l.032.034Z" transform="translate(0 -23.462)"/></g></g></g><g class="j" transform="matrix(1, 0, 0, 1, 80, 85)"><path class="e" d="M306.795,345.544H114.756a3.255,3.255,0,0,1-2.981-3.483v-33.2c0-1.929,1.327-3.242,2.963-2.943a542.718,542.718,0,0,0,192.074,0c1.637-.3,2.963,1.014,2.963,2.943v33.2A3.255,3.255,0,0,1,306.795,345.544Z" transform="translate(-102.77 -250.97)"/></g><g class="i" transform="matrix(1, 0, 0, 1, 80, 85)"><path class="f" d="M306.795,345.544H114.756a3.255,3.255,0,0,1-2.981-3.483v-33.2c0-1.929,1.327-3.242,2.963-2.943a542.718,542.718,0,0,0,192.074,0c1.637-.3,2.963,1.014,2.963,2.943v33.2A3.255,3.255,0,0,1,306.795,345.544Z" transform="translate(-102.77 -252.97)"/></g><g transform="translate(100 146)"><path class="g" d="M142.01,350.249h-4.375q-1.377-4.206-2.751-8.543l-1.769-.087q0,4.315.008,8.631h-4.329V323.766q4.692.742,9.391,1.405c2.109.3,3.123,1.986,3.131,5.22q.008,3.2.016,6.408c.007,2.708-.7,4.182-2.172,4.576Q140.582,345.882,142.01,350.249Zm-5.41-13.81c.322.025.413-.112.412-.617q0-2.344-.009-4.688c0-.5-.092-.659-.414-.7q-1.744-.2-3.487-.4,0,3.061.006,6.122Q134.854,336.3,136.6,336.439Z" transform="translate(-128.793 -323.766)"/><path class="g" d="M147.838,326.518q5.646.738,11.3,1.36.011,2.558.022,5.116-3.5-.3-6.989-.632.006,1.85.013,3.7,2.77.21,5.542.405.011,2.542.02,5.085-2.772-.125-5.544-.262.008,2.122.015,4.244,3.5.1,7,.181l.021,5.116H147.909Q147.873,338.675,147.838,326.518Z" transform="translate(-132.828 -324.349)"/><path class="g" d="M165.1,328.559q5.658.6,11.325,1.083.011,2.409.023,4.819-3.5-.232-7-.5.008,1.94.018,3.881,2.773.163,5.548.311.011,2.393.023,4.785-2.775-.093-5.549-.2l.04,8.524H165.2Q165.145,339.911,165.1,328.559Z" transform="translate(-136.485 -324.782)"/><path class="g" d="M181.889,330.135q5.667.465,11.342.813.009,2.3.02,4.6-3.5-.168-7.007-.369.007,1.644.016,3.29,2.776.128,5.553.238.011,2.282.02,4.563-2.777-.071-5.552-.154.009,1.887.018,3.773,3.5.058,7,.106.011,2.3.02,4.6H181.991Q181.941,340.867,181.889,330.135Z" transform="translate(-140.043 -325.116)"/><path class="g" d="M212.507,351.854h-4.375q-1.381-3.356-2.764-6.752l-1.775-.028.026,6.78H199.29q-.043-10.257-.085-20.514,4.729.272,9.46.463c2.124.086,3.144,1.371,3.151,3.99q.007,2.591.015,5.183c.006,2.193-.705,3.406-2.179,3.758Q211.081,348.314,212.507,351.854Zm-5.425-10.979c.323.007.415-.106.413-.508l-.013-3.732c0-.4-.094-.52-.417-.531q-1.753-.059-3.506-.127.008,2.4.018,4.809Q205.329,340.833,207.081,340.875Z" transform="translate(-143.712 -325.371)"/><path class="g" d="M233.341,348.051q-2.373,0-4.746-.009-.424,2.019-.847,4.042h-4.421q2.409-9.875,4.833-19.656,2.863.041,5.727.054,2.464,9.811,4.911,19.6h-4.6Q233.769,350.068,233.341,348.051Zm-.878-4.2-1.5-7.1q-.747,3.541-1.493,7.085Z" transform="translate(-148.824 -325.601)"/><path class="g" d="M251.429,332.327q5.681-.092,11.36-.3-.006,2.226-.013,4.451-3.506.1-7.014.165,0,1.722-.007,3.444,2.779-.04,5.559-.1-.006,2.192-.012,4.383-2.778.037-5.555.062L255.729,352H251.4Q251.415,342.164,251.429,332.327Z" transform="translate(-154.772 -325.516)"/><path class="g" d="M281.415,351.853H277.04q-1.356-3.422-2.714-6.8l-1.774.03q-.012,3.382-.025,6.765H268.2q.032-10.024.065-20.046,4.732-.19,9.461-.46c2.122-.125,3.131,1.109,3.119,3.833q-.012,2.691-.024,5.38c-.01,2.278-.731,3.568-2.206,3.979Q280.015,348.167,281.415,351.853Zm-5.343-11.142c.323-.01.415-.129.417-.538q.008-1.9.016-3.8c0-.408-.09-.521-.413-.508q-1.752.074-3.505.14-.01,2.4-.018,4.8Q274.319,340.763,276.071,340.712Z" transform="translate(-158.331 -325.37)"/><path class="g" d="M287.427,330.82q2.167-.145,4.334-.308-.051,10.583-.1,21.166h-4.329Q287.379,341.249,287.427,330.82Z" transform="translate(-162.386 -325.195)"/><path class="g" d="M296.49,329.96q5.667-.454,11.328-1.024-.011,2.5-.023,4.993-3.5.274-7,.513-.008,1.693-.017,3.387,2.776-.151,5.549-.321-.012,2.449-.023,4.9-2.775.11-5.549.207-.009,1.942-.018,3.884,3.5-.069,7-.147-.011,2.5-.023,4.994H296.388Q296.439,340.652,296.49,329.96Z" transform="translate(-164.304 -324.861)"/><path class="g" d="M313.783,328.2q2.15-.226,4.3-.467,2.607,5.845,5.217,11.993.022-6.306.044-12.611,2.09-.257,4.179-.527-.035,12.129-.072,24.257h-3.845q-2.843-6.809-5.679-13.232-.027,6.615-.054,13.232h-4.19Q313.733,339.524,313.783,328.2Z" transform="translate(-167.969 -324.364)"/><path class="g" d="M334.778,325.739q4.771-.644,9.535-1.371c2.106-.329,3.112,1.173,3.113,4.661v16.193c0,3.487-1.014,5.152-3.131,5.146h-9.579Q334.747,338.052,334.778,325.739Zm7.91,18.887c.322-.01.414-.161.415-.677q.006-6.491.013-12.983c0-.516-.091-.653-.412-.616q-1.811.21-3.625.411-.012,6.991-.024,13.983Z" transform="translate(-172.426 -323.884)"/></g><g transform="translate(0 -14)"><g transform="translate(100 160)"><path class="h" d="M142.01,350.249h-4.375q-1.377-4.206-2.751-8.543l-1.769-.087q0,4.315.008,8.631h-4.329V323.766q4.692.742,9.391,1.405c2.109.3,3.123,1.986,3.131,5.22q.008,3.2.016,6.408c.007,2.708-.7,4.182-2.172,4.576Q140.582,345.882,142.01,350.249Zm-5.41-13.81c.322.025.413-.112.412-.617q0-2.344-.009-4.688c0-.5-.092-.659-.414-.7q-1.744-.2-3.487-.4,0,3.061.006,6.122Q134.854,336.3,136.6,336.439Z" transform="translate(-128.793 -323.766)"/><path class="h" d="M147.838,326.518q5.646.738,11.3,1.36.011,2.558.022,5.116-3.5-.3-6.989-.632.006,1.85.013,3.7,2.77.21,5.542.405.011,2.542.02,5.085-2.772-.125-5.544-.262.008,2.122.015,4.244,3.5.1,7,.181l.021,5.116H147.909Q147.873,338.675,147.838,326.518Z" transform="translate(-132.828 -324.349)"/><path class="h" d="M165.1,328.559q5.658.6,11.325,1.083.011,2.409.023,4.819-3.5-.232-7-.5.008,1.94.018,3.881,2.773.163,5.548.311.011,2.393.023,4.785-2.775-.093-5.549-.2l.04,8.524H165.2Q165.145,339.911,165.1,328.559Z" transform="translate(-136.485 -324.782)"/><path class="h" d="M181.889,330.135q5.667.465,11.342.813.009,2.3.02,4.6-3.5-.168-7.007-.369.007,1.644.016,3.29,2.776.128,5.553.238.011,2.282.02,4.563-2.777-.071-5.552-.154.009,1.887.018,3.773,3.5.058,7,.106.011,2.3.02,4.6H181.991Q181.941,340.867,181.889,330.135Z" transform="translate(-140.043 -325.116)"/><path class="h" d="M212.507,351.854h-4.375q-1.381-3.356-2.764-6.752l-1.775-.028.026,6.78H199.29q-.043-10.257-.085-20.514,4.729.272,9.46.463c2.124.086,3.144,1.371,3.151,3.99q.007,2.591.015,5.183c.006,2.193-.705,3.406-2.179,3.758Q211.081,348.314,212.507,351.854Zm-5.425-10.979c.323.007.415-.106.413-.508l-.013-3.732c0-.4-.094-.52-.417-.531q-1.753-.059-3.506-.127.008,2.4.018,4.809Q205.329,340.833,207.081,340.875Z" transform="translate(-143.712 -325.371)"/><path class="h" d="M233.341,348.051q-2.373,0-4.746-.009-.424,2.019-.847,4.042h-4.421q2.409-9.875,4.833-19.656,2.863.041,5.727.054,2.464,9.811,4.911,19.6h-4.6Q233.769,350.068,233.341,348.051Zm-.878-4.2-1.5-7.1q-.747,3.541-1.493,7.085Z" transform="translate(-148.824 -325.601)"/><path class="h" d="M251.429,332.327q5.681-.092,11.36-.3-.006,2.226-.013,4.451-3.506.1-7.014.165,0,1.722-.007,3.444,2.779-.04,5.559-.1-.006,2.192-.012,4.383-2.778.037-5.555.062L255.729,352H251.4Q251.415,342.164,251.429,332.327Z" transform="translate(-154.772 -325.516)"/><path class="h" d="M281.415,351.853H277.04q-1.356-3.422-2.714-6.8l-1.774.03q-.012,3.382-.025,6.765H268.2q.032-10.024.065-20.046,4.732-.19,9.461-.46c2.122-.125,3.131,1.109,3.119,3.833q-.012,2.691-.024,5.38c-.01,2.278-.731,3.568-2.206,3.979Q280.015,348.167,281.415,351.853Zm-5.343-11.142c.323-.01.415-.129.417-.538q.008-1.9.016-3.8c0-.408-.09-.521-.413-.508q-1.752.074-3.505.14-.01,2.4-.018,4.8Q274.319,340.763,276.071,340.712Z" transform="translate(-158.331 -325.37)"/><path class="h" d="M287.427,330.82q2.167-.145,4.334-.308-.051,10.583-.1,21.166h-4.329Q287.379,341.249,287.427,330.82Z" transform="translate(-162.386 -325.195)"/><path class="h" d="M296.49,329.96q5.667-.454,11.328-1.024-.011,2.5-.023,4.993-3.5.274-7,.513-.008,1.693-.017,3.387,2.776-.151,5.549-.321-.012,2.449-.023,4.9-2.775.11-5.549.207-.009,1.942-.018,3.884,3.5-.069,7-.147-.011,2.5-.023,4.994H296.388Q296.439,340.652,296.49,329.96Z" transform="translate(-164.304 -324.861)"/><path class="h" d="M313.783,328.2q2.15-.226,4.3-.467,2.607,5.845,5.217,11.993.022-6.306.044-12.611,2.09-.257,4.179-.527-.035,12.129-.072,24.257h-3.845q-2.843-6.809-5.679-13.232-.027,6.615-.054,13.232h-4.19Q313.733,339.524,313.783,328.2Z" transform="translate(-167.969 -324.364)"/><path class="h" d="M334.778,325.739q4.771-.644,9.535-1.371c2.106-.329,3.112,1.173,3.113,4.661v16.193c0,3.487-1.014,5.152-3.131,5.146h-9.579Q334.747,338.052,334.778,325.739Zm7.91,18.887c.322-.01.414-.161.415-.677q.006-6.491.013-12.983c0-.516-.091-.653-.412-.616q-1.811.21-3.625.411-.012,6.991-.024,13.983Z" transform="translate(-172.426 -323.884)"/></g><g transform="translate(100 159.685)"><path class="b" d="M142.01,350.249h-4.375q-1.377-4.206-2.751-8.543l-1.769-.087q0,4.315.008,8.631h-4.329V323.766q4.692.742,9.391,1.405c2.109.3,3.123,1.986,3.131,5.22q.008,3.2.016,6.408c.007,2.708-.7,4.182-2.172,4.576Q140.582,345.882,142.01,350.249Zm-5.41-13.81c.322.025.413-.112.412-.617q0-2.344-.009-4.688c0-.5-.092-.659-.414-.7q-1.744-.2-3.487-.4,0,3.061.006,6.122Q134.854,336.3,136.6,336.439Z" transform="translate(-128.793 -323.766)"/><path class="b" d="M147.838,326.518q5.646.738,11.3,1.36.011,2.558.022,5.116-3.5-.3-6.989-.632.006,1.85.013,3.7,2.77.21,5.542.405.011,2.542.02,5.085-2.772-.125-5.544-.262.008,2.122.015,4.244,3.5.1,7,.181l.021,5.116H147.909Q147.873,338.675,147.838,326.518Z" transform="translate(-132.828 -324.349)"/><path class="b" d="M165.1,328.559q5.658.6,11.325,1.083.011,2.409.023,4.819-3.5-.232-7-.5.008,1.94.018,3.881,2.773.163,5.548.311.011,2.393.023,4.785-2.775-.093-5.549-.2l.04,8.524H165.2Q165.145,339.911,165.1,328.559Z" transform="translate(-136.485 -324.782)"/><path class="b" d="M181.889,330.135q5.667.465,11.342.813.009,2.3.02,4.6-3.5-.168-7.007-.369.007,1.644.016,3.29,2.776.128,5.553.238.011,2.282.02,4.563-2.777-.071-5.552-.154.009,1.887.018,3.773,3.5.058,7,.106.011,2.3.02,4.6H181.991Q181.941,340.867,181.889,330.135Z" transform="translate(-140.043 -325.116)"/><path class="b" d="M212.507,351.854h-4.375q-1.381-3.356-2.764-6.752l-1.775-.028.026,6.78H199.29q-.043-10.257-.085-20.514,4.729.272,9.46.463c2.124.086,3.144,1.371,3.151,3.99q.007,2.591.015,5.183c.006,2.193-.705,3.406-2.179,3.758Q211.081,348.314,212.507,351.854Zm-5.425-10.979c.323.007.415-.106.413-.508l-.013-3.732c0-.4-.094-.52-.417-.531q-1.753-.059-3.506-.127.008,2.4.018,4.809Q205.329,340.833,207.081,340.875Z" transform="translate(-143.712 -325.371)"/><path class="b" d="M233.341,348.051q-2.373,0-4.746-.009-.424,2.019-.847,4.042h-4.421q2.409-9.875,4.833-19.656,2.863.041,5.727.054,2.464,9.811,4.911,19.6h-4.6Q233.769,350.068,233.341,348.051Zm-.878-4.2-1.5-7.1q-.747,3.541-1.493,7.085Z" transform="translate(-148.824 -325.601)"/><path class="b" d="M251.429,332.327q5.681-.092,11.36-.3-.006,2.226-.013,4.451-3.506.1-7.014.165,0,1.722-.007,3.444,2.779-.04,5.559-.1-.006,2.192-.012,4.383-2.778.037-5.555.062L255.729,352H251.4Q251.415,342.164,251.429,332.327Z" transform="translate(-154.772 -325.516)"/><path class="b" d="M281.415,351.853H277.04q-1.356-3.422-2.714-6.8l-1.774.03q-.012,3.382-.025,6.765H268.2q.032-10.024.065-20.046,4.732-.19,9.461-.46c2.122-.125,3.131,1.109,3.119,3.833q-.012,2.691-.024,5.38c-.01,2.278-.731,3.568-2.206,3.979Q280.015,348.167,281.415,351.853Zm-5.343-11.142c.323-.01.415-.129.417-.538q.008-1.9.016-3.8c0-.408-.09-.521-.413-.508q-1.752.074-3.505.14-.01,2.4-.018,4.8Q274.319,340.763,276.071,340.712Z" transform="translate(-158.331 -325.37)"/><path class="b" d="M287.427,330.82q2.167-.145,4.334-.308-.051,10.583-.1,21.166h-4.329Q287.379,341.249,287.427,330.82Z" transform="translate(-162.386 -325.195)"/><path class="b" d="M296.49,329.96q5.667-.454,11.328-1.024-.011,2.5-.023,4.993-3.5.274-7,.513-.008,1.693-.017,3.387,2.776-.151,5.549-.321-.012,2.449-.023,4.9-2.775.11-5.549.207-.009,1.942-.018,3.884,3.5-.069,7-.147-.011,2.5-.023,4.994H296.388Q296.439,340.652,296.49,329.96Z" transform="translate(-164.304 -324.861)"/><path class="b" d="M313.783,328.2q2.15-.226,4.3-.467,2.607,5.845,5.217,11.993.022-6.306.044-12.611,2.09-.257,4.179-.527-.035,12.129-.072,24.257h-3.845q-2.843-6.809-5.679-13.232-.027,6.615-.054,13.232h-4.19Q313.733,339.524,313.783,328.2Z" transform="translate(-167.969 -324.364)"/><path class="b" d="M334.778,325.739q4.771-.644,9.535-1.371c2.106-.329,3.112,1.173,3.113,4.661v16.193c0,3.487-1.014,5.152-3.131,5.146h-9.579Q334.747,338.052,334.778,325.739Zm7.91,18.887c.322-.01.414-.161.415-.677q.006-6.491.013-12.983c0-.516-.091-.653-.412-.616q-1.811.21-3.625.411-.012,6.991-.024,13.983Z" transform="translate(-172.426 -323.884)"/></g></g></g></svg>