<svg xmlns="http://www.w3.org/2000/svg" width="36" height="32.337" viewBox="0 0 36 32.337"><defs><style>.a,.d{fill:#fff;}.a{opacity:0.25;}.b{fill:#587581;stroke:#203e4b;}.c{fill:#bcc8cc;}.e{stroke:none;}.f{fill:none;}</style></defs><g transform="translate(-147 -304)"><path class="a" d="M38.291,22.34a1.828,1.828,0,0,1,.018-.233,1.189,1.189,0,0,0,.012-.137c0-.149.008-.295.016-.435s.015-.269.015-.4a7.276,7.276,0,0,0-.028-.79l0-.043a1.161,1.161,0,0,0-.012-.135,1.844,1.844,0,0,1-.019-.235c0-.057-.007-.124-.013-.19s-.015-.154-.017-.237-.022-.157-.029-.226-.014-.137-.025-.2l-.007-.064a.9.9,0,0,0-.012-.126,1.6,1.6,0,0,1-.019-.193l-.092-.576a.288.288,0,0,0-.008-.057,1.047,1.047,0,0,1-.022-.164c-.013-.069-.032-.152-.05-.232-.026-.111-.051-.221-.068-.325l0-.044,0-.019a.846.846,0,0,1-.023-.12c-.028-.1-.049-.193-.07-.282s-.045-.2-.073-.295l-.006-.026-.005-.035a.639.639,0,0,1-.031-.13,3.155,3.155,0,0,0-.179-.513l-.041-.081v-.044a.645.645,0,0,1-.024-.091,3.3,3.3,0,0,0-.213-.524l0-.008-.067-.068v-.11l-.261-.617a.519.519,0,0,1-.032-.085c-.039-.087-.084-.178-.128-.265-.057-.114-.114-.229-.165-.347l-.014-.042a.54.54,0,0,1-.024-.059c-.043-.077-.082-.154-.118-.223A3.42,3.42,0,0,0,36.259,13L36.2,12.9v-.023c-.084-.146-.169-.277-.266-.423h-.059l-.089-.192c-.03-.046-.061-.094-.092-.142-.069-.108-.138-.216-.211-.313h-.071l-.089-.19c-.095-.139-.216-.288-.331-.426h-.045l-.1-.156c-.11-.132-.242-.29-.355-.43h-.043l-.1-.156c-.066-.078-.134-.153-.2-.226s-.156-.172-.235-.266L33.9,9.943a1.808,1.808,0,0,1-.21-.24,16.173,16.173,0,0,0-22.828.024.981.981,0,0,0-.137.157l-.04.049-.036.037c-.146.146-.3.327-.442.5l0,0a.441.441,0,0,1-.11.118l-.1.119a3.106,3.106,0,0,0-.254.314l-.024.032a.445.445,0,0,1-.108.118c-.055.069-.107.139-.158.207-.069.092-.139.185-.219.282a.536.536,0,0,1-.064.1c-.042.063-.09.128-.136.191A3.846,3.846,0,0,0,8.8,12.3l-.012.019-.023.031a.472.472,0,0,1-.084.1c-.045.069-.09.143-.134.214s-.105.171-.159.254a.5.5,0,0,1-.067.119l-.087.147a3.825,3.825,0,0,0-.2.367c0,.016-.01.031-.015.045v.033l-.051.089a5.534,5.534,0,0,0-.273.571.516.516,0,0,1-.032.086l-.015.044L7.4,15a.47.47,0,0,1-.076.2c-.036.087-.068.171-.1.252-.039.1-.08.207-.129.322l-.013.024-.042.07-.024.024c-.03.106-.061.2-.091.3s-.054.176-.081.267a.638.638,0,0,1-.03.128l-.016.079a3.185,3.185,0,0,0-.138.549l0,.023-.022.075c0,.009,0,.02,0,.032l0,.055c-.017.1-.039.2-.06.285s-.048.2-.062.3l-.014.059a.331.331,0,0,0-.013.133l0,.056c-.031.186-.063.382-.1.543l0,.009a.915.915,0,0,0-.021.255l-.006.065c-.013.068-.02.137-.027.2s-.015.151-.03.234-.009.154-.016.228-.014.136-.014.194a1.858,1.858,0,0,1-.018.233,1.228,1.228,0,0,0-.012.137c0,.149-.008.3-.016.437s-.015.266-.015.395a7.252,7.252,0,0,0,.029.79l0,.037a1.2,1.2,0,0,0,.013.142,1.846,1.846,0,0,1,.018.233c0,.057.007.125.013.191s.015.153.017.236.022.158.029.228.014.136.025.194l.007.064a.92.92,0,0,0,.012.126,1.605,1.605,0,0,1,.019.193l0,.026c.027.157.054.32.081.454l.007.063a.3.3,0,0,0,.009.06,1.029,1.029,0,0,1,.022.164c.011.058.027.124.044.194.025.1.05.207.069.323a.722.722,0,0,1,.042.235c.022.081.04.156.058.23.025.1.048.2.077.288l.006.022.014.068a.611.611,0,0,1,.027.117c.027.091.053.177.08.264.033.106.064.207.095.316l.008.039a.76.76,0,0,1,.03.11,3.491,3.491,0,0,0,.156.392l.061.139.068.068v.112l.26.616a.51.51,0,0,1,.032.085c.054.121.12.246.183.366.036.068.07.133.1.194l.041.082v.021l.006.018c.053.094.1.182.148.271s.1.177.148.27a.554.554,0,0,1,.051.081l.027.04c.115.2.235.382.342.542a.518.518,0,0,1,.062.095l.039.058c.109.163.222.331.356.52a.527.527,0,0,1,.067.1l.005.007a6.565,6.565,0,0,0,.407.524.524.524,0,0,1,.079.114c.055.067.106.131.155.195.071.091.133.172.2.243H10.1l.1.155c.067.08.137.156.2.23s.153.168.232.262l.233.233a16.136,16.136,0,0,0,22.822,0l.247-.247c.141-.141.292-.321.437-.5l0,0a.444.444,0,0,1,.1-.113l.018-.02h0l.094-.108a3.1,3.1,0,0,0,.254-.313l.013-.018a.537.537,0,0,1,.082-.118c.067-.081.134-.17.193-.249s.141-.188.22-.284a.547.547,0,0,1,.064-.1c.041-.061.086-.123.133-.189a3.847,3.847,0,0,0,.235-.349l.027-.04a.533.533,0,0,1,.066-.1c.05-.077.1-.166.157-.251s.106-.173.161-.258v-.032l.05-.089c.035-.061.069-.119.1-.176a3.882,3.882,0,0,0,.2-.368.514.514,0,0,1,.032-.085l.014-.042c.069-.161.148-.311.225-.457l.073-.14a.522.522,0,0,1,.027-.068l.015-.044.25-.583a.471.471,0,0,1,.076-.2c.037-.089.07-.175.1-.252s.069-.179.111-.28c.007-.03.016-.055.022-.075l.01-.045a5.237,5.237,0,0,1,.21-.609.686.686,0,0,1,.026-.1h0l.01-.061c.011-.04.023-.08.034-.119a3.215,3.215,0,0,0,.109-.447l0-.023.022-.075c0-.009,0-.02,0-.033l0-.055c.017-.1.04-.2.061-.286s.048-.2.062-.3l.014-.058a.333.333,0,0,0,.013-.134l.006-.064c.031-.184.062-.374.094-.536l0-.008a.916.916,0,0,0,.021-.255L38.2,23.2c.013-.069.02-.138.027-.2s.015-.151.03-.234.009-.155.016-.229S38.291,22.4,38.291,22.34ZM11.062,31.062l-.373-.379-.569-.759c-.024-.035-.047-.065-.074-.1s-.069-.086-.107-.142a6.852,6.852,0,0,1-.515-.806c-.018-.035-.035-.062-.051-.09-.028-.046-.054-.089-.075-.131l-.359-.629a1.637,1.637,0,0,1-.092-.166.925.925,0,0,0-.054-.1l-.028-.051-.016-.035c-.116-.26-.236-.528-.35-.757L8.39,26.9c-.037-.091-.069-.179-.1-.268s-.06-.164-.088-.235l-.011-.034a.5.5,0,0,1-.038-.11c-.053-.158-.118-.354-.18-.572v0a.5.5,0,0,1-.035-.1,3.549,3.549,0,0,1-.156-.6.591.591,0,0,1-.034-.128,4.129,4.129,0,0,1-.123-.568v0a.619.619,0,0,1-.033-.144L7.5,23.584a.618.618,0,0,1-.033-.16A3.588,3.588,0,0,1,7.4,22.85l0-.016a.8.8,0,0,1-.026-.152,3.733,3.733,0,0,1-.032-.589v-.185c0-.112-.007-.231-.015-.346s-.016-.259-.016-.394l0-.038a6.492,6.492,0,0,0,.029-.733v-.185c0-.109.008-.211.017-.309.007-.083.014-.169.014-.246a.8.8,0,0,1,.042-.29c.009-.065.015-.135.021-.2.008-.093.016-.187.031-.287a.6.6,0,0,1,.032-.154l0-.017.09-.544a.6.6,0,0,1,.033-.137l0-.006c.017-.1.037-.185.058-.274s.046-.191.061-.287a.466.466,0,0,1,.034-.135l.015-.069c.025-.076.047-.168.067-.258s.045-.2.076-.3a.491.491,0,0,1,.037-.108l0-.017c.057-.172.116-.348.173-.544a.484.484,0,0,1,.04-.12l.011-.035c.029-.072.058-.152.087-.231s.066-.181.1-.262l.37-.832a1.56,1.56,0,0,1,.185-.338c.116-.2.236-.414.353-.647.022-.044.051-.092.076-.134l0-.007c.017-.028.033-.054.043-.075l.016-.028c.08-.128.166-.261.252-.394l.006-.009c.082-.127.163-.252.237-.371.046-.07.086-.12.118-.16s.051-.064.073-.1l.008-.012.59-.782.331-.334.272.321a11.8,11.8,0,0,1,.924,1.274l.218.338-1.088.634a.609.609,0,1,0,.611,1.053l1.082-.631.184.367c.164.327.322.677.445.985l.431,1.148-1.247.323a.6.6,0,1,0,.308,1.163l1.215-.315.083.395a17.6,17.6,0,0,1,.253,1.859l.042.424H13.521a.6.6,0,0,0,0,1.2h1.237l-.02.4a12.138,12.138,0,0,1-.254,1.879l-.083.395-1.223-.317a.609.609,0,0,0-.736.445.533.533,0,0,0,.06.431.672.672,0,0,0,.388.293l1.235.32L13.7,26.7a9.287,9.287,0,0,1-.448.993l-.184.367-1.095-.639a.581.581,0,0,0-.454-.065.6.6,0,0,0-.373.291.582.582,0,0,0-.068.459.6.6,0,0,0,.29.372l1.093.637-.218.339c-.286.445-.6.858-.912,1.258ZM32.339,32.18a14.953,14.953,0,0,1-20.125,0l-.282-.256.252-.285a16.76,16.76,0,0,0,1.235-1.627l.2-.294,1.111.641a.584.584,0,0,0,.456.065.6.6,0,0,0,.372-.291.582.582,0,0,0,.068-.459.6.6,0,0,0-.29-.372l-1.148-.595.154-.334c.063-.136.129-.272.2-.408.124-.255.253-.519.35-.771.094-.235.226-.584.33-.928l.108-.361,1.257.347a.532.532,0,0,0,.437-.058.671.671,0,0,0,.293-.388.536.536,0,0,0-.061-.431.667.667,0,0,0-.387-.293l-1.2-.343.07-.348a18.889,18.889,0,0,0,.3-2.3l.028-.356h1.282a.6.6,0,1,0,0-1.2H16.062l-.028-.356a18.909,18.909,0,0,0-.3-2.3l-.07-.352,1.24-.342a.6.6,0,1,0-.3-1.165l-1.212.335-.128-.32c-.123-.308-.249-.623-.374-.967a10.079,10.079,0,0,0-.532-1.151l-.177-.33,1.125-.649a.609.609,0,1,0-.613-1.052l-1.11.641-.2-.313A12.654,12.654,0,0,0,12.153,10.6l-.25-.283.279-.256A14.846,14.846,0,0,1,22.245,6.171,15.069,15.069,0,0,1,32.339,10.1l.278.256-.25.283a16.751,16.751,0,0,0-1.235,1.627l-.205.3-1.082-.649a.551.551,0,0,0-.435-.054.57.57,0,0,0-.353.275l-.006.011a.556.556,0,0,0-.057.441.57.57,0,0,0,.275.352l1.117.644-.148.32c-.063.136-.129.272-.2.408-.124.255-.252.518-.35.771-.094.235-.226.585-.33.928l-.108.361L28,16.022a.542.542,0,0,0-.437.06.665.665,0,0,0-.294.386.536.536,0,0,0,.061.431.667.667,0,0,0,.387.293l1.234.34-.071.352a18.937,18.937,0,0,0-.3,2.3l-.027.356H27.27a.6.6,0,1,0,0,1.2h1.282l.027.356a18.935,18.935,0,0,0,.3,2.3l.071.352-1.24.342a.6.6,0,1,0,.3,1.165l1.223-.338.121.335c.05.136.094.268.138.4.066.193.126.372.2.547a8.05,8.05,0,0,0,.53,1.151l.2.34-1.176.654a.588.588,0,1,0,.587,1.019l1.111-.641.2.313a12.638,12.638,0,0,0,1.227,1.615l.25.284Zm4.78-10.218v.162c0,.109-.008.21-.017.308s-.014.17-.014.246a.8.8,0,0,1-.042.29c-.009.066-.015.136-.021.2-.008.093-.016.187-.031.286a.6.6,0,0,1-.032.153l0,.017-.09.544a.6.6,0,0,1-.033.138l0,.006c-.019.113-.043.209-.066.3s-.04.162-.053.234a.467.467,0,0,1-.033.128l0,.039-.01.031c-.025.076-.046.167-.067.256s-.045.2-.077.3a.493.493,0,0,1-.036.108l0,.017c-.03.09-.06.188-.09.286s-.057.186-.085.269a.5.5,0,0,1-.038.11l-.011.035c-.029.073-.059.154-.088.235s-.065.179-.1.258c-.126.285-.254.574-.383.831l-.021.036a.934.934,0,0,0-.055.1,1.674,1.674,0,0,1-.1.172l-.359.628c-.02.04-.046.082-.07.123l-.006.009c-.016.027-.032.052-.042.072l-.016.029c-.08.128-.166.261-.252.394l-.011.017c-.08.124-.16.247-.233.363l-.005.008c-.041.061-.08.111-.112.15s-.052.065-.073.1l-.008.012-.59.781-.33.334-.272-.321a11.834,11.834,0,0,1-.924-1.274L32,29.146l1.087-.634a.641.641,0,0,0,.228-.835.612.612,0,0,0-.808-.219l-1.082.631-.184-.367c-.164-.328-.322-.677-.445-.985l-.431-1.148,1.247-.323A.6.6,0,1,0,31.3,24.1l-1.215.315-.083-.4a17.563,17.563,0,0,1-.253-1.859l-.043-.424h1.259a.6.6,0,0,0,0-1.2H29.732l.02-.4a12.156,12.156,0,0,1,.254-1.879l.083-.4,1.223.317a.537.537,0,0,0,.443-.057.672.672,0,0,0,.293-.388.536.536,0,0,0-.061-.431.667.667,0,0,0-.387-.293l-1.235-.32.428-1.141a9.337,9.337,0,0,1,.447-.991l.184-.369,1.1.639a.554.554,0,0,0,.439.056.569.569,0,0,0,.352-.275l.006-.011a.556.556,0,0,0,.057-.441A.57.57,0,0,0,33.1,13.8L32,13.161l.217-.338c.287-.446.605-.86.913-1.26l.268-.348.373.379.57.76c.023.034.045.062.074.1s.069.086.107.142a6.873,6.873,0,0,1,.515.806.325.325,0,0,0,.024.039.982.982,0,0,1,.114.2c.114.2.235.411.354.647a1.649,1.649,0,0,1,.086.156.917.917,0,0,0,.053.1l.028.051.373.838c.037.092.069.179.1.266s.061.167.09.241l.011.034a.49.49,0,0,1,.038.11c.052.157.117.352.18.571v0a.492.492,0,0,1,.035.1,3.569,3.569,0,0,1,.156.6.589.589,0,0,1,.034.128,3.754,3.754,0,0,1,.123.6h0a.625.625,0,0,1,.034.145l.091.553a.611.611,0,0,1,.033.16,3.592,3.592,0,0,1,.063.574l0,.015a.793.793,0,0,1,.026.153,3.723,3.723,0,0,1,.032.589v.185c0,.114.008.237.015.346.008.127.016.258.016.394A6.446,6.446,0,0,1,37.119,21.962Z" transform="translate(142.8 299)"/><g class="b" transform="translate(147 308)"><rect class="e" width="36" height="24"/><rect class="f" x="0.5" y="0.5" width="35" height="23"/></g><path class="c" d="M12.135,11.981H10.764L10.5,13H9.435L10.99,8.023h.919L13.475,13H12.4Zm-1.152-.837h.93L11.448,9.37Zm3.961.106V13h-1V8.023h1.7a1.555,1.555,0,0,1,1.177.458,1.647,1.647,0,0,1,.439,1.189,1.54,1.54,0,0,1-.434,1.155,1.649,1.649,0,0,1-1.2.424Zm0-.837h.69a.547.547,0,0,0,.444-.188.832.832,0,0,0,.157-.547.986.986,0,0,0-.161-.593.515.515,0,0,0-.431-.224h-.7Zm4.484.769h-.5V13h-1V8.023h1.6a1.628,1.628,0,0,1,1.167.391,1.462,1.462,0,0,1,.412,1.113,1.448,1.448,0,0,1-.721,1.388l.872,2.037V13h-1.08Zm-.5-.837H19.5a.529.529,0,0,0,.451-.2.869.869,0,0,0,.15-.535q0-.749-.584-.749H18.93ZM22.847,13h-1V8.023h1Zm1.849-.834h1.764V13H23.691V8.023h1ZM14.175,19H11.243v-.684L12.589,16.6a3.751,3.751,0,0,0,.378-.624,1.248,1.248,0,0,0,.121-.514,1,1,0,0,0-.115-.52.365.365,0,0,0-.33-.188.424.424,0,0,0-.374.219,1.15,1.15,0,0,0-.138.615h-.971a1.846,1.846,0,0,1,.19-.837,1.417,1.417,0,0,1,.533-.59,1.46,1.46,0,0,1,.778-.21,1.4,1.4,0,0,1,1.034.367,1.412,1.412,0,0,1,.367,1.044,1.993,1.993,0,0,1-.2.853,5.243,5.243,0,0,1-.737,1.065l-.639.913h1.692Zm3.5-2.058a2.788,2.788,0,0,1-.374,1.579,1.321,1.321,0,0,1-2.129.015,2.692,2.692,0,0,1-.388-1.523v-.94a2.782,2.782,0,0,1,.373-1.574A1.326,1.326,0,0,1,17.3,14.5a2.732,2.732,0,0,1,.379,1.542ZM16.7,15.934a2.533,2.533,0,0,0-.116-.882.387.387,0,0,0-.362-.294q-.461,0-.479,1.077v1.241a2.551,2.551,0,0,0,.118.9.392.392,0,0,0,.367.294.375.375,0,0,0,.35-.275,2.4,2.4,0,0,0,.121-.843ZM21.257,19H18.325v-.684L19.671,16.6a3.751,3.751,0,0,0,.378-.624,1.248,1.248,0,0,0,.121-.514,1,1,0,0,0-.115-.52.365.365,0,0,0-.33-.188.424.424,0,0,0-.374.219,1.15,1.15,0,0,0-.138.615h-.971a1.846,1.846,0,0,1,.19-.837,1.417,1.417,0,0,1,.533-.59,1.46,1.46,0,0,1,.778-.21,1.4,1.4,0,0,1,1.034.367,1.412,1.412,0,0,1,.367,1.044,1.993,1.993,0,0,1-.2.853,5.243,5.243,0,0,1-.737,1.065l-.639.913h1.692Zm3.5-2.058a2.788,2.788,0,0,1-.374,1.579,1.321,1.321,0,0,1-2.129.015,2.692,2.692,0,0,1-.388-1.523v-.94a2.782,2.782,0,0,1,.373-1.574,1.326,1.326,0,0,1,2.14-.005,2.732,2.732,0,0,1,.379,1.542Zm-.971-1.008a2.533,2.533,0,0,0-.116-.882.387.387,0,0,0-.362-.294q-.461,0-.479,1.077v1.241a2.551,2.551,0,0,0,.118.9.392.392,0,0,0,.367.294.375.375,0,0,0,.35-.275,2.4,2.4,0,0,0,.121-.843Z" transform="translate(147 309)"/><path class="d" d="M13.42,2.023l.94,3.6.937-3.6h1.313V7H15.6V5.653l.092-2.075L14.7,7h-.684L13.02,3.579l.092,2.075V7h-1V2.023Zm5,4.143h1.764V7H17.416V2.023h1ZM20.765,7V2.023H22.3a1.774,1.774,0,0,1,1.184.347,1.265,1.265,0,0,1,.405,1.017,1.226,1.226,0,0,1-.167.653.989.989,0,0,1-.458.4.87.87,0,0,1,.516.385,1.316,1.316,0,0,1,.181.713,1.419,1.419,0,0,1-.4,1.094A1.637,1.637,0,0,1,22.413,7Zm1-2.164v1.33h.643A.5.5,0,0,0,22.823,6a.721.721,0,0,0,.14-.475q0-.67-.485-.687Zm0-.731h.523a.532.532,0,0,0,.591-.612.7.7,0,0,0-.137-.485.583.583,0,0,0-.444-.147H21.77Z" transform="translate(147 309)"/></g></svg>