<svg xmlns="http://www.w3.org/2000/svg" width="20" height="20" viewBox="0 0 20 20"><defs><style>.a,.d{fill:none;}.a{stroke:#587581;}.b{fill:#587581;stroke:#fff;stroke-width:0.5px;}.c{stroke:none;}</style></defs><g transform="translate(-203 -604)"><g class="a" transform="translate(203 604)"><circle class="c" cx="10" cy="10" r="10"/><circle class="d" cx="10" cy="10" r="9.5"/></g><path class="b" d="M4.352,12.243H6.527v-.68c0-.2.181-.317.514-.514l.6-.363c1.1-.665,2.145-1.178,2.145-2.145V7.015A1.85,1.85,0,0,0,7.675,4.9H4.17A1.85,1.85,0,0,0,2.055,7.015V8.224H4.231V7.2c0-.227.076-.3.3-.3h2.78c.227,0,.3.076.3.3v.861c0,.181-.166.3-.514.514l-.574.363C5.5,9.584,4.352,10.2,4.352,11.11Zm0,3.233H6.527V13.3H4.352Z" transform="translate(207.145 603.8)"/></g></svg>