<svg xmlns="http://www.w3.org/2000/svg" width="36" height="32" viewBox="0 0 36 32"><defs><style>.a{fill:#203e4b;}.b{fill:#587581;}</style></defs><g transform="translate(-297 -219)"><g transform="translate(0 49)"><g transform="translate(296.501 95.649)"><path class="a" d="M310.752,258.872h0Z" transform="translate(-288 -171.84)"/><path class="a" d="M28.465,91.634a5.671,5.671,0,0,0,2.933.847c.176,0,.343-.008.512-.024a1.055,1.055,0,0,0,.878-.653L34,88.878l1.346-3.244.982-2.371a1.077,1.077,0,0,0-.1-1.006,1.037,1.037,0,0,0-.852-.47,4.744,4.744,0,0,1-2.394-.718,15.661,15.661,0,0,1-2.74-2.279,16.564,16.564,0,0,0-2.92-2.412,5.589,5.589,0,0,0-3.314-.834l-.079,0-.025-.075a1.651,1.651,0,0,0-3.09-.1l-1.864,4.49-1.86-4.491a1.653,1.653,0,0,0-3.054,0,.437.437,0,0,0-.015.049c0,.017-.009.035-.015.051l-.025.075-.079-.005a5.589,5.589,0,0,0-3.323.835A16.544,16.544,0,0,0,7.664,78.79a15.639,15.639,0,0,1-2.738,2.275,4.742,4.742,0,0,1-2.4.719,1.037,1.037,0,0,0-.853.47,1.079,1.079,0,0,0-.1,1.007l.98,2.373,1.346,3.244L5.12,91.8A1.055,1.055,0,0,0,6,92.46c.171.016.345.023.512.024a5.671,5.671,0,0,0,2.934-.849,16.544,16.544,0,0,0,2.917-2.411A15.644,15.644,0,0,1,15.1,86.947a5.631,5.631,0,0,1,.916-.438l.222-.082L11.849,97a1.672,1.672,0,0,0,.9,2.163,1.623,1.623,0,0,0,.622.123h0a1.664,1.664,0,0,0,1.539-1.023L18.953,88.5,23,98.264A1.654,1.654,0,0,0,26.055,97L21.673,86.427l.221.081a5.578,5.578,0,0,1,.9.427l.02.015a15.648,15.648,0,0,1,2.731,2.273A16.575,16.575,0,0,0,28.465,91.634Zm-.089-1.209A17.637,17.637,0,0,1,26.5,88.8l-.049-.049.947-2.286.243.224c.179.167.364.334.552.5l.042.037.1.085c.209.179.425.352.642.516l.078.056.064.046.08.058c.063.046.122.09.184.132l.07.047-.969,2.339ZM25.96,80.76l.106.077c.016.012.032.022.048.032l.038.025c.057.041.109.083.158.123.166.126.333.261.495.4l.055.047.084.071c.2.173.4.352.588.534l.1.09.071.067c.082.077.163.156.245.236l.05.049-.948,2.284-.23-.211c-.187-.178-.378-.351-.567-.515l-.136-.117c-.223-.191-.435-.36-.645-.518-.034-.026-.068-.049-.1-.074l-.033-.023-.078-.058c-.062-.046-.127-.094-.191-.137l-.07-.047Zm-1.807,1.847-.1-.045-.037-.015-.045-.018c-.137-.065-.279-.124-.425-.177l-.116-.041c-.142-.049-.291-.093-.44-.13l-.009,0-.089-.022c-.171-.04-.34-.07-.5-.091l-.042-.007a5.327,5.327,0,0,0-.562-.041l-.151,0,.928-2.247.088-.012a4.708,4.708,0,0,1,.555-.013.48.48,0,0,1,.065,0l.032,0a4.173,4.173,0,0,1,.491.06l.069.011a4.5,4.5,0,0,1,.535.14l.1.034.013,0c.149.053.3.115.465.19l.04.017.11.045Zm4.585.612.141.131.077.071.026.024c.187.174.374.343.558.5l.049.043c.028.025.056.049.084.072.21.179.427.354.647.52l.089.064.048.035.085.063c.061.045.119.088.18.129l.071.047-.969,2.331-.106-.077c-.018-.013-.036-.024-.054-.036l-.031-.02c-.048-.035-.092-.069-.136-.1L29.477,87c-.167-.127-.334-.262-.5-.4l-.031-.026c-.036-.03-.072-.061-.108-.093-.2-.171-.4-.352-.593-.537l-.122-.115L28.1,85.8l-.165-.157-.144-.137Zm3.132,8.275-.062.006c-.137.013-.273.019-.41.019a4.429,4.429,0,0,1-1.994-.474L29.32,91l.976-2.35.1.045.038.015.044.018c.044.02.087.037.13.054l.065.026c.172.071.328.127.476.172.074.023.147.045.219.065.169.045.338.081.517.111l.073.014c.028.006.056.011.084.015a5.279,5.279,0,0,0,.621.049l.151,0Zm1.345-3.239h-.069l-.024,0c-.124.01-.25.016-.377.016q-.08,0-.159,0a.773.773,0,0,1-.08,0l-.039,0A4.305,4.305,0,0,1,32,88.209l-.036-.006-.055-.009a4.513,4.513,0,0,1-.526-.137l-.079-.028-.035-.013c-.148-.052-.3-.115-.466-.191l-.026-.012-.03-.014-.087-.043.973-2.35.1.047.036.015c.017.006.033.013.049.02.035.016.072.031.109.046l.076.031c.164.068.327.127.485.177.08.025.146.045.213.063a5.276,5.276,0,0,0,.517.112l.071.013c.028.006.056.011.085.015A5.392,5.392,0,0,0,34,86l.151,0Zm-.134-6.043a5.459,5.459,0,0,0,2.262.537l.151,0L34.564,85l-.093.011q-.192.016-.38.016l-.157,0h0c-.026,0-.056,0-.085-.005l-.045,0a4.366,4.366,0,0,1-.444-.052l-.039-.006-.069-.011a4.491,4.491,0,0,1-.516-.135l-.1-.034-.029-.01c-.15-.053-.3-.113-.449-.184l-.024-.011-.042-.019-.087-.043.974-2.348Zm-3-2.237.109.106a15.345,15.345,0,0,0,1.874,1.552l.064.045-.053.151-.9,2.177-.105-.075-.045-.03-.042-.028c-.038-.028-.074-.056-.109-.083l-.048-.037c-.165-.126-.331-.26-.492-.4l-.054-.046-.089-.075c-.2-.169-.393-.347-.588-.529l-.058-.056c-.039-.038-.079-.076-.12-.113l-.06-.057-.175-.166-.052-.049Zm-2.669-2.387a17.7,17.7,0,0,1,1.877,1.624l.049.049-.947,2.284-.141-.128-.057-.053-.047-.043c-.183-.171-.369-.338-.55-.5l-.043-.037-.1-.086c-.211-.181-.427-.354-.642-.516l-.087-.063-.053-.038-.08-.059c-.063-.047-.122-.091-.185-.132l-.071-.047.969-2.339Zm-3.5-1.07.062-.006a4.444,4.444,0,0,1,2.407.453l.086.043L25.5,79.362l-.1-.045c-.023-.011-.046-.019-.069-.028l-.062-.025-.008,0c-.114-.049-.221-.095-.33-.136-.068-.026-.136-.049-.2-.071-.1-.034-.209-.065-.324-.1l-.008,0c-.068-.018-.132-.035-.2-.05-.121-.027-.242-.047-.345-.063l-.073-.012c-.037-.006-.074-.013-.111-.017-.178-.021-.355-.034-.524-.037h-.161Zm-4.424,4.568,2.214-5.347A.689.689,0,0,1,23.03,76a.64.64,0,0,1-.059.269l-2.754,6.642-.743-1.791Zm-7.969-4.121a4.444,4.444,0,0,1,2.237-.466l.073.007.173.056.074.171.844,2.037-.151,0c-.178,0-.358.017-.536.038-.032,0-.063.009-.095.014l-.066.011c-.145.022-.262.044-.37.067-.063.015-.127.031-.191.049-.114.029-.227.063-.338.1l-.017.006c-.059.02-.119.04-.178.062-.1.038-.213.084-.346.142l-.063.026c-.021.008-.042.016-.062.025l-.1.046-.978-2.352ZM9.91,82.506l.294-.283c.037-.033.069-.064.1-.095l.066-.063c.194-.183.392-.362.588-.533l.093-.078.047-.04c.165-.141.332-.276.5-.4l.087-.068.062-.048c.024-.018.046-.032.068-.046l.132-.086.963,2.324-.07.047c-.063.043-.127.09-.189.135l-.08.059c-.024.019-.053.04-.082.061l-.017.012-.034.027c-.211.158-.422.328-.646.519l-.135.117c-.192.166-.383.338-.568.512l-.23.212Zm.2,3-.146.139-.16.152-.152.144c-.2.184-.4.365-.594.537L9,86.538l-.073.063c-.161.137-.328.272-.5.4l-.062.048-.092.07c-.019.015-.04.028-.061.041l-.031.02-.1.07-.341-.819L7.112,84.92l.07-.047c.068-.046.136-.1.2-.145l.065-.048c.049-.033.093-.064.136-.1h0c.211-.158.422-.328.646-.518l.136-.117c.186-.163.375-.333.56-.5l.1-.088.023-.022.121-.113Zm2.671-5.257.088-.042L12.9,80.2l.023-.01c.134-.063.268-.119.4-.168h0l.095-.034.079-.028a4.481,4.481,0,0,1,.535-.14l.044-.007.027,0a4.313,4.313,0,0,1,.488-.06c.023,0,.039,0,.055,0l.048,0a4.592,4.592,0,0,1,.542.012.175.175,0,0,1,.059.009l.043.015.926,2.239-.151,0c-.171,0-.348.016-.54.038-.031,0-.06.009-.09.014l-.053.009c-.146.021-.272.044-.387.07l-.145.036-.034.009c-.116.03-.234.065-.351.1-.062.02-.124.042-.185.064-.106.039-.219.085-.354.146l-.059.024c-.021.008-.042.016-.062.026l-.1.047ZM8.617,79.212a17.666,17.666,0,0,1,1.835-1.593l.152-.1.964,2.33-.07.047c-.064.043-.128.09-.19.136l-.129.094-.087.063c-.216.162-.432.335-.642.515l-.105.092-.036.032c-.182.158-.367.325-.551.5l-.046.043-.055.051-.142.129-.946-2.284Zm-2.781,2.42A15.305,15.305,0,0,0,7.71,80.08l.109-.106.948,2.29-.051.049-.243.234c-.036.033-.068.064-.1.095l-.069.066c-.228.212-.415.38-.588.53l-.082.069-.063.053c-.158.135-.323.268-.491.4l-.041.032c-.038.029-.076.059-.114.087-.02.015-.041.028-.062.041L6.729,84l-.961-2.324ZM3.38,85l-.046-.014-.948-2.237.153,0a5.479,5.479,0,0,0,2.287-.538l.1-.047.973,2.35-.086.043-.039.018-.028.013a4.331,4.331,0,0,1-.449.18l-.037.013-.088.031a4.564,4.564,0,0,1-.517.136l-.054.009-.045.007a4.38,4.38,0,0,1-.46.053c-.024,0-.042,0-.06,0l-.061,0q-.081,0-.163,0c-.124,0-.248-.005-.37-.015A.2.2,0,0,1,3.38,85Zm1.312,3.245L3.758,86l.151,0a5.359,5.359,0,0,0,.622-.049l.08-.015.076-.014c.184-.031.354-.067.516-.111.068-.018.134-.038.214-.063.157-.049.32-.109.485-.177l.07-.028c.039-.015.077-.031.116-.048l.044-.018a.382.382,0,0,0,.038-.016l.1-.05.973,2.354-.087.043-.028.013-.026.012-.008,0c-.152.068-.3.13-.456.183l-.1.035-.02.007A4.588,4.588,0,0,1,6,88.193l-.068.011-.032,0a4.148,4.148,0,0,1-.456.053H5.426c-.034,0-.068.005-.1.006q-.083,0-.166,0c-.124,0-.249-.005-.372-.016Zm3.812,2.8a4.452,4.452,0,0,1-2,.472q-.213,0-.426-.02l0-.1-.078.033L5.1,89.242l.151,0a5.259,5.259,0,0,0,.62-.049c.029,0,.058-.009.086-.015l.075-.014a5.2,5.2,0,0,0,.511-.111c.067-.018.138-.039.218-.064.146-.046.3-.1.479-.173l.064-.026c.043-.017.086-.034.129-.054l.043-.017a.3.3,0,0,0,.034-.014l.1-.053L8.59,91Zm2.9-2.246a17.646,17.646,0,0,1-1.873,1.624l-.106.08-.968-2.339.07-.047c.05-.034.1-.069.146-.1s.079-.058.12-.087l.059-.042.082-.059c.216-.163.431-.336.638-.515l.1-.088.04-.035c.186-.162.371-.329.551-.5l.243-.225.947,2.286Zm2.78-2.417a15.294,15.294,0,0,0-1.874,1.549l-.175.17v-.224l-.882-2.127.051-.049.224-.214.193-.183c.183-.171.37-.339.554-.5l.129-.109.08-.067c.14-.119.281-.233.42-.338l.049-.038c.051-.039.1-.078.152-.115.016-.012.033-.023.049-.033l.03-.02.105-.073.963,2.326ZM15.2,85.8l-.1.046L14.128,83.5l.086-.043.041-.018.021-.009c.146-.068.3-.131.458-.187l.029-.011.091-.032a4.346,4.346,0,0,1,.517-.136l.066-.011.039-.006A4.087,4.087,0,0,1,15.923,83c.026,0,.046,0,.065,0l.065,0a4.625,4.625,0,0,1,.534.013l.1.01.933,2.253h-.154a3.906,3.906,0,0,0-.425.03h-.01A5.565,5.565,0,0,0,15.2,85.8ZM14.019,97.892a.689.689,0,0,1-1.275-.525L17.362,86.23l.067,0a4.532,4.532,0,0,1,.532.019l.062.006.408.986Zm11.139-.533.011-.028v.055a.686.686,0,0,1-.008.51l-.2.469v-.2a.682.682,0,0,1-.174.1.689.689,0,0,1-.9-.373L19.4,87.055,18.134,84l-.007-.016-3.2-7.713a.688.688,0,0,1,1.27-.529l2.307,5.568,1.267,3.055ZM22.812,85.848l-.1-.047a5.579,5.579,0,0,0-1.437-.453l-.056-.01-.481-1.161.486-1.167L21.332,83a4.532,4.532,0,0,1,.519-.012l.111.006L22,83c.132.009.268.025.4.047l.047.007c.033,0,.066.009.1.016a4.488,4.488,0,0,1,.48.127c.062.02.124.043.18.063.126.046.255.1.382.157l.036.016.06.027.087.042-.037.09q-.313.761-.628,1.519Zm2.782,2.083a15.273,15.273,0,0,0-1.874-1.552l-.068-.047L24.615,84l.105.073.03.02c.017.011.034.022.05.034.048.036.1.073.145.111l.055.043c.139.107.28.221.419.338l.049.041.159.135c.188.165.374.333.555.5.044.04.088.082.132.125l.061.059.224.213.051.049-.948,2.29Z" transform="translate(0)"/></g><rect class="a" width="36" height="11" transform="translate(297 191)"/><path class="b" d="M20.045,12.122H18.766L16.9,7.969v4.153H15.617V5.79H16.9L18.77,9.948V5.79h1.274Zm4.127-1.3H22.428l-.339,1.3H20.736L22.715,5.79h1.17l1.992,6.332H24.511ZM22.706,9.761h1.183L23.3,7.5Zm6.437.7a.793.793,0,0,0-.2-.585,2.279,2.279,0,0,0-.72-.411,3.354,3.354,0,0,1-1.37-.846,1.7,1.7,0,0,1-.418-1.146,1.607,1.607,0,0,1,.568-1.285,2.359,2.359,0,0,1,2.481-.239,1.7,1.7,0,0,1,.7.694,2.081,2.081,0,0,1,.246,1.018H29.16a1.05,1.05,0,0,0-.189-.676.663.663,0,0,0-.546-.233.683.683,0,0,0-.522.2.744.744,0,0,0-.187.533.656.656,0,0,0,.209.472,2.4,2.4,0,0,0,.739.437,3.168,3.168,0,0,1,1.346.822,1.831,1.831,0,0,1,.42,1.239,1.635,1.635,0,0,1-.526,1.292,2.083,2.083,0,0,1-1.431.465,2.464,2.464,0,0,1-1.118-.252,1.892,1.892,0,0,1-.789-.722,2.1,2.1,0,0,1-.285-1.109h1.283a1.21,1.21,0,0,0,.213.8.872.872,0,0,0,.7.248Q29.143,11.17,29.143,10.461Zm6.428-.448a2.368,2.368,0,0,1-.609,1.64,2.151,2.151,0,0,1-1.583.557,2,2,0,0,1-1.646-.707,3.132,3.132,0,0,1-.572-2.016V8.421a3.051,3.051,0,0,1,.591-2.011,2.34,2.34,0,0,1,3.216-.128,2.63,2.63,0,0,1,.611,1.661H34.3a1.705,1.705,0,0,0-.207-.924.815.815,0,0,0-.694-.254.776.776,0,0,0-.726.359A2.509,2.509,0,0,0,32.444,8.3V9.5a2.76,2.76,0,0,0,.211,1.3.775.775,0,0,0,.724.352.837.837,0,0,0,.7-.246,1.618,1.618,0,0,0,.217-.889Zm3.81.813H37.637l-.339,1.3H35.945L37.924,5.79h1.17l1.992,6.332H39.72ZM37.915,9.761H39.1L38.507,7.5Zm5.68.048H42.96v2.314H41.681V5.79h2.04a2.072,2.072,0,0,1,1.485.5A1.86,1.86,0,0,1,45.731,7.7a1.842,1.842,0,0,1-.918,1.766l1.109,2.592v.061H44.548ZM42.96,8.743h.726a.673.673,0,0,0,.574-.254,1.106,1.106,0,0,0,.191-.681q0-.952-.744-.952H42.96Z" transform="translate(284.681 187.297)"/></g></g></svg>