<svg xmlns="http://www.w3.org/2000/svg" width="37.81" height="27.279" viewBox="0 0 37.81 27.279"><defs><style>.a{fill:none;stroke:#203e4b;}.b{fill:#203e4b;}</style></defs><g transform="translate(0)"><path class="a" d="M46.241,49.482C36.209,49.482,28,46.414,28,42.6V54.789c0,3.814,8.126,6.882,18.241,6.882S64.483,58.6,64.483,54.789V42.6C64.483,46.414,56.274,49.482,46.241,49.482Z" transform="translate(-27.337 -35.055)"/><path class="b" d="M46.1,60.779c-10.613,0-18.9-3.317-18.9-7.545V41.045c0-4.229,8.292-7.545,18.9-7.545s18.9,3.317,18.9,7.545V53.234C65.01,57.546,56.718,60.779,46.1,60.779ZM28.527,41.626V53.234c0,2.985,7.048,6.219,17.578,6.219s17.578-3.234,17.578-6.219V41.045c0-2.985-7.048-6.219-17.578-6.219S28.527,38.06,28.527,41.045v.58Z" transform="translate(-27.2 -33.5)"/></g></svg>