<svg xmlns="http://www.w3.org/2000/svg" width="137.1" height="99.907" viewBox="0 0 137.1 99.907"><defs><style>.a{fill:#f47b4e;stroke:#1d2a32;stroke-width:1.5px;}</style></defs><g transform="translate(0.735 -140.004)"><path class="a" d="M112.44,281.541H58.058a1.986,1.986,0,1,0,0,3.973h54.381a1.986,1.986,0,0,0,0-3.973Z" transform="translate(-41.21 -103.498)"/><path class="a" d="M112.44,328.871H58.058a1.986,1.986,0,1,0,0,3.973h54.381a1.986,1.986,0,0,0,0-3.973Z" transform="translate(-41.21 -138.292)"/><path class="a" d="M85.249,376.2H58.058a1.986,1.986,0,1,0,0,3.973H85.249a1.986,1.986,0,0,0,0-3.973Z" transform="translate(-41.21 -173.086)"/><path class="a" d="M309.757,186.88H255.375a1.986,1.986,0,0,0,0,3.973h54.381a1.986,1.986,0,0,0,0-3.973Z" transform="translate(-186.265 -33.909)"/><path class="a" d="M385.226,234.21H358.035a1.986,1.986,0,1,0,0,3.973h27.191a1.986,1.986,0,0,0,0-3.973Z" transform="translate(-261.735 -68.703)"/><path class="a" d="M75.242,225.624H12.836A12.836,12.836,0,0,0,.015,238.445v32.233A12.836,12.836,0,0,0,12.836,283.5h.448l-2.567,14.255A3.158,3.158,0,0,0,16,300.6l17.578-16.686a1.518,1.518,0,0,1,1.05-.419H75.242a12.836,12.836,0,0,0,12.821-12.821V238.445a12.835,12.835,0,0,0-12.821-12.821Zm8.848,45.054a8.858,8.858,0,0,1-8.848,8.848H34.628a5.476,5.476,0,0,0-3.785,1.51L15.067,296.011,17.3,283.635a3.491,3.491,0,0,0-3.435-4.109H12.836a8.858,8.858,0,0,1-8.848-8.848V238.445a8.858,8.858,0,0,1,8.848-8.848H75.242a8.858,8.858,0,0,1,8.848,8.848Z" transform="translate(0 -62.391)"/><path class="a" d="M282.135,140.754H226.72a11.62,11.62,0,0,0-11.607,11.607v3.572a1.986,1.986,0,0,0,3.973,0v-3.572a7.643,7.643,0,0,1,7.634-7.634h55.415a7.643,7.643,0,0,1,7.634,7.634v28.247a7.643,7.643,0,0,1-7.634,7.634h-.91a3.322,3.322,0,0,0-3.269,3.911l1.859,10.321L266.3,189.645a5.083,5.083,0,0,0-3.515-1.4H253.49a1.986,1.986,0,0,0,0,3.973h9.294a1.127,1.127,0,0,1,.779.311l15.608,14.817a3.027,3.027,0,0,0,5.063-2.732L282,192.216h.132a11.62,11.62,0,0,0,11.607-11.607V152.361a11.62,11.62,0,0,0-11.607-11.607Z" transform="translate(-158.127)"/></g></svg>