<svg xmlns="http://www.w3.org/2000/svg" width="91" height="71" viewBox="0 0 91 71"><defs><style>.a{fill:#587581;}.a,.b{stroke:#587581;}.b,.e{fill:#fff;}.c{fill:#203e4b;opacity:0.47;}.d{fill:#f47b4e;stroke:#be5934;}.e{font-size:20px;font-family:Industry-Bold, Industry;font-weight:700;}.f{stroke:none;}.g{fill:none;}</style></defs><g transform="translate(-47 -669)"><g class="a" transform="translate(67 669)"><circle class="f" cx="35.5" cy="35.5" r="35.5"/><circle class="g" cx="35.5" cy="35.5" r="35"/></g><path class="b" d="M25.818,79.069a8.237,8.237,0,1,0-13.323-5.56A6.563,6.563,0,0,0,4.839,84.051,8.085,8.085,0,0,0,0,91.447v7.629a2.547,2.547,0,0,0,2.544,2.544H29.609a2.952,2.952,0,0,0,2.949-2.949V88.666a10.219,10.219,0,0,0-6.74-9.6ZM20.7,66.908a5.722,5.722,0,1,1-5.757,5.722A5.746,5.746,0,0,1,20.7,66.908ZM9.338,75.2a4.066,4.066,0,0,1,3.978,5.027,10.284,10.284,0,0,0-2.875,2.957,4.071,4.071,0,1,1-1.1-7.984ZM2.494,99.076V91.447a5.586,5.586,0,0,1,5.58-5.58H9.229a10.173,10.173,0,0,0-.39,2.8V98.672a2.963,2.963,0,0,0,.035.455H2.544A.055.055,0,0,1,2.494,99.076Zm27.57-.4a.461.461,0,0,1-.455.455H11.787a.461.461,0,0,1-.455-.455V88.666a7.716,7.716,0,0,1,7.708-7.708h3.316a7.716,7.716,0,0,1,7.708,7.708Z" transform="translate(86 619.311)"/><rect class="c" width="33" height="33" rx="3" transform="translate(49 690)"/><g class="d" transform="translate(47 688)"><rect class="f" width="33" height="33" rx="3"/><rect class="g" x="0.5" y="0.5" width="32" height="32" rx="2.5"/></g><text class="e" transform="translate(47 691)"><tspan x="12.33" y="21">1</tspan></text></g></svg>