<svg xmlns="http://www.w3.org/2000/svg" width="57" height="57" viewBox="0 0 57 57"><defs><style>.a{fill:#203e4b;}.b{fill:#fff;stroke:#203e4b;stroke-width:0.5px;}</style></defs><g transform="translate(-49 -1151)"><circle class="a" cx="28.5" cy="28.5" r="28.5" transform="translate(49 1151)"/><g transform="translate(60.227 1161.517)"><path class="b" d="M18.661,35.118h-2.2a3.237,3.237,0,0,1-3.233-3.233v-.746a14.178,14.178,0,0,1-2.2-.914l-.528.528a3.233,3.233,0,0,1-4.572,0L4.364,29.2a3.233,3.233,0,0,1,0-4.573l.528-.528a14.178,14.178,0,0,1-.914-2.2H3.233A3.237,3.237,0,0,1,0,18.661v-2.2a3.237,3.237,0,0,1,3.233-3.233h.746a14.181,14.181,0,0,1,.914-2.2l-.528-.528a3.233,3.233,0,0,1,0-4.572L5.922,4.364a3.232,3.232,0,0,1,4.572,0l.528.528a14.191,14.191,0,0,1,2.2-.914V3.233A3.237,3.237,0,0,1,16.457,0h2.2a3.236,3.236,0,0,1,3.233,3.233v.746a14.177,14.177,0,0,1,2.2.914l.528-.528a3.233,3.233,0,0,1,4.572,0l1.558,1.558a3.233,3.233,0,0,1,0,4.572l-.528.528a14.179,14.179,0,0,1,.914,2.2h.746a3.237,3.237,0,0,1,3.233,3.233v2.2a3.237,3.237,0,0,1-3.233,3.233h-.746a14.181,14.181,0,0,1-.914,2.2l.528.528a3.233,3.233,0,0,1,0,4.572L29.2,30.754a3.232,3.232,0,0,1-4.572,0l-.528-.528a14.19,14.19,0,0,1-2.2.914v.746A3.236,3.236,0,0,1,18.661,35.118Zm-7.294-7.053a12.127,12.127,0,0,0,3.144,1.3,1.029,1.029,0,0,1,.772,1v1.519a1.177,1.177,0,0,0,1.175,1.175h2.2a1.177,1.177,0,0,0,1.175-1.175V30.366a1.029,1.029,0,0,1,.772-1,12.127,12.127,0,0,0,3.144-1.3A1.029,1.029,0,0,1,25,28.223L26.079,29.3a1.175,1.175,0,0,0,1.662,0L29.3,27.741a1.175,1.175,0,0,0,0-1.662L28.223,25a1.029,1.029,0,0,1-.158-1.251,12.125,12.125,0,0,0,1.3-3.144,1.029,1.029,0,0,1,1-.772h1.519a1.177,1.177,0,0,0,1.175-1.175v-2.2a1.177,1.177,0,0,0-1.175-1.175H30.366a1.029,1.029,0,0,1-1-.772,12.128,12.128,0,0,0-1.3-3.144,1.029,1.029,0,0,1,.158-1.251L29.3,9.039a1.175,1.175,0,0,0,0-1.662L27.741,5.819a1.175,1.175,0,0,0-1.662,0L25,6.9a1.029,1.029,0,0,1-1.251.158,12.127,12.127,0,0,0-3.144-1.3,1.029,1.029,0,0,1-.772-1V3.233a1.177,1.177,0,0,0-1.175-1.175h-2.2a1.177,1.177,0,0,0-1.175,1.175V4.752a1.029,1.029,0,0,1-.772,1,12.127,12.127,0,0,0-3.144,1.3,1.029,1.029,0,0,1-1.251-.158L9.039,5.819a1.175,1.175,0,0,0-1.662,0L5.819,7.377a1.175,1.175,0,0,0,0,1.662l1.077,1.077a1.029,1.029,0,0,1,.158,1.251,12.125,12.125,0,0,0-1.3,3.144,1.029,1.029,0,0,1-1,.772H3.233a1.177,1.177,0,0,0-1.175,1.175v2.2a1.177,1.177,0,0,0,1.175,1.175H4.752a1.029,1.029,0,0,1,1,.772,12.128,12.128,0,0,0,1.3,3.144A1.029,1.029,0,0,1,6.895,25L5.819,26.078a1.175,1.175,0,0,0,0,1.662L7.377,29.3a1.175,1.175,0,0,0,1.662,0l1.076-1.077a1.034,1.034,0,0,1,1.251-.158Z"/><path class="b" d="M152.241,159.882a7.641,7.641,0,1,1,7.641-7.641A7.649,7.649,0,0,1,152.241,159.882Zm0-13.224a5.583,5.583,0,1,0,5.583,5.583,5.589,5.589,0,0,0-5.583-5.583Z" transform="translate(-134.682 -134.682)"/></g></g></svg>