<svg xmlns="http://www.w3.org/2000/svg" width="91" height="71" viewBox="0 0 91 71"><defs><style>.a{fill:#587581;}.b{fill:#203e4b;opacity:0.47;}.c{fill:#f47b4e;stroke:#be5934;}.d,.e{fill:#fff;}.d{font-size:20px;font-family:Industry-Bold, Industry;font-weight:700;}.e{stroke:#587581;stroke-width:0.2px;}.f{stroke:none;}.g{fill:none;}</style></defs><g transform="translate(-142 -896)"><circle class="a" cx="35.5" cy="35.5" r="35.5" transform="translate(162 896)"/><rect class="b" width="33" height="33" rx="3" transform="translate(144 917)"/><g class="c" transform="translate(142 915)"><rect class="f" width="33" height="33" rx="3"/><rect class="g" x="0.5" y="0.5" width="32" height="32" rx="2.5"/></g><text class="d" transform="translate(142 917)"><tspan x="10.46" y="21">2</tspan></text><g transform="translate(149.1 912.657)"><g transform="translate(33.9)"><path class="e" d="M192.214,219.532h-2.021a1.33,1.33,0,0,1,0-2.66h3.556a.882.882,0,0,0,0-1.763h-1.668v-1.227a.882.882,0,0,0-1.763,0v1.227h-.125a3.093,3.093,0,0,0,0,6.187h2.021a1.33,1.33,0,0,1,0,2.66h-3.622a.882.882,0,1,0,0,1.763h1.734v1.256a.882.882,0,1,0,1.763,0v-1.256h.169a3.094,3.094,0,0,0-.044-6.187Z" transform="translate(-175.843 -197.349)"/><path class="e" d="M62.512,20.184a25.275,25.275,0,0,0-3.821-6.128A28.465,28.465,0,0,0,53.8,9.405l3.747-6.951a.87.87,0,0,0-.162-1.043A4.393,4.393,0,0,0,54.239,0a7.4,7.4,0,0,0-2.851.749,5.4,5.4,0,0,1-1.793.536,1.116,1.116,0,0,1-.419-.073A13.058,13.058,0,0,0,44.782.176a5.956,5.956,0,0,0-4.423,2.072.887.887,0,0,0-.1,1.1L44.3,9.457a28.943,28.943,0,0,0-4.827,4.6,25.5,25.5,0,0,0-3.821,6.128A20.837,20.837,0,0,0,33.9,28.5a6.852,6.852,0,0,0,6.841,6.841H57.42A6.852,6.852,0,0,0,64.261,28.5,20.837,20.837,0,0,0,62.512,20.184ZM42.137,2.983a3.844,3.844,0,0,1,2.645-1.058,11.449,11.449,0,0,1,3.784.933,2.986,2.986,0,0,0,1.021.176,6.508,6.508,0,0,0,2.469-.669,5.959,5.959,0,0,1,2.175-.617,2.332,2.332,0,0,1,1.418.485L52.123,8.788H45.98Zm15.283,30.6H40.741A5.083,5.083,0,0,1,35.663,28.5a20.546,20.546,0,0,1,5.121-13.277,26.973,26.973,0,0,1,4.989-4.673h6.6a26.464,26.464,0,0,1,4.989,4.673A20.492,20.492,0,0,1,62.483,28.5,5.061,5.061,0,0,1,57.42,33.579Z" transform="translate(-33.9)"/></g></g></g></svg>