<svg xmlns="http://www.w3.org/2000/svg" width="18.764" height="20.775" viewBox="0 0 18.764 20.775"><defs><style>.a{fill:#f47b4e;}</style></defs><g transform="translate(-179.291 -761.513)"><path class="a" d="M43.094,2.01H39.743V.67a.67.67,0,0,0-.67-.67H29.691a.67.67,0,0,0-.67.67V2.01H25.67a.67.67,0,0,0-.67.67v1.34a4.7,4.7,0,0,0,4.021,4.638v.054a5.366,5.366,0,0,0,4.691,5.315v1.387H30.361a.67.67,0,0,0-.67.67v3.351h-.67a.67.67,0,1,0,0,1.34H39.743a.67.67,0,1,0,0-1.34h-.67V16.084a.67.67,0,0,0-.67-.67H35.052V14.027a5.366,5.366,0,0,0,4.691-5.315V8.659a4.7,4.7,0,0,0,4.021-4.638V2.681A.67.67,0,0,0,43.094,2.01ZM37.733,16.754v2.681h-6.7V16.754ZM26.34,4.021v-.67h2.681V7.3A3.356,3.356,0,0,1,26.34,4.021ZM38.4,8.712a4.021,4.021,0,0,1-8.042,0V1.34H38.4Zm4.021-4.691A3.356,3.356,0,0,1,39.743,7.3V3.351h2.681Z" transform="translate(154.291 761.513)"/><path class="a" d="M194.851,430.758H190.83a.67.67,0,0,1,0-1.34h4.021a.67.67,0,0,1,0,1.34Z" transform="translate(-4.167 349.519)"/></g></svg>