<svg xmlns="http://www.w3.org/2000/svg" width="37.81" height="27.279" viewBox="0 0 37.81 27.279"><defs><style>.a,.g{fill:none;}.a{stroke:#8298a1;}.b{fill:#8298a1;}.c{fill:#587581;stroke:#203e4b;}.d{fill:#fff;}.e{fill:#bcc8cc;}.f{stroke:none;}</style></defs><g transform="translate(-100 -419)"><g transform="translate(100 419)"><path class="a" d="M46.241,49.482C36.209,49.482,28,46.414,28,42.6V54.789c0,3.814,8.126,6.882,18.241,6.882S64.483,58.6,64.483,54.789V42.6C64.483,46.414,56.274,49.482,46.241,49.482Z" transform="translate(-27.337 -35.055)"/><path class="b" d="M46.1,60.779c-10.613,0-18.9-3.317-18.9-7.545V41.045c0-4.229,8.292-7.545,18.9-7.545s18.9,3.317,18.9,7.545V53.234C65.01,57.546,56.718,60.779,46.1,60.779ZM28.527,41.626V53.234c0,2.985,7.048,6.219,17.578,6.219s17.578-3.234,17.578-6.219V41.045c0-2.985-7.048-6.219-17.578-6.219S28.527,38.06,28.527,41.045v.58Z" transform="translate(-27.2 -33.5)"/></g><g class="c" transform="translate(101 420)"><rect class="f" width="36" height="24"/><rect class="g" x="0.5" y="0.5" width="35" height="23"/></g><path class="d" d="M15.913,7h-1l-1.47-3.264V7h-1V2.023h1l1.473,3.268V2.023h1Zm4.3,0h-1V4.871H17.725V7h-1V2.023h1V4.037h1.483V2.023h1Zm1.812-.834h1.764V7H21.016V2.023h1Z" transform="translate(101 424)"/><path class="e" d="M5.313,11.881a.534.534,0,0,0-.133-.394,1.535,1.535,0,0,0-.485-.277,2.259,2.259,0,0,1-.923-.57,1.145,1.145,0,0,1-.281-.772A1.082,1.082,0,0,1,3.873,9a1.442,1.442,0,0,1,.971-.327,1.454,1.454,0,0,1,.7.166,1.148,1.148,0,0,1,.473.467,1.4,1.4,0,0,1,.166.686H5.325A.707.707,0,0,0,5.2,9.539a.446.446,0,0,0-.368-.157.46.46,0,0,0-.352.133.5.5,0,0,0-.126.359.442.442,0,0,0,.141.318,1.617,1.617,0,0,0,.5.294,2.134,2.134,0,0,1,.907.554,1.234,1.234,0,0,1,.283.835,1.1,1.1,0,0,1-.354.87,1.4,1.4,0,0,1-.964.313,1.66,1.66,0,0,1-.753-.17,1.274,1.274,0,0,1-.532-.486,1.413,1.413,0,0,1-.192-.747H4.25a.815.815,0,0,0,.144.536.588.588,0,0,0,.469.167Q5.313,12.358,5.313,11.881ZM9.526,8.734v2.953a1.38,1.38,0,0,1-.366,1.018,1.417,1.417,0,0,1-1.034.353A1.429,1.429,0,0,1,7.078,12.7a1.39,1.39,0,0,1-.362-1.034V8.734h.867V11.67a.879.879,0,0,0,.117.519.5.5,0,0,0,.425.155.5.5,0,0,0,.422-.154.876.876,0,0,0,.117-.505V8.734Zm2.455,3.146a.534.534,0,0,0-.133-.394,1.535,1.535,0,0,0-.485-.277,2.259,2.259,0,0,1-.923-.57,1.145,1.145,0,0,1-.281-.772A1.082,1.082,0,0,1,10.541,9a1.589,1.589,0,0,1,1.671-.161,1.148,1.148,0,0,1,.473.467,1.4,1.4,0,0,1,.166.686h-.858a.707.707,0,0,0-.127-.456.446.446,0,0,0-.368-.157.46.46,0,0,0-.352.133.5.5,0,0,0-.126.359.442.442,0,0,0,.141.318,1.617,1.617,0,0,0,.5.294,2.134,2.134,0,0,1,.907.554,1.234,1.234,0,0,1,.283.835,1.1,1.1,0,0,1-.354.87,1.4,1.4,0,0,1-.964.313,1.66,1.66,0,0,1-.753-.17,1.274,1.274,0,0,1-.532-.486,1.413,1.413,0,0,1-.192-.747h.864a.815.815,0,0,0,.144.536.588.588,0,0,0,.469.167Q11.981,12.358,11.981,11.881Zm2.3-.381V13h-.861V8.734h1.453a1.333,1.333,0,0,1,1.009.393,1.412,1.412,0,0,1,.376,1.02,1.32,1.32,0,0,1-.372.99,1.413,1.413,0,0,1-1.031.363Zm0-.718h.592a.469.469,0,0,0,.381-.161.714.714,0,0,0,.135-.469.845.845,0,0,0-.138-.508.442.442,0,0,0-.369-.192h-.6Zm4.755.372H17.694v1.131h1.588V13H16.833V8.734h2.443v.718H17.694V10.46h1.342ZM22.759,13H21.9l-1.26-2.8V13h-.861V8.734h.861l1.263,2.8v-2.8h.858Zm.691,0V8.734h1.128a1.552,1.552,0,0,1,1.191.475,1.86,1.86,0,0,1,.453,1.3V11.2a1.867,1.867,0,0,1-.444,1.32A1.585,1.585,0,0,1,24.555,13Zm.861-3.548v2.833h.258a.723.723,0,0,0,.606-.227,1.351,1.351,0,0,0,.185-.784v-.741a1.515,1.515,0,0,0-.167-.833.674.674,0,0,0-.568-.248Zm4.731,1.7H27.7v1.131H29.29V13H26.84V8.734h2.443v.718H27.7V10.46h1.342ZM29.785,13V8.734h1.128a1.552,1.552,0,0,1,1.191.475,1.86,1.86,0,0,1,.453,1.3V11.2a1.867,1.867,0,0,1-.444,1.32A1.585,1.585,0,0,1,30.889,13Zm.861-3.548v2.833H30.9a.723.723,0,0,0,.606-.227,1.351,1.351,0,0,0,.185-.784v-.741a1.515,1.515,0,0,0-.167-.833.674.674,0,0,0-.568-.248Z" transform="translate(101 424)"/></g></svg>