<svg xmlns="http://www.w3.org/2000/svg" width="33" height="33" viewBox="0 0 33 33"><defs><style>.a{fill:#203e4b;}.b{fill:#fff;stroke:#203e4b;stroke-width:0.5px;}</style></defs><g transform="translate(-53 -364)"><circle class="a" cx="16.5" cy="16.5" r="16.5" transform="translate(53 364)"/><path class="b" d="M12.869,71.719a4.106,4.106,0,1,0-6.641-2.771A3.271,3.271,0,0,0,2.412,74.2,4.03,4.03,0,0,0,0,77.889v3.8a1.27,1.27,0,0,0,1.268,1.268h13.49a1.471,1.471,0,0,0,1.47-1.47V76.5a5.094,5.094,0,0,0-3.36-4.783Zm-2.552-6.062a2.852,2.852,0,1,1-2.87,2.852A2.864,2.864,0,0,1,10.317,65.657ZM4.654,69.79A2.027,2.027,0,0,1,6.637,72.3,5.126,5.126,0,0,0,5.2,73.769a2.029,2.029,0,1,1-.55-3.98Zm-3.411,11.9v-3.8a2.785,2.785,0,0,1,2.781-2.781H4.6A5.071,5.071,0,0,0,4.406,76.5V81.49a1.477,1.477,0,0,0,.018.227H1.268A.027.027,0,0,1,1.243,81.691Zm13.742-.2a.23.23,0,0,1-.227.227H5.875a.23.23,0,0,1-.227-.227V76.5A3.846,3.846,0,0,1,9.491,72.66h1.653A3.846,3.846,0,0,1,14.985,76.5Z" transform="translate(61 305.469)"/></g></svg>