<svg xmlns="http://www.w3.org/2000/svg" width="83.58" height="100" viewBox="0 0 83.58 100"><defs><style>.a{fill:#f47b4e;stroke:#1d2a32;stroke-width:1.5px;}</style></defs><g transform="translate(-38.25 0.75)"><g transform="translate(58.178 7.579)"><path class="a" d="M146.478,36H132.205a2.105,2.105,0,0,0,0,4.21h14.273a2.105,2.105,0,1,0,0-4.21Z" transform="translate(-130.1 -36)"/></g><g transform="translate(60.915 80.059)"><path class="a" d="M149.6,380.3a6.5,6.5,0,1,0,6.5,6.5A6.5,6.5,0,0,0,149.6,380.3Zm0,8.821a2.295,2.295,0,1,1,2.295-2.295A2.3,2.3,0,0,1,149.6,389.121Z" transform="translate(-143.1 -380.3)"/></g><g transform="translate(39)"><g transform="translate(0)"><path class="a" d="M112.428,28.42H95.839V8.652A8.634,8.634,0,0,0,87.208,0H47.673A8.67,8.67,0,0,0,39,8.652v81.2A8.656,8.656,0,0,0,47.673,98.5H87.166a8.634,8.634,0,0,0,8.652-8.631V70.1h16.589a8.751,8.751,0,0,0,8.673-8.778V37.2A8.733,8.733,0,0,0,112.428,28.42ZM43.21,8.652A4.434,4.434,0,0,1,47.673,4.21H87.187a4.438,4.438,0,0,1,4.442,4.421v7.81H43.21ZM91.629,89.869a4.425,4.425,0,0,1-4.421,4.442H47.673a4.447,4.447,0,0,1-4.463-4.442V78.733H91.629Zm0-15.347H43.21V20.63H91.629V28.42H68.535A8.769,8.769,0,0,0,59.841,37.2V61.344a8.769,8.769,0,0,0,8.694,8.778H91.629ZM116.912,61.2h-.021a4.488,4.488,0,0,1-4.484,4.484H68.535A4.488,4.488,0,0,1,64.051,61.2V37.114a4.488,4.488,0,0,1,4.484-4.484h43.892a4.488,4.488,0,0,1,4.484,4.484V61.2Z" transform="translate(-39)"/></g></g><g transform="translate(65.883 57.05)"><path class="a" d="M199.519,271H168.805a2.105,2.105,0,1,0,0,4.21h30.714a2.105,2.105,0,1,0,0-4.21Z" transform="translate(-166.7 -271)"/></g><g transform="translate(66.585 38.214)"><g transform="translate(0)"><path class="a" d="M186.745,182.488a6.482,6.482,0,0,0-6.8,0,6.506,6.506,0,0,0-6.8,11.094,6.352,6.352,0,0,0,3.389.968,6.533,6.533,0,0,0,3.41-.968,6.506,6.506,0,0,0,6.8-11.094Zm-3.389,7.852a2.3,2.3,0,0,1-1.768-.842,2.128,2.128,0,0,0-2.968-.316,2.234,2.234,0,0,0-.316.316,2.333,2.333,0,0,1-1.768.842,2.3,2.3,0,0,1-2.295-2.295,2.289,2.289,0,0,1,4.063-1.453,2.12,2.12,0,0,0,3.284,0,2.268,2.268,0,0,1,1.768-.842,2.295,2.295,0,0,1,0,4.589Z" transform="translate(-170.038 -181.525)"/></g></g></g></svg>