<svg xmlns="http://www.w3.org/2000/svg" width="57" height="57" viewBox="0 0 57 57"><defs><style>.a{fill:#203e4b;}.b{fill:#fff;stroke:#203e4b;stroke-width:0.5px;}</style></defs><g transform="translate(-159 -365)"><circle class="a" cx="28.5" cy="28.5" r="28.5" transform="translate(159 365)"/><g transform="translate(175.409 375.364)"><g transform="translate(0 0)"><path class="b" d="M73.722,11.735H71.472V6.6a6.743,6.743,0,0,0-13.483,0v5.133H55.745A3.749,3.749,0,0,0,52,15.48V28.213a3.749,3.749,0,0,0,3.745,3.745H73.722a3.749,3.749,0,0,0,3.745-3.745V15.48A3.749,3.749,0,0,0,73.722,11.735ZM60.487,6.6a4.247,4.247,0,0,1,8.489,0v5.133H60.487V6.6ZM74.97,28.213a1.25,1.25,0,0,1-1.248,1.248H55.745A1.25,1.25,0,0,1,54.5,28.213V15.48a1.25,1.25,0,0,1,1.248-1.248H73.722A1.25,1.25,0,0,1,74.97,15.48Z" transform="translate(-52 0)"/></g><g transform="translate(10.424 17.852)"><path class="b" d="M221.309,286a2.309,2.309,0,0,0-1.251,4.251v2.74a1.248,1.248,0,1,0,2.5,0v-2.737A2.309,2.309,0,0,0,221.309,286Z" transform="translate(-219 -286)"/></g></g></g></svg>