<svg xmlns="http://www.w3.org/2000/svg" width="36" height="32" viewBox="0 0 36 32"><defs><style>.a{opacity:0.25;}.b{fill:#fff;}.c,.d{fill:#587581;}.d{stroke:#203e4b;}.e{opacity:0.6;}.f{stroke:none;}.g{fill:none;}</style></defs><g transform="translate(-307 -306)"><g class="a" transform="translate(10 136)"><g transform="translate(297.983 170)"><path class="b" d="M310.752,258.872h0Z" transform="translate(-289.866 -246.41)"/><path class="b" d="M28,91.336a5.573,5.573,0,0,0,2.882.833c.173,0,.337-.008.5-.023a1.036,1.036,0,0,0,.863-.642l1.191-2.876,1.323-3.188.965-2.33a1.059,1.059,0,0,0-.1-.989,1.019,1.019,0,0,0-.837-.462,4.662,4.662,0,0,1-2.353-.706,15.39,15.39,0,0,1-2.693-2.239,16.278,16.278,0,0,0-2.869-2.371,5.492,5.492,0,0,0-3.257-.82l-.077,0-.025-.073a1.623,1.623,0,0,0-3.037-.1l-1.831,4.412-1.828-4.413a1.624,1.624,0,0,0-3,0,.43.43,0,0,0-.015.048c0,.017-.009.034-.015.051l-.025.074-.078,0a5.492,5.492,0,0,0-3.265.821,16.259,16.259,0,0,0-2.868,2.37,15.369,15.369,0,0,1-2.691,2.236,4.66,4.66,0,0,1-2.354.707,1.019,1.019,0,0,0-.838.462,1.06,1.06,0,0,0-.1.99l.963,2.332,1.323,3.188L5.057,91.5a1.036,1.036,0,0,0,.862.645c.168.016.339.023.5.023a5.573,5.573,0,0,0,2.884-.834,16.258,16.258,0,0,0,2.867-2.369,15.374,15.374,0,0,1,2.692-2.238,5.534,5.534,0,0,1,.9-.43l.218-.081-4.312,10.39a1.643,1.643,0,0,0,.88,2.126,1.6,1.6,0,0,0,.612.121h0a1.635,1.635,0,0,0,1.512-1.005l3.974-9.6,3.975,9.6a1.625,1.625,0,0,0,3-1.243L21.324,86.219l.217.08a5.481,5.481,0,0,1,.887.42l.02.015a15.378,15.378,0,0,1,2.684,2.233A16.289,16.289,0,0,0,28,91.336Zm-.087-1.188a17.333,17.333,0,0,1-1.844-1.6L26.02,88.5l.93-2.246.239.22c.176.164.358.328.542.489l.041.036.1.084c.206.176.418.346.631.507l.077.055.063.045.078.057c.062.046.12.088.181.129l.069.046-.952,2.3Zm-2.374-9.5.1.075c.016.011.031.021.047.031l.037.024c.056.041.107.082.155.121.163.124.327.256.486.392l.055.046.082.069c.194.17.388.346.578.524l.094.088.07.066c.08.076.16.154.24.231l.049.048L26.6,84.611l-.226-.207c-.184-.175-.371-.345-.557-.506l-.133-.115c-.219-.187-.427-.354-.634-.509-.033-.025-.066-.049-.1-.072l-.032-.023-.077-.057c-.061-.045-.124-.092-.187-.134l-.069-.046Zm-1.776,1.815-.1-.045L23.63,82.4l-.044-.018c-.135-.063-.275-.122-.418-.174l-.114-.04c-.14-.048-.286-.091-.432-.127l-.009,0-.087-.022c-.168-.039-.334-.069-.492-.09l-.042-.007a5.233,5.233,0,0,0-.552-.04l-.148,0,.912-2.208.086-.011a4.629,4.629,0,0,1,.545-.013.473.473,0,0,1,.064,0l.031,0a4.1,4.1,0,0,1,.482.059l.067.011a4.427,4.427,0,0,1,.526.138l.1.034.013,0c.146.052.3.113.457.187l.039.017.108.044Zm4.506.6.139.129.076.07.025.023c.183.171.368.337.549.5l.048.042c.028.024.055.048.083.071.206.176.419.348.636.511l.087.063.047.034.084.062c.06.045.117.087.177.127l.07.046-.952,2.29-.1-.075c-.017-.013-.035-.024-.053-.035l-.031-.02c-.048-.035-.09-.068-.133-.1l-.022-.018c-.164-.125-.328-.258-.487-.393l-.031-.026c-.036-.03-.071-.06-.106-.092-.193-.168-.39-.346-.583-.527l-.12-.113-.026-.025-.162-.155-.141-.135ZM31.346,91.2l-.061.006c-.134.012-.269.019-.4.019a4.352,4.352,0,0,1-1.959-.466l-.084-.042.96-2.31.1.045.037.015.043.017c.043.02.086.037.128.053l.064.026c.169.069.322.125.468.169.073.023.144.045.215.063.166.045.333.08.508.109l.072.013c.027.006.055.011.083.015a5.188,5.188,0,0,0,.61.049l.149,0Zm1.322-3.184H32.6l-.024,0c-.122.01-.246.015-.371.015l-.156,0a.761.761,0,0,1-.079,0l-.039,0a4.233,4.233,0,0,1-.454-.053l-.036-.006-.054-.009a4.434,4.434,0,0,1-.517-.135l-.078-.027-.035-.013c-.146-.052-.3-.113-.457-.187l-.026-.012-.029-.013-.085-.042.956-2.309.1.046.036.015.048.02c.035.016.071.03.107.045l.075.03c.161.067.321.125.476.174.078.024.144.044.21.062a5.186,5.186,0,0,0,.508.11l.07.013c.028.006.055.011.083.015a5.3,5.3,0,0,0,.611.048l.148,0Zm-.132-5.939a5.365,5.365,0,0,0,2.223.528l.149,0-.915,2.21-.091.011q-.189.016-.373.016l-.154,0h0c-.026,0-.055,0-.084,0l-.044,0a4.29,4.29,0,0,1-.436-.051l-.038-.006-.068-.011a4.413,4.413,0,0,1-.507-.133L32.1,84.6l-.028-.01c-.147-.052-.291-.111-.441-.181l-.023-.01-.042-.019-.086-.042.958-2.307Zm-2.947-2.2.107.1a15.08,15.08,0,0,0,1.842,1.526l.063.044-.052.148-.888,2.14-.1-.074-.044-.029-.042-.027c-.038-.027-.073-.055-.107-.082l-.047-.037c-.162-.124-.325-.255-.484-.391l-.053-.045-.088-.074c-.192-.167-.386-.341-.578-.52l-.057-.055c-.038-.037-.077-.074-.118-.111l-.059-.056-.172-.163-.051-.048Zm-2.623-2.345a17.391,17.391,0,0,1,1.844,1.6l.048.048-.93,2.245-.138-.125-.056-.052-.046-.042c-.18-.168-.362-.332-.541-.487l-.042-.037-.1-.085c-.207-.177-.42-.348-.631-.507l-.085-.062-.052-.037-.078-.058c-.062-.046-.12-.089-.182-.13l-.07-.046.952-2.3ZM23.528,76.48l.061-.006a4.368,4.368,0,0,1,2.365.446l.084.042-.956,2.313-.1-.044c-.022-.01-.045-.019-.067-.028l-.061-.025-.007,0c-.112-.048-.217-.093-.325-.133-.067-.025-.134-.048-.2-.07-.1-.034-.206-.064-.319-.094l-.008,0c-.067-.018-.13-.035-.194-.049-.119-.027-.238-.046-.339-.062l-.072-.012c-.037-.006-.073-.012-.109-.017-.175-.021-.348-.033-.515-.037h-.158Zm-4.347,4.489,2.175-5.255a.677.677,0,0,1,1.3.261.629.629,0,0,1-.058.265l-2.706,6.528-.73-1.76ZM11.349,76.92a4.367,4.367,0,0,1,2.2-.458l.072.006.17.055.073.168.83,2-.148,0c-.174,0-.352.017-.527.038-.031,0-.062.009-.093.014l-.065.01c-.142.022-.258.043-.363.066-.062.014-.125.031-.188.048-.112.029-.223.062-.332.1l-.017.006c-.058.02-.116.039-.175.061-.1.038-.209.082-.34.14l-.062.025c-.02.008-.041.016-.061.025l-.1.045-.961-2.311ZM9.765,82.366l.289-.278c.036-.033.068-.063.1-.093l.065-.062c.191-.18.386-.356.578-.524l.091-.077.047-.039c.162-.138.327-.271.488-.394l.086-.067.061-.047c.023-.017.045-.031.067-.045l.13-.084.947,2.284-.069.046c-.062.042-.125.088-.186.133l-.078.058c-.024.019-.052.04-.081.06l-.017.012-.033.027c-.208.156-.415.322-.635.51l-.133.115c-.188.163-.376.332-.558.5l-.226.209Zm.2,2.953-.143.137-.157.15-.149.142c-.194.181-.39.358-.584.528l-.061.052-.072.062c-.158.135-.322.267-.489.395l-.061.047-.09.069c-.019.014-.04.028-.06.041l-.03.02-.1.069-.335-.8-.612-1.487.068-.046c.067-.045.134-.095.2-.143l.063-.047c.048-.033.092-.063.134-.095h0c.207-.155.415-.322.634-.509l.133-.115c.183-.16.368-.328.55-.5l.094-.086.023-.021.119-.111Zm2.624-5.167.087-.041L12.7,80.1l.023-.01c.131-.062.263-.117.394-.165h0l.093-.034.078-.027a4.4,4.4,0,0,1,.526-.138l.043-.007.026,0a4.239,4.239,0,0,1,.48-.059c.022,0,.038,0,.054,0l.047,0a4.512,4.512,0,0,1,.533.012.172.172,0,0,1,.058.009l.043.015.91,2.2-.148,0c-.168,0-.342.016-.531.038-.03,0-.059.009-.089.014l-.052.009c-.143.021-.267.043-.381.069l-.143.036-.034.009c-.114.029-.23.064-.345.1-.061.02-.122.041-.182.063-.1.038-.215.084-.348.143l-.058.023c-.02.008-.041.016-.061.025l-.1.046ZM8.494,79.128a17.361,17.361,0,0,1,1.8-1.566l.149-.1.948,2.29-.069.046c-.063.042-.126.089-.187.134l-.127.092-.085.062c-.212.159-.425.33-.631.507l-.1.09-.036.031c-.179.156-.361.32-.541.488l-.046.042-.055.051-.14.127-.93-2.245ZM5.761,81.506A15.041,15.041,0,0,0,7.6,79.981l.107-.1.932,2.25-.05.048-.239.23c-.036.032-.067.063-.1.093l-.067.064c-.224.208-.407.374-.578.521l-.081.068-.062.052c-.156.132-.318.263-.482.389l-.041.031c-.037.029-.075.058-.112.085-.02.015-.04.028-.061.041l-.132.088-.944-2.284ZM3.348,84.818,3.3,84.8l-.932-2.2.151,0a5.384,5.384,0,0,0,2.248-.529l.1-.047.956,2.309-.085.042L5.7,84.4l-.028.012a4.255,4.255,0,0,1-.442.177l-.036.013-.087.03a4.486,4.486,0,0,1-.508.134l-.053.008-.044.007a4.3,4.3,0,0,1-.452.053c-.024,0-.041,0-.059,0l-.06,0q-.08,0-.161,0c-.122,0-.244,0-.364-.015A.2.2,0,0,1,3.348,84.818Zm1.289,3.189L3.719,85.8l.148,0a5.268,5.268,0,0,0,.611-.049l.078-.014.075-.014c.181-.03.347-.066.508-.109.067-.018.132-.038.21-.062.154-.048.315-.107.476-.174l.069-.028c.038-.015.076-.03.114-.047l.043-.017a.375.375,0,0,0,.037-.015l.1-.049.956,2.314-.085.042-.028.013L7,87.594,7,87.6c-.149.067-.3.128-.448.18l-.095.034-.02.007a4.508,4.508,0,0,1-.513.135l-.067.011-.031,0a4.077,4.077,0,0,1-.448.052H5.358c-.034,0-.067.005-.1.006q-.081,0-.164,0c-.122,0-.245-.005-.366-.016Zm3.746,2.753a4.375,4.375,0,0,1-1.961.464q-.209,0-.419-.02l0-.094-.077.032-.892-2.157.148,0a5.169,5.169,0,0,0,.609-.048c.029,0,.057-.009.084-.015l.074-.014a5.107,5.107,0,0,0,.5-.109c.066-.017.135-.038.215-.063.144-.045.3-.1.47-.17l.063-.025c.042-.017.084-.034.127-.053l.043-.017a.3.3,0,0,0,.034-.014l.1-.052.962,2.315Zm2.852-2.207a17.341,17.341,0,0,1-1.841,1.6l-.1.078-.952-2.3.069-.046c.049-.033.1-.068.144-.1s.077-.057.118-.085l.058-.042.08-.058c.212-.16.423-.33.627-.506l.1-.086.039-.035c.182-.159.365-.323.542-.488l.239-.221.93,2.246Zm2.732-2.376A15.03,15.03,0,0,0,12.126,87.7l-.172.167v-.22l-.867-2.09.05-.048.221-.21.19-.18c.18-.168.363-.334.544-.492l.127-.108.078-.066c.138-.117.276-.229.413-.332l.048-.038c.05-.039.1-.077.149-.113.016-.012.032-.022.048-.033l.029-.019.1-.072.947,2.286Zm.994-.569-.1.046-.956-2.308.084-.042.041-.018.021-.009c.143-.067.3-.129.45-.184l.029-.011.089-.031a4.271,4.271,0,0,1,.509-.134l.064-.01.039-.006a4.018,4.018,0,0,1,.439-.051c.026,0,.045,0,.064,0l.064,0a4.544,4.544,0,0,1,.525.012l.093.01.917,2.214h-.151a3.839,3.839,0,0,0-.418.03h-.01A5.469,5.469,0,0,0,14.962,85.607ZM13.8,97.486a.678.678,0,0,1-1.253-.516l4.538-10.945.066,0a4.451,4.451,0,0,1,.523.019l.061.006.4.969Zm10.946-.524.011-.027v.054a.674.674,0,0,1-.008.5l-.195.461v-.2a.67.67,0,0,1-.171.1.678.678,0,0,1-.883-.366L19.09,86.836,17.847,83.83l-.007-.016L14.7,76.234a.676.676,0,0,1,1.248-.52l2.267,5.471,1.245,3ZM22.444,85.649l-.1-.046a5.483,5.483,0,0,0-1.412-.446l-.055-.009-.472-1.141.478-1.147.1-.012a4.454,4.454,0,0,1,.51-.012l.109.006.04,0c.129.009.263.024.4.047l.046.007c.032,0,.065.009.1.016a4.409,4.409,0,0,1,.472.124c.06.019.122.042.177.062.124.045.251.1.376.154l.036.016.059.027.086.042-.036.088q-.308.748-.617,1.493ZM25.177,87.7a15.009,15.009,0,0,0-1.842-1.525l-.066-.047.947-2.286.1.072.029.019c.017.011.033.021.049.033.047.035.1.072.143.109l.054.042c.136.105.275.217.412.332l.048.041.156.132c.185.162.368.328.545.493.043.039.087.081.13.123l.06.058.22.21.05.048-.932,2.25Z" transform="translate(-1.499 -74.351)"/></g><g transform="translate(297 190.637)"><rect class="b" width="35" height="10" transform="translate(0 0.363)"/><path class="c" d="M19.968,12.012H18.712L16.874,7.93v4.082H15.617V5.789h1.257l1.842,4.086V5.789h1.252Zm4.056-1.274H22.31l-.333,1.274H20.648l1.945-6.223h1.15L25.7,12.012H24.358Zm-1.44-1.047h1.163l-.581-2.218Zm6.326.688a.78.78,0,0,0-.194-.575,2.239,2.239,0,0,0-.707-.4,3.3,3.3,0,0,1-1.346-.831,1.671,1.671,0,0,1-.41-1.126,1.579,1.579,0,0,1,.558-1.263,2.318,2.318,0,0,1,2.438-.235,1.675,1.675,0,0,1,.69.682,2.045,2.045,0,0,1,.241,1H28.927a1.032,1.032,0,0,0-.186-.665.651.651,0,0,0-.536-.229.672.672,0,0,0-.513.194.731.731,0,0,0-.184.524.645.645,0,0,0,.205.464,2.359,2.359,0,0,0,.727.43,3.113,3.113,0,0,1,1.323.808,1.8,1.8,0,0,1,.412,1.218,1.606,1.606,0,0,1-.517,1.269,2.047,2.047,0,0,1-1.406.457,2.421,2.421,0,0,1-1.1-.248,1.859,1.859,0,0,1-.776-.709,2.061,2.061,0,0,1-.28-1.09h1.261a1.189,1.189,0,0,0,.209.782.857.857,0,0,0,.684.244Q28.909,11.076,28.909,10.379Zm6.317-.44a2.327,2.327,0,0,1-.6,1.611,2.113,2.113,0,0,1-1.556.547,1.96,1.96,0,0,1-1.618-.695,3.078,3.078,0,0,1-.562-1.981V8.374A3,3,0,0,1,31.474,6.4a2.3,2.3,0,0,1,3.161-.126,2.585,2.585,0,0,1,.6,1.633H33.974a1.676,1.676,0,0,0-.2-.908.8.8,0,0,0-.682-.25.762.762,0,0,0-.714.353,2.466,2.466,0,0,0-.222,1.16V9.434a2.712,2.712,0,0,0,.207,1.274.762.762,0,0,0,.712.346.823.823,0,0,0,.684-.241,1.591,1.591,0,0,0,.214-.874Zm3.744.8H37.257l-.333,1.274H35.594l1.945-6.223h1.15l1.958,6.223H39.3ZM37.53,9.691h1.163l-.581-2.218Zm5.582.047h-.624v2.274H41.231V5.789h2a2.036,2.036,0,0,1,1.46.489,1.828,1.828,0,0,1,.515,1.391,1.81,1.81,0,0,1-.9,1.735l1.09,2.547v.06H44.048Zm-.624-1.047H43.2a.661.661,0,0,0,.564-.25,1.086,1.086,0,0,0,.188-.669q0-.936-.731-.936h-.735Z" transform="translate(-12.376 -3.738)"/></g></g><g class="d" transform="translate(307 314)"><rect class="f" width="36" height="24"/><rect class="g" x="0.5" y="0.5" width="35" height="23"/></g><g class="e" transform="translate(68.872 81.648)"><path class="b" d="M13.611,5.756a1.871,1.871,0,0,1-.481,1.3,1.7,1.7,0,0,1-1.25.44,1.576,1.576,0,0,1-1.3-.558,2.474,2.474,0,0,1-.452-1.592V4.5A2.41,2.41,0,0,1,10.6,2.91a1.6,1.6,0,0,1,1.3-.558,1.612,1.612,0,0,1,1.242.457,2.078,2.078,0,0,1,.483,1.312H12.6a1.347,1.347,0,0,0-.163-.73.644.644,0,0,0-.548-.2.613.613,0,0,0-.574.283,1.982,1.982,0,0,0-.179.933v.945a2.18,2.18,0,0,0,.167,1.024.612.612,0,0,0,.572.278.661.661,0,0,0,.55-.194,1.278,1.278,0,0,0,.172-.7Zm4.143-.385a2.333,2.333,0,0,1-.476,1.563,1.645,1.645,0,0,1-1.321.557,1.663,1.663,0,0,1-1.323-.551A2.3,2.3,0,0,1,14.147,5.4V4.54a2.459,2.459,0,0,1,.478-1.609,1.808,1.808,0,0,1,2.642-.01,2.425,2.425,0,0,1,.488,1.6Zm-1.013-.838a2.054,2.054,0,0,0-.192-1.007.711.711,0,0,0-1.192-.012,1.952,1.952,0,0,0-.2.967v.89a1.86,1.86,0,0,0,.2.967.664.664,0,0,0,.6.311.647.647,0,0,0,.587-.3,1.824,1.824,0,0,0,.2-.943ZM19.8,2.42l.945,3.617.941-3.617H23v5H21.99V6.069l.093-2.085-1,3.439H20.4l-1-3.439.093,2.085V7.422h-1.01v-5Zm5.071,5h-1.01v-5h1.01Zm4.346,0H28.2L26.728,4.141V7.422h-1.01v-5h1.01L28.208,5.7V2.42h1.007Zm4.212-.567a1.843,1.843,0,0,1-.716.476,2.617,2.617,0,0,1-.929.16,1.7,1.7,0,0,1-1.34-.534A2.31,2.31,0,0,1,29.95,5.4V4.5A2.474,2.474,0,0,1,30.4,2.91a1.6,1.6,0,0,1,1.317-.558,1.7,1.7,0,0,1,1.228.4,1.9,1.9,0,0,1,.479,1.261h-.983a1.141,1.141,0,0,0-.2-.651.638.638,0,0,0-.495-.173.647.647,0,0,0-.594.3,1.9,1.9,0,0,0-.192.952v.907a1.861,1.861,0,0,0,.2.995.744.744,0,0,0,.672.311.877.877,0,0,0,.484-.12l.089-.062V5.553h-.708V4.791h1.721ZM15.994,11.973a.627.627,0,0,0-.156-.462,1.8,1.8,0,0,0-.569-.325,2.649,2.649,0,0,1-1.082-.668,1.343,1.343,0,0,1-.33-.905A1.269,1.269,0,0,1,14.305,8.6a1.863,1.863,0,0,1,1.96-.189,1.346,1.346,0,0,1,.555.548,1.644,1.644,0,0,1,.194.8H16.008a.829.829,0,0,0-.149-.534.523.523,0,0,0-.431-.184.54.54,0,0,0-.412.156.588.588,0,0,0-.148.421.518.518,0,0,0,.165.373,1.9,1.9,0,0,0,.584.345,2.5,2.5,0,0,1,1.063.649,1.447,1.447,0,0,1,.332.979,1.291,1.291,0,0,1-.416,1.02,1.645,1.645,0,0,1-1.13.368,1.946,1.946,0,0,1-.883-.2,1.494,1.494,0,0,1-.624-.57,1.657,1.657,0,0,1-.225-.876h1.013a.956.956,0,0,0,.168.629.689.689,0,0,0,.55.2Q15.994,12.533,15.994,11.973Zm5.208-.739a2.333,2.333,0,0,1-.476,1.563,1.645,1.645,0,0,1-1.321.557,1.663,1.663,0,0,1-1.323-.551,2.3,2.3,0,0,1-.488-1.544V10.4a2.459,2.459,0,0,1,.478-1.609,1.808,1.808,0,0,1,2.642-.01,2.425,2.425,0,0,1,.488,1.6ZM20.188,10.4A2.054,2.054,0,0,0,20,9.39.711.711,0,0,0,18.8,9.377a1.952,1.952,0,0,0-.2.967v.89a1.86,1.86,0,0,0,.2.967.664.664,0,0,0,.6.311.647.647,0,0,0,.587-.3,1.824,1.824,0,0,0,.2-.943Zm5.26.838a2.333,2.333,0,0,1-.476,1.563,1.645,1.645,0,0,1-1.321.557,1.663,1.663,0,0,1-1.323-.551,2.3,2.3,0,0,1-.488-1.544V10.4a2.459,2.459,0,0,1,.478-1.609,1.808,1.808,0,0,1,2.642-.01,2.425,2.425,0,0,1,.488,1.6ZM24.435,10.4a2.054,2.054,0,0,0-.192-1.007.711.711,0,0,0-1.192-.012,1.952,1.952,0,0,0-.2.967v.89a1.86,1.86,0,0,0,.2.967.664.664,0,0,0,.6.311.647.647,0,0,0,.587-.3,1.824,1.824,0,0,0,.2-.943Zm5.236,2.889H28.66L27.183,10v3.281h-1.01v-5h1.01l1.481,3.284V8.283H29.67Z" transform="translate(234 240)"/></g><path class="b" d="M9.7,7h-1L7.227,3.736V7h-1V2.023h1L8.7,5.291V2.023h1Zm3.244-1.019H11.574L11.308,7H10.245L11.8,2.023h.919L14.285,7H13.211Zm-1.152-.837h.93L12.258,3.37Zm5.059.55a.624.624,0,0,0-.156-.46,1.791,1.791,0,0,0-.566-.323,2.636,2.636,0,0,1-1.077-.665,1.336,1.336,0,0,1-.328-.9,1.263,1.263,0,0,1,.446-1.01,1.854,1.854,0,0,1,1.95-.188,1.34,1.34,0,0,1,.552.545,1.635,1.635,0,0,1,.193.8h-1a.825.825,0,0,0-.149-.531.521.521,0,0,0-.429-.183.537.537,0,0,0-.41.156.585.585,0,0,0-.147.419.516.516,0,0,0,.164.371,1.887,1.887,0,0,0,.581.344,2.49,2.49,0,0,1,1.058.646,1.439,1.439,0,0,1,.33.974A1.285,1.285,0,0,1,17.45,6.7a1.637,1.637,0,0,1-1.125.366,1.936,1.936,0,0,1-.878-.2,1.487,1.487,0,0,1-.62-.567,1.648,1.648,0,0,1-.224-.872h1.008a.951.951,0,0,0,.167.625.686.686,0,0,0,.547.195Q16.852,6.251,16.852,5.694ZM21.9,5.342a1.861,1.861,0,0,1-.479,1.289,1.69,1.69,0,0,1-1.244.438,1.568,1.568,0,0,1-1.294-.555,2.461,2.461,0,0,1-.449-1.584V4.091A2.4,2.4,0,0,1,18.9,2.51a1.839,1.839,0,0,1,2.528-.1,2.067,2.067,0,0,1,.48,1.306H20.9a1.34,1.34,0,0,0-.162-.726.641.641,0,0,0-.545-.2.61.61,0,0,0-.571.282A1.972,1.972,0,0,0,19.446,4v.94a2.169,2.169,0,0,0,.166,1.019.609.609,0,0,0,.569.277.658.658,0,0,0,.547-.193,1.272,1.272,0,0,0,.171-.7Zm2.994.639H23.527L23.26,7H22.2l1.555-4.977h.919L26.237,7H25.164Zm-1.152-.837h.93L24.21,3.37Zm4.464.038h-.5V7h-1V2.023h1.6a1.628,1.628,0,0,1,1.167.391,1.462,1.462,0,0,1,.412,1.113,1.448,1.448,0,0,1-.721,1.388l.872,2.037V7h-1.08Zm-.5-.837h.571a.529.529,0,0,0,.451-.2.869.869,0,0,0,.15-.535q0-.749-.584-.749H27.71Z" transform="translate(307 316)"/></g></svg>