<svg xmlns="http://www.w3.org/2000/svg" width="21.304" height="19.352" viewBox="0 0 21.304 19.352"><defs><style>.a{fill:#587581;}</style></defs><g transform="translate(0.001 -23.462)"><g transform="translate(19.456 36.165)"><path class="a" d="M469.312,329.879l-1.016-1.007a.416.416,0,0,0-.586.591l1.016,1.007a.416.416,0,0,0,.586-.591Z" transform="translate(-467.587 -328.751)"/></g><g transform="translate(18.419 35.133)"><path class="a" d="M443.386,304.073a.416.416,0,0,0-.589,0h0a.416.416,0,1,0,.589,0Z" transform="translate(-442.675 -303.951)"/></g><g transform="translate(0 23.462)"><path class="a" d="M15.582,37.174l4.037-4.037a1.567,1.567,0,0,0-.756-2.636,1.569,1.569,0,0,0-1.156-2.207,1.566,1.566,0,0,0-1.221-2.036,1.569,1.569,0,0,0-2.238-1.871l-.04-.043a2.777,2.777,0,0,0-2.027-.882H8.912a.416.416,0,0,0-.416.416v.546a1.891,1.891,0,0,0,.108.631A1.568,1.568,0,0,0,6.514,27,1.568,1.568,0,0,0,5.29,29.032a1.568,1.568,0,0,0-1.155,2.205,1.568,1.568,0,0,0-.757,2.637l.83.83L.121,38.793a.416.416,0,1,0,.589.589l4.127-4.127a1.567,1.567,0,0,0,2.341-1.427l.063,0A1.567,1.567,0,0,0,8.81,32.261c0-.021,0-.042,0-.063h.063a1.567,1.567,0,0,0,1.568-1.568c0-.021,0-.042,0-.063H10.5a1.567,1.567,0,0,0,1.213-2.562l2.763-2.763a.736.736,0,1,1,1.041,1.041l-.407.407-1.478,1.478a.416.416,0,1,0,.589.589L15.7,27.282a.736.736,0,1,1,1.041,1.041l-.407.407L15.261,29.8a.416.416,0,1,0,.589.589l1.071-1.071A.736.736,0,1,1,17.96,30.36l-.559.559-.511.511a.416.416,0,1,0,.589.589l.512-.512a.736.736,0,0,1,1.04,1.041l-4.037,4.037A5.638,5.638,0,0,1,11.2,38.239a.416.416,0,0,0-.28.122L7.19,42.1a.416.416,0,1,0,.59.587l2.743-2.753a3.868,3.868,0,0,0,2.35.6l2.147,2.147a.416.416,0,0,0,.589-.589l-2.283-2.283A.416.416,0,0,0,13,39.7l-.132.011a3.038,3.038,0,0,1-1.737-.378l.267-.268A6.467,6.467,0,0,0,15.582,37.174Zm-9.45-2.763a.736.736,0,0,1-1.041,0L3.967,33.286a.736.736,0,1,1,1.041-1.041L6.133,33.37A.737.737,0,0,1,6.132,34.411Zm1.629-1.629a.737.737,0,0,1-1.041,0L5.6,31.657,5.037,31.1a.736.736,0,1,1,1.041-1.041l1.684,1.684h0a.736.736,0,0,1,0,1.041Zm1.629-1.629a.737.737,0,0,1-1.041,0L6.259,29.061A.736.736,0,0,1,7.3,28.02l.953.953,1.138,1.138h0a.736.736,0,0,1,0,1.041Zm1.629-1.629a.737.737,0,0,1-1.041,0L7.889,27.432h0l-.407-.407a.736.736,0,0,1,1.041-1.041l2.5,2.5a.736.736,0,0,1,0,1.041Zm.109-2.108L9.987,26.271a1.9,1.9,0,0,0,.4.042h.009l1.142-.005a.416.416,0,0,0,0-.832h0l-1.142.005h-.005a1.057,1.057,0,0,1-1.057-1.057v-.13H12.18a1.942,1.942,0,0,1,1.417.617l.017.018Z" transform="translate(0 -23.462)"/></g></g></svg>