<svg xmlns="http://www.w3.org/2000/svg" width="35.109" height="21.943" viewBox="0 0 35.109 21.943"><defs><style>.a{fill:#13457c;}.b{fill:#fbb231;}.b,.c,.d{fill-rule:evenodd;}.c{fill:#ec1c2e;}.d{fill:#fff;}.e{fill:none;stroke:#fff;stroke-miterlimit:2.613;stroke-width:0.216px;}</style></defs><rect class="a" width="35.109" height="21.943" rx="3" transform="translate(0 0)"/><g transform="translate(7.031 4.673)"><path class="b" d="M1111.455,157.933l.325-.008.321-.023.314-.04.313-.056.3-.07.3-.085.293-.1.286-.113.281-.127.272-.138.263-.153.257-.163.247-.176.238-.187.23-.2.219-.21.21-.219.2-.23.188-.238.176-.247.164-.257.153-.264.138-.272.127-.28.113-.287.1-.293.085-.3.07-.3.055-.312.041-.315.023-.321.008-.325-.008-.323-.023-.319-.041-.314-.055-.308-.07-.3-.085-.3-.1-.293-.113-.285-.127-.278-.138-.272-.153-.261-.164-.257-.176-.247-.188-.236-.2-.229-.21-.219-.219-.208-.23-.2-.238-.187-.247-.176-.257-.164-.263-.151-.272-.138-.281-.128-.286-.113-.293-.1-.3-.085-.3-.07-.313-.055-.314-.04-.321-.024-.325-.008-.323.008-.321.024-.314.04-.311.055-.3.07-.3.085-.291.1-.287.113-.278.128-.27.138-.264.151-.255.164-.246.176-.238.187-.228.2-.219.208-.208.219-.2.229-.187.236-.174.247-.164.257-.15.261-.14.272-.125.278-.113.285-.1.293-.085.3-.071.3-.055.308-.04.314-.024.319-.009.323.009.325.024.321.04.315.055.312.071.3.085.3.1.293.113.287.125.28.14.272.15.264.164.257.174.247.187.238.2.23.208.219.219.21.228.2.238.187.246.176.255.163.264.153.27.138.278.127.287.113.291.1.3.085.3.07.311.056.314.04.321.023.323.008Z" transform="translate(-1096.718 -145.335)"/><path class="c" d="M1081.291,157.933l.323-.008.321-.023.315-.04.31-.056.3-.07.3-.085.291-.1.287-.113.278-.127.27-.138.263-.153.255-.163.247-.176.238-.187.227-.2.219-.21.208-.219.2-.23.186-.238.174-.247.163-.257.151-.264.141-.272.125-.28.113-.287.1-.293.085-.3.071-.3.055-.312.041-.315.023-.321.008-.325-.008-.323-.023-.319-.041-.314-.055-.308-.071-.3-.085-.3-.1-.293-.113-.285-.125-.278-.141-.272-.151-.261-.163-.257-.174-.247-.186-.236-.2-.229-.208-.219-.219-.208-.227-.2-.238-.187-.247-.176-.255-.164-.263-.151-.27-.138-.278-.128-.287-.113-.291-.1-.3-.085-.3-.07-.31-.055-.315-.04-.321-.024-.323-.008-.325.008-.321.024-.314.04-.313.055-.3.07-.3.085-.293.1-.286.113-.281.128-.272.138-.264.151-.257.164-.247.176-.238.187-.23.2-.219.208-.21.219-.2.229-.187.236-.177.247-.163.257-.153.261-.138.272-.128.278-.112.285-.1.293-.085.3-.07.3-.055.308-.04.314-.023.319-.008.323.008.325.023.321.04.315.055.312.07.3.085.3.1.293.112.287.128.28.138.272.153.264.163.257.177.247.187.238.2.23.21.219.219.21.23.2.238.187.247.176.257.163.264.153.272.138.281.127.286.113.293.1.3.085.3.07.313.056.314.04.321.023.325.008Z" transform="translate(-1074.98 -145.335)"/><path class="b" d="M1109.943,153.086h3.347v-.342h-3.058l-.289.342Z" transform="translate(-1100.157 -150.67)"/><path class="b" d="M1108.152,155.8H1112v-.342h-3.646l-.2.342Z" transform="translate(-1098.867 -152.627)"/><path class="b" d="M1106.814,158.514h4.223v-.342h-4.073l-.149.342Z" transform="translate(-1097.904 -154.579)"/><path class="b" d="M1105.9,161.232h4.48v-.342H1106l-.107.342Z" transform="translate(-1097.243 -156.536)"/><path class="b" d="M1106.155,174.364h4.341v-.342h-4.448l.107.342Z" transform="translate(-1097.353 -165.992)"/><path class="b" d="M1107.165,177.081h4.02v-.342h-4.179l.159.342Z" transform="translate(-1098.042 -167.949)"/><path class="b" d="M1108.631,179.791h3.57v-.342h-3.785l.215.342Z" transform="translate(-1099.057 -169.9)"/><path class="b" d="M1110.63,182.5h2.949v-.344h-3.249l.3.344Z" transform="translate(-1100.435 -171.851)"/><path class="b" d="M1105.359,163.941h4.63V163.6h-4.564l-.066.342Z" transform="translate(-1096.856 -158.487)"/><path class="b" d="M1115.439,171.653h1.765v-.342h-1.7l-.063.342Z" transform="translate(-1104.115 -164.04)"/><path class="b" d="M1115.939,168.938h1.625v-.344H1116l-.064.344Z" transform="translate(-1104.475 -162.084)"/><path class="b" d="M1104.941,168.594h.459v.344h-.437l-.021-.344Z" transform="translate(-1096.555 -162.084)"/><path class="d" d="M1097.29,165.736l-.029,0-.03,0-.027,0-.027,0-.026,0-.027,0-.028,0-.03,0-.03,0-.034,0-.038,0-.04,0h-.045l-.049,0-.055,0-.061,0-.043.007-.041.006-.036.013-.032.013-.029.015-.027.017-.021.022-.019.019-.013.023-.011.023,0,.025v.026l.007.028.008.027.017.028.021.028.043.04.051.032.059.027.064.023.068.021.071.023.07.026.068.027.064.036.059.045.054.053.044.066.034.081.021.1.009.115-.009.134-.015.1-.026.087-.034.081-.043.07-.049.062-.055.053-.06.047-.066.041-.068.032-.071.027-.072.021-.074.017-.072.013-.07.006-.07,0-.066,0h-.091l-.085,0h-.074l-.07,0-.064,0-.057,0-.051,0-.049-.006-.045,0-.041-.008-.04-.007-.037-.01-.036-.009-.034-.013-.034-.012-.036-.013.1-.469.019,0,.024.006.029.008.036.009.038.008.042.008.047.011.051.009.053.008.055.009.058.006.059.006.062,0,.062,0h.062l.061,0,.062-.013.049-.017.038-.023.03-.03.021-.03.017-.034.011-.034.009-.032,0-.062-.019-.053-.036-.043-.053-.036-.063-.032-.075-.032-.083-.03-.083-.034-.085-.038-.081-.045-.074-.055-.068-.066-.054-.081-.038-.1-.019-.114,0-.136.01-.083.015-.079.021-.072.026-.068.034-.064.038-.055.045-.053.053-.046.062-.04.068-.034.077-.032.085-.023.1-.019.1-.015.114-.008.126,0h.078l.072,0,.066,0,.06,0,.053,0,.049,0,.042,0,.038,0,.036,0,.029.006.029,0,.025,0,.021,0,.02,0,.019,0,.016,0-.108.48Z" transform="translate(-1089.761 -159.64)"/><path class="e" d="M1097.29,165.736h0l-.029,0-.03,0-.027,0-.027,0-.026,0-.027,0-.028,0-.03,0-.03,0-.034,0-.038,0-.04,0h-.045l-.049,0-.055,0-.061,0h0l-.043.007-.041.006-.036.013-.032.013-.029.015-.027.017-.021.022-.019.019-.013.023-.011.023,0,.025v.026l.007.028.008.027.017.028.021.028h0l.043.04.051.032.059.027.064.023.068.021.071.023.07.026.068.027.064.036.059.045.054.053.044.066.034.081.021.1.009.115-.009.134h0l-.015.1-.026.087-.034.081-.043.07-.049.062-.055.053-.06.047-.066.041-.068.032-.071.027-.072.021-.074.017-.072.013-.07.006-.07,0-.066,0h-.091l-.085,0h-.074l-.07,0-.064,0-.057,0-.051,0-.049-.006-.045,0-.041-.008-.04-.007-.037-.01-.036-.009-.034-.013-.034-.012-.036-.013.1-.469h0l.019,0,.024.006.029.008.036.009.038.008.042.008.047.011.051.009.053.008.055.009.058.006.059.006.062,0,.062,0h.062l.061,0h0l.062-.013.049-.017.038-.023.03-.03.021-.03.017-.034.011-.034.009-.032h0l0-.062-.019-.053-.036-.043-.053-.036-.063-.032-.075-.032-.083-.03-.083-.034-.085-.038-.081-.045-.074-.055-.068-.066-.054-.081-.038-.1-.019-.114,0-.136h0l.01-.083.015-.079.021-.072.026-.068.034-.064.038-.055.045-.053.053-.046.062-.04.068-.034.077-.032.085-.023.1-.019.1-.015.114-.008.126,0h.078l.072,0,.066,0,.06,0,.053,0,.049,0,.042,0,.038,0,.036,0,.029.006.029,0,.025,0,.021,0,.02,0,.019,0,.016,0-.108.48" transform="translate(-1089.761 -159.64)"/><path class="d" d="M1102.6,163.524h.588l-.087.514h.355l-.076.48-.374-.011-.2,1.185,0,.043.01.036.021.028.028.023.038.015.043.013.046.008.051,0,.047,0,.043,0,.038-.007.035-.008.027-.008.019-.006.013,0,0,0-.074.4-.015.01-.015.008-.015.008-.015.008-.015.006-.017.007-.019.006-.019.006-.021.006-.021,0-.025,0-.026,0-.028,0-.032,0-.034,0-.036,0h-.161l-.085-.006-.074-.008-.068-.013-.057-.015-.049-.019-.04-.021-.036-.026-.028-.028-.021-.03-.015-.036-.011-.036-.006-.04,0-.045v-.047l.007-.049.006-.053.406-2.318Z" transform="translate(-1094.571 -158.433)"/><path class="e" d="M1102.6,163.524h.588l-.087.514h.355l-.076.48-.374-.011-.2,1.185h0l0,.043.01.036.021.028.028.023.038.015.043.013.046.008.051,0h0l.047,0,.043,0,.038-.007.035-.008.027-.008.019-.006.013,0,0,0-.074.4h0l-.015.01-.015.008-.015.008-.015.008-.015.006-.017.007-.019.006-.019.006-.021.006-.021,0-.025,0-.026,0-.028,0-.032,0-.034,0-.036,0h-.161l-.085-.006-.074-.008-.068-.013-.057-.015-.049-.019-.04-.021-.036-.026-.028-.028-.021-.03-.015-.036-.011-.036-.006-.04,0-.045v-.047l.007-.049.006-.053.406-2.318" transform="translate(-1094.571 -158.433)"/><path class="e" d="M1106.821,166.526h0l-.005.036,0,.038,0,.04.009.04.015.04.017.039.023.04.026.036.03.036.032.032.034.032.038.025.038.024.043.019.042.015.043.009h0l.056.008.053.007.055.006.056,0,.055,0h.057l.056,0,.057,0,.057-.008.058-.011.059-.013.057-.019.06-.023.062-.026.059-.034.062-.036-.085.523h0l-.034.017-.034.017-.034.012-.032.013-.032.01-.034.011-.034.008-.036.007-.038.006-.043,0-.044,0-.049,0-.055,0h-.057l-.066,0h-.07l-.1,0-.106-.011-.106-.015-.107-.026-.1-.032-.1-.041-.1-.053-.089-.062-.083-.072-.072-.087-.061-.1-.051-.113-.036-.125-.023-.143-.006-.157.01-.174h0l.009-.068.013-.079.017-.083.024-.09.032-.091.038-.092.049-.093.059-.089.068-.085.083-.081.093-.072.107-.064.123-.053.138-.038.153-.025.172-.009h0l.083,0,.087.008.087.015.087.021.085.032.083.038.077.051.07.059.064.072.053.085.043.1.03.113.017.127,0,.144-.015.162-.032.179-.011.13h-1.549l.1-.419h.931l0-.053,0-.051,0-.047-.008-.042-.015-.04-.015-.036-.021-.032-.021-.03-.025-.025-.028-.021-.032-.019-.032-.017-.033-.012-.034-.009-.036-.006-.038,0h0l-.041,0-.038.006-.036.009-.036.012-.037.017-.032.019-.032.023-.027.025-.028.03-.026.032-.023.034-.02.036-.019.038-.015.042-.013.042-.009.045-.085.44" transform="translate(-1097.462 -159.64)"/><path class="d" d="M1120.946,163.919l-.028-.015-.027-.013-.03-.015-.032-.015-.032-.013-.036-.013-.036-.013-.038-.013-.041-.011-.04-.008-.045-.009-.044-.006-.049,0-.049,0h-.157l-.056,0-.057.007-.06.01-.059.017-.06.023-.059.03-.06.038-.057.047-.055.055-.053.068-.051.079-.047.093-.044.106-.04.119-.034.136-.013.076-.009.074,0,.074,0,.072.007.072.015.068.019.064.023.064.032.058.038.055.045.049.051.045.057.038.066.032.072.028.081.019.027.006.032.006.038,0,.043,0,.046,0h.1l.053,0,.055-.007.055-.01.053-.015.053-.017.053-.024.049-.027.044-.034.043-.038-.1.567-.013.011-.013.013-.017.015-.019.012-.023.017-.03.015-.034.015-.038.013-.049.015-.055.011-.064.009-.074.008-.083,0-.1,0-.108,0-.12-.006-.1-.011-.1-.021-.1-.032-.1-.043-.093-.051-.089-.064-.085-.074-.079-.085-.07-.1-.06-.106-.051-.119-.038-.13-.025-.142-.009-.151,0-.166.023-.176.018-.087.019-.085.021-.083.021-.079.024-.074.027-.074.028-.07.03-.066.032-.066.032-.062.036-.059.038-.055.038-.053.042-.051.042-.047.045-.045.049-.043.049-.04.051-.036.054-.034.057-.032.057-.027.06-.026.062-.024.066-.021.066-.017.068-.015.072-.012.072-.011.077-.008.076,0,.081,0,.068,0,.066,0,.063.006.064.009.06.008.057.013.055.011.051.013.049.013.042.013.041.013.034.013.03.011.026.009.019.008.013,0-.107.588Z" transform="translate(-1106.52 -158.186)"/><path class="e" d="M1120.946,163.919h0l-.028-.015-.027-.013-.03-.015-.032-.015-.032-.013-.036-.013-.036-.013-.038-.013-.041-.011-.04-.008-.045-.009-.044-.006-.049,0-.049,0h-.157l-.056,0-.057.007-.06.01-.059.017-.06.023-.059.03-.06.038-.057.047-.055.055-.053.068-.051.079-.047.093-.044.106-.04.119-.034.136h0l-.013.076-.009.074,0,.074,0,.072.007.072.015.068.019.064.023.064.032.058.038.055.045.049.051.045.057.038.066.032.072.028.081.019h0l.027.006.032.006.038,0,.043,0,.046,0h.1l.053,0,.055-.007.055-.01.053-.015.053-.017.053-.024.049-.027.044-.034.043-.038-.1.567h0l-.013.011-.013.013-.017.015-.019.012-.023.017-.03.015-.034.015-.038.013-.049.015-.055.011-.064.009-.074.008-.083,0-.1,0-.108,0-.12-.006h0l-.1-.011-.1-.021-.1-.032-.1-.043-.093-.051-.089-.064-.085-.074-.079-.085-.07-.1-.06-.106-.051-.119-.038-.13-.025-.142-.009-.151,0-.166.023-.176h0l.018-.087.019-.085.021-.083.021-.079.024-.074.027-.074.028-.07.03-.066.032-.066.032-.062.036-.059.038-.055.038-.053.042-.051.042-.047.045-.045.049-.043.049-.04.051-.036.054-.034.057-.032.057-.027.06-.026.062-.024.066-.021.066-.017.068-.015.072-.012.072-.011.077-.008.076,0,.081,0h0l.068,0,.066,0,.063.006.064.009.06.008.057.013.055.011.051.013.049.013.042.013.041.013.034.013.03.011.026.009.019.008.013,0-.107.588" transform="translate(-1106.52 -158.186)"/><path class="d" d="M1140.2,166.34h-.588l.043-.236v-.021l-.035.043-.035.038-.036.034-.038.03-.039.028-.038.023-.038.019-.04.019-.04.015-.04.011-.04.01-.043.006-.043.007-.041,0-.042,0h-.043l-.11-.009-.1-.023-.094-.036-.085-.049-.077-.062-.068-.072-.059-.079-.051-.089-.043-.1-.034-.1-.023-.1-.017-.109-.006-.108,0-.11.011-.108.019-.108.032-.126.039-.119.044-.108.054-.1.055-.1.063-.085.066-.076.07-.07.074-.062.079-.053.081-.047.08-.036.085-.03.085-.019.085-.013.087,0,.062,0,.059.007.056.011.051.015.048.017.043.019.043.024.038.023.034.025.032.028.027.028.026.028.021.028.02.028.016.026.013.025h0l.149-.835h.578l-.481,2.779Z" transform="translate(-1120.546 -158.46)"/><path class="e" d="M1140.2,166.34h-.588l.043-.236v-.021h0l-.035.043-.035.038-.036.034-.038.03-.039.028-.038.023-.038.019-.04.019-.04.015-.04.011-.04.01-.043.006-.043.007-.041,0-.042,0h-.043l-.11-.009-.1-.023-.094-.036-.085-.049-.077-.062-.068-.072-.059-.079-.051-.089-.043-.1-.034-.1-.023-.1-.017-.109-.006-.108,0-.11.011-.108.019-.108h0l.032-.126.039-.119.044-.108.054-.1.055-.1.063-.085.066-.076.07-.07.074-.062.079-.053.081-.047.08-.036.085-.03.085-.019.085-.013.087,0h0l.062,0,.059.007.056.011.051.015.048.017.043.019.043.024.038.023.034.025.032.028.027.028.026.028.021.028.02.028.016.026.013.025h0l.149-.835h.578l-.481,2.779" transform="translate(-1120.546 -158.46)"/><path class="b" d="M1141,168.439l.06,0,.055-.013.051-.015.049-.023.044-.025.043-.032.04-.036.037-.039.032-.043.03-.047.028-.049.023-.051.021-.053.017-.055.015-.057.01-.057.01-.059.007-.062v-.058l0-.059-.006-.055-.009-.053-.015-.051-.017-.049-.021-.042-.025-.041-.028-.034-.032-.03-.036-.025-.039-.017-.04-.011-.045,0-.057,0-.053.008-.049.017-.049.021-.043.028-.042.034-.036.036-.036.04-.032.046-.03.049-.028.051-.023.055-.021.057-.017.058-.017.061-.013.062-.011.094,0,.1.015.1.027.1.042.087.055.07.07.047.085.017Z" transform="translate(-1122.304 -161.072)"/><path class="d" d="M1090.176,167.092l-.085.472h-.535l.015-.087.011-.079.008-.059.009-.032-.03.034-.034.034-.04.032-.045.03-.051.03-.054.025-.055.026-.057.021-.062.019-.062.015-.061.013-.064.008-.062,0-.061,0-.06-.006-.058-.008-.074-.019-.068-.021-.06-.028-.053-.032-.047-.034-.043-.038-.034-.041-.03-.042-.025-.045-.021-.047-.017-.046-.013-.047-.009-.049-.007-.049,0-.047v-.047l.007-.083.013-.078.021-.074.028-.072.034-.068.038-.062.045-.059.051-.053.053-.049.06-.045.061-.04.064-.034.068-.029.07-.024.072-.019.074-.013h0l.01,0,.015,0,.024,0,.026,0,.029,0,.032,0,.037,0,.036,0,.036,0,.038,0,.034,0,.034,0,.032,0,.03,0h.073l.051,0,.047,0h.047l.038,0,.03,0,.021,0h.006l0-.015.013-.038.011-.045,0-.04-.008-.047-.019-.043-.026-.038-.034-.032-.04-.027-.044-.019-.051-.013-.055,0-.059,0-.064,0h-.066l-.068,0-.07,0-.068.006-.068.006-.066.009-.063.008-.062.011-.055.01-.051.011-.047.013-.038.012-.03.015-.023.013.151-.512.047-.019.046-.017.051-.015.051-.011.051-.011.055-.008.055-.009.057,0,.06,0,.061,0,.064,0h.2l.074,0,.074,0,.06,0,.064.011.066.015.067.019.066.026.065.03.063.036.06.04.053.047.047.051.043.057.032.064.021.068.013.072v.081l-.013.085-.215,1.122Z" transform="translate(-1084.529 -159.683)"/><path class="e" d="M1090.176,167.092l-.085.472h-.535l.015-.087.011-.079.008-.059.009-.032h0l-.03.034-.034.034-.04.032-.045.03-.051.03-.054.025-.055.026-.057.021-.062.019-.062.015-.061.013-.064.008-.062,0-.061,0-.06-.006-.058-.008h0l-.074-.019-.068-.021-.06-.028-.053-.032-.047-.034-.043-.038-.034-.041-.03-.042-.025-.045-.021-.047-.017-.046-.013-.047-.009-.049-.007-.049,0-.047v-.047h0l.007-.083.013-.078.021-.074.028-.072.034-.068.038-.062.045-.059.051-.053.053-.049.06-.045.061-.04.064-.034.068-.029.07-.024.072-.019.074-.013h0l.01,0,.015,0,.024,0,.026,0,.029,0,.032,0,.037,0,.036,0,.036,0,.038,0,.034,0,.034,0,.032,0,.03,0h.073l.051,0,.047,0h.047l.038,0,.03,0,.021,0h.006l0-.015.013-.038.011-.045,0-.04h0l-.008-.047-.019-.043-.026-.038-.034-.032-.04-.027-.044-.019-.051-.013-.055,0h0l-.059,0-.064,0h-.066l-.068,0-.07,0-.068.006-.068.006-.066.009-.063.008-.062.011-.055.01-.051.011-.047.013-.038.012-.03.015-.023.013.151-.512h0l.047-.019.046-.017.051-.015.051-.011.051-.011.055-.008.055-.009.057,0,.06,0,.061,0,.064,0h.2l.074,0,.074,0h0l.06,0,.064.011.066.015.067.019.066.026.065.03.063.036.06.04.053.047.047.051.043.057.032.064.021.068.013.072v.081l-.013.085-.215,1.122" transform="translate(-1084.529 -159.683)"/><path class="c" d="M1091.365,169.725l0-.011-.009-.011-.013-.007-.021,0-.024,0-.027,0h-.064l-.034,0-.036,0-.034,0-.034,0-.032,0-.03.006-.025.007-.023.006-.015,0-.017.007-.024.008-.023.011-.027.013-.028.015-.03.015-.028.017-.03.021-.027.021-.026.026-.024.026-.021.027-.015.03-.013.034-.006.034,0,.072.011.057.021.043.028.032.032.021.036.013.034.006.034,0,.064,0,.057-.006.055-.009.048-.013.043-.015.04-.019.036-.019.032-.023.028-.021.025-.025.021-.023.017-.026.015-.026.013-.025.011-.024.006-.023.017-.061.015-.07.013-.068.011-.056Z" transform="translate(-1086.229 -162.87)"/><path class="d" d="M1077.7,166.313h-.578l.482-2.79h1.005l.1,1.655.695-1.655h1.05l-.493,2.79h-.578l.365-2.084h-.023l-.865,2.084h-.652l0-.087-.015-.232-.019-.329-.021-.378-.021-.38-.019-.333-.015-.242,0-.1h-.032l-.353,2.084Z" transform="translate(-1076.522 -158.433)"/><path class="e" d="M1077.7,166.313h-.578l.482-2.79h1.005l.1,1.655.695-1.655h1.05l-.493,2.79h-.578l.365-2.084h-.023l-.865,2.084h-.652l0-.087-.015-.232-.019-.329-.021-.378-.021-.38-.019-.333-.015-.242,0-.1h-.032l-.353,2.084" transform="translate(-1076.522 -158.433)"/><path class="d" d="M1127.877,167.092l-.087.472h-.534l0-.087,0-.076v-.057l0-.025-.028.032-.032.032-.038.03-.042.03-.045.027-.051.025-.053.026-.053.021-.058.017-.059.017-.06.011-.059.008-.062,0-.059,0-.058-.006-.057-.008-.077-.019-.068-.021-.06-.028-.055-.032-.047-.034-.041-.038-.034-.041-.03-.042-.025-.045-.019-.047-.017-.046-.01-.047-.009-.049-.007-.049,0-.047v-.047l0-.083.013-.078.019-.074.027-.072.032-.068.041-.062.044-.059.049-.053.056-.049.057-.045.062-.04.066-.034.066-.029.07-.024.07-.019.072-.013h0l.011,0,.015,0,.021,0,.027,0,.03,0,.032,0,.034,0,.036,0,.038,0,.036,0,.036,0,.034,0,.03,0,.03,0h.074l.051,0,.049,0h.047l.04,0,.034,0,.019,0h.009l0-.015.007-.038.006-.045,0-.04-.009-.047-.016-.043-.028-.038-.032-.032-.038-.027-.045-.019-.047-.013-.051,0-.059,0-.063,0H1127l-.068,0-.07,0-.068.006-.068.006-.066.009-.063.008-.062.011-.055.01-.051.011-.047.013-.038.012-.03.015-.023.013.149-.512.047-.019.049-.017.049-.015.051-.011.053-.011.053-.008.055-.009.057,0,.06,0,.062,0,.061,0h.2l.072,0,.072,0,.06,0,.064.011.066.015.068.019.066.026.066.03.064.036.06.04.053.047.049.051.042.057.032.064.023.068.015.072v.081l-.01.085-.223,1.122Z" transform="translate(-1111.684 -159.683)"/><path class="d" d="M1132.486,172.286l.012-.013.087-.472-.026,0-.087.472.013-.013v.03l.01,0,0-.011-.012.013Z" transform="translate(-1116.38 -164.39)"/><path class="d" d="M1130.562,173.451l.013.015h.533v-.03h-.533l.012.015h-.026l0,.015h.015l-.013-.015Z" transform="translate(-1115.003 -165.571)"/><path class="d" d="M1130.6,172.6l-.019-.017-.009.034,0,.057v.076l0,.087h.026l0-.087,0-.076,0-.057V172.6l-.019-.017.021.017Z" transform="translate(-1115.007 -164.953)"/><path class="d" d="M1127.736,172.868h0l.059.008.058.006.059,0,.062,0,.061-.008.06-.011.059-.017.06-.017.053-.021.055-.025.051-.025.045-.03.045-.03.038-.029.034-.034.028-.032-.021-.017-.028.032-.03.03-.038.03-.04.03-.045.025-.051.026-.051.025-.053.021-.056.017-.059.017-.06.011-.057.008-.062,0-.059,0-.058-.006-.055-.008h0l0,.025Z" transform="translate(-1112.969 -164.953)"/><path class="d" d="M1125.9,171.311h0l0,.047,0,.047.006.051.009.049.011.047.017.049.019.049.027.045.03.045.034.04.043.04.049.034.055.034.062.027.07.021.077.019,0-.025-.076-.019-.066-.021-.058-.027-.055-.03-.045-.034-.038-.036-.034-.04-.03-.04-.023-.044-.02-.045-.017-.044-.01-.047-.009-.049-.006-.047,0-.047,0-.047h-.03Z" transform="translate(-1111.646 -164.04)"/><path class="d" d="M1126.661,168.4h0l-.074.013-.072.019-.07.023-.068.03-.066.034-.064.043-.057.045-.055.051-.051.053-.044.059-.043.064-.032.07-.028.072-.019.076-.013.081-.007.083h.03l0-.083.013-.076.019-.072.027-.072.032-.066.038-.059.045-.059.047-.053.055-.047.058-.045.059-.038.066-.034.063-.029.071-.023.068-.019.07-.013h0V168.4Z" transform="translate(-1111.646 -161.942)"/><path class="d" d="M1129.061,168.237h-.023l-.03,0-.03,0-.034,0-.037,0-.036,0-.038,0-.036,0-.034,0-.032,0-.03,0-.027,0-.021,0-.017,0-.009,0h0v.026h0l.013,0,.012,0,.021,0,.027,0,.03,0,.032,0,.034,0,.036,0,.038,0,.036,0,.037,0,.034,0,.03,0h.053v-.03Z" transform="translate(-1113.608 -161.827)"/><path class="d" d="M1130.475,168.26l.013-.011h-.009l-.019,0-.034,0-.04,0h-.1l-.051,0h-.051v.03h.1l.049,0h.087l.034,0,.019,0h.009l.012-.011-.012.011.01,0,0-.013-.025,0Z" transform="translate(-1114.735 -161.827)"/><path class="d" d="M1131.234,167.835h0l0,.04-.006.043-.006.038,0,.015.025,0,0-.015.007-.039.007-.046.007-.04h-.028Z" transform="translate(-1115.473 -161.537)"/><path class="d" d="M1130.385,167.013v0l.049,0,.044.013.043.019.036.026.029.03.026.036.017.038.008.045h.025l-.008-.049-.017-.047-.03-.04-.034-.034-.041-.029-.047-.019-.049-.012-.053-.006v.027Z" transform="translate(-1114.877 -160.925)"/><path class="d" d="M1127.129,167.1l.021.013.021-.011.027-.015.036-.013.047-.012.051-.011.055-.011.062-.011.061-.008.066-.009.068-.006.068-.006.071,0h.2l.06,0v-.026l-.06,0-.063,0h-.066l-.068,0-.071,0-.068.007-.068.006-.066.008-.066.008-.062.011-.055.011-.051.011-.046.012-.041.013-.032.014-.026.015.022.013-.026,0Z" transform="translate(-1112.532 -160.914)"/><path class="d" d="M1127.286,165.58l-.009.011-.149.512.026,0,.148-.512-.008.011-.008-.026-.007,0,0,.009.009-.011Z" transform="translate(-1112.532 -159.913)"/><path class="d" d="M1128.637,165.215h0l-.072,0-.072,0h-.2l-.061,0-.062,0-.06,0-.057,0-.057.009-.052.009-.054.011-.051.011-.051.015-.049.017-.047.019.008.026.047-.019.049-.017.047-.015.051-.01.053-.011.053-.008.053-.009.057,0,.06,0,.062,0h.261l.072,0h.072v-.025Z" transform="translate(-1112.937 -159.646)"/><path class="d" d="M1131.8,165.952h0l.011-.087v-.081l-.015-.075-.024-.07-.034-.066-.043-.06-.051-.053-.053-.047-.061-.041-.064-.038-.068-.03-.066-.026-.07-.019-.066-.015-.066-.01-.06,0v.025l.06,0,.061.011.066.015.066.019.066.025.063.03.064.034.057.04.053.047.046.049.043.055.03.062.023.066.015.07v.081l-.011.083h0l.026,0Z" transform="translate(-1115.369 -159.663)"/><path class="d" d="M1132.809,168.916h0l.223-1.122-.026,0-.223,1.122h0l.026,0Z" transform="translate(-1116.604 -161.505)"/><path class="b" d="M1129.063,169.719l0-.013-.008-.01-.015-.007-.022-.006-.023,0-.027,0h-.032l-.032,0-.034,0-.033,0-.034,0-.032,0-.032.006-.028,0-.027.006-.021,0-.015,0-.017.006-.021.006-.024.008-.028.012-.026.013-.03.015-.027.019-.028.019-.027.023-.023.023-.024.028-.019.03-.015.032-.012.034-.007.036,0,.072.01.057.017.043.025.032.032.021.037.013.036.006.036,0,.063,0,.059-.006.055-.011.049-.015.047-.017.04-.019.038-.022.034-.025.03-.023.025-.027.024-.026.019-.028.015-.025.01-.026.009-.025.007-.023.008-.06.011-.062.008-.059,0-.053Z" transform="translate(-1113.384 -162.865)"/><path class="d" d="M1146.629,171.712l0-.049.017-.057.03-.051.036-.045.044-.036.051-.026.055-.017.06-.006.06.006.055.017.051.026.044.036.036.045.03.051.018.057,0,.049h-.064l0-.039-.013-.047-.021-.042-.028-.036-.034-.03-.04-.021-.047-.015-.049,0-.049,0-.047.015-.041.021-.034.03-.027.036-.021.042-.013.047,0,.039Z" transform="translate(-1126.574 -164.122)"/><path class="d" d="M1147.313,172.123V172h.117l.026,0,.024,0,.016.006.015.008.01.013.008.013,0,.015,0,.015,0,.019,0,.015-.006.013,0,0h-.089l.008,0,.015,0,.013,0,.011,0,.008-.006,0-.007,0-.01v-.015l0-.011,0-.009-.007,0-.006,0-.01,0-.011,0h-.087v.083Z" transform="translate(-1127.066 -164.533)"/><path class="d" d="M1146.625,172.451l0,.012.006.062.017.057.03.051.036.043.044.036.051.028.055.017.06.006.06-.006.055-.017.051-.028.044-.036.036-.043.03-.051.017-.057.006-.062,0-.012h-.064l0,.012,0,.051-.012.047-.021.04-.028.036-.034.03-.04.023-.047.015-.049,0-.049,0-.047-.015-.041-.023-.034-.03-.027-.036-.021-.04-.012-.047,0-.051v-.012Z" transform="translate(-1126.57 -164.861)"/><path class="d" d="M1147.313,172.451v.129h.053v-.106h.053l.064.106h.042l-.063-.106h.015l.014,0,.013,0,.011-.008,0-.006h-.089l-.011,0h-.053v0Z" transform="translate(-1127.066 -164.861)"/><path class="e" d="M1146.623,171.725h0l.006-.062.017-.057.03-.051.036-.044.044-.036.051-.026.055-.017.059-.006h0l.06.006.055.017.051.026.044.036.036.044.03.051.017.057.007.062h0l-.007.062-.017.057-.03.051-.036.043-.044.036-.051.028-.055.017-.06.006h0l-.059-.006-.055-.017-.051-.028-.044-.036-.036-.043-.03-.051-.017-.057-.006-.062m.246.117h-.053v-.257h.117l.026,0,.023,0,.016.006.015.008.01.013.008.013,0,.015,0,.015h0l0,.019,0,.015-.006.013-.008.011-.011.008-.013,0-.014,0h-.015l.063.106h-.042l-.064-.106h-.053v.106m.053-.128h0l.019,0,.015,0,.013,0,.011,0,.008-.006,0-.007,0-.01v-.015h0l0-.011,0-.009-.007,0-.006,0-.01,0-.011,0h-.087v.085h.053m0,.257h0l.049,0,.047-.015.04-.023.034-.03.028-.036.021-.041.013-.047,0-.051h0l0-.051-.013-.047-.021-.042-.028-.036-.034-.03-.04-.021-.047-.015-.049,0h0l-.048,0-.046.015-.041.021-.034.03-.027.036-.021.042-.012.047,0,.051h0l0,.051.012.047.021.041.027.036.034.03.041.023.046.015.048,0" transform="translate(-1126.57 -164.122)"/><path class="d" d="M1133.4,167.576h.6l.215-1.209.008-.046.013-.047.013-.047.017-.047.021-.047.025-.045.028-.042.035-.04.038-.036.043-.034.049-.032.055-.025.062-.021.068-.017.074-.013.083,0h.053l.1-.546-.06,0-.057.007-.053.01-.051.015-.047.017-.044.022-.043.023-.04.025-.039.03-.036.03-.034.034-.034.034-.032.036-.031.04-.032.038-.03.043.064-.384h-.6l-.4,2.275Z" transform="translate(-1117.047 -159.695)"/><path class="e" d="M1133.4,167.576h.6l.215-1.209h0l.008-.046.013-.047.013-.047.017-.047.021-.047.025-.045.028-.042.035-.04.038-.036.043-.034.049-.032.055-.025.062-.021.068-.017.074-.013.083,0h.053l.1-.546h0l-.06,0-.057.007-.053.01-.051.015-.047.017-.044.022-.043.023-.04.025-.039.03-.036.03-.034.034-.034.034-.032.036-.031.04-.032.038-.03.043.064-.384h-.6l-.4,2.275h0" transform="translate(-1117.047 -159.695)"/><path class="d" d="M1113.3,167.576h.61l.2-1.209.009-.046.01-.045.011-.045.015-.043.017-.043.021-.04.025-.038.03-.036.034-.032.038-.032.047-.026.051-.023.06-.019.066-.017.072-.011.083-.006h.006l.009,0,.01,0h.011l.011,0,.008,0,.006,0h0l0-.008.006-.026.008-.038.011-.047.015-.055.015-.06.02-.059.019-.06.017-.04.021-.041.021-.04.021-.036.019-.032.015-.026.01-.015,0-.006h0l-.008,0-.011,0-.015,0h-.015l-.017,0-.015,0h-.015l-.066,0-.059.007-.056.01-.051.013-.049.017-.044.021-.04.021-.038.025-.036.028-.034.032-.032.032-.032.036-.032.036-.03.041-.032.042-.032.043.076-.384h-.609l-.4,2.275Z" transform="translate(-1102.573 -159.695)"/><path class="e" d="M1113.3,167.576h.61l.2-1.209h0l.009-.046.01-.045.011-.045.015-.043.017-.043.021-.04.025-.038.03-.036.034-.032.038-.032.047-.026.051-.023.06-.019.066-.017.072-.011.083-.006h.006l.009,0,.01,0h.011l.011,0,.008,0,.006,0h0l0-.008.006-.026.008-.038.011-.047.015-.055.015-.06.02-.059.019-.06h0l.017-.04.021-.041.021-.04.021-.036.019-.032.015-.026.01-.015,0-.006h0l-.008,0-.011,0-.015,0h-.015l-.017,0-.015,0h-.015l-.066,0-.059.007-.056.01-.051.013-.049.017-.044.021-.04.021-.038.025-.036.028-.034.032-.032.032-.032.036-.032.036-.03.041-.032.042-.032.043.076-.384h-.609l-.4,2.275h0" transform="translate(-1102.573 -159.695)"/><path class="b" d="M1146.645,180.869v-.009l.017-.055.03-.049.036-.042.044-.034.051-.026.055-.015.06-.007.06.007.055.015.051.026.044.034.036.042.029.049.018.055v.009h-.062l-.013-.044-.021-.041-.028-.036-.034-.03-.04-.024-.047-.015-.049,0-.049,0-.046.015-.041.024-.034.03-.027.036-.021.041-.013.044Z" transform="translate(-1126.585 -170.753)"/><path class="b" d="M1147.313,181.285v-.074h.143l.024,0,.016,0,.015.008.01.011.008.013,0,.015,0,.019h-.042v-.011l0-.011,0-.008-.007,0-.006,0-.01,0-.011,0h-.087v.042Z" transform="translate(-1127.066 -171.169)"/><path class="b" d="M1146.623,181.522l.006-.047h.062v0l0,.045Z" transform="translate(-1126.57 -171.36)"/><path class="b" d="M1147.313,181.522v-.047h.053v.042h.053l.019,0,.015,0,.013,0,.011,0,.008-.006,0-.007,0-.01v0h.042l0,.015,0,.013-.006.011-.008.008Z" transform="translate(-1127.066 -171.36)"/><path class="b" d="M1148.524,181.522l0-.045v0h.062l.007.047Z" transform="translate(-1127.935 -171.36)"/><path class="b" d="M1146.623,181.642v.006l.006.062.017.057.03.051.036.045.044.036.051.025.055.017.06.006.06-.006.055-.017.051-.025.044-.036.036-.045.03-.051.017-.057.006-.062v-.006h-.064v.006l0,.051-.012.047-.021.04-.028.036-.034.03-.04.023-.047.015-.049,0-.049,0-.047-.015-.041-.023-.034-.03-.027-.036-.021-.04-.012-.047,0-.051v-.006Z" transform="translate(-1126.57 -171.48)"/><path class="b" d="M1147.313,181.642v.123h.053v-.106h.053l.064.106h.042l-.063-.106h.015l.014,0,.013,0,.011-.009h-.2Z" transform="translate(-1127.066 -171.48)"/><path class="d" d="M1108.253,165.922l-.017-.127-.03-.113-.043-.1-.053-.085-.064-.072-.07-.059-.077-.051-.083-.038-.085-.032-.088-.021-.086-.015-.088-.009-.083,0-.172.009-.153.025-.138.038-.123.053-.107.064-.094.072-.083.081-.068.085-.059.089-.049.093-.038.092-.032.091-.023.09-.017.082-.013.079-.009.068-.01.174.006.157.023.142.036.125.052.113.061.1.072.087.083.072.089.062.1.053.1.041.1.032.107.026.106.015.106.011.1,0h.07l.065,0h.057l.055,0,.049,0,.044,0,.043,0,.038-.006.036-.007.034-.008.034-.011.032-.01.032-.013.034-.012.035-.017.034-.017.085-.523-.062.036-.059.034-.062.026-.06.023-.057.019-.059.013-.058.011-.057.009-.057,0-.056,0h-.057l-.055,0-.056,0-.055-.006-.052-.006-.056-.008-.043-.009-.042-.015-.043-.019-.038-.024-.038-.025-.034-.032-.032-.032-.03-.036-.026-.036-.023-.04-.017-.039-.015-.041-.009-.04,0-.041,0-.036,0-.027h1.378l.011-.13.032-.179.015-.162Zm-.575.2h-.777v0h0l.006-.03.009-.045.013-.043.015-.042.019-.038.02-.036.023-.034.026-.032.028-.03.027-.025.032-.023.032-.019.037-.017.036-.012.036-.009.038-.006.041,0,.038,0,.036.006.035.009.033.012.032.017.032.019.028.021.025.025.021.03.021.032.015.036.015.041.008.042,0,.047,0,.051Z" transform="translate(-1097.462 -159.64)"/></g></svg>