<svg xmlns="http://www.w3.org/2000/svg" width="202.844" height="33.85" viewBox="0 0 202.844 33.85"><defs><style>.a{fill:#f47b4e;}.b{fill:#fff;}</style></defs><g transform="translate(-86 -124.745)"><path class="a" d="M40.8.129,40.5,3.6H42.6L40.091,33.28h4.524L47.122,3.6H49.2l.292-3.47Z" transform="translate(123.762 124.854)"/><path class="a" d="M57.08,6.383,55.326,27.175q-.361,4.284-1.445,5.3T49.65,33.493q-3.429,0-4.35-1.006t-.559-5.312L46.5,6.383q.358-4.245,1.452-5.283t4.4-1.036q3.268,0,4.178,1.015t.549,5.3M52.674,4.748a1.748,1.748,0,0,0-.092-.906.547.547,0,0,0-.525-.27.728.728,0,0,0-.621.27,1.82,1.82,0,0,0-.257.906l-2.029,24.06a1.752,1.752,0,0,0,.1.938.6.6,0,0,0,.575.279.654.654,0,0,0,.572-.279,2.035,2.035,0,0,0,.248-.938Z" transform="translate(127.626 124.8)"/><path class="a" d="M54.056.129H58.6L56.185,28.754a1.72,1.72,0,0,0,.1.936.6.6,0,0,0,.573.279.674.674,0,0,0,.583-.279,1.9,1.9,0,0,0,.257-.936L60.116.129h4.565L62.4,27.119q-.358,4.248-1.452,5.283t-4.263,1.036q-3.429,0-4.35-1.006t-.559-5.312Z" transform="translate(133.605 124.854)"/><path class="a" d="M61.426.13h6q2.73,0,3.553,1.115t.449,5.542L71,11.849a8.886,8.886,0,0,1-.736,3.18,4.208,4.208,0,0,1-1.715,1.765,3.081,3.081,0,0,1,1.443,1.574,7.983,7.983,0,0,1,.185,3.229l-.986,11.682H64.668l1.1-13.057a1.2,1.2,0,0,0-.2-.917,1.186,1.186,0,0,0-.9-.279h-.318l-1.2,14.253H58.629ZM65.658,3.6l-.971,11.5a.779.779,0,0,0,.176.05,1.714,1.714,0,0,0,.218.009,1.139,1.139,0,0,0,.864-.318,1.526,1.526,0,0,0,.361-.956l.723-8.571a2.523,2.523,0,0,0-.118-1.445,1.183,1.183,0,0,0-.934-.27Z" transform="translate(139.513 124.855)"/><path class="a" d="M68.606.108h3.786l1.544,16.207h.318L75.463.108H79.41l-2.8,33.19H72.821l-1.5-17.642H71L69.753,33.3H65.806Z" transform="translate(145.61 124.836)"/><path class="a" d="M78.025.129h6.736L84.456,33.28H79.912l.318-7.556H78.217L77.3,33.28H72.735Zm2.891,4.944L78.691,22.216h1.715l.629-17.142Z" transform="translate(151.498 124.854)"/><path class="a" d="M83.173.129h4.964l.575,15.149h.318L92.182.129h4.983l-2.8,33.149H90.4l2.066-20.013h-.457l-3.6,20.013H86.295l-.244-20.013h-.438L84.323,33.279H80.376Z" transform="translate(157.99 124.854)"/><path class="a" d="M92.247.129h7.215L99.17,3.6H96.479l-.823,9.768h2.689l-.294,3.509H95.36L94.27,29.77h2.691l-.3,3.509H89.45Z" transform="translate(165.699 124.854)"/><path class="a" d="M97.574.108h3.788L102.9,16.314h.318L104.433.108h3.945l-2.8,33.19H101.79l-1.5-17.642h-.32L98.721,33.3H94.774Z" transform="translate(170.223 124.836)"/><path class="a" d="M103.292.129h8.691L111.691,3.6h-2.075l-2.5,29.681h-4.524l2.5-29.681H103Z" transform="translate(176.861 124.854)"/><path class="b" d="M0,6.91Q0,2.249,1.367,1.125T8.055,0q5.443,0,6.79,1.206t1.347,5.7V26.859q0,4.6-1.367,5.795T8.1,33.85q-5.424,0-6.76-1.226T0,26.859Zm7.071.2V26.657A2.679,2.679,0,0,0,7.3,27.974a.857.857,0,0,0,.793.37,1.006,1.006,0,0,0,.762-.27,1.033,1.033,0,0,0,.261-.753V7.112a2.448,2.448,0,0,0-.24-1.306,1.033,1.033,0,0,0-.9-.342.832.832,0,0,0-.673.272,1.127,1.127,0,0,0-.231.753Z" transform="translate(86 124.745)"/><path class="b" d="M10.3,33.516V.108h8.055q5.263,0,6.709,1.2T26.506,7.02v8.357q0,4.558-1.456,5.754t-6.659,1.2H17.367V33.516ZM17.367,5.492V16.943c.08,0,.194.006.342.02s.253.018.32.018a1.6,1.6,0,0,0,1.095-.279,1.447,1.447,0,0,0,.29-1.045V7.3a2.526,2.526,0,0,0-.279-1.528,1.677,1.677,0,0,0-1.147-.281Z" transform="translate(94.748 124.836)"/><path class="b" d="M20.592,33.516V.108H31.821V5.492h-4.2v6.951h4.2v5.443h-4.2v10.2h4.2v5.425Z" transform="translate(103.495 124.836)"/><path class="b" d="M28.216,33.516V.108h6.57L38.3,17.225V.108h6.128V33.516H37.839L34.3,17.143V33.516Z" transform="translate(109.973 124.836)"/></g></svg>