<svg xmlns="http://www.w3.org/2000/svg" width="36" height="32.854" viewBox="0 0 36 32.854"><defs><style>.a{fill:#8298a1;}.b{fill:#587581;stroke:#203e4b;}.c{fill:#fff;}.d{fill:#bcc8cc;}.e{stroke:none;}.f{fill:none;}</style></defs><g transform="translate(-309 -42.769)"><g transform="translate(0 -290)"><g transform="translate(311 332.769)"><path class="a" d="M37.908,63.031a26.972,26.972,0,0,1-3.648-.249,4.09,4.09,0,0,1-2.487-1.327,4.869,4.869,0,0,1-1.327-2.487A25.211,25.211,0,0,1,58.969,30.445a4.574,4.574,0,0,1,3.814,3.814h0a25.353,25.353,0,0,1-7.131,21.392A25.616,25.616,0,0,1,37.908,63.031ZM55.4,31.44A24.019,24.019,0,0,0,31.772,58.719a2.566,2.566,0,0,0,.912,1.741,3.244,3.244,0,0,0,1.741.912A23.981,23.981,0,0,0,61.456,34.342,3.165,3.165,0,0,0,58.8,31.689,24.325,24.325,0,0,0,55.4,31.44Z" transform="translate(-30.183 -30.177)"/><path class="a" d="M51.587,48.834a.645.645,0,1,0,.912-.912l-.912-.912L52.5,46.1l.912.912a.645.645,0,0,0,.912-.912l-.912-.912.912-.912a.645.645,0,0,0-.912-.912l-.912.912-.912-.912a.645.645,0,0,0-.912.912l.912.912-.912.912-.912-.912a.645.645,0,0,0-.912.912l.912.912-.912.912-.829-.912a.645.645,0,0,0-.912.912l.912.912-.912.829-.912-.829a.645.645,0,0,0-.912.912l.912.912-.912.912-.912-.912a.645.645,0,1,0-.912.912l.912.912-.912.912a.645.645,0,1,0,.912.912l.912-.912.912.912a.645.645,0,1,0,.912-.912l-.912-.912.912-.912.912.912a.645.645,0,0,0,.912-.912l-.912-.995.829-.912.912.912a.645.645,0,0,0,.912-.912l-.912-.829.912-.912Z" transform="translate(-32.419 -32.397)"/></g><g class="b" transform="translate(309 337)"><rect class="e" width="36" height="24"/><rect class="f" x="0.5" y="0.5" width="35" height="23"/></g><path class="c" d="M11.9,7h-1L9.421,3.736V7h-1V2.023h1l1.473,3.268V2.023h1Zm4.18-1.658A1.861,1.861,0,0,1,15.6,6.631a1.69,1.69,0,0,1-1.244.438,1.568,1.568,0,0,1-1.294-.555,2.461,2.461,0,0,1-.449-1.584V4.091a2.4,2.4,0,0,1,.465-1.581,1.593,1.593,0,0,1,1.292-.555A1.6,1.6,0,0,1,15.6,2.41a2.067,2.067,0,0,1,.48,1.306H15.074a1.34,1.34,0,0,0-.162-.726.641.641,0,0,0-.545-.2.61.61,0,0,0-.571.282A1.972,1.972,0,0,0,13.618,4v.94a2.169,2.169,0,0,0,.166,1.019.609.609,0,0,0,.569.277.658.658,0,0,0,.547-.193,1.272,1.272,0,0,0,.171-.7Zm2.994.639H17.7L17.433,7H16.37l1.555-4.977h.919L20.41,7H19.336Zm-1.152-.837h.93L18.383,3.37Zm5.332.837H21.879L21.613,7H20.55L22.1,2.023h.919L24.59,7H23.517ZM22.1,5.144h.93L22.563,3.37Zm5.523-.174H26.06V7h-1V2.023H27.81v.837H26.06V4.136h1.562Z" transform="translate(309 338)"/></g><path class="d" d="M9.874,11.342A1.861,1.861,0,0,1,9.4,12.631a1.69,1.69,0,0,1-1.244.438,1.568,1.568,0,0,1-1.294-.555,2.461,2.461,0,0,1-.449-1.584v-.837A2.4,2.4,0,0,1,6.873,8.51a1.593,1.593,0,0,1,1.292-.555A1.6,1.6,0,0,1,9.4,8.41a2.067,2.067,0,0,1,.48,1.306H8.872a1.34,1.34,0,0,0-.162-.726.641.641,0,0,0-.545-.2.61.61,0,0,0-.571.282A1.972,1.972,0,0,0,7.416,10v.94a2.169,2.169,0,0,0,.166,1.019.609.609,0,0,0,.569.277.658.658,0,0,0,.547-.193,1.272,1.272,0,0,0,.171-.7ZM14,10.959a2.321,2.321,0,0,1-.473,1.555,1.636,1.636,0,0,1-1.314.554,1.655,1.655,0,0,1-1.316-.549,2.287,2.287,0,0,1-.485-1.536v-.851a2.447,2.447,0,0,1,.475-1.6A1.616,1.616,0,0,1,12.2,7.955a1.624,1.624,0,0,1,1.309.566A2.413,2.413,0,0,1,14,10.108Zm-1.008-.834a2.044,2.044,0,0,0-.191-1,.707.707,0,0,0-1.186-.012,1.942,1.942,0,0,0-.2.962v.885a1.851,1.851,0,0,0,.195.962.661.661,0,0,0,.6.309.644.644,0,0,0,.584-.3,1.815,1.815,0,0,0,.195-.938Zm3.042-2.1.94,3.6.937-3.6h1.313V13H18.21V11.653L18.3,9.579,17.308,13h-.684L15.63,9.579l.092,2.075V13h-1V8.023ZM21.074,13h-1V8.023h1ZM25.4,13h-1l-1.47-3.264V13h-1V8.023h1L24.4,11.291V8.023h1Zm4.19-.564a1.834,1.834,0,0,1-.713.473,2.6,2.6,0,0,1-.925.159,1.7,1.7,0,0,1-1.333-.531,2.3,2.3,0,0,1-.489-1.547v-.9a2.461,2.461,0,0,1,.449-1.584,1.587,1.587,0,0,1,1.311-.555,1.688,1.688,0,0,1,1.222.4,1.892,1.892,0,0,1,.477,1.254h-.978a1.135,1.135,0,0,0-.2-.648.635.635,0,0,0-.492-.173.644.644,0,0,0-.591.3,1.9,1.9,0,0,0-.191.947v.9a1.852,1.852,0,0,0,.2.99.74.74,0,0,0,.668.309.873.873,0,0,0,.482-.12l.089-.062v-.913h-.7v-.759h1.712ZM13,17.694a.624.624,0,0,0-.156-.46,1.791,1.791,0,0,0-.566-.323,2.636,2.636,0,0,1-1.077-.665,1.336,1.336,0,0,1-.328-.9,1.263,1.263,0,0,1,.446-1.01,1.854,1.854,0,0,1,1.95-.188,1.34,1.34,0,0,1,.552.545,1.635,1.635,0,0,1,.193.8h-1a.825.825,0,0,0-.149-.531.521.521,0,0,0-.429-.183.537.537,0,0,0-.41.156.585.585,0,0,0-.147.419.516.516,0,0,0,.164.371,1.887,1.887,0,0,0,.581.344,2.49,2.49,0,0,1,1.058.646,1.439,1.439,0,0,1,.33.974A1.285,1.285,0,0,1,13.6,18.7a1.637,1.637,0,0,1-1.125.366,1.936,1.936,0,0,1-.878-.2,1.487,1.487,0,0,1-.62-.567,1.648,1.648,0,0,1-.224-.872h1.008a.951.951,0,0,0,.167.625.686.686,0,0,0,.547.195Q13,18.251,13,17.694Zm4.249-.848H15.686v1.319h1.853V19H14.681V14.023h2.851v.837H15.686v1.176h1.565Zm1.87.4V19h-1V14.023h1.7a1.555,1.555,0,0,1,1.177.458,1.647,1.647,0,0,1,.439,1.189,1.54,1.54,0,0,1-.434,1.155,1.649,1.649,0,0,1-1.2.424Zm0-.837h.69a.547.547,0,0,0,.444-.188.832.832,0,0,0,.157-.547.986.986,0,0,0-.161-.593.515.515,0,0,0-.431-.224h-.7Zm6.2-1.552h-1.23V19H23.083V14.861h-1.21v-.837h3.449Z" transform="translate(309 48)"/></g></svg>