<svg xmlns="http://www.w3.org/2000/svg" width="37.81" height="27.279" viewBox="0 0 37.81 27.279"><defs><style>.a,.g{fill:none;}.a{stroke:#8298a1;}.b{fill:#8298a1;}.c{fill:#587581;stroke:#203e4b;}.d{fill:#fff;}.e{fill:#bcc8cc;}.f{stroke:none;}</style></defs><g transform="translate(-77 -46)"><g transform="translate(77 46)"><path class="a" d="M46.241,49.482C36.209,49.482,28,46.414,28,42.6V54.789c0,3.814,8.126,6.882,18.241,6.882S64.483,58.6,64.483,54.789V42.6C64.483,46.414,56.274,49.482,46.241,49.482Z" transform="translate(-27.337 -35.055)"/><path class="b" d="M46.1,60.779c-10.613,0-18.9-3.317-18.9-7.545V41.045c0-4.229,8.292-7.545,18.9-7.545s18.9,3.317,18.9,7.545V53.234C65.01,57.546,56.718,60.779,46.1,60.779ZM28.527,41.626V53.234c0,2.985,7.048,6.219,17.578,6.219s17.578-3.234,17.578-6.219V41.045c0-2.985-7.048-6.219-17.578-6.219S28.527,38.06,28.527,41.045v.58Z" transform="translate(-27.2 -33.5)"/></g><g class="c" transform="translate(78 47)"><rect class="f" width="36" height="24"/><rect class="g" x="0.5" y="0.5" width="35" height="23"/></g><path class="d" d="M15.913,7h-1l-1.47-3.264V7h-1V2.023h1l1.473,3.268V2.023h1Zm4.3,0h-1V4.871H17.725V7h-1V2.023h1V4.037h1.483V2.023h1Zm1.812-.834h1.764V7H21.016V2.023h1Z" transform="translate(78 48)"/><path class="e" d="M9.874,11.342A1.861,1.861,0,0,1,9.4,12.631a1.69,1.69,0,0,1-1.244.438,1.568,1.568,0,0,1-1.294-.555,2.461,2.461,0,0,1-.449-1.584v-.837A2.4,2.4,0,0,1,6.873,8.51a1.593,1.593,0,0,1,1.292-.555A1.6,1.6,0,0,1,9.4,8.41a2.067,2.067,0,0,1,.48,1.306H8.872a1.34,1.34,0,0,0-.162-.726.641.641,0,0,0-.545-.2.61.61,0,0,0-.571.282A1.972,1.972,0,0,0,7.416,10v.94a2.169,2.169,0,0,0,.166,1.019.609.609,0,0,0,.569.277.658.658,0,0,0,.547-.193,1.272,1.272,0,0,0,.171-.7ZM14,10.959a2.321,2.321,0,0,1-.473,1.555,1.636,1.636,0,0,1-1.314.554,1.655,1.655,0,0,1-1.316-.549,2.287,2.287,0,0,1-.485-1.536v-.851a2.447,2.447,0,0,1,.475-1.6A1.616,1.616,0,0,1,12.2,7.955a1.624,1.624,0,0,1,1.309.566A2.413,2.413,0,0,1,14,10.108Zm-1.008-.834a2.044,2.044,0,0,0-.191-1,.707.707,0,0,0-1.186-.012,1.942,1.942,0,0,0-.2.962v.885a1.851,1.851,0,0,0,.195.962.661.661,0,0,0,.6.309.644.644,0,0,0,.584-.3,1.815,1.815,0,0,0,.195-.938Zm3.042-2.1.94,3.6.937-3.6h1.313V13H18.21V11.653L18.3,9.579,17.308,13h-.684L15.63,9.579l.092,2.075V13h-1V8.023ZM21.074,13h-1V8.023h1ZM25.4,13h-1l-1.47-3.264V13h-1V8.023h1L24.4,11.291V8.023h1Zm4.19-.564a1.834,1.834,0,0,1-.713.473,2.6,2.6,0,0,1-.925.159,1.7,1.7,0,0,1-1.333-.531,2.3,2.3,0,0,1-.489-1.547v-.9a2.461,2.461,0,0,1,.449-1.584,1.587,1.587,0,0,1,1.311-.555,1.688,1.688,0,0,1,1.222.4,1.892,1.892,0,0,1,.477,1.254h-.978a1.135,1.135,0,0,0-.2-.648.635.635,0,0,0-.492-.173.644.644,0,0,0-.591.3,1.9,1.9,0,0,0-.191.947v.9a1.852,1.852,0,0,0,.2.99.74.74,0,0,0,.668.309.873.873,0,0,0,.482-.12l.089-.062v-.913h-.7v-.759h1.712ZM8.877,14.023h1v3.445a1.647,1.647,0,0,1-.4,1.162,1.349,1.349,0,0,1-1.039.438,1.382,1.382,0,0,1-1.063-.407A1.594,1.594,0,0,1,7,17.53H8.006q0,.7.434.7t.438-.813Zm5.031,0v3.445a1.61,1.61,0,0,1-.427,1.188,1.653,1.653,0,0,1-1.207.412,1.667,1.667,0,0,1-1.222-.417,1.622,1.622,0,0,1-.422-1.207V14.023h1.012v3.425a1.026,1.026,0,0,0,.137.6.586.586,0,0,0,.5.181.579.579,0,0,0,.492-.179,1.022,1.022,0,0,0,.137-.59V14.023Zm1.767,4.143h1.764V19H14.671V14.023h1Zm2.892-1.907.749-2.235H20.41L19.077,17.2V19H18.058V17.2l-1.336-3.172h1.094Zm4.7-.188h.468a.437.437,0,0,0,.391-.186.881.881,0,0,0,.125-.5.741.741,0,0,0-.128-.463.412.412,0,0,0-.344-.166.406.406,0,0,0-.33.157.607.607,0,0,0-.128.4h-.967a1.367,1.367,0,0,1,.179-.7,1.26,1.26,0,0,1,.5-.484,1.652,1.652,0,0,1,1.793.205,1.383,1.383,0,0,1,.39,1.039,1.183,1.183,0,0,1-.176.627,1.2,1.2,0,0,1-.463.443,1.064,1.064,0,0,1,.525.451,1.55,1.55,0,0,1-.25,1.774,1.546,1.546,0,0,1-1.109.4,1.361,1.361,0,0,1-1.436-1.432h.967a.71.71,0,0,0,.14.448.431.431,0,0,0,.355.181.476.476,0,0,0,.395-.185.774.774,0,0,0,.145-.492q0-.735-.571-.738h-.475Zm5.571.872a2.788,2.788,0,0,1-.374,1.579,1.321,1.321,0,0,1-2.129.015,2.692,2.692,0,0,1-.388-1.523v-.94a2.782,2.782,0,0,1,.373-1.574,1.326,1.326,0,0,1,2.14-.005,2.732,2.732,0,0,1,.379,1.542Zm-.971-1.008a2.533,2.533,0,0,0-.116-.882.387.387,0,0,0-.362-.294q-.461,0-.479,1.077v1.241a2.551,2.551,0,0,0,.118.9.392.392,0,0,0,.367.294.375.375,0,0,0,.35-.275,2.4,2.4,0,0,0,.121-.843Z" transform="translate(78 48)"/></g></svg>