<svg xmlns="http://www.w3.org/2000/svg" width="17.208" height="19.562" viewBox="0 0 17.208 19.562"><defs><style>.a{fill:#f47b4e;}</style></defs><path class="a" d="M47.8,7.65,39.651.178a.68.68,0,0,0-.932.013l-7.7,7.472a.68.68,0,0,0-.206.487V18.883a.679.679,0,0,0,.679.679h5.66a.679.679,0,0,0,.679-.679V13.9H41v4.981a.679.679,0,0,0,.679.679h5.66a.679.679,0,0,0,.679-.679V8.151A.679.679,0,0,0,47.8,7.65ZM46.663,18.2h-4.3V13.222a.679.679,0,0,0-.679-.679H37.154a.679.679,0,0,0-.679.679V18.2h-4.3V8.438L39.2,1.613,46.663,8.45V18.2Z" transform="translate(-30.814 0)"/></svg>