<svg xmlns="http://www.w3.org/2000/svg" width="28.069" height="28.069" viewBox="0 0 28.069 28.069"><defs><style>.a{fill:#203E4B;}</style></defs><path class="a" d="M58.458,42.861h.022q-.032-.313-.086-.626a.393.393,0,0,0-.043-.129,14.023,14.023,0,1,0,.209,2.409A15.828,15.828,0,0,0,58.458,42.861Zm-1.265-1.05h-.18a15.731,15.731,0,0,0-13.021,6.917,26.628,26.628,0,0,1-3.954-3.458A36.662,36.662,0,0,1,53.246,34.945c.144.137.295.273.431.41A12.9,12.9,0,0,1,57.193,41.811Zm-4.731-7.528A37.75,37.75,0,0,0,39.4,44.565,26.719,26.719,0,0,1,36.652,40.8a15.7,15.7,0,0,0,3.329-8.419,13,13,0,0,1,4.537-.812A12.791,12.791,0,0,1,52.462,34.283ZM31.576,45.011a15.7,15.7,0,0,0,4.443-3.465,27.639,27.639,0,0,0,2.8,3.767,37.9,37.9,0,0,0-4.4,7.312A12.794,12.794,0,0,1,31.576,45.011Zm2.258-7.83A27.333,27.333,0,0,0,35.516,40.7a14.767,14.767,0,0,1-3.947,3.243A12.921,12.921,0,0,1,33.833,37.181ZM39,32.788a14.782,14.782,0,0,1-2.854,7.139A26.732,26.732,0,0,1,34.495,36.3c.266-.324.554-.64.856-.942A12.987,12.987,0,0,1,39,32.788ZM35.091,53.4a36.7,36.7,0,0,1,4.364-7.384,27.9,27.9,0,0,0,4.033,3.5,15.6,15.6,0,0,0-2.2,7.549,12.888,12.888,0,0,1-5.932-3.394C35.264,53.581,35.178,53.494,35.091,53.4Zm7.125,3.868a14.732,14.732,0,0,1,2.042-7.219,27.367,27.367,0,0,0,9.16,3.882,12.877,12.877,0,0,1-8.9,3.545A14.406,14.406,0,0,1,42.217,57.269Zm11.978-4.141a26.352,26.352,0,0,1-9.433-3.875,14.791,14.791,0,0,1,12.251-6.514c.115,0,.23,0,.345.007a13.128,13.128,0,0,1,.122,1.769A12.929,12.929,0,0,1,54.195,53.128Z" transform="translate(-30.49 -30.48)"/></svg>