<svg xmlns="http://www.w3.org/2000/svg" width="28.337" height="28.337" viewBox="0 0 28.337 28.337"><defs><style>.a{fill:#f47b4e;}</style></defs><g transform="translate(-30.5 -30.5)"><path class="a" d="M44.669,58.837a14.165,14.165,0,1,1,10.02-4.149A14.081,14.081,0,0,1,44.669,58.837Zm0-27.247a13.074,13.074,0,1,0,9.25,3.829A12.992,12.992,0,0,0,44.669,31.59Z"/><g transform="translate(36.879 38.02)"><path class="a" d="M44.872,62.908a.757.757,0,0,0-.523.668.771.771,0,0,0,.712.821.544.544,0,0,0,.153-.015.331.331,0,0,0,.145-.036.464.464,0,0,0,.138-.058c.044-.029.087-.058.124-.087a.657.657,0,0,0,.182-.24.964.964,0,0,0,.087-.291.771.771,0,0,0-.712-.821A1.9,1.9,0,0,0,44.872,62.908Z" transform="translate(-40.665 -46.865)"/><path class="a" d="M49.751,61.69c-.051,0-.1.007-.145.007a1.161,1.161,0,0,0-.153.036.359.359,0,0,0-.131.058.783.783,0,0,0-.392.618.83.83,0,0,0,.189.559l.109.109a.425.425,0,0,0,.124.073.507.507,0,0,0,.145.058,1.029,1.029,0,0,1,.145.029.83.83,0,0,0,.559-.189l.109-.109a.425.425,0,0,0,.073-.124.507.507,0,0,0,.058-.145.659.659,0,0,0,.022-.291,1.162,1.162,0,0,0-.036-.153.464.464,0,0,0-.058-.138c-.029-.044-.058-.087-.087-.124A.826.826,0,0,0,49.751,61.69Z" transform="translate(-41.918 -46.548)"/><path class="a" d="M53.628,59.719a.692.692,0,0,0-.3.044.8.8,0,0,0-.443.385.964.964,0,0,0-.087.291.771.771,0,0,0,.712.821,1.019,1.019,0,0,0,.3-.044.707.707,0,0,0,.443-.385.964.964,0,0,0,.087-.291.771.771,0,0,0-.712-.821Z" transform="translate(-42.975 -46.008)"/><path class="a" d="M53.963,63.508a1.162,1.162,0,0,0-.153.036.464.464,0,0,0-.138.058.772.772,0,0,0-.392.618.83.83,0,0,0,.189.559l.109.109a.426.426,0,0,0,.124.073.508.508,0,0,0,.145.058,1.03,1.03,0,0,1,.145.029.83.83,0,0,0,.559-.189l.109-.109a.425.425,0,0,0,.073-.124.507.507,0,0,0,.058-.145,1.029,1.029,0,0,1,.029-.145c0-.051-.007-.1-.007-.145a1.163,1.163,0,0,0-.036-.153.464.464,0,0,0-.058-.138c-.029-.044-.058-.087-.087-.124a.834.834,0,0,0-.523-.269A.486.486,0,0,0,53.963,63.508Z" transform="translate(-43.107 -47.043)"/><path class="a" d="M58,61.52c-.051,0-.1.007-.145.007a1.163,1.163,0,0,0-.153.036.465.465,0,0,0-.138.058.772.772,0,0,0-.392.618,1.019,1.019,0,0,0,.044.3.776.776,0,0,0,.145.262.834.834,0,0,0,.523.269.926.926,0,0,0,.145-.007,1.162,1.162,0,0,0,.153-.036.464.464,0,0,0,.138-.058c.044-.029.087-.058.124-.087l.109-.109a.425.425,0,0,0,.073-.124.507.507,0,0,0,.058-.145,1.029,1.029,0,0,0,.029-.145.83.83,0,0,0-.189-.559.748.748,0,0,0-.24-.182A.769.769,0,0,0,58,61.52Z" transform="translate(-44.171 -46.501)"/><path class="a" d="M61.191,58.75a1.019,1.019,0,0,0-.3.044.757.757,0,0,0-.523.668,1.019,1.019,0,0,0,.044.3.776.776,0,0,0,.145.262.767.767,0,0,0,1.155-1.01.748.748,0,0,0-.24-.182A.858.858,0,0,0,61.191,58.75Z" transform="translate(-45.046 -45.744)"/><path class="a" d="M63.543,55.188a1.161,1.161,0,0,0-.153.036.464.464,0,0,0-.138.058.772.772,0,0,0-.392.618.83.83,0,0,0,.189.559l.109.109a.425.425,0,0,0,.124.073.508.508,0,0,0,.145.058,1.029,1.029,0,0,1,.145.029.83.83,0,0,0,.559-.189l.109-.109a.426.426,0,0,0,.073-.124.507.507,0,0,0,.058-.145,1.028,1.028,0,0,1,.029-.145c0-.051-.007-.1-.007-.145a1.161,1.161,0,0,0-.036-.153.464.464,0,0,0-.058-.138c-.029-.044-.058-.087-.087-.124a.834.834,0,0,0-.523-.269A.487.487,0,0,0,63.543,55.188Z" transform="translate(-45.726 -44.769)"/><path class="a" d="M56.821,56.939h0a.752.752,0,0,0-.69.341.772.772,0,0,0,.589,1.2.926.926,0,0,0,.145-.007,1.161,1.161,0,0,0,.153-.036.464.464,0,0,0,.138-.058c.044-.029.087-.058.124-.087l.109-.109a.425.425,0,0,0,.073-.124.508.508,0,0,0,.058-.145,1.029,1.029,0,0,0,.029-.145A.8.8,0,0,0,56.821,56.939Z" transform="translate(-43.851 -45.248)"/><path class="a" d="M60.018,54.17h0c-.051,0-.1.007-.145.007a1.161,1.161,0,0,0-.153.036.464.464,0,0,0-.138.058.783.783,0,0,0-.392.618c0,.051.007.094.007.153a.331.331,0,0,0,.036.145.464.464,0,0,0,.058.138c.029.044.058.087.087.124a.768.768,0,0,0,.523.269.753.753,0,0,0,.559-.189l.109-.109a.425.425,0,0,0,.073-.124.508.508,0,0,0,.058-.145,1.029,1.029,0,0,0,.029-.145A.78.78,0,0,0,60.018,54.17Z" transform="translate(-44.723 -44.492)"/><path class="a" d="M62.363,50.608a1.161,1.161,0,0,0-.153.036.464.464,0,0,0-.138.058.772.772,0,0,0-.392.618.83.83,0,0,0,.189.559l.109.109a.425.425,0,0,0,.124.073.507.507,0,0,0,.145.058,1.029,1.029,0,0,1,.145.029.83.83,0,0,0,.559-.189l.109-.109a.425.425,0,0,0,.073-.124.507.507,0,0,0,.058-.145.66.66,0,0,0,.022-.291,1.163,1.163,0,0,0-.036-.153A.464.464,0,0,0,63.118,51c-.029-.044-.058-.087-.087-.124a.834.834,0,0,0-.523-.269A.486.486,0,0,0,62.363,50.608Z" transform="translate(-45.404 -43.516)"/><path class="a" d="M64.02,46.274a.707.707,0,0,0-.443.385.964.964,0,0,0-.087.291.83.83,0,0,0,.189.559l.109.109a.425.425,0,0,0,.124.073.507.507,0,0,0,.145.058,1.03,1.03,0,0,1,.145.029,1.019,1.019,0,0,0,.3-.044.707.707,0,0,0,.443-.385.965.965,0,0,0,.087-.291c0-.051-.007-.1-.007-.145a1.163,1.163,0,0,0-.036-.153.464.464,0,0,0-.058-.138c-.029-.044-.058-.087-.087-.124a.834.834,0,0,0-.523-.269A1.019,1.019,0,0,0,64.02,46.274Z" transform="translate(-45.898 -42.321)"/><path class="a" d="M40.108,60.27a.8.8,0,0,0-.741.429.964.964,0,0,0-.087.291.83.83,0,0,0,.189.559.748.748,0,0,0,.24.182.7.7,0,0,0,.589.044.776.776,0,0,0,.262-.145.834.834,0,0,0,.269-.523,1.019,1.019,0,0,0-.044-.3.776.776,0,0,0-.145-.262A.81.81,0,0,0,40.108,60.27Z" transform="translate(-39.279 -46.159)"/><path class="a" d="M44.968,59.177a.7.7,0,0,0-.589-.044.8.8,0,0,0-.443.385.7.7,0,0,0-.044.589.776.776,0,0,0,.145.262.834.834,0,0,0,.523.269,1.019,1.019,0,0,0,.3-.044.707.707,0,0,0,.443-.385.965.965,0,0,0,.087-.291.83.83,0,0,0-.189-.559A.578.578,0,0,0,44.968,59.177Z" transform="translate(-40.528 -45.836)"/><path class="a" d="M62.451,40.85a1.019,1.019,0,0,0-.3.044.723.723,0,0,0-.363.254.426.426,0,0,0-.073.124.507.507,0,0,0-.058.145,1.029,1.029,0,0,0-.029.145.83.83,0,0,0,.189.559.748.748,0,0,0,.24.182.964.964,0,0,0,.291.087.83.83,0,0,0,.559-.189.748.748,0,0,0,.182-.24.7.7,0,0,0,.044-.589.776.776,0,0,0-.145-.262A.919.919,0,0,0,62.451,40.85Z" transform="translate(-45.39 -40.85)"/><path class="a" d="M60.928,45.307a.7.7,0,0,0-.589-.044.8.8,0,0,0-.443.385.7.7,0,0,0-.044.589A.776.776,0,0,0,60,46.5a.834.834,0,0,0,.523.269,1.019,1.019,0,0,0,.3-.044.707.707,0,0,0,.443-.385.965.965,0,0,0,.087-.291.83.83,0,0,0-.189-.559A.7.7,0,0,0,60.928,45.307Z" transform="translate(-44.892 -42.044)"/><path class="a" d="M48.459,58.647a1.019,1.019,0,0,0,.3-.044.707.707,0,0,0,.443-.385.7.7,0,0,0,.044-.589.707.707,0,0,0-.385-.443.7.7,0,0,0-.589-.044.8.8,0,0,0-.443.385.7.7,0,0,0-.044.589.8.8,0,0,0,.676.53Z" transform="translate(-41.592 -45.292)"/><path class="a" d="M52.9,56.494a.769.769,0,0,0,.269-.523.753.753,0,0,0-.189-.559l-.109-.109a.426.426,0,0,0-.124-.073.319.319,0,0,0-.138-.051.566.566,0,0,0-.153-.029.8.8,0,0,0-.821.712c0,.051.007.094.007.153a.331.331,0,0,0,.036.145.464.464,0,0,0,.058.138c.029.044.058.087.087.124a.769.769,0,0,0,.523.269A.806.806,0,0,0,52.9,56.494Z" transform="translate(-42.659 -44.76)"/><path class="a" d="M56.1,53.714a.769.769,0,0,0,.269-.523.753.753,0,0,0-.189-.559l-.109-.109a.425.425,0,0,0-.124-.073.318.318,0,0,0-.138-.051.566.566,0,0,0-.153-.029.8.8,0,0,0-.821.712,1.073,1.073,0,0,0,.007.153.331.331,0,0,0,.036.145.464.464,0,0,0,.058.138c.029.044.058.087.087.124a.769.769,0,0,0,.523.269A.784.784,0,0,0,56.1,53.714Z" transform="translate(-43.534 -43.999)"/><path class="a" d="M58.042,50.327a.83.83,0,0,0,.559-.189.748.748,0,0,0,.182-.24.965.965,0,0,0,.087-.291,1.019,1.019,0,0,0-.044-.3.707.707,0,0,0-.385-.443.965.965,0,0,0-.291-.087.692.692,0,0,0-.3.044.757.757,0,0,0-.523.668,1.019,1.019,0,0,0,.044.3.707.707,0,0,0,.385.443A.55.55,0,0,0,58.042,50.327Z" transform="translate(-44.214 -43.017)"/></g></g></svg>