<svg xmlns="http://www.w3.org/2000/svg" width="32.37" height="32.37" viewBox="0 0 32.37 32.37"><defs><style>.a{fill:#fff;}</style></defs><path class="a" d="M62.744,44.758h.025q-.037-.361-.1-.721a.453.453,0,0,0-.05-.149,16.172,16.172,0,1,0,.24,2.778A18.251,18.251,0,0,0,62.744,44.758Zm-1.459-1.211h-.207a18.141,18.141,0,0,0-15.016,7.976,30.709,30.709,0,0,1-4.56-3.988A42.28,42.28,0,0,1,56.733,35.629c.166.158.34.315.5.473A14.872,14.872,0,0,1,61.285,43.548Zm-5.456-8.681A43.535,43.535,0,0,0,40.763,46.723,30.812,30.812,0,0,1,37.6,42.378a18.1,18.1,0,0,0,3.839-9.709,14.99,14.99,0,0,1,5.232-.937A14.751,14.751,0,0,1,55.829,34.866ZM31.742,47.237a18.1,18.1,0,0,0,5.124-4,31.876,31.876,0,0,0,3.225,4.345,43.712,43.712,0,0,0-5.074,8.433A14.755,14.755,0,0,1,31.742,47.237Zm2.6-9.03a31.522,31.522,0,0,0,1.94,4.063,17.03,17.03,0,0,1-4.552,3.74A14.9,14.9,0,0,1,34.346,38.208Zm5.962-5.066a17.047,17.047,0,0,1-3.292,8.234,30.828,30.828,0,0,1-1.907-4.187c.307-.373.638-.738.987-1.086A14.977,14.977,0,0,1,40.307,33.142ZM35.8,56.914A42.324,42.324,0,0,1,40.83,48.4a32.181,32.181,0,0,0,4.652,4.038,17.985,17.985,0,0,0-2.537,8.706A14.864,14.864,0,0,1,36.1,57.229C36,57.121,35.9,57.021,35.8,56.914Zm8.217,4.461a16.99,16.99,0,0,1,2.355-8.325,31.56,31.56,0,0,0,10.563,4.477,14.85,14.85,0,0,1-10.265,4.088A16.615,16.615,0,0,1,44.014,61.374ZM57.827,56.6a30.39,30.39,0,0,1-10.879-4.469,17.057,17.057,0,0,1,14.129-7.512c.133,0,.265,0,.4.008a15.141,15.141,0,0,1,.141,2.04A14.91,14.91,0,0,1,57.827,56.6Z" transform="translate(-30.49 -30.48)"/></svg>