<svg xmlns="http://www.w3.org/2000/svg" width="24.948" height="24.948" viewBox="0 0 24.948 24.948"><defs><style>.a{fill:#203e4b;}</style></defs><path class="a" d="M55.349,41.484h.019q-.029-.278-.077-.556a.349.349,0,0,0-.038-.115,12.464,12.464,0,1,0,.185,2.141A14.067,14.067,0,0,0,55.349,41.484Zm-1.125-.933h-.16A13.982,13.982,0,0,0,42.491,46.7a23.668,23.668,0,0,1-3.515-3.074,32.586,32.586,0,0,1,11.739-9.177c.128.121.262.243.383.364A11.462,11.462,0,0,1,54.224,40.551Zm-4.2-6.691A33.553,33.553,0,0,0,38.408,43a23.747,23.747,0,0,1-2.441-3.349,13.953,13.953,0,0,0,2.959-7.483,11.553,11.553,0,0,1,4.032-.722A11.369,11.369,0,0,1,50.019,33.861ZM31.455,43.4a13.95,13.95,0,0,0,3.949-3.08,24.567,24.567,0,0,0,2.486,3.349,33.69,33.69,0,0,0-3.911,6.5A11.371,11.371,0,0,1,31.455,43.4Zm2.007-6.959a24.294,24.294,0,0,0,1.5,3.131,13.125,13.125,0,0,1-3.508,2.882A11.484,11.484,0,0,1,33.462,36.436Zm4.595-3.9a13.138,13.138,0,0,1-2.537,6.346,23.76,23.76,0,0,1-1.47-3.227c.236-.288.492-.569.76-.837A11.543,11.543,0,0,1,38.056,32.531ZM34.58,50.853a32.62,32.62,0,0,1,3.879-6.563A24.8,24.8,0,0,0,42.044,47.4a13.861,13.861,0,0,0-1.955,6.71A11.456,11.456,0,0,1,34.816,51.1C34.733,51.012,34.657,50.936,34.58,50.853Zm6.333,3.438a13.094,13.094,0,0,1,1.815-6.416,24.324,24.324,0,0,0,8.141,3.451,11.445,11.445,0,0,1-7.911,3.15A12.805,12.805,0,0,1,40.913,54.291ZM51.559,50.61a23.422,23.422,0,0,1-8.384-3.444,13.146,13.146,0,0,1,10.889-5.79c.1,0,.2,0,.307.006a11.67,11.67,0,0,1,.109,1.572A11.492,11.492,0,0,1,51.559,50.61Z" transform="translate(-30.49 -30.48)"/></svg>