<svg xmlns="http://www.w3.org/2000/svg" width="22.118" height="24.487" viewBox="0 0 22.118 24.487"><defs><style>.a{fill:#fff;}</style></defs><g transform="translate(-25)"><path class="a" d="M46.328,2.37H42.378V.79a.79.79,0,0,0-.79-.79H30.529a.79.79,0,0,0-.79.79V2.37H25.79a.79.79,0,0,0-.79.79V4.74a5.533,5.533,0,0,0,4.74,5.466v.063a6.325,6.325,0,0,0,5.529,6.264v1.635h-3.95a.79.79,0,0,0-.79.79v3.95h-.79a.79.79,0,1,0,0,1.58H42.378a.79.79,0,1,0,0-1.58h-.79v-3.95a.79.79,0,0,0-.79-.79h-3.95V16.533a6.325,6.325,0,0,0,5.529-6.264v-.063a5.533,5.533,0,0,0,4.74-5.466V3.16A.79.79,0,0,0,46.328,2.37ZM40.008,19.748v3.16h-7.9v-3.16ZM26.58,4.74V3.95h3.16v4.66A3.956,3.956,0,0,1,26.58,4.74ZM40.8,10.269a4.74,4.74,0,0,1-9.479,0V1.58H40.8ZM45.538,4.74a3.956,3.956,0,0,1-3.16,3.87V3.95h3.16Z"/><path class="a" d="M195.689,431h-4.74a.79.79,0,0,1,0-1.58h4.74a.79.79,0,0,1,0,1.58Z" transform="translate(-157.261 -408.88)"/></g></svg>