<svg xmlns="http://www.w3.org/2000/svg" width="39.42" height="39.42" viewBox="0 0 39.42 39.42"><defs><style>.a{fill:#fff;stroke:#f47b4e;}</style></defs><g transform="translate(-81.5 -404.5)"><path class="a" d="M20.416,38.42H18a3.541,3.541,0,0,1-3.537-3.537v-.816a15.511,15.511,0,0,1-2.409-1l-.578.578a3.537,3.537,0,0,1-5,0l-1.7-1.7a3.537,3.537,0,0,1,0-5l.578-.578a15.512,15.512,0,0,1-1-2.409H3.537A3.541,3.541,0,0,1,0,20.416V18a3.541,3.541,0,0,1,3.537-3.537h.816a15.515,15.515,0,0,1,1-2.409l-.578-.578a3.537,3.537,0,0,1,0-5l1.7-1.7a3.536,3.536,0,0,1,5,0l.578.578a15.525,15.525,0,0,1,2.409-1V3.537A3.541,3.541,0,0,1,18,0h2.411a3.541,3.541,0,0,1,3.537,3.537v.816a15.51,15.51,0,0,1,2.409,1l.578-.578a3.537,3.537,0,0,1,5,0l1.7,1.7a3.537,3.537,0,0,1,0,5l-.578.578a15.512,15.512,0,0,1,1,2.409h.816A3.541,3.541,0,0,1,38.42,18v2.411a3.541,3.541,0,0,1-3.537,3.537h-.816a15.515,15.515,0,0,1-1,2.409l.578.578a3.537,3.537,0,0,1,0,5l-1.7,1.7a3.536,3.536,0,0,1-5,0l-.578-.578a15.525,15.525,0,0,1-2.409,1v.816A3.541,3.541,0,0,1,20.416,38.42ZM12.435,30.7a13.268,13.268,0,0,0,3.439,1.428,1.126,1.126,0,0,1,.844,1.09v1.662A1.287,1.287,0,0,0,18,36.169h2.411A1.287,1.287,0,0,0,21.7,34.883V33.221a1.126,1.126,0,0,1,.844-1.09A13.268,13.268,0,0,0,25.985,30.7a1.126,1.126,0,0,1,1.369.173l1.177,1.177a1.285,1.285,0,0,0,1.818,0l1.705-1.705a1.285,1.285,0,0,0,0-1.818l-1.178-1.178a1.126,1.126,0,0,1-.173-1.369,13.266,13.266,0,0,0,1.428-3.439,1.126,1.126,0,0,1,1.09-.844h1.662a1.287,1.287,0,0,0,1.286-1.286V18a1.287,1.287,0,0,0-1.286-1.286H33.222a1.126,1.126,0,0,1-1.09-.844A13.268,13.268,0,0,0,30.7,12.435a1.126,1.126,0,0,1,.173-1.369l1.177-1.177a1.285,1.285,0,0,0,0-1.818L30.35,6.366a1.285,1.285,0,0,0-1.818,0L27.354,7.544a1.126,1.126,0,0,1-1.369.173,13.268,13.268,0,0,0-3.439-1.428A1.126,1.126,0,0,1,21.7,5.2V3.537a1.287,1.287,0,0,0-1.286-1.286H18a1.287,1.287,0,0,0-1.286,1.286V5.2a1.126,1.126,0,0,1-.844,1.09,13.268,13.268,0,0,0-3.439,1.428,1.126,1.126,0,0,1-1.369-.173L9.889,6.366a1.285,1.285,0,0,0-1.818,0L6.366,8.071a1.285,1.285,0,0,0,0,1.818l1.178,1.178a1.126,1.126,0,0,1,.173,1.369,13.266,13.266,0,0,0-1.428,3.439,1.126,1.126,0,0,1-1.09.844H3.537A1.287,1.287,0,0,0,2.251,18v2.411A1.287,1.287,0,0,0,3.537,21.7H5.2a1.126,1.126,0,0,1,1.09.844,13.268,13.268,0,0,0,1.428,3.439,1.126,1.126,0,0,1-.173,1.369L6.366,28.531a1.285,1.285,0,0,0,0,1.818l1.705,1.705a1.285,1.285,0,0,0,1.818,0l1.178-1.178a1.131,1.131,0,0,1,1.369-.173Z" transform="translate(82 405)"/><path class="a" d="M152.959,161.319a8.359,8.359,0,1,1,8.359-8.359A8.369,8.369,0,0,1,152.959,161.319Zm0-14.468a6.108,6.108,0,1,0,6.108,6.108,6.115,6.115,0,0,0-6.108-6.108Z" transform="translate(-51.749 271.251)"/></g></svg>
