<svg xmlns="http://www.w3.org/2000/svg" width="19.816" height="22.645" viewBox="0 0 19.816 22.645"><defs><style>.a{fill:#fff;}</style></defs><path class="a" d="M15.713,73.333A5.013,5.013,0,1,0,7.6,69.95a3.994,3.994,0,0,0-4.659,6.416A4.921,4.921,0,0,0,0,80.867V85.51a1.55,1.55,0,0,0,1.549,1.549H18.021a1.8,1.8,0,0,0,1.795-1.795v-6.09a6.219,6.219,0,0,0-4.1-5.841Zm-3.116-7.4a3.483,3.483,0,1,1-3.5,3.483A3.5,3.5,0,0,1,12.6,65.932ZM5.683,70.978A2.475,2.475,0,0,1,8.1,74.037a6.259,6.259,0,0,0-1.75,1.8,2.478,2.478,0,1,1-.671-4.859ZM1.518,85.51V80.867a3.4,3.4,0,0,1,3.4-3.4h.7a6.192,6.192,0,0,0-.238,1.7v6.09a1.8,1.8,0,0,0,.021.277H1.549A.033.033,0,0,1,1.518,85.51Zm16.78-.246a.281.281,0,0,1-.277.277H7.174a.281.281,0,0,1-.277-.277v-6.09a4.7,4.7,0,0,1,4.691-4.691h2.018A4.7,4.7,0,0,1,18.3,79.174Z" transform="translate(0 -64.414)"/></svg>