<svg xmlns="http://www.w3.org/2000/svg" width="33.903" height="32.477" viewBox="0 0 33.903 32.477"><defs><style>.a{fill:none;stroke:#203e4b;stroke-width:1.5px;}</style></defs><path class="a" d="M17.744,2.018l3.65,7.4a1.742,1.742,0,0,0,1.312.953l8.162,1.186a1.743,1.743,0,0,1,.966,2.972l-5.906,5.757a1.743,1.743,0,0,0-.5,1.542l1.394,8.129a1.743,1.743,0,0,1-2.529,1.837l-7.3-3.838a1.745,1.745,0,0,0-1.622,0l-7.3,3.838a1.743,1.743,0,0,1-2.529-1.837l1.394-8.129a1.743,1.743,0,0,0-.5-1.542L.529,14.526a1.742,1.742,0,0,1,.966-2.972l8.162-1.186a1.742,1.742,0,0,0,1.312-.953l3.65-7.4A1.742,1.742,0,0,1,17.744,2.018Z" transform="translate(0.77 -0.297)"/></svg>