<svg xmlns="http://www.w3.org/2000/svg" width="24.504" height="17.647" viewBox="0 0 24.504 17.647"><defs><style>.a{fill:none;stroke:#203e4b;}.b{fill:#203e4b;}</style></defs><g transform="translate(0.073)"><path class="a" d="M39.752,47.034C33.288,47.034,28,45.057,28,42.6v7.852c0,2.457,5.235,4.434,11.752,4.434S51.5,52.91,51.5,50.452V42.6C51.5,45.057,46.215,47.034,39.752,47.034Z" transform="translate(-27.573 -37.739)"/><path class="b" d="M39.379,51.074c-6.837,0-12.179-2.137-12.179-4.861V38.361c0-2.724,5.342-4.861,12.179-4.861s12.179,2.137,12.179,4.861v7.852C51.559,48.991,46.217,51.074,39.379,51.074ZM28.055,38.735v7.479c0,1.923,4.541,4.006,11.325,4.006S50.7,48.136,50.7,46.213V38.361c0-1.923-4.541-4.006-11.325-4.006s-11.325,2.083-11.325,4.006v.374Z" transform="translate(-27.2 -33.5)"/></g></svg>