<svg xmlns="http://www.w3.org/2000/svg" width="37.663" height="37.659" viewBox="0 0 37.663 37.659"><defs><style>.a{fill:#fff;stroke:#203e4b;stroke-width:0.5px;}</style></defs><g transform="translate(0.25 0.223)"><g transform="translate(0 0.027)"><path class="a" d="M37.161,7.116c-.037-3.154-1.651-4.891-4.545-4.891a10.207,10.207,0,0,0-2.9.478c.07-1.289.071-2.085.071-2.125V.027H7.38V.579c0,.019,0,.827.073,2.125a10.208,10.208,0,0,0-2.907-.479C1.652,2.225.038,3.962,0,7.116a15.15,15.15,0,0,0,2.1,8.21,13.282,13.282,0,0,0,4.463,4.447,10.436,10.436,0,0,0,5.372,1.469,9.251,9.251,0,0,0,.944-.046l.057-.006a8.5,8.5,0,0,0,2.087,1.668,2.173,2.173,0,0,1,1.061,1.45,1.818,1.818,0,0,0,.05,3.487v2.316H13.153v2.417H10.206v4.657H26.956V32.528H24.01V30.111H21.023V27.8a1.818,1.818,0,0,0,.05-3.487,2.173,2.173,0,0,1,1.061-1.45,8.54,8.54,0,0,0,2.089-1.668,9.14,9.14,0,0,0,1,.052h0a10.437,10.437,0,0,0,5.371-1.469,13.283,13.283,0,0,0,4.463-4.447A15.148,15.148,0,0,0,37.161,7.116ZM28.669,1.131c0,.2-.013.456-.025.753H8.52c-.012-.3-.021-.551-.026-.753ZM29.42,6.2A8.694,8.694,0,0,1,32,5.7a1.986,1.986,0,0,1,1.558.529A2.523,2.523,0,0,1,33.9,8.24c-.534,3.885-2.218,6.918-4.744,8.539a5.991,5.991,0,0,1-2.621.881A37.735,37.735,0,0,0,29.42,6.2ZM8.31,10.042a31.689,31.689,0,0,0,2.228,7.431c.029.063.058.124.088.186a5.992,5.992,0,0,1-2.62-.881C5.481,15.157,3.8,12.125,3.262,8.24A2.522,2.522,0,0,1,3.6,6.227,1.986,1.986,0,0,1,5.157,5.7a8.7,8.7,0,0,1,2.587.5C7.877,7.394,8.06,8.7,8.31,10.042Zm3.629,10.1a9.333,9.333,0,0,1-4.8-1.311C5.294,17.719,1.02,14.361,1.1,7.129c.03-2.557,1.156-3.8,3.441-3.8a9.561,9.561,0,0,1,2.981.563c.028.37.058.742.092,1.111a9.064,9.064,0,0,0-2.463-.409,3.015,3.015,0,0,0-2.39.907,3.525,3.525,0,0,0-.6,2.889,15.544,15.544,0,0,0,1.846,5.682,10.451,10.451,0,0,0,3.395,3.635,7.34,7.34,0,0,0,3.81,1.094l.011.018q.085.148.171.292l.054.089c.055.09.11.18.166.267l.064.1q.057.088.115.174l.112.165.111.158.052.074ZM25.853,33.632v2.45H11.309v-2.45H25.853Zm-4.829-2.417h1.882v1.313H14.256V31.215h6.767Zm-3.781-1.1V27.862H19.92v2.249Zm4.006-4.067a.715.715,0,0,1-.714.714H16.628a.714.714,0,1,1,0-1.429h3.907A.715.715,0,0,1,21.249,26.044Zm2.761-6.309-.018.024c-.054.07-.109.139-.164.206l-.04.05q-.091.11-.183.215l-.009.01a7.6,7.6,0,0,1-2,1.653,3.281,3.281,0,0,0-1.633,2.333H17.2a3.282,3.282,0,0,0-1.633-2.333,7.477,7.477,0,0,1-1.862-1.5l-.135-.154a12.341,12.341,0,0,1-1.537-2.253l-.144-.266C9.512,13.135,8.794,6.507,8.577,2.987H28.589c-.009.153-.019.311-.03.476l0,.023q-.018.267-.039.535v.016c-.044.566-.1,1.134-.156,1.7l-.036.34c-.4,3.595-1.248,8.175-3.034,11.624l-.158.291A13.2,13.2,0,0,1,24.009,19.735Zm6.016-.907a9.331,9.331,0,0,1-4.8,1.311h-.137l0,0q.107-.148.212-.3l.025-.038q.088-.13.174-.263l.044-.068c.063-.1.126-.2.187-.3l.029-.048q.075-.126.149-.255l.035-.059a7.34,7.34,0,0,0,3.81-1.094,10.454,10.454,0,0,0,3.395-3.635A15.547,15.547,0,0,0,34.993,8.39a3.526,3.526,0,0,0-.6-2.889,3.015,3.015,0,0,0-2.39-.907A9.061,9.061,0,0,0,29.542,5c.035-.377.065-.739.09-1.083l0-.029a9.56,9.56,0,0,1,2.981-.563c2.286,0,3.411,1.243,3.441,3.8C36.142,14.361,31.867,17.719,30.026,18.828Z" transform="translate(0 -0.027)"/></g></g></svg>