<svg xmlns="http://www.w3.org/2000/svg" width="14" height="11" viewBox="0 0 14 11"><defs><style>.a{fill:#587581;}.b{fill:#fff;}</style></defs><g transform="translate(-180 -525)"><rect class="a" width="14" height="11" rx="2" transform="translate(180 525)"/><path class="b" d="M8.841,6.652a2.291,2.291,0,0,1-.558,1.522A1.893,1.893,0,0,1,6.85,8.7,1.771,1.771,0,0,1,5.372,8a3.052,3.052,0,0,1-.548-1.917V4.958a2.961,2.961,0,0,1,.563-1.906,1.863,1.863,0,0,1,1.535-.7,1.786,1.786,0,0,1,1.386.535,2.344,2.344,0,0,1,.533,1.533H8.055a1.91,1.91,0,0,0-.318-1.078,1,1,0,0,0-.815-.323,1.108,1.108,0,0,0-.972.495,2.561,2.561,0,0,0-.34,1.45V6.1a2.707,2.707,0,0,0,.316,1.439,1.025,1.025,0,0,0,.923.5,1.117,1.117,0,0,0,.875-.3,1.9,1.9,0,0,0,.331-1.083Z" transform="translate(182.572 524.727)"/><path class="b" d="M8.841,6.652a2.291,2.291,0,0,1-.558,1.522A1.893,1.893,0,0,1,6.85,8.7,1.771,1.771,0,0,1,5.372,8a3.052,3.052,0,0,1-.548-1.917V4.958a2.961,2.961,0,0,1,.563-1.906,1.863,1.863,0,0,1,1.535-.7,1.786,1.786,0,0,1,1.386.535,2.344,2.344,0,0,1,.533,1.533H8.055a1.91,1.91,0,0,0-.318-1.078,1,1,0,0,0-.815-.323,1.108,1.108,0,0,0-.972.495,2.561,2.561,0,0,0-.34,1.45V6.1a2.707,2.707,0,0,0,.316,1.439,1.025,1.025,0,0,0,.923.5,1.117,1.117,0,0,0,.875-.3,1.9,1.9,0,0,0,.331-1.083Z" transform="translate(177.572 524.727)"/></g></svg>