<svg xmlns="http://www.w3.org/2000/svg" width="14" height="11" viewBox="0 0 14 11"><defs><style>.a{fill:#587581;}.b{fill:#fff;}</style></defs><g transform="translate(-105 -508.375)"><rect class="a" width="14" height="11" rx="2" transform="translate(105 508.375)"/><path class="b" d="M3.44,7.527a.956.956,0,0,0-.252-.714,2.582,2.582,0,0,0-.91-.483,3.95,3.95,0,0,1-1.006-.493,1.746,1.746,0,0,1-.521-.59,1.613,1.613,0,0,1-.173-.758,1.623,1.623,0,0,1,.493-1.218,1.778,1.778,0,0,1,1.292-.479,1.928,1.928,0,0,1,.974.244A1.666,1.666,0,0,1,4,3.716a2.01,2.01,0,0,1,.231.956H3.44a1.31,1.31,0,0,0-.278-.893,1.007,1.007,0,0,0-.8-.316.983.983,0,0,0-.735.265,1.018,1.018,0,0,0-.261.745.868.868,0,0,0,.282.659,2.5,2.5,0,0,0,.872.475,3,3,0,0,1,1.314.748,1.683,1.683,0,0,1,.4,1.162A1.572,1.572,0,0,1,3.739,8.73,1.891,1.891,0,0,1,2.4,9.185a2.151,2.151,0,0,1-1-.237,1.793,1.793,0,0,1-.722-.667A1.848,1.848,0,0,1,.415,7.3H1.2a1.208,1.208,0,0,0,.323.9,1.191,1.191,0,0,0,.878.32,1.045,1.045,0,0,0,.778-.265A.985.985,0,0,0,3.44,7.527Zm2.6-.863V9.1H5.256V2.878H7.238A1.8,1.8,0,0,1,8.6,3.4,1.918,1.918,0,0,1,9.1,4.78a1.9,1.9,0,0,1-.472,1.382,1.826,1.826,0,0,1-1.331.5Zm0-.671h1.2a1.013,1.013,0,0,0,.8-.312,1.3,1.3,0,0,0,.278-.895,1.344,1.344,0,0,0-.286-.9.975.975,0,0,0-.786-.338h-1.2Z" transform="translate(107.21 507.651)"/></g></svg>