<svg xmlns="http://www.w3.org/2000/svg" width="29.75" height="31.508" viewBox="0 0 29.75 31.508"><defs><style>.a{fill:#fff;}.b{fill:#587581;}</style></defs><g transform="translate(-17 -117.598)"><g transform="translate(17 117.598)"><path class="a" d="M45.849,37.161l-5.8-5.812a1.191,1.191,0,0,0-1.683,0l-5.779,5.812a1.175,1.175,0,0,0-.531.987V55.079a1.185,1.185,0,0,0,1.186,1.186H45.2a1.185,1.185,0,0,0,1.186-1.186V38.147A1.2,1.2,0,0,0,45.849,37.161Z" transform="translate(-32.06 -31)"/><path class="a" d="M51.2,57.634l5.8,5.812a1.191,1.191,0,0,0,1.683,0l5.779-5.812a1.175,1.175,0,0,0,.531-.987V39.716A1.185,1.185,0,0,0,63.8,38.53H51.846a1.185,1.185,0,0,0-1.186,1.186V56.647A1.2,1.2,0,0,0,51.2,57.634Z" transform="translate(-35.238 -32.286)"/></g><g transform="translate(20.748 128.817)"><path class="b" d="M43.3,45.691c.025.058.041.124.066.2a1.141,1.141,0,0,1,.033.216v6.3a.213.213,0,0,1-.224.207H41.563a.2.2,0,0,1-.207-.207V50.326a.18.18,0,0,0-.066-.149.206.206,0,0,0-.158-.058H38.844a.219.219,0,0,0-.158.058.208.208,0,0,0-.066.149v2.081a.2.2,0,0,1-.207.207H36.8a.219.219,0,0,1-.158-.058.208.208,0,0,1-.066-.149V46.072c.008-.058.017-.124.033-.2a.945.945,0,0,1,.058-.182l1.086-1.061a1.382,1.382,0,0,1,.2-.066,1.066,1.066,0,0,1,.207-.033H41.82a.759.759,0,0,1,.216.033.794.794,0,0,1,.2.066Zm-1.94.663H38.628v2.04h2.728Z" transform="translate(-36.58 -44.53)"/><path class="b" d="M61.887,46.227a.5.5,0,0,1-.05.2,1.626,1.626,0,0,1-.1.174L57.99,50.828h3.681a.227.227,0,0,1,.158.066.212.212,0,0,1,.066.158v1.376a.227.227,0,0,1-.066.158.212.212,0,0,1-.158.066H55.934a.2.2,0,0,1-.224-.216V50.994a.611.611,0,0,1,.041-.2.547.547,0,0,1,.1-.182l3.831-4.229H56a.227.227,0,0,1-.158-.066.212.212,0,0,1-.066-.158V44.784a.227.227,0,0,1,.066-.158A.212.212,0,0,1,56,44.56h5.663a.227.227,0,0,1,.158.066.212.212,0,0,1,.066.158Z" transform="translate(-39.848 -44.535)"/></g></g></svg>