<svg xmlns="http://www.w3.org/2000/svg" width="40" height="35.86" viewBox="0 0 40 35.86"><defs><style>.a{fill:#203e4b;}.b{fill:#fff;}</style></defs><g transform="translate(-126 -166)"><path class="a" d="M65.54,46h.027q-.041-.392-.108-.784a.492.492,0,0,0-.054-.162,17.574,17.574,0,1,0,.261,3.018A19.835,19.835,0,0,0,65.54,46ZM63.954,44.68h-.225a19.714,19.714,0,0,0-16.318,8.668,33.37,33.37,0,0,1-4.956-4.334A45.945,45.945,0,0,1,59.007,36.075c.18.171.369.342.541.514A16.161,16.161,0,0,1,63.954,44.68Zm-5.929-9.434A47.308,47.308,0,0,0,41.654,48.131a33.484,33.484,0,0,1-3.442-4.721,19.674,19.674,0,0,0,4.172-10.551,16.29,16.29,0,0,1,5.685-1.018A16.029,16.029,0,0,1,58.025,35.246ZM31.851,48.69a19.669,19.669,0,0,0,5.568-4.343,34.638,34.638,0,0,0,3.5,4.721,47.5,47.5,0,0,0-5.514,9.163A16.033,16.033,0,0,1,31.851,48.69Zm2.829-9.812a34.254,34.254,0,0,0,2.108,4.415,18.506,18.506,0,0,1-4.947,4.064A16.192,16.192,0,0,1,34.68,38.878Zm6.478-5.505a18.524,18.524,0,0,1-3.577,8.947,33.5,33.5,0,0,1-2.072-4.55c.333-.405.694-.8,1.072-1.18A16.276,16.276,0,0,1,41.158,33.372ZM36.257,59.2a45.994,45.994,0,0,1,5.469-9.254,34.97,34.97,0,0,0,5.055,4.388A19.543,19.543,0,0,0,44.023,63.8a16.152,16.152,0,0,1-7.433-4.253C36.473,59.43,36.365,59.322,36.257,59.2Zm8.929,4.847a18.463,18.463,0,0,1,2.559-9.046,34.3,34.3,0,0,0,11.479,4.866,16.137,16.137,0,0,1-11.155,4.442A18.054,18.054,0,0,1,45.186,64.052ZM60.2,58.862a33.024,33.024,0,0,1-11.821-4.857,18.536,18.536,0,0,1,15.353-8.163c.144,0,.288,0,.432.009a16.452,16.452,0,0,1,.153,2.217A16.2,16.2,0,0,1,60.2,58.862Z" transform="translate(97.683 135.52)"/><rect class="a" width="40" height="12" transform="translate(126 189.86)"/><path class="b" d="M9.4,7.351a2.577,2.577,0,0,1-.628,1.712,2.129,2.129,0,0,1-1.612.595,1.992,1.992,0,0,1-1.662-.8,3.433,3.433,0,0,1-.616-2.156V5.446A3.33,3.33,0,0,1,5.52,3.3a2.1,2.1,0,0,1,1.726-.788,2.009,2.009,0,0,1,1.559.6,2.637,2.637,0,0,1,.6,1.724H8.522a2.148,2.148,0,0,0-.358-1.213,1.123,1.123,0,0,0-.917-.363,1.247,1.247,0,0,0-1.094.556,2.881,2.881,0,0,0-.382,1.631V6.726a3.045,3.045,0,0,0,.356,1.619,1.153,1.153,0,0,0,1.039.563,1.256,1.256,0,0,0,.984-.339,2.134,2.134,0,0,0,.372-1.218ZM15.112,6.7a3.468,3.468,0,0,1-.606,2.192,2.068,2.068,0,0,1-1.724.769,2.093,2.093,0,0,1-1.7-.747A3.305,3.305,0,0,1,10.436,6.8V5.489A3.472,3.472,0,0,1,11.053,3.3a2.056,2.056,0,0,1,1.719-.79,2.081,2.081,0,0,1,1.712.757,3.411,3.411,0,0,1,.628,2.161Zm-.874-1.218a2.98,2.98,0,0,0-.361-1.64A1.239,1.239,0,0,0,12.772,3.3a1.234,1.234,0,0,0-1.091.544,2.884,2.884,0,0,0-.375,1.6V6.7a2.946,2.946,0,0,0,.37,1.624,1.238,1.238,0,0,0,1.106.559,1.229,1.229,0,0,0,1.089-.516,2.9,2.9,0,0,0,.368-1.581Zm3.1,3.333h2.727v.75H16.463V2.609h.879Zm4.646,0h2.727v.75H21.11V2.609h.879Zm7.1-2.464H26.63V8.812H29.5v.75H25.756V2.609h3.691v.75H26.63V5.6h2.459ZM34.963,8.7l-.153.191a2.4,2.4,0,0,1-1.929.769,2.21,2.21,0,0,1-1.769-.747A3.2,3.2,0,0,1,30.455,6.8V5.431a3.45,3.45,0,0,1,.585-2.19,2.467,2.467,0,0,1,3.3-.177,2.3,2.3,0,0,1,.618,1.578h-.874a1.757,1.757,0,0,0-.361-1.015,1.153,1.153,0,0,0-.934-.365,1.256,1.256,0,0,0-1.1.489,2.808,2.808,0,0,0-.363,1.564V6.735a2.748,2.748,0,0,0,.4,1.612,1.329,1.329,0,0,0,1.151.561,1.523,1.523,0,0,0,1.074-.342l.129-.119V6.85h-1.27V6.1h2.144Zm4.761-2.35H37.265V8.812H40.13v.75H36.391V2.609h3.691v.75H37.265V5.6h2.459Z" transform="translate(123.164 189.566)"/></g></svg>