<svg xmlns="http://www.w3.org/2000/svg" width="32.337" height="32.337" viewBox="0 0 32.337 32.337"><defs><style>.a{fill:#203e4b;}</style></defs><g transform="translate(-30.5 -30.5)"><path class="a" d="M46.669,62.837A16.165,16.165,0,1,1,58.1,58.1,16.069,16.069,0,0,1,46.669,62.837Zm0-31.093a14.919,14.919,0,1,0,10.555,4.37A14.826,14.826,0,0,0,46.669,31.744Z"/><g transform="translate(37.779 39.082)"><path class="a" d="M44.947,62.916a.863.863,0,0,0-.6.763.88.88,0,0,0,.813.937.621.621,0,0,0,.174-.017.377.377,0,0,0,.166-.041.53.53,0,0,0,.158-.066c.05-.033.1-.066.141-.1a.75.75,0,0,0,.207-.274,1.1,1.1,0,0,0,.1-.332.88.88,0,0,0-.813-.937A2.162,2.162,0,0,0,44.947,62.916Z" transform="translate(-40.145 -44.609)"/><path class="a" d="M49.867,61.69c-.058,0-.116.008-.166.008a1.325,1.325,0,0,0-.174.041.41.41,0,0,0-.149.066.894.894,0,0,0-.448.7.947.947,0,0,0,.216.638l.124.124a.485.485,0,0,0,.141.083.579.579,0,0,0,.166.066,1.174,1.174,0,0,1,.166.033.947.947,0,0,0,.638-.216l.124-.124a.485.485,0,0,0,.083-.141.579.579,0,0,0,.066-.166.752.752,0,0,0,.025-.332,1.326,1.326,0,0,0-.041-.174.53.53,0,0,0-.066-.158c-.033-.05-.066-.1-.1-.141A.943.943,0,0,0,49.867,61.69Z" transform="translate(-40.928 -44.41)"/><path class="a" d="M53.745,59.72a.79.79,0,0,0-.34.05.908.908,0,0,0-.506.439,1.1,1.1,0,0,0-.1.332.88.88,0,0,0,.813.937,1.163,1.163,0,0,0,.34-.05.807.807,0,0,0,.506-.439,1.1,1.1,0,0,0,.1-.332.88.88,0,0,0-.813-.937Z" transform="translate(-41.589 -44.073)"/><path class="a" d="M54.059,63.509a1.326,1.326,0,0,0-.174.041.53.53,0,0,0-.158.066.881.881,0,0,0-.448.7.947.947,0,0,0,.216.638l.124.124a.486.486,0,0,0,.141.083.579.579,0,0,0,.166.066,1.175,1.175,0,0,1,.166.033.947.947,0,0,0,.638-.216l.124-.124a.485.485,0,0,0,.083-.141A.579.579,0,0,0,55,64.62a1.174,1.174,0,0,1,.033-.166c0-.058-.008-.116-.008-.166a1.327,1.327,0,0,0-.041-.174.53.53,0,0,0-.066-.158c-.033-.05-.066-.1-.1-.141a.951.951,0,0,0-.6-.307A.555.555,0,0,0,54.059,63.509Z" transform="translate(-41.671 -44.72)"/><path class="a" d="M58.115,61.52c-.058,0-.116.008-.166.008a1.326,1.326,0,0,0-.174.041.53.53,0,0,0-.158.066.881.881,0,0,0-.448.7,1.163,1.163,0,0,0,.05.34.886.886,0,0,0,.166.3.951.951,0,0,0,.6.307,1.057,1.057,0,0,0,.166-.008,1.327,1.327,0,0,0,.174-.041.53.53,0,0,0,.158-.066c.05-.033.1-.066.141-.1l.124-.124a.485.485,0,0,0,.083-.141.579.579,0,0,0,.066-.166,1.174,1.174,0,0,0,.033-.166.947.947,0,0,0-.216-.638.854.854,0,0,0-.274-.207A.877.877,0,0,0,58.115,61.52Z" transform="translate(-42.336 -44.381)"/><path class="a" d="M61.307,58.75a1.163,1.163,0,0,0-.34.05.863.863,0,0,0-.6.763,1.163,1.163,0,0,0,.05.34.886.886,0,0,0,.166.3A.876.876,0,0,0,61.9,59.048a.854.854,0,0,0-.274-.207A.979.979,0,0,0,61.307,58.75Z" transform="translate(-42.882 -43.908)"/><path class="a" d="M63.639,55.189a1.325,1.325,0,0,0-.174.041.53.53,0,0,0-.158.066.881.881,0,0,0-.448.7.947.947,0,0,0,.216.638l.124.124a.485.485,0,0,0,.141.083.579.579,0,0,0,.166.066,1.174,1.174,0,0,1,.166.033.947.947,0,0,0,.638-.216l.124-.124a.485.485,0,0,0,.083-.141.579.579,0,0,0,.066-.166,1.173,1.173,0,0,1,.033-.166c0-.058-.008-.116-.008-.166a1.324,1.324,0,0,0-.041-.174.53.53,0,0,0-.066-.158c-.033-.05-.066-.1-.1-.141a.951.951,0,0,0-.6-.307A.556.556,0,0,0,63.639,55.189Z" transform="translate(-43.308 -43.299)"/><path class="a" d="M56.937,56.939h0a.858.858,0,0,0-.788.39.88.88,0,0,0,.672,1.368,1.057,1.057,0,0,0,.166-.008,1.325,1.325,0,0,0,.174-.041.53.53,0,0,0,.158-.066c.05-.033.1-.066.141-.1l.124-.124a.485.485,0,0,0,.083-.141.579.579,0,0,0,.066-.166,1.174,1.174,0,0,0,.033-.166A.907.907,0,0,0,56.937,56.939Z" transform="translate(-42.136 -43.598)"/><path class="a" d="M60.135,54.17h0c-.058,0-.116.008-.166.008a1.325,1.325,0,0,0-.174.041.53.53,0,0,0-.158.066.894.894,0,0,0-.448.7c0,.058.008.108.008.174a.377.377,0,0,0,.041.166.53.53,0,0,0,.066.158c.033.05.066.1.1.141a.877.877,0,0,0,.6.307.859.859,0,0,0,.638-.216l.124-.124a.485.485,0,0,0,.083-.141.579.579,0,0,0,.066-.166,1.174,1.174,0,0,0,.033-.166A.89.89,0,0,0,60.135,54.17Z" transform="translate(-42.681 -43.126)"/><path class="a" d="M62.459,50.609a1.325,1.325,0,0,0-.174.041.53.53,0,0,0-.158.066.881.881,0,0,0-.448.7.947.947,0,0,0,.216.638l.124.124a.485.485,0,0,0,.141.083.579.579,0,0,0,.166.066,1.174,1.174,0,0,1,.166.033.947.947,0,0,0,.638-.216l.124-.124a.486.486,0,0,0,.083-.141.579.579,0,0,0,.066-.166.753.753,0,0,0,.025-.332,1.326,1.326,0,0,0-.041-.174.53.53,0,0,0-.066-.158c-.033-.05-.066-.1-.1-.141a.951.951,0,0,0-.6-.307A.555.555,0,0,0,62.459,50.609Z" transform="translate(-43.106 -42.516)"/><path class="a" d="M64.1,46.28a.807.807,0,0,0-.506.439,1.1,1.1,0,0,0-.1.332.947.947,0,0,0,.216.638l.124.124a.485.485,0,0,0,.141.083.579.579,0,0,0,.166.066A1.175,1.175,0,0,1,64.3,48a1.163,1.163,0,0,0,.34-.05.807.807,0,0,0,.506-.439,1.1,1.1,0,0,0,.1-.332c0-.058-.008-.116-.008-.166a1.326,1.326,0,0,0-.041-.174.53.53,0,0,0-.066-.158c-.033-.05-.066-.1-.1-.141a.951.951,0,0,0-.6-.307A1.163,1.163,0,0,0,64.1,46.28Z" transform="translate(-43.415 -41.769)"/><path class="a" d="M40.225,60.27a.912.912,0,0,0-.846.489,1.1,1.1,0,0,0-.1.332.947.947,0,0,0,.216.638.854.854,0,0,0,.274.207.8.8,0,0,0,.672.05.886.886,0,0,0,.3-.166.951.951,0,0,0,.307-.6,1.163,1.163,0,0,0-.05-.34.886.886,0,0,0-.166-.3A.925.925,0,0,0,40.225,60.27Z" transform="translate(-39.279 -44.168)"/><path class="a" d="M45.126,59.189a.8.8,0,0,0-.672-.05.908.908,0,0,0-.506.439.8.8,0,0,0-.05.672.886.886,0,0,0,.166.3.951.951,0,0,0,.6.307,1.163,1.163,0,0,0,.34-.05.807.807,0,0,0,.506-.439,1.1,1.1,0,0,0,.1-.332.947.947,0,0,0-.216-.638A.66.66,0,0,0,45.126,59.189Z" transform="translate(-40.06 -43.966)"/><path class="a" d="M62.567,40.85a1.163,1.163,0,0,0-.34.05.825.825,0,0,0-.415.29.486.486,0,0,0-.083.141.579.579,0,0,0-.066.166,1.174,1.174,0,0,0-.033.166.947.947,0,0,0,.216.638.854.854,0,0,0,.274.207,1.1,1.1,0,0,0,.332.1.947.947,0,0,0,.638-.216.854.854,0,0,0,.207-.274.8.8,0,0,0,.05-.672.886.886,0,0,0-.166-.3A1.048,1.048,0,0,0,62.567,40.85Z" transform="translate(-43.098 -40.85)"/><path class="a" d="M61.086,45.319a.8.8,0,0,0-.672-.05.908.908,0,0,0-.506.439.8.8,0,0,0-.05.672.886.886,0,0,0,.166.3.951.951,0,0,0,.6.307,1.163,1.163,0,0,0,.34-.05.807.807,0,0,0,.506-.439,1.1,1.1,0,0,0,.1-.332.947.947,0,0,0-.216-.638A.8.8,0,0,0,61.086,45.319Z" transform="translate(-42.786 -41.596)"/><path class="a" d="M48.56,58.866a1.163,1.163,0,0,0,.34-.05.807.807,0,0,0,.506-.439.8.8,0,0,0,.05-.672.807.807,0,0,0-.439-.506.8.8,0,0,0-.672-.05.908.908,0,0,0-.506.439.8.8,0,0,0-.05.672.917.917,0,0,0,.771.605Z" transform="translate(-40.724 -43.626)"/><path class="a" d="M53.083,56.684a.877.877,0,0,0,.307-.6.859.859,0,0,0-.216-.638l-.124-.124a.485.485,0,0,0-.141-.083.363.363,0,0,0-.158-.058.646.646,0,0,0-.174-.033.909.909,0,0,0-.937.813c0,.058.008.108.008.174a.377.377,0,0,0,.041.166.53.53,0,0,0,.066.158c.033.05.066.1.1.141a.877.877,0,0,0,.6.307A.919.919,0,0,0,53.083,56.684Z" transform="translate(-41.391 -43.293)"/><path class="a" d="M56.283,53.9a.877.877,0,0,0,.307-.6.859.859,0,0,0-.216-.638l-.124-.124a.485.485,0,0,0-.141-.083.363.363,0,0,0-.158-.058.646.646,0,0,0-.174-.033.909.909,0,0,0-.937.813,1.225,1.225,0,0,0,.008.174.377.377,0,0,0,.041.166.53.53,0,0,0,.066.158c.033.05.066.1.1.141a.877.877,0,0,0,.6.307A.894.894,0,0,0,56.283,53.9Z" transform="translate(-41.938 -42.818)"/><path class="a" d="M58.143,50.546a.947.947,0,0,0,.638-.216.854.854,0,0,0,.207-.274,1.1,1.1,0,0,0,.1-.332,1.163,1.163,0,0,0-.05-.34.807.807,0,0,0-.439-.506,1.1,1.1,0,0,0-.332-.1.79.79,0,0,0-.34.05.863.863,0,0,0-.6.763,1.163,1.163,0,0,0,.05.34.807.807,0,0,0,.439.506A.627.627,0,0,0,58.143,50.546Z" transform="translate(-42.363 -42.204)"/></g></g></svg>