<svg xmlns="http://www.w3.org/2000/svg" width="28.862" height="35.964" viewBox="0 0 28.862 35.964"><defs><style>.a{fill:#203e4b;stroke:#fff;}</style></defs><g transform="translate(-259.5 -218.5)"><g transform="translate(260 219)"><path class="a" d="M75.765,12.838H73.3V7.223a7.377,7.377,0,0,0-14.751,0v5.615H56.1a4.1,4.1,0,0,0-4.1,4.1V30.867a4.1,4.1,0,0,0,4.1,4.1H75.765a4.1,4.1,0,0,0,4.1-4.1V16.936A4.1,4.1,0,0,0,75.765,12.838ZM61.285,7.223a4.646,4.646,0,0,1,9.287,0v5.615H61.285V7.223ZM77.131,30.867a1.367,1.367,0,0,1-1.366,1.366H56.1a1.367,1.367,0,0,1-1.366-1.366V16.936A1.367,1.367,0,0,1,56.1,15.57H75.765a1.367,1.367,0,0,1,1.366,1.366Z" transform="translate(-52 0)"/></g><g transform="translate(271.404 238.531)"><path class="a" d="M221.527,286a2.526,2.526,0,0,0-1.368,4.65v3a1.366,1.366,0,1,0,2.732,0v-2.995A2.526,2.526,0,0,0,221.527,286Z" transform="translate(-219 -286)"/></g></g></svg>