<svg xmlns="http://www.w3.org/2000/svg" width="31.667" height="36.046" viewBox="0 0 31.667 36.046"><defs><style>.a{fill:#fff;stroke:#f47b4e;}</style></defs><path class="a" d="M24.318,78.218a7.758,7.758,0,1,0-12.549-5.237A6.182,6.182,0,0,0,4.558,82.91,7.616,7.616,0,0,0,0,89.877v7.186a2.4,2.4,0,0,0,2.4,2.4H27.89a2.78,2.78,0,0,0,2.777-2.777V87.257a9.625,9.625,0,0,0-6.349-9.039ZM19.5,66.763a5.39,5.39,0,1,1-5.423,5.39A5.413,5.413,0,0,1,19.5,66.763ZM8.8,74.573a3.83,3.83,0,0,1,3.747,4.735,9.687,9.687,0,0,0-2.708,2.785A3.835,3.835,0,1,1,8.8,74.573ZM2.349,97.063V89.877A5.262,5.262,0,0,1,7.6,84.621H8.693a9.582,9.582,0,0,0-.368,2.636v9.425a2.791,2.791,0,0,0,.033.428H2.4A.052.052,0,0,1,2.349,97.063Zm25.969-.381a.434.434,0,0,1-.428.428H11.1a.434.434,0,0,1-.428-.428V87.257A7.268,7.268,0,0,1,17.934,80h3.124a7.268,7.268,0,0,1,7.26,7.26Z" transform="translate(0.5 -63.914)"/></svg>