<svg xmlns="http://www.w3.org/2000/svg" width="9.966" height="11.569" viewBox="0 0 9.966 11.569"><defs><style>.a{fill:#203e4b;stroke:#203e4b;stroke-width:0.2px;}</style></defs><g transform="translate(-33.8 0.1)"><g transform="translate(33.9)"><path class="a" d="M188.745,215.1h-.65a.428.428,0,1,1,0-.856h1.144a.284.284,0,0,0,0-.567H188.7v-.395a.284.284,0,0,0-.567,0v.395h-.04a1,1,0,1,0,0,1.99h.65a.428.428,0,0,1,0,.856H187.58a.284.284,0,0,0,0,.567h.558v.4a.284.284,0,0,0,.567,0v-.4h.054a1,1,0,0,0-.014-1.99Z" transform="translate(-183.479 -207.966)"/><path class="a" d="M43.1,6.493a8.13,8.13,0,0,0-1.229-1.971,9.157,9.157,0,0,0-1.574-1.5L41.506.789a.28.28,0,0,0-.052-.336A1.413,1.413,0,0,0,40.442,0a2.379,2.379,0,0,0-.917.241,1.736,1.736,0,0,1-.577.173A.359.359,0,0,1,38.814.39,4.2,4.2,0,0,0,37.4.057a1.916,1.916,0,0,0-1.423.667.285.285,0,0,0-.033.355l1.3,1.964a9.31,9.31,0,0,0-1.553,1.48,8.2,8.2,0,0,0-1.229,1.971A6.7,6.7,0,0,0,33.9,9.168a2.2,2.2,0,0,0,2.2,2.2h5.365a2.2,2.2,0,0,0,2.2-2.2A6.7,6.7,0,0,0,43.1,6.493ZM36.55.96A1.237,1.237,0,0,1,37.4.619a3.683,3.683,0,0,1,1.217.3.96.96,0,0,0,.329.057A2.094,2.094,0,0,0,39.74.761a1.917,1.917,0,0,1,.7-.2A.75.75,0,0,1,40.9.719L39.762,2.827H37.786ZM41.466,10.8H36.1a1.635,1.635,0,0,1-1.633-1.633A6.609,6.609,0,0,1,36.115,4.9a8.676,8.676,0,0,1,1.6-1.5h2.123a8.513,8.513,0,0,1,1.6,1.5,6.592,6.592,0,0,1,1.647,4.271A1.628,1.628,0,0,1,41.466,10.8Z" transform="translate(-33.9)"/></g></g></svg>