<svg xmlns="http://www.w3.org/2000/svg" width="16" height="16" viewBox="0 0 16 16"><defs><style>.a{fill:none;}.b,.d{fill:#fff;}.c,.d{stroke:none;}</style></defs><g transform="translate(-280 -20)"><g class="a" transform="translate(280 20)"><path class="c" d="M8,0A8,8,0,1,1,0,8,8,8,0,0,1,8,0Z"/><path class="d" d="M 8 1 C 4.140190124511719 1 1 4.140190124511719 1 8 C 1 11.85980987548828 4.140190124511719 15 8 15 C 11.85980987548828 15 15 11.85980987548828 15 8 C 15 4.140190124511719 11.85980987548828 1 8 1 M 8 0 C 12.41827964782715 0 16 3.581720352172852 16 8 C 16 12.41827964782715 12.41827964782715 16 8 16 C 3.581720352172852 16 0 12.41827964782715 0 8 C 0 3.581720352172852 3.581720352172852 0 8 0 Z"/></g><path class="b" d="M6.306,8.315a1.039,1.039,0,0,0-.29-.755,2.538,2.538,0,0,0-.968-.538,7.612,7.612,0,0,1-1.054-.444A2.143,2.143,0,0,1,2.742,4.589a2.053,2.053,0,0,1,.543-1.468,2.314,2.314,0,0,1,1.473-.683V1.266h.86V2.449a2.13,2.13,0,0,1,1.446.793,2.715,2.715,0,0,1,.511,1.712h-1.3a1.694,1.694,0,0,0-.3-1.067.991.991,0,0,0-.825-.39,1.115,1.115,0,0,0-.806.28,1.061,1.061,0,0,0-.29.8,1,1,0,0,0,.288.75,2.8,2.8,0,0,0,.976.535,8.249,8.249,0,0,1,1.081.468,2.764,2.764,0,0,1,.661.492,1.955,1.955,0,0,1,.414.637,2.25,2.25,0,0,1,.145.844,2.008,2.008,0,0,1-.556,1.473,2.449,2.449,0,0,1-1.551.667v1.048H4.65V10.449a2.458,2.458,0,0,1-1.637-.763,2.481,2.481,0,0,1-.573-1.71H3.747a1.492,1.492,0,0,0,.341,1.048,1.246,1.246,0,0,0,.965.371,1.328,1.328,0,0,0,.933-.3A1.018,1.018,0,0,0,6.306,8.315Z" transform="translate(283.207 21.557)"/></g></svg>