<svg xmlns="http://www.w3.org/2000/svg" width="17.484" height="19.325" viewBox="0 0 17.484 19.325"><defs><style>.a{fill:#587581;stroke:#fff;stroke-width:0.3px;}</style></defs><g transform="translate(-179.141 -761.363)"><path class="a" d="M41.57,1.841H38.5V.614A.613.613,0,0,0,37.888,0H29.3a.613.613,0,0,0-.614.614V1.841H25.614A.614.614,0,0,0,25,2.455V3.682a4.3,4.3,0,0,0,3.682,4.247v.049a4.914,4.914,0,0,0,4.3,4.867v1.27H29.91a.614.614,0,0,0-.614.614V17.8h-.614a.614.614,0,1,0,0,1.227H38.5a.614.614,0,1,0,0-1.227h-.614V14.729a.614.614,0,0,0-.614-.614H34.205v-1.27a4.914,4.914,0,0,0,4.3-4.867V7.929a4.3,4.3,0,0,0,3.682-4.247V2.455A.614.614,0,0,0,41.57,1.841Zm-4.91,13.5V17.8H30.523V15.342ZM26.227,3.682V3.069h2.455v3.62A3.074,3.074,0,0,1,26.227,3.682Zm11.047,4.3a3.682,3.682,0,0,1-7.364,0V1.227h7.364Zm3.682-4.3A3.074,3.074,0,0,1,38.5,6.689V3.069h2.455Z" transform="translate(154.291 761.513)"/><path class="a" d="M194.456,430.646h-3.682a.614.614,0,0,1,0-1.227h3.682a.614.614,0,0,1,0,1.227Z" transform="translate(-4.732 348.051)"/></g></svg>