<svg xmlns="http://www.w3.org/2000/svg" width="36" height="32.337" viewBox="0 0 36 32.337"><defs><style>.a{opacity:0.25;}.b{fill:#fff;}.c{fill:#587581;stroke:#203e4b;}.d{fill:#bcc8cc;}.e{stroke:none;}.f{fill:none;}</style></defs><g transform="translate(-112 -466)"><g transform="translate(25 50)"><g class="a" transform="translate(58.5 385.5)"><path class="b" d="M46.669,62.837A16.165,16.165,0,1,1,58.1,58.1,16.069,16.069,0,0,1,46.669,62.837Zm0-31.093a14.919,14.919,0,1,0,10.555,4.37A14.826,14.826,0,0,0,46.669,31.744Z"/><g transform="translate(37.779 39.082)"><path class="b" d="M44.947,62.916a.863.863,0,0,0-.6.763.88.88,0,0,0,.813.937.621.621,0,0,0,.174-.017.377.377,0,0,0,.166-.041.53.53,0,0,0,.158-.066c.05-.033.1-.066.141-.1a.75.75,0,0,0,.207-.274,1.1,1.1,0,0,0,.1-.332.88.88,0,0,0-.813-.937A2.162,2.162,0,0,0,44.947,62.916Z" transform="translate(-40.145 -44.609)"/><path class="b" d="M49.867,61.69c-.058,0-.116.008-.166.008a1.325,1.325,0,0,0-.174.041.41.41,0,0,0-.149.066.894.894,0,0,0-.448.7.947.947,0,0,0,.216.638l.124.124a.485.485,0,0,0,.141.083.579.579,0,0,0,.166.066,1.174,1.174,0,0,1,.166.033.947.947,0,0,0,.638-.216l.124-.124a.485.485,0,0,0,.083-.141.579.579,0,0,0,.066-.166.752.752,0,0,0,.025-.332,1.326,1.326,0,0,0-.041-.174.53.53,0,0,0-.066-.158c-.033-.05-.066-.1-.1-.141A.943.943,0,0,0,49.867,61.69Z" transform="translate(-40.928 -44.41)"/><path class="b" d="M53.745,59.72a.79.79,0,0,0-.34.05.908.908,0,0,0-.506.439,1.1,1.1,0,0,0-.1.332.88.88,0,0,0,.813.937,1.163,1.163,0,0,0,.34-.05.807.807,0,0,0,.506-.439,1.1,1.1,0,0,0,.1-.332.88.88,0,0,0-.813-.937Z" transform="translate(-41.589 -44.073)"/><path class="b" d="M54.059,63.509a1.326,1.326,0,0,0-.174.041.53.53,0,0,0-.158.066.881.881,0,0,0-.448.7.947.947,0,0,0,.216.638l.124.124a.486.486,0,0,0,.141.083.579.579,0,0,0,.166.066,1.175,1.175,0,0,1,.166.033.947.947,0,0,0,.638-.216l.124-.124a.485.485,0,0,0,.083-.141A.579.579,0,0,0,55,64.62a1.174,1.174,0,0,1,.033-.166c0-.058-.008-.116-.008-.166a1.327,1.327,0,0,0-.041-.174.53.53,0,0,0-.066-.158c-.033-.05-.066-.1-.1-.141a.951.951,0,0,0-.6-.307A.555.555,0,0,0,54.059,63.509Z" transform="translate(-41.671 -44.72)"/><path class="b" d="M58.115,61.52c-.058,0-.116.008-.166.008a1.326,1.326,0,0,0-.174.041.53.53,0,0,0-.158.066.881.881,0,0,0-.448.7,1.163,1.163,0,0,0,.05.34.886.886,0,0,0,.166.3.951.951,0,0,0,.6.307,1.057,1.057,0,0,0,.166-.008,1.327,1.327,0,0,0,.174-.041.53.53,0,0,0,.158-.066c.05-.033.1-.066.141-.1l.124-.124a.485.485,0,0,0,.083-.141.579.579,0,0,0,.066-.166,1.174,1.174,0,0,0,.033-.166.947.947,0,0,0-.216-.638.854.854,0,0,0-.274-.207A.877.877,0,0,0,58.115,61.52Z" transform="translate(-42.336 -44.381)"/><path class="b" d="M61.307,58.75a1.163,1.163,0,0,0-.34.05.863.863,0,0,0-.6.763,1.163,1.163,0,0,0,.05.34.886.886,0,0,0,.166.3A.876.876,0,0,0,61.9,59.048a.854.854,0,0,0-.274-.207A.979.979,0,0,0,61.307,58.75Z" transform="translate(-42.882 -43.908)"/><path class="b" d="M63.639,55.189a1.325,1.325,0,0,0-.174.041.53.53,0,0,0-.158.066.881.881,0,0,0-.448.7.947.947,0,0,0,.216.638l.124.124a.485.485,0,0,0,.141.083.579.579,0,0,0,.166.066,1.174,1.174,0,0,1,.166.033.947.947,0,0,0,.638-.216l.124-.124a.485.485,0,0,0,.083-.141.579.579,0,0,0,.066-.166,1.173,1.173,0,0,1,.033-.166c0-.058-.008-.116-.008-.166a1.324,1.324,0,0,0-.041-.174.53.53,0,0,0-.066-.158c-.033-.05-.066-.1-.1-.141a.951.951,0,0,0-.6-.307A.556.556,0,0,0,63.639,55.189Z" transform="translate(-43.308 -43.299)"/><path class="b" d="M56.937,56.939h0a.858.858,0,0,0-.788.39.88.88,0,0,0,.672,1.368,1.057,1.057,0,0,0,.166-.008,1.325,1.325,0,0,0,.174-.041.53.53,0,0,0,.158-.066c.05-.033.1-.066.141-.1l.124-.124a.485.485,0,0,0,.083-.141.579.579,0,0,0,.066-.166,1.174,1.174,0,0,0,.033-.166A.907.907,0,0,0,56.937,56.939Z" transform="translate(-42.136 -43.598)"/><path class="b" d="M60.135,54.17h0c-.058,0-.116.008-.166.008a1.325,1.325,0,0,0-.174.041.53.53,0,0,0-.158.066.894.894,0,0,0-.448.7c0,.058.008.108.008.174a.377.377,0,0,0,.041.166.53.53,0,0,0,.066.158c.033.05.066.1.1.141a.877.877,0,0,0,.6.307.859.859,0,0,0,.638-.216l.124-.124a.485.485,0,0,0,.083-.141.579.579,0,0,0,.066-.166,1.174,1.174,0,0,0,.033-.166A.89.89,0,0,0,60.135,54.17Z" transform="translate(-42.681 -43.126)"/><path class="b" d="M62.459,50.609a1.325,1.325,0,0,0-.174.041.53.53,0,0,0-.158.066.881.881,0,0,0-.448.7.947.947,0,0,0,.216.638l.124.124a.485.485,0,0,0,.141.083.579.579,0,0,0,.166.066,1.174,1.174,0,0,1,.166.033.947.947,0,0,0,.638-.216l.124-.124a.486.486,0,0,0,.083-.141.579.579,0,0,0,.066-.166.753.753,0,0,0,.025-.332,1.326,1.326,0,0,0-.041-.174.53.53,0,0,0-.066-.158c-.033-.05-.066-.1-.1-.141a.951.951,0,0,0-.6-.307A.555.555,0,0,0,62.459,50.609Z" transform="translate(-43.106 -42.516)"/><path class="b" d="M64.1,46.28a.807.807,0,0,0-.506.439,1.1,1.1,0,0,0-.1.332.947.947,0,0,0,.216.638l.124.124a.485.485,0,0,0,.141.083.579.579,0,0,0,.166.066A1.175,1.175,0,0,1,64.3,48a1.163,1.163,0,0,0,.34-.05.807.807,0,0,0,.506-.439,1.1,1.1,0,0,0,.1-.332c0-.058-.008-.116-.008-.166a1.326,1.326,0,0,0-.041-.174.53.53,0,0,0-.066-.158c-.033-.05-.066-.1-.1-.141a.951.951,0,0,0-.6-.307A1.163,1.163,0,0,0,64.1,46.28Z" transform="translate(-43.415 -41.769)"/><path class="b" d="M40.225,60.27a.912.912,0,0,0-.846.489,1.1,1.1,0,0,0-.1.332.947.947,0,0,0,.216.638.854.854,0,0,0,.274.207.8.8,0,0,0,.672.05.886.886,0,0,0,.3-.166.951.951,0,0,0,.307-.6,1.163,1.163,0,0,0-.05-.34.886.886,0,0,0-.166-.3A.925.925,0,0,0,40.225,60.27Z" transform="translate(-39.279 -44.168)"/><path class="b" d="M45.126,59.189a.8.8,0,0,0-.672-.05.908.908,0,0,0-.506.439.8.8,0,0,0-.05.672.886.886,0,0,0,.166.3.951.951,0,0,0,.6.307,1.163,1.163,0,0,0,.34-.05.807.807,0,0,0,.506-.439,1.1,1.1,0,0,0,.1-.332.947.947,0,0,0-.216-.638A.66.66,0,0,0,45.126,59.189Z" transform="translate(-40.06 -43.966)"/><path class="b" d="M62.567,40.85a1.163,1.163,0,0,0-.34.05.825.825,0,0,0-.415.29.486.486,0,0,0-.083.141.579.579,0,0,0-.066.166,1.174,1.174,0,0,0-.033.166.947.947,0,0,0,.216.638.854.854,0,0,0,.274.207,1.1,1.1,0,0,0,.332.1.947.947,0,0,0,.638-.216.854.854,0,0,0,.207-.274.8.8,0,0,0,.05-.672.886.886,0,0,0-.166-.3A1.048,1.048,0,0,0,62.567,40.85Z" transform="translate(-43.098 -40.85)"/><path class="b" d="M61.086,45.319a.8.8,0,0,0-.672-.05.908.908,0,0,0-.506.439.8.8,0,0,0-.05.672.886.886,0,0,0,.166.3.951.951,0,0,0,.6.307,1.163,1.163,0,0,0,.34-.05.807.807,0,0,0,.506-.439,1.1,1.1,0,0,0,.1-.332.947.947,0,0,0-.216-.638A.8.8,0,0,0,61.086,45.319Z" transform="translate(-42.786 -41.596)"/><path class="b" d="M48.56,58.866a1.163,1.163,0,0,0,.34-.05.807.807,0,0,0,.506-.439.8.8,0,0,0,.05-.672.807.807,0,0,0-.439-.506.8.8,0,0,0-.672-.05.908.908,0,0,0-.506.439.8.8,0,0,0-.05.672.917.917,0,0,0,.771.605Z" transform="translate(-40.724 -43.626)"/><path class="b" d="M53.083,56.684a.877.877,0,0,0,.307-.6.859.859,0,0,0-.216-.638l-.124-.124a.485.485,0,0,0-.141-.083.363.363,0,0,0-.158-.058.646.646,0,0,0-.174-.033.909.909,0,0,0-.937.813c0,.058.008.108.008.174a.377.377,0,0,0,.041.166.53.53,0,0,0,.066.158c.033.05.066.1.1.141a.877.877,0,0,0,.6.307A.919.919,0,0,0,53.083,56.684Z" transform="translate(-41.391 -43.293)"/><path class="b" d="M56.283,53.9a.877.877,0,0,0,.307-.6.859.859,0,0,0-.216-.638l-.124-.124a.485.485,0,0,0-.141-.083.363.363,0,0,0-.158-.058.646.646,0,0,0-.174-.033.909.909,0,0,0-.937.813,1.225,1.225,0,0,0,.008.174.377.377,0,0,0,.041.166.53.53,0,0,0,.066.158c.033.05.066.1.1.141a.877.877,0,0,0,.6.307A.894.894,0,0,0,56.283,53.9Z" transform="translate(-41.938 -42.818)"/><path class="b" d="M58.143,50.546a.947.947,0,0,0,.638-.216.854.854,0,0,0,.207-.274,1.1,1.1,0,0,0,.1-.332,1.163,1.163,0,0,0-.05-.34.807.807,0,0,0-.439-.506,1.1,1.1,0,0,0-.332-.1.79.79,0,0,0-.34.05.863.863,0,0,0-.6.763,1.163,1.163,0,0,0,.05.34.807.807,0,0,0,.439.506A.627.627,0,0,0,58.143,50.546Z" transform="translate(-42.363 -42.204)"/></g></g><g class="c" transform="translate(87 420)"><rect class="e" width="36" height="24"/><rect class="f" x="0.5" y="0.5" width="35" height="23"/></g></g><path class="d" d="M5.313,11.881a.534.534,0,0,0-.133-.394,1.535,1.535,0,0,0-.485-.277,2.259,2.259,0,0,1-.923-.57,1.145,1.145,0,0,1-.281-.772A1.082,1.082,0,0,1,3.873,9a1.442,1.442,0,0,1,.971-.327,1.454,1.454,0,0,1,.7.166,1.148,1.148,0,0,1,.473.467,1.4,1.4,0,0,1,.166.686H5.325A.707.707,0,0,0,5.2,9.539a.446.446,0,0,0-.368-.157.46.46,0,0,0-.352.133.5.5,0,0,0-.126.359.442.442,0,0,0,.141.318,1.617,1.617,0,0,0,.5.294,2.134,2.134,0,0,1,.907.554,1.234,1.234,0,0,1,.283.835,1.1,1.1,0,0,1-.354.87,1.4,1.4,0,0,1-.964.313,1.66,1.66,0,0,1-.753-.17,1.274,1.274,0,0,1-.532-.486,1.413,1.413,0,0,1-.192-.747H4.25a.815.815,0,0,0,.144.536.588.588,0,0,0,.469.167Q5.313,12.358,5.313,11.881ZM9.526,8.734v2.953a1.38,1.38,0,0,1-.366,1.018,1.417,1.417,0,0,1-1.034.353A1.429,1.429,0,0,1,7.078,12.7a1.39,1.39,0,0,1-.362-1.034V8.734h.867V11.67a.879.879,0,0,0,.117.519.5.5,0,0,0,.425.155.5.5,0,0,0,.422-.154.876.876,0,0,0,.117-.505V8.734Zm2.455,3.146a.534.534,0,0,0-.133-.394,1.535,1.535,0,0,0-.485-.277,2.259,2.259,0,0,1-.923-.57,1.145,1.145,0,0,1-.281-.772A1.082,1.082,0,0,1,10.541,9a1.589,1.589,0,0,1,1.671-.161,1.148,1.148,0,0,1,.473.467,1.4,1.4,0,0,1,.166.686h-.858a.707.707,0,0,0-.127-.456.446.446,0,0,0-.368-.157.46.46,0,0,0-.352.133.5.5,0,0,0-.126.359.442.442,0,0,0,.141.318,1.617,1.617,0,0,0,.5.294,2.134,2.134,0,0,1,.907.554,1.234,1.234,0,0,1,.283.835,1.1,1.1,0,0,1-.354.87,1.4,1.4,0,0,1-.964.313,1.66,1.66,0,0,1-.753-.17,1.274,1.274,0,0,1-.532-.486,1.413,1.413,0,0,1-.192-.747h.864a.815.815,0,0,0,.144.536.588.588,0,0,0,.469.167Q11.981,12.358,11.981,11.881Zm2.3-.381V13h-.861V8.734h1.453a1.333,1.333,0,0,1,1.009.393,1.412,1.412,0,0,1,.376,1.02,1.32,1.32,0,0,1-.372.99,1.413,1.413,0,0,1-1.031.363Zm0-.718h.592a.469.469,0,0,0,.381-.161.714.714,0,0,0,.135-.469.845.845,0,0,0-.138-.508.442.442,0,0,0-.369-.192h-.6Zm4.755.372H17.694v1.131h1.588V13H16.833V8.734h2.443v.718H17.694V10.46h1.342ZM22.759,13H21.9l-1.26-2.8V13h-.861V8.734h.861l1.263,2.8v-2.8h.858Zm.691,0V8.734h1.128a1.552,1.552,0,0,1,1.191.475,1.86,1.86,0,0,1,.453,1.3V11.2a1.867,1.867,0,0,1-.444,1.32A1.585,1.585,0,0,1,24.555,13Zm.861-3.548v2.833h.258a.723.723,0,0,0,.606-.227,1.351,1.351,0,0,0,.185-.784v-.741a1.515,1.515,0,0,0-.167-.833.674.674,0,0,0-.568-.248Zm4.731,1.7H27.7v1.131H29.29V13H26.84V8.734h2.443v.718H27.7V10.46h1.342ZM29.785,13V8.734h1.128a1.552,1.552,0,0,1,1.191.475,1.86,1.86,0,0,1,.453,1.3V11.2a1.867,1.867,0,0,1-.444,1.32A1.585,1.585,0,0,1,30.889,13Zm.861-3.548v2.833H30.9a.723.723,0,0,0,.606-.227,1.351,1.351,0,0,0,.185-.784v-.741a1.515,1.515,0,0,0-.167-.833.674.674,0,0,0-.568-.248Z" transform="translate(112.115 474.045)"/><path class="b" d="M13.276,5.25V7h-1V2.023h1.7a1.555,1.555,0,0,1,1.177.458,1.647,1.647,0,0,1,.439,1.189,1.54,1.54,0,0,1-.434,1.155,1.649,1.649,0,0,1-1.2.424Zm0-.837h.69a.547.547,0,0,0,.444-.188.832.832,0,0,0,.157-.547.986.986,0,0,0-.161-.593.515.515,0,0,0-.431-.224h-.7Zm6.361,2.023a1.834,1.834,0,0,1-.713.473A2.6,2.6,0,0,1,18,7.068a1.7,1.7,0,0,1-1.333-.531,2.3,2.3,0,0,1-.489-1.547v-.9a2.461,2.461,0,0,1,.449-1.584,1.587,1.587,0,0,1,1.311-.555,1.688,1.688,0,0,1,1.222.4,1.892,1.892,0,0,1,.477,1.254H18.66a1.135,1.135,0,0,0-.2-.648.635.635,0,0,0-.492-.173.644.644,0,0,0-.591.3,1.9,1.9,0,0,0-.191.947v.9a1.852,1.852,0,0,0,.2.99.74.74,0,0,0,.668.309.873.873,0,0,0,.482-.12l.089-.062V5.141h-.7V4.382h1.712Zm3.086-.455H21.353L21.086,7H20.023l1.555-4.977H22.5L24.063,7H22.99Zm-1.152-.837h.93L22.037,3.37Z" transform="translate(111.729 474)"/></g></svg>