<svg xmlns="http://www.w3.org/2000/svg" width="20.283" height="23.058" viewBox="0 0 20.283 23.058"><defs><style>.a{fill:#fff;}</style></defs><path class="a" d="M50.837,9.017,41.23.21a.8.8,0,0,0-1.1.016L31.057,9.033a.8.8,0,0,0-.243.575v12.65a.8.8,0,0,0,.8.8h6.672a.8.8,0,0,0,.8-.8V16.386h3.736v5.871a.8.8,0,0,0,.8.8H50.3a.8.8,0,0,0,.8-.8V9.607A.8.8,0,0,0,50.837,9.017ZM49.5,21.457H44.425V15.585a.8.8,0,0,0-.8-.8H38.287a.8.8,0,0,0-.8.8v5.871H32.415V9.946L40.7,1.9,49.5,9.96v11.5Z" transform="translate(-30.814 0)"/></svg>