<svg xmlns="http://www.w3.org/2000/svg" width="158" height="84.219" viewBox="0 0 158 84.219"><defs><style>.a{opacity:0.27;}.b{fill:#fff;}</style></defs><g transform="translate(-117 -90.65)"><g class="a" transform="translate(1 2)"><g transform="translate(117 90.65)"><g transform="translate(0 0.139)"><path d="M106.322,214.793h7q3.184,0,4.087,1.3t.242,6.464l-2.964,23.133q-.661,5.16-1.9,6.464t-4.42,1.3h-7Zm4.758,4.047-3.912,30.525h.369a1.694,1.694,0,0,0,1.155-.3,3.174,3.174,0,0,0,.492-1.651l.032-.234,3.377-26.343a2.913,2.913,0,0,0-.063-1.682c-.159-.21-.52-.313-1.075-.313Z" transform="translate(-101.362 -214.793)"/><path d="M112.92,214.793h7.86l-2.051,38.663h-5.3l.758-8.813h-2.349l-1.456,8.813H105.06Zm3.123,5.765-3.472,19.994h2l1.611-19.994Z" transform="translate(-90.387 -214.793)"/><path d="M114.17,214.793h5.277l-4.956,38.663h-5.277Z" transform="translate(-78.058 -214.793)"/><path d="M116.309,214.793h5.277l-4.432,34.572h3.139l-.524,4.091h-8.416Z" transform="translate(-71.71 -214.793)"/><path d="M115.1,214.793h5.277L120,229.649l3.135-14.856h4.952L121.7,237.648l-2.028,15.808h-5.349l2.028-15.808Z" transform="translate(-62.895 -214.793)"/></g><g transform="translate(70.006)"><path d="M134.705,222.126l-.762,5.952h-5.3l1.008-7.856a1.922,1.922,0,0,0-.075-1.048.646.646,0,0,0-.635-.325.833.833,0,0,0-.71.29,2.369,2.369,0,0,0-.325,1.083l-1.02,7.952a2.618,2.618,0,0,0,.067,1.393,3.1,3.1,0,0,0,.964.909l2.98,1.952a4.078,4.078,0,0,1,1.67,1.928,7.289,7.289,0,0,1,.143,3.349l-1.115,8.674q-.637,4.994-1.964,6.182t-5.325,1.186q-3.654,0-4.67-1.2t-.385-6.17l1.171-9.138h5.3l-1.417,11.043a2.066,2.066,0,0,0,.059,1.1.62.62,0,0,0,.619.313.851.851,0,0,0,.71-.345,2.316,2.316,0,0,0,.357-1.071l1.313-10.253a2.465,2.465,0,0,0-.063-1.325,3.227,3.227,0,0,0-.976-.9l-3.02-2a4.141,4.141,0,0,1-1.643-1.885,7.211,7.211,0,0,1-.127-3.349l.825-6.44q.637-5,1.952-6.182t5.15-1.186q3.839,0,4.857,1.206T134.705,222.126Z" transform="translate(-119.005 -214.758)"/><path d="M127.658,214.793h7q3.184,0,4.087,1.3t.242,6.464l-1.135,8.856q-.661,5.166-1.9,6.464t-4.42,1.3h-1.722l-1.829,14.276H122.7Zm4.761,4.047-2.091,16.3h.373a1.6,1.6,0,0,0,1.159-.325,3.336,3.336,0,0,0,.492-1.674l.032-.254,1.544-12.047a2.891,2.891,0,0,0-.06-1.682c-.159-.21-.52-.313-1.075-.313Z" transform="translate(-108.034 -214.654)"/><path d="M142.242,222.126l-3.107,24.252q-.643,4.994-1.956,6.182t-4.988,1.186q-4,0-5.023-1.175t-.381-6.194l3.111-24.252q.631-4.952,1.964-6.162t5.186-1.206q3.815,0,4.825,1.186T142.242,222.126Zm-5.055-1.9a1.966,1.966,0,0,0-.064-1.059.6.6,0,0,0-.6-.313.884.884,0,0,0-.738.313,2.2,2.2,0,0,0-.345,1.059l-3.595,28.061a1.989,1.989,0,0,0,.067,1.091.662.662,0,0,0,.655.325.79.79,0,0,0,.682-.325,2.4,2.4,0,0,0,.337-1.091Z" transform="translate(-96.645 -214.758)"/><path d="M135.2,214.793h7q3.184,0,4.087,1.3t.242,6.464l-.758,5.9a10.73,10.73,0,0,1-1.02,3.71,5.191,5.191,0,0,1-2.091,2.055,3.378,3.378,0,0,1,1.6,1.837,9.255,9.255,0,0,1,.052,3.769l-1.746,13.622h-5.277l1.952-15.229a1.334,1.334,0,0,0-.19-1.067,1.312,1.312,0,0,0-1.028-.325h-.369l-2.135,16.621h-5.277Zm4.757,4.047-1.722,13.411a.8.8,0,0,0,.2.06,2.107,2.107,0,0,0,.254.012,1.386,1.386,0,0,0,1.028-.373,1.872,1.872,0,0,0,.468-1.115l1.282-10a2.913,2.913,0,0,0-.064-1.682c-.159-.21-.52-.313-1.075-.313Z" transform="translate(-85.671 -214.654)"/><path d="M136.919,214.793h10.138l-.52,4.047H144.12l-4.44,34.616H134.4l4.44-34.616H136.4Z" transform="translate(-73.307 -214.654)"/><path d="M152.611,222.126l-.762,5.952h-5.3l1.008-7.856a1.922,1.922,0,0,0-.075-1.048.64.64,0,0,0-.631-.325.842.842,0,0,0-.714.29,2.42,2.42,0,0,0-.325,1.083l-1.02,7.952a2.618,2.618,0,0,0,.067,1.393,3.1,3.1,0,0,0,.964.909l2.98,1.952a4.077,4.077,0,0,1,1.67,1.928,7.289,7.289,0,0,1,.143,3.349l-1.111,8.674q-.643,4.994-1.968,6.182t-5.325,1.186q-3.648,0-4.67-1.2t-.385-6.17l1.174-9.138h5.3l-1.417,11.043a2.078,2.078,0,0,0,.056,1.1.626.626,0,0,0,.623.313.849.849,0,0,0,.706-.345,2.229,2.229,0,0,0,.357-1.071l1.313-10.253a2.518,2.518,0,0,0-.06-1.325,3.331,3.331,0,0,0-.976-.9l-3.024-2a4.141,4.141,0,0,1-1.643-1.885,7.322,7.322,0,0,1-.127-3.349l.825-6.44q.643-5,1.956-6.182t5.15-1.186q3.833,0,4.853,1.206T152.611,222.126Z" transform="translate(-65.862 -214.758)"/></g></g><g transform="translate(125.529 133.88)"><path d="M118.71,233.025l-.762,5.952h-5.3l1.008-7.86a1.966,1.966,0,0,0-.063-1.059.61.61,0,0,0-.6-.313.9.9,0,0,0-.738.313,2.2,2.2,0,0,0-.345,1.059l-3.595,28.061a2.008,2.008,0,0,0,.067,1.1.669.669,0,0,0,.655.325.8.8,0,0,0,.682-.325,2.434,2.434,0,0,0,.337-1.1l1.417-11.043h5.3l-1.171,9.138q-.643,5-1.956,6.182t-4.988,1.186q-4,0-5.023-1.175t-.381-6.194l3.111-24.248q.631-4.952,1.964-6.162t5.186-1.21q3.815,0,4.825,1.186T118.71,233.025Z" transform="translate(-103.007 -225.653)"/><path d="M111.544,225.688h5.138l-1.944,15.181h1.952l1.944-15.181h5.186l-4.956,38.663h-5.186l2.488-19.387h-1.952l-2.488,19.387h-5.138Z" transform="translate(-92.381 -225.549)"/><path d="M118.134,225.688h7.86l-2.051,38.663h-5.3l.758-8.809h-2.349l-1.456,8.809h-5.321Zm3.123,5.765-3.472,19.994h2l1.611-19.994Z" transform="translate(-81.441 -225.549)"/><path d="M119.384,225.688h5.277l-4.432,34.572h3.139l-.524,4.091h-8.416Z" transform="translate(-69.113 -225.549)"/><path d="M121.939,225.688h5.277l-4.432,34.572h3.139l-.524,4.091h-8.416Z" transform="translate(-61.53 -225.549)"/><path d="M124.5,225.688h8.416l-.52,4.047h-3.139l-1.46,11.392h3.139l-.524,4.091H127.27l-1.928,15.042h3.139l-.528,4.091h-8.416Z" transform="translate(-53.95 -225.549)"/><path d="M127.4,225.677h4.416l.972,18.9h.369l2.238-18.9h4.6l-4.96,38.707h-4.42l-.849-20.574H129.4l-2.361,20.574h-4.6Z" transform="translate(-45.358 -225.582)"/><path d="M142.529,233.025l-.778,6.091H136.47l1.028-8a1.728,1.728,0,0,0-.1-1.067.8.8,0,0,0-.73-.305,1.02,1.02,0,0,0-.817.305,2.076,2.076,0,0,0-.357,1.067l-3.6,28.061a1.839,1.839,0,0,0,.091,1.107.79.79,0,0,0,.726.313,1.026,1.026,0,0,0,.809-.313,2.142,2.142,0,0,0,.373-1.107l1.385-10.809h-1.139l.528-4.095h6.416L138.5,264.455h-2.047l-.476-1.9a5.8,5.8,0,0,1-2.1,1.6,6.916,6.916,0,0,1-2.726.488,4.77,4.77,0,0,1-3.785-1.313,4.933,4.933,0,0,1-.794-3.964l3.377-26.339q.643-5,1.968-6.186t5.277-1.186c2.639,0,4.289.4,4.964,1.186S142.958,229.692,142.529,233.025Z" transform="translate(-33.295 -225.653)"/><path d="M135.234,225.688h8.416l-.52,4.047h-3.139l-1.46,11.392h3.139l-.524,4.091h-3.139l-1.928,15.042h3.139l-.524,4.091h-8.416Z" transform="translate(-22.072 -225.549)"/><path d="M148.966,233.025l-.762,5.952h-5.3l1.008-7.86a1.921,1.921,0,0,0-.075-1.047.656.656,0,0,0-.635-.325.835.835,0,0,0-.71.294,2.333,2.333,0,0,0-.325,1.079l-1.02,7.952a2.638,2.638,0,0,0,.067,1.4,3.15,3.15,0,0,0,.964.9l2.98,1.952a4.068,4.068,0,0,1,1.671,1.932,7.269,7.269,0,0,1,.143,3.345l-1.115,8.674q-.637,5-1.964,6.182t-5.325,1.186q-3.654,0-4.67-1.194t-.385-6.174l1.171-9.138h5.3l-1.416,11.043a2.087,2.087,0,0,0,.06,1.107.626.626,0,0,0,.619.313.855.855,0,0,0,.71-.349,2.315,2.315,0,0,0,.357-1.071l1.313-10.253a2.465,2.465,0,0,0-.064-1.325,3.33,3.33,0,0,0-.976-.9l-3.02-2a4.141,4.141,0,0,1-1.643-1.885,7.237,7.237,0,0,1-.131-3.345l.829-6.44q.637-5,1.952-6.186t5.15-1.186q3.839,0,4.857,1.21T148.966,233.025Z" transform="translate(-13.203 -225.653)"/></g></g><g transform="translate(117 90.65)"><g transform="translate(0 0.139)"><path class="b" d="M106.322,214.793h7q3.184,0,4.087,1.3t.242,6.464l-2.964,23.133q-.661,5.16-1.9,6.464t-4.42,1.3h-7Zm4.758,4.047-3.912,30.525h.369a1.694,1.694,0,0,0,1.155-.3,3.174,3.174,0,0,0,.492-1.651l.032-.234,3.377-26.343a2.913,2.913,0,0,0-.063-1.682c-.159-.21-.52-.313-1.075-.313Z" transform="translate(-101.362 -214.793)"/><path class="b" d="M112.92,214.793h7.86l-2.051,38.663h-5.3l.758-8.813h-2.349l-1.456,8.813H105.06Zm3.123,5.765-3.472,19.994h2l1.611-19.994Z" transform="translate(-90.387 -214.793)"/><path class="b" d="M114.17,214.793h5.277l-4.956,38.663h-5.277Z" transform="translate(-78.058 -214.793)"/><path class="b" d="M116.309,214.793h5.277l-4.432,34.572h3.139l-.524,4.091h-8.416Z" transform="translate(-71.71 -214.793)"/><path class="b" d="M115.1,214.793h5.277L120,229.649l3.135-14.856h4.952L121.7,237.648l-2.028,15.808h-5.349l2.028-15.808Z" transform="translate(-62.895 -214.793)"/></g><g transform="translate(70.006)"><path class="b" d="M134.705,222.126l-.762,5.952h-5.3l1.008-7.856a1.922,1.922,0,0,0-.075-1.048.646.646,0,0,0-.635-.325.833.833,0,0,0-.71.29,2.369,2.369,0,0,0-.325,1.083l-1.02,7.952a2.618,2.618,0,0,0,.067,1.393,3.1,3.1,0,0,0,.964.909l2.98,1.952a4.078,4.078,0,0,1,1.67,1.928,7.289,7.289,0,0,1,.143,3.349l-1.115,8.674q-.637,4.994-1.964,6.182t-5.325,1.186q-3.654,0-4.67-1.2t-.385-6.17l1.171-9.138h5.3l-1.417,11.043a2.066,2.066,0,0,0,.059,1.1.62.62,0,0,0,.619.313.851.851,0,0,0,.71-.345,2.316,2.316,0,0,0,.357-1.071l1.313-10.253a2.465,2.465,0,0,0-.063-1.325,3.227,3.227,0,0,0-.976-.9l-3.02-2a4.141,4.141,0,0,1-1.643-1.885,7.211,7.211,0,0,1-.127-3.349l.825-6.44q.637-5,1.952-6.182t5.15-1.186q3.839,0,4.857,1.206T134.705,222.126Z" transform="translate(-119.005 -214.758)"/><path class="b" d="M127.658,214.793h7q3.184,0,4.087,1.3t.242,6.464l-1.135,8.856q-.661,5.166-1.9,6.464t-4.42,1.3h-1.722l-1.829,14.276H122.7Zm4.761,4.047-2.091,16.3h.373a1.6,1.6,0,0,0,1.159-.325,3.336,3.336,0,0,0,.492-1.674l.032-.254,1.544-12.047a2.891,2.891,0,0,0-.06-1.682c-.159-.21-.52-.313-1.075-.313Z" transform="translate(-108.034 -214.654)"/><path class="b" d="M142.242,222.126l-3.107,24.252q-.643,4.994-1.956,6.182t-4.988,1.186q-4,0-5.023-1.175t-.381-6.194l3.111-24.252q.631-4.952,1.964-6.162t5.186-1.206q3.815,0,4.825,1.186T142.242,222.126Zm-5.055-1.9a1.966,1.966,0,0,0-.064-1.059.6.6,0,0,0-.6-.313.884.884,0,0,0-.738.313,2.2,2.2,0,0,0-.345,1.059l-3.595,28.061a1.989,1.989,0,0,0,.067,1.091.662.662,0,0,0,.655.325.79.79,0,0,0,.682-.325,2.4,2.4,0,0,0,.337-1.091Z" transform="translate(-96.645 -214.758)"/><path class="b" d="M135.2,214.793h7q3.184,0,4.087,1.3t.242,6.464l-.758,5.9a10.73,10.73,0,0,1-1.02,3.71,5.191,5.191,0,0,1-2.091,2.055,3.378,3.378,0,0,1,1.6,1.837,9.255,9.255,0,0,1,.052,3.769l-1.746,13.622h-5.277l1.952-15.229a1.334,1.334,0,0,0-.19-1.067,1.312,1.312,0,0,0-1.028-.325h-.369l-2.135,16.621h-5.277Zm4.757,4.047-1.722,13.411a.8.8,0,0,0,.2.06,2.107,2.107,0,0,0,.254.012,1.386,1.386,0,0,0,1.028-.373,1.872,1.872,0,0,0,.468-1.115l1.282-10a2.913,2.913,0,0,0-.064-1.682c-.159-.21-.52-.313-1.075-.313Z" transform="translate(-85.671 -214.654)"/><path class="b" d="M136.919,214.793h10.138l-.52,4.047H144.12l-4.44,34.616H134.4l4.44-34.616H136.4Z" transform="translate(-73.307 -214.654)"/><path class="b" d="M152.611,222.126l-.762,5.952h-5.3l1.008-7.856a1.922,1.922,0,0,0-.075-1.048.64.64,0,0,0-.631-.325.842.842,0,0,0-.714.29,2.42,2.42,0,0,0-.325,1.083l-1.02,7.952a2.618,2.618,0,0,0,.067,1.393,3.1,3.1,0,0,0,.964.909l2.98,1.952a4.077,4.077,0,0,1,1.67,1.928,7.289,7.289,0,0,1,.143,3.349l-1.111,8.674q-.643,4.994-1.968,6.182t-5.325,1.186q-3.648,0-4.67-1.2t-.385-6.17l1.174-9.138h5.3l-1.417,11.043a2.078,2.078,0,0,0,.056,1.1.626.626,0,0,0,.623.313.849.849,0,0,0,.706-.345,2.229,2.229,0,0,0,.357-1.071l1.313-10.253a2.518,2.518,0,0,0-.06-1.325,3.331,3.331,0,0,0-.976-.9l-3.024-2a4.141,4.141,0,0,1-1.643-1.885,7.322,7.322,0,0,1-.127-3.349l.825-6.44q.643-5,1.956-6.182t5.15-1.186q3.833,0,4.853,1.206T152.611,222.126Z" transform="translate(-65.862 -214.758)"/></g></g><g transform="translate(125.529 133.88)"><path class="b" d="M118.71,233.025l-.762,5.952h-5.3l1.008-7.86a1.966,1.966,0,0,0-.063-1.059.61.61,0,0,0-.6-.313.9.9,0,0,0-.738.313,2.2,2.2,0,0,0-.345,1.059l-3.595,28.061a2.008,2.008,0,0,0,.067,1.1.669.669,0,0,0,.655.325.8.8,0,0,0,.682-.325,2.434,2.434,0,0,0,.337-1.1l1.417-11.043h5.3l-1.171,9.138q-.643,5-1.956,6.182t-4.988,1.186q-4,0-5.023-1.175t-.381-6.194l3.111-24.248q.631-4.952,1.964-6.162t5.186-1.21q3.815,0,4.825,1.186T118.71,233.025Z" transform="translate(-103.007 -225.653)"/><path class="b" d="M111.544,225.688h5.138l-1.944,15.181h1.952l1.944-15.181h5.186l-4.956,38.663h-5.186l2.488-19.387h-1.952l-2.488,19.387h-5.138Z" transform="translate(-92.381 -225.549)"/><path class="b" d="M118.134,225.688h7.86l-2.051,38.663h-5.3l.758-8.809h-2.349l-1.456,8.809h-5.321Zm3.123,5.765-3.472,19.994h2l1.611-19.994Z" transform="translate(-81.441 -225.549)"/><path class="b" d="M119.384,225.688h5.277l-4.432,34.572h3.139l-.524,4.091h-8.416Z" transform="translate(-69.113 -225.549)"/><path class="b" d="M121.939,225.688h5.277l-4.432,34.572h3.139l-.524,4.091h-8.416Z" transform="translate(-61.53 -225.549)"/><path class="b" d="M124.5,225.688h8.416l-.52,4.047h-3.139l-1.46,11.392h3.139l-.524,4.091H127.27l-1.928,15.042h3.139l-.528,4.091h-8.416Z" transform="translate(-53.95 -225.549)"/><path class="b" d="M127.4,225.677h4.416l.972,18.9h.369l2.238-18.9h4.6l-4.96,38.707h-4.42l-.849-20.574H129.4l-2.361,20.574h-4.6Z" transform="translate(-45.358 -225.582)"/><path class="b" d="M142.529,233.025l-.778,6.091H136.47l1.028-8a1.728,1.728,0,0,0-.1-1.067.8.8,0,0,0-.73-.305,1.02,1.02,0,0,0-.817.305,2.076,2.076,0,0,0-.357,1.067l-3.6,28.061a1.839,1.839,0,0,0,.091,1.107.79.79,0,0,0,.726.313,1.026,1.026,0,0,0,.809-.313,2.142,2.142,0,0,0,.373-1.107l1.385-10.809h-1.139l.528-4.095h6.416L138.5,264.455h-2.047l-.476-1.9a5.8,5.8,0,0,1-2.1,1.6,6.916,6.916,0,0,1-2.726.488,4.77,4.77,0,0,1-3.785-1.313,4.933,4.933,0,0,1-.794-3.964l3.377-26.339q.643-5,1.968-6.186t5.277-1.186c2.639,0,4.289.4,4.964,1.186S142.958,229.692,142.529,233.025Z" transform="translate(-33.295 -225.653)"/><path class="b" d="M135.234,225.688h8.416l-.52,4.047h-3.139l-1.46,11.392h3.139l-.524,4.091h-3.139l-1.928,15.042h3.139l-.524,4.091h-8.416Z" transform="translate(-22.072 -225.549)"/><path class="b" d="M148.966,233.025l-.762,5.952h-5.3l1.008-7.86a1.921,1.921,0,0,0-.075-1.047.656.656,0,0,0-.635-.325.835.835,0,0,0-.71.294,2.333,2.333,0,0,0-.325,1.079l-1.02,7.952a2.638,2.638,0,0,0,.067,1.4,3.15,3.15,0,0,0,.964.9l2.98,1.952a4.068,4.068,0,0,1,1.671,1.932,7.269,7.269,0,0,1,.143,3.345l-1.115,8.674q-.637,5-1.964,6.182t-5.325,1.186q-3.654,0-4.67-1.194t-.385-6.174l1.171-9.138h5.3l-1.416,11.043a2.087,2.087,0,0,0,.06,1.107.626.626,0,0,0,.619.313.855.855,0,0,0,.71-.349,2.315,2.315,0,0,0,.357-1.071l1.313-10.253a2.465,2.465,0,0,0-.064-1.325,3.33,3.33,0,0,0-.976-.9l-3.02-2a4.141,4.141,0,0,1-1.643-1.885,7.237,7.237,0,0,1-.131-3.345l.829-6.44q.637-5,1.952-6.186t5.15-1.186q3.839,0,4.857,1.21T148.966,233.025Z" transform="translate(-13.203 -225.653)"/></g></g></svg>