<svg xmlns="http://www.w3.org/2000/svg" width="36" height="32.337" viewBox="0 0 36 32.337"><defs><style>.a{opacity:0.25;}.b{fill:#fff;}.c{fill:#587581;stroke:#203e4b;}.d{opacity:0.6;}.e{stroke:none;}.f{fill:none;}</style></defs><g transform="translate(-193 -306)"><g class="a" transform="translate(164.5 275.5)"><path class="b" d="M46.669,62.837A16.165,16.165,0,1,1,58.1,58.1,16.069,16.069,0,0,1,46.669,62.837Zm0-31.093a14.919,14.919,0,1,0,10.555,4.37A14.826,14.826,0,0,0,46.669,31.744Z"/><g transform="translate(37.779 39.082)"><path class="b" d="M44.947,62.916a.863.863,0,0,0-.6.763.88.88,0,0,0,.813.937.621.621,0,0,0,.174-.017.377.377,0,0,0,.166-.041.53.53,0,0,0,.158-.066c.05-.033.1-.066.141-.1a.75.75,0,0,0,.207-.274,1.1,1.1,0,0,0,.1-.332.88.88,0,0,0-.813-.937A2.162,2.162,0,0,0,44.947,62.916Z" transform="translate(-40.145 -44.609)"/><path class="b" d="M49.867,61.69c-.058,0-.116.008-.166.008a1.325,1.325,0,0,0-.174.041.41.41,0,0,0-.149.066.894.894,0,0,0-.448.7.947.947,0,0,0,.216.638l.124.124a.485.485,0,0,0,.141.083.579.579,0,0,0,.166.066,1.174,1.174,0,0,1,.166.033.947.947,0,0,0,.638-.216l.124-.124a.485.485,0,0,0,.083-.141.579.579,0,0,0,.066-.166.752.752,0,0,0,.025-.332,1.326,1.326,0,0,0-.041-.174.53.53,0,0,0-.066-.158c-.033-.05-.066-.1-.1-.141A.943.943,0,0,0,49.867,61.69Z" transform="translate(-40.928 -44.41)"/><path class="b" d="M53.745,59.72a.79.79,0,0,0-.34.05.908.908,0,0,0-.506.439,1.1,1.1,0,0,0-.1.332.88.88,0,0,0,.813.937,1.163,1.163,0,0,0,.34-.05.807.807,0,0,0,.506-.439,1.1,1.1,0,0,0,.1-.332.88.88,0,0,0-.813-.937Z" transform="translate(-41.589 -44.073)"/><path class="b" d="M54.059,63.509a1.326,1.326,0,0,0-.174.041.53.53,0,0,0-.158.066.881.881,0,0,0-.448.7.947.947,0,0,0,.216.638l.124.124a.486.486,0,0,0,.141.083.579.579,0,0,0,.166.066,1.175,1.175,0,0,1,.166.033.947.947,0,0,0,.638-.216l.124-.124a.485.485,0,0,0,.083-.141A.579.579,0,0,0,55,64.62a1.174,1.174,0,0,1,.033-.166c0-.058-.008-.116-.008-.166a1.327,1.327,0,0,0-.041-.174.53.53,0,0,0-.066-.158c-.033-.05-.066-.1-.1-.141a.951.951,0,0,0-.6-.307A.555.555,0,0,0,54.059,63.509Z" transform="translate(-41.671 -44.72)"/><path class="b" d="M58.115,61.52c-.058,0-.116.008-.166.008a1.326,1.326,0,0,0-.174.041.53.53,0,0,0-.158.066.881.881,0,0,0-.448.7,1.163,1.163,0,0,0,.05.34.886.886,0,0,0,.166.3.951.951,0,0,0,.6.307,1.057,1.057,0,0,0,.166-.008,1.327,1.327,0,0,0,.174-.041.53.53,0,0,0,.158-.066c.05-.033.1-.066.141-.1l.124-.124a.485.485,0,0,0,.083-.141.579.579,0,0,0,.066-.166,1.174,1.174,0,0,0,.033-.166.947.947,0,0,0-.216-.638.854.854,0,0,0-.274-.207A.877.877,0,0,0,58.115,61.52Z" transform="translate(-42.336 -44.381)"/><path class="b" d="M61.307,58.75a1.163,1.163,0,0,0-.34.05.863.863,0,0,0-.6.763,1.163,1.163,0,0,0,.05.34.886.886,0,0,0,.166.3A.876.876,0,0,0,61.9,59.048a.854.854,0,0,0-.274-.207A.979.979,0,0,0,61.307,58.75Z" transform="translate(-42.882 -43.908)"/><path class="b" d="M63.639,55.189a1.325,1.325,0,0,0-.174.041.53.53,0,0,0-.158.066.881.881,0,0,0-.448.7.947.947,0,0,0,.216.638l.124.124a.485.485,0,0,0,.141.083.579.579,0,0,0,.166.066,1.174,1.174,0,0,1,.166.033.947.947,0,0,0,.638-.216l.124-.124a.485.485,0,0,0,.083-.141.579.579,0,0,0,.066-.166,1.173,1.173,0,0,1,.033-.166c0-.058-.008-.116-.008-.166a1.324,1.324,0,0,0-.041-.174.53.53,0,0,0-.066-.158c-.033-.05-.066-.1-.1-.141a.951.951,0,0,0-.6-.307A.556.556,0,0,0,63.639,55.189Z" transform="translate(-43.308 -43.299)"/><path class="b" d="M56.937,56.939h0a.858.858,0,0,0-.788.39.88.88,0,0,0,.672,1.368,1.057,1.057,0,0,0,.166-.008,1.325,1.325,0,0,0,.174-.041.53.53,0,0,0,.158-.066c.05-.033.1-.066.141-.1l.124-.124a.485.485,0,0,0,.083-.141.579.579,0,0,0,.066-.166,1.174,1.174,0,0,0,.033-.166A.907.907,0,0,0,56.937,56.939Z" transform="translate(-42.136 -43.598)"/><path class="b" d="M60.135,54.17h0c-.058,0-.116.008-.166.008a1.325,1.325,0,0,0-.174.041.53.53,0,0,0-.158.066.894.894,0,0,0-.448.7c0,.058.008.108.008.174a.377.377,0,0,0,.041.166.53.53,0,0,0,.066.158c.033.05.066.1.1.141a.877.877,0,0,0,.6.307.859.859,0,0,0,.638-.216l.124-.124a.485.485,0,0,0,.083-.141.579.579,0,0,0,.066-.166,1.174,1.174,0,0,0,.033-.166A.89.89,0,0,0,60.135,54.17Z" transform="translate(-42.681 -43.126)"/><path class="b" d="M62.459,50.609a1.325,1.325,0,0,0-.174.041.53.53,0,0,0-.158.066.881.881,0,0,0-.448.7.947.947,0,0,0,.216.638l.124.124a.485.485,0,0,0,.141.083.579.579,0,0,0,.166.066,1.174,1.174,0,0,1,.166.033.947.947,0,0,0,.638-.216l.124-.124a.486.486,0,0,0,.083-.141.579.579,0,0,0,.066-.166.753.753,0,0,0,.025-.332,1.326,1.326,0,0,0-.041-.174.53.53,0,0,0-.066-.158c-.033-.05-.066-.1-.1-.141a.951.951,0,0,0-.6-.307A.555.555,0,0,0,62.459,50.609Z" transform="translate(-43.106 -42.516)"/><path class="b" d="M64.1,46.28a.807.807,0,0,0-.506.439,1.1,1.1,0,0,0-.1.332.947.947,0,0,0,.216.638l.124.124a.485.485,0,0,0,.141.083.579.579,0,0,0,.166.066A1.175,1.175,0,0,1,64.3,48a1.163,1.163,0,0,0,.34-.05.807.807,0,0,0,.506-.439,1.1,1.1,0,0,0,.1-.332c0-.058-.008-.116-.008-.166a1.326,1.326,0,0,0-.041-.174.53.53,0,0,0-.066-.158c-.033-.05-.066-.1-.1-.141a.951.951,0,0,0-.6-.307A1.163,1.163,0,0,0,64.1,46.28Z" transform="translate(-43.415 -41.769)"/><path class="b" d="M40.225,60.27a.912.912,0,0,0-.846.489,1.1,1.1,0,0,0-.1.332.947.947,0,0,0,.216.638.854.854,0,0,0,.274.207.8.8,0,0,0,.672.05.886.886,0,0,0,.3-.166.951.951,0,0,0,.307-.6,1.163,1.163,0,0,0-.05-.34.886.886,0,0,0-.166-.3A.925.925,0,0,0,40.225,60.27Z" transform="translate(-39.279 -44.168)"/><path class="b" d="M45.126,59.189a.8.8,0,0,0-.672-.05.908.908,0,0,0-.506.439.8.8,0,0,0-.05.672.886.886,0,0,0,.166.3.951.951,0,0,0,.6.307,1.163,1.163,0,0,0,.34-.05.807.807,0,0,0,.506-.439,1.1,1.1,0,0,0,.1-.332.947.947,0,0,0-.216-.638A.66.66,0,0,0,45.126,59.189Z" transform="translate(-40.06 -43.966)"/><path class="b" d="M62.567,40.85a1.163,1.163,0,0,0-.34.05.825.825,0,0,0-.415.29.486.486,0,0,0-.083.141.579.579,0,0,0-.066.166,1.174,1.174,0,0,0-.033.166.947.947,0,0,0,.216.638.854.854,0,0,0,.274.207,1.1,1.1,0,0,0,.332.1.947.947,0,0,0,.638-.216.854.854,0,0,0,.207-.274.8.8,0,0,0,.05-.672.886.886,0,0,0-.166-.3A1.048,1.048,0,0,0,62.567,40.85Z" transform="translate(-43.098 -40.85)"/><path class="b" d="M61.086,45.319a.8.8,0,0,0-.672-.05.908.908,0,0,0-.506.439.8.8,0,0,0-.05.672.886.886,0,0,0,.166.3.951.951,0,0,0,.6.307,1.163,1.163,0,0,0,.34-.05.807.807,0,0,0,.506-.439,1.1,1.1,0,0,0,.1-.332.947.947,0,0,0-.216-.638A.8.8,0,0,0,61.086,45.319Z" transform="translate(-42.786 -41.596)"/><path class="b" d="M48.56,58.866a1.163,1.163,0,0,0,.34-.05.807.807,0,0,0,.506-.439.8.8,0,0,0,.05-.672.807.807,0,0,0-.439-.506.8.8,0,0,0-.672-.05.908.908,0,0,0-.506.439.8.8,0,0,0-.05.672.917.917,0,0,0,.771.605Z" transform="translate(-40.724 -43.626)"/><path class="b" d="M53.083,56.684a.877.877,0,0,0,.307-.6.859.859,0,0,0-.216-.638l-.124-.124a.485.485,0,0,0-.141-.083.363.363,0,0,0-.158-.058.646.646,0,0,0-.174-.033.909.909,0,0,0-.937.813c0,.058.008.108.008.174a.377.377,0,0,0,.041.166.53.53,0,0,0,.066.158c.033.05.066.1.1.141a.877.877,0,0,0,.6.307A.919.919,0,0,0,53.083,56.684Z" transform="translate(-41.391 -43.293)"/><path class="b" d="M56.283,53.9a.877.877,0,0,0,.307-.6.859.859,0,0,0-.216-.638l-.124-.124a.485.485,0,0,0-.141-.083.363.363,0,0,0-.158-.058.646.646,0,0,0-.174-.033.909.909,0,0,0-.937.813,1.225,1.225,0,0,0,.008.174.377.377,0,0,0,.041.166.53.53,0,0,0,.066.158c.033.05.066.1.1.141a.877.877,0,0,0,.6.307A.894.894,0,0,0,56.283,53.9Z" transform="translate(-41.938 -42.818)"/><path class="b" d="M58.143,50.546a.947.947,0,0,0,.638-.216.854.854,0,0,0,.207-.274,1.1,1.1,0,0,0,.1-.332,1.163,1.163,0,0,0-.05-.34.807.807,0,0,0-.439-.506,1.1,1.1,0,0,0-.332-.1.79.79,0,0,0-.34.05.863.863,0,0,0-.6.763,1.163,1.163,0,0,0,.05.34.807.807,0,0,0,.439.506A.627.627,0,0,0,58.143,50.546Z" transform="translate(-42.363 -42.204)"/></g></g><g class="c" transform="translate(193 314)"><rect class="e" width="36" height="24"/><rect class="f" x="0.5" y="0.5" width="35" height="23"/></g><g class="d" transform="translate(-45.128 81.648)"><path class="b" d="M13.611,5.756a1.871,1.871,0,0,1-.481,1.3,1.7,1.7,0,0,1-1.25.44,1.576,1.576,0,0,1-1.3-.558,2.474,2.474,0,0,1-.452-1.592V4.5A2.41,2.41,0,0,1,10.6,2.91a1.6,1.6,0,0,1,1.3-.558,1.612,1.612,0,0,1,1.242.457,2.078,2.078,0,0,1,.483,1.312H12.6a1.347,1.347,0,0,0-.163-.73.644.644,0,0,0-.548-.2.613.613,0,0,0-.574.283,1.982,1.982,0,0,0-.179.933v.945a2.18,2.18,0,0,0,.167,1.024.612.612,0,0,0,.572.278.661.661,0,0,0,.55-.194,1.278,1.278,0,0,0,.172-.7Zm4.143-.385a2.333,2.333,0,0,1-.476,1.563,1.645,1.645,0,0,1-1.321.557,1.663,1.663,0,0,1-1.323-.551A2.3,2.3,0,0,1,14.147,5.4V4.54a2.459,2.459,0,0,1,.478-1.609,1.808,1.808,0,0,1,2.642-.01,2.425,2.425,0,0,1,.488,1.6Zm-1.013-.838a2.054,2.054,0,0,0-.192-1.007.711.711,0,0,0-1.192-.012,1.952,1.952,0,0,0-.2.967v.89a1.86,1.86,0,0,0,.2.967.664.664,0,0,0,.6.311.647.647,0,0,0,.587-.3,1.824,1.824,0,0,0,.2-.943ZM19.8,2.42l.945,3.617.941-3.617H23v5H21.99V6.069l.093-2.085-1,3.439H20.4l-1-3.439.093,2.085V7.422h-1.01v-5Zm5.071,5h-1.01v-5h1.01Zm4.346,0H28.2L26.728,4.141V7.422h-1.01v-5h1.01L28.208,5.7V2.42h1.007Zm4.212-.567a1.843,1.843,0,0,1-.716.476,2.617,2.617,0,0,1-.929.16,1.7,1.7,0,0,1-1.34-.534A2.31,2.31,0,0,1,29.95,5.4V4.5A2.474,2.474,0,0,1,30.4,2.91a1.6,1.6,0,0,1,1.317-.558,1.7,1.7,0,0,1,1.228.4,1.9,1.9,0,0,1,.479,1.261h-.983a1.141,1.141,0,0,0-.2-.651.638.638,0,0,0-.495-.173.647.647,0,0,0-.594.3,1.9,1.9,0,0,0-.192.952v.907a1.861,1.861,0,0,0,.2.995.744.744,0,0,0,.672.311.877.877,0,0,0,.484-.12l.089-.062V5.553h-.708V4.791h1.721ZM15.994,11.973a.627.627,0,0,0-.156-.462,1.8,1.8,0,0,0-.569-.325,2.649,2.649,0,0,1-1.082-.668,1.343,1.343,0,0,1-.33-.905A1.269,1.269,0,0,1,14.305,8.6a1.863,1.863,0,0,1,1.96-.189,1.346,1.346,0,0,1,.555.548,1.644,1.644,0,0,1,.194.8H16.008a.829.829,0,0,0-.149-.534.523.523,0,0,0-.431-.184.54.54,0,0,0-.412.156.588.588,0,0,0-.148.421.518.518,0,0,0,.165.373,1.9,1.9,0,0,0,.584.345,2.5,2.5,0,0,1,1.063.649,1.447,1.447,0,0,1,.332.979,1.291,1.291,0,0,1-.416,1.02,1.645,1.645,0,0,1-1.13.368,1.946,1.946,0,0,1-.883-.2,1.494,1.494,0,0,1-.624-.57,1.657,1.657,0,0,1-.225-.876h1.013a.956.956,0,0,0,.168.629.689.689,0,0,0,.55.2Q15.994,12.533,15.994,11.973Zm5.208-.739a2.333,2.333,0,0,1-.476,1.563,1.645,1.645,0,0,1-1.321.557,1.663,1.663,0,0,1-1.323-.551,2.3,2.3,0,0,1-.488-1.544V10.4a2.459,2.459,0,0,1,.478-1.609,1.808,1.808,0,0,1,2.642-.01,2.425,2.425,0,0,1,.488,1.6ZM20.188,10.4A2.054,2.054,0,0,0,20,9.39.711.711,0,0,0,18.8,9.377a1.952,1.952,0,0,0-.2.967v.89a1.86,1.86,0,0,0,.2.967.664.664,0,0,0,.6.311.647.647,0,0,0,.587-.3,1.824,1.824,0,0,0,.2-.943Zm5.26.838a2.333,2.333,0,0,1-.476,1.563,1.645,1.645,0,0,1-1.321.557,1.663,1.663,0,0,1-1.323-.551,2.3,2.3,0,0,1-.488-1.544V10.4a2.459,2.459,0,0,1,.478-1.609,1.808,1.808,0,0,1,2.642-.01,2.425,2.425,0,0,1,.488,1.6ZM24.435,10.4a2.054,2.054,0,0,0-.192-1.007.711.711,0,0,0-1.192-.012,1.952,1.952,0,0,0-.2.967v.89a1.86,1.86,0,0,0,.2.967.664.664,0,0,0,.6.311.647.647,0,0,0,.587-.3,1.824,1.824,0,0,0,.2-.943Zm5.236,2.889H28.66L27.183,10v3.281h-1.01v-5h1.01l1.481,3.284V8.283H29.67Z" transform="translate(234 240)"/></g><path class="b" d="M14.285,6.436a1.834,1.834,0,0,1-.713.473,2.6,2.6,0,0,1-.925.159,1.7,1.7,0,0,1-1.333-.531,2.3,2.3,0,0,1-.489-1.547v-.9a2.461,2.461,0,0,1,.449-1.584,1.587,1.587,0,0,1,1.311-.555,1.688,1.688,0,0,1,1.222.4,1.892,1.892,0,0,1,.477,1.254h-.978a1.135,1.135,0,0,0-.2-.648.635.635,0,0,0-.492-.173.644.644,0,0,0-.591.3,1.9,1.9,0,0,0-.191.947v.9a1.852,1.852,0,0,0,.2.99.74.74,0,0,0,.668.309.873.873,0,0,0,.482-.12l.089-.062V5.141h-.7V4.382h1.712ZM18.5,4.959a2.321,2.321,0,0,1-.473,1.555,1.636,1.636,0,0,1-1.314.554A1.655,1.655,0,0,1,15.4,6.52a2.287,2.287,0,0,1-.485-1.536V4.132a2.447,2.447,0,0,1,.475-1.6,1.8,1.8,0,0,1,2.628-.01A2.413,2.413,0,0,1,18.5,4.108Zm-1.008-.834a2.044,2.044,0,0,0-.191-1,.707.707,0,0,0-1.186-.012,1.942,1.942,0,0,0-.2.962v.885a1.851,1.851,0,0,0,.195.962.661.661,0,0,0,.6.309.644.644,0,0,0,.584-.3,1.815,1.815,0,0,0,.195-.938Zm2.734,2.041h1.764V7H19.22V2.023h1Zm4.912-1.2H23.575V7h-1V2.023h2.755v.837h-1.75V4.136h1.562Z" transform="translate(193 316)"/></g></svg>