<svg xmlns="http://www.w3.org/2000/svg" width="97.696" height="110.646" viewBox="0 0 97.696 110.646"><defs><style>.a{fill:#f47b4e;stroke:#1d2a32;}</style></defs><g transform="translate(-29.176 0.5)"><path class="a" d="M222.91,173.575a1.709,1.709,0,0,0-.616-.021,4.089,4.089,0,0,1-3.617-4.055,1.8,1.8,0,0,0-3.6,0,7.694,7.694,0,0,0,5.657,7.408v1.8a1.8,1.8,0,0,0,3.6,0v-1.69a7.68,7.68,0,0,0-1.574-15.2,4.083,4.083,0,1,1,4.083-4.083,1.8,1.8,0,0,0,3.6,0,7.694,7.694,0,0,0-6.107-7.518v-1.637a1.8,1.8,0,0,0-3.6,0v1.747a7.68,7.68,0,0,0,2.023,15.088,4.081,4.081,0,0,1,.149,8.159Z" transform="translate(-143.661 -113.736)"/><path class="a" d="M133.358,132.415a26.08,26.08,0,1,0,26.08-26.08A26.08,26.08,0,0,0,133.358,132.415Zm26.08-22.483a22.483,22.483,0,1,1-22.483,22.483A22.482,22.482,0,0,1,159.438,109.932Z" transform="translate(-80.339 -82.394)"/><path class="a" d="M114.046,333.041,99.957,339.7a11.475,11.475,0,0,0-9.783-6.037L77.169,333.3a13.743,13.743,0,0,1-5.911-1.526l-1.323-.686a23.342,23.342,0,0,0-21.622.023l.083-3a1.8,1.8,0,0,0-1.748-1.848l-14.262-.393a1.8,1.8,0,0,0-1.847,1.749l-.861,31.3a1.8,1.8,0,0,0,1.748,1.848l14.262.393h.049a1.8,1.8,0,0,0,1.8-1.749l.041-1.5,3.7-1.984a6.355,6.355,0,0,1,4.743-.519l22.125,6.21c.039.012.077.02.117.029a23.679,23.679,0,0,0,4.862.5,24,24,0,0,0,10.024-2.187,1.678,1.678,0,0,0,.223-.123l32.079-20.75a1.8,1.8,0,0,0,.589-2.4A9.085,9.085,0,0,0,114.046,333.041ZM33.322,357.222l.762-27.7,10.665.293-.762,27.7Zm58.21-.471a20.39,20.39,0,0,1-12.47,1.392L57,351.95a9.944,9.944,0,0,0-7.414.811l-1.893,1.014.507-18.418a19.771,19.771,0,0,1,20.084-1.072l1.323.686A17.373,17.373,0,0,0,77.07,336.9l13.007.358a7.888,7.888,0,0,1,7.5,6.286L78.2,343.008a1.8,1.8,0,1,0-.1,3.6l21.38.589h.05a1.8,1.8,0,0,0,1.8-1.749,11.433,11.433,0,0,0-.174-2.333l14.45-6.828.042-.02a5.5,5.5,0,0,1,6.214.87Z" transform="translate(0 -252.506)"/><path class="a" d="M244.8,18.884V1.8a1.8,1.8,0,0,0-3.6,0V18.884a1.8,1.8,0,0,0,3.6,0Z" transform="translate(-163.906)"/><path class="a" d="M304.715,49.833V41.739a1.8,1.8,0,0,0-3.6,0v8.093a1.8,1.8,0,0,0,3.6,0Z" transform="translate(-210.328 -30.948)"/><path class="a" d="M184.892,49.833V41.739a1.8,1.8,0,0,0-3.6,0v8.093a1.8,1.8,0,0,0,3.6,0Z" transform="translate(-117.483 -30.948)"/></g></svg>