<svg xmlns="http://www.w3.org/2000/svg" width="15" height="15" viewBox="0 0 15 15"><defs><style>.a{fill:#587581;}.b{fill:#fff;}</style></defs><g transform="translate(-269 -646)"><circle class="a" cx="7.5" cy="7.5" r="7.5" transform="translate(269 646)"/><path class="b" d="M2,7.9H.576A3.667,3.667,0,0,1,1.238,5.7a2.01,2.01,0,0,1,1.686-.855,2.23,2.23,0,0,1,1.884.843,2.417,2.417,0,0,1,.522,1.549,3.173,3.173,0,0,1-.251,1.351,2.563,2.563,0,0,1-.56.744q-.522.5-.6.595a1.753,1.753,0,0,0-.348.855v.471h-1.3v-.558a2.508,2.508,0,0,1,.28-1.227A2.96,2.96,0,0,1,3.1,8.753a3.818,3.818,0,0,0,.5-.564,1.425,1.425,0,0,0,.213-.781q0-1.116-.821-1.116a.794.794,0,0,0-.739.452A2.483,2.483,0,0,0,2,7.9Zm.135,6V11.994H3.648V13.9Z" transform="translate(273.394 644.024)"/></g></svg>