<svg xmlns="http://www.w3.org/2000/svg" width="33" height="33" viewBox="0 0 33 33"><defs><style>.a{fill:#203e4b;}.b{fill:#fff;stroke:#203e4b;stroke-width:0.5px;}</style></defs><g transform="translate(-264 -365)"><circle class="a" cx="16.5" cy="16.5" r="16.5" transform="translate(264 365)"/><g transform="translate(270.5 371.089)"><path class="b" d="M10.8,20.331H9.528A1.874,1.874,0,0,1,7.656,18.46v-.432A8.208,8.208,0,0,1,6.381,17.5l-.306.306a1.872,1.872,0,0,1-2.647,0l-.9-.9a1.872,1.872,0,0,1,0-2.647l.306-.306A8.208,8.208,0,0,1,2.3,12.675H1.872A1.874,1.874,0,0,1,0,10.8V9.528A1.874,1.874,0,0,1,1.872,7.656H2.3a8.21,8.21,0,0,1,.529-1.275l-.306-.306a1.872,1.872,0,0,1,0-2.647l.9-.9a1.871,1.871,0,0,1,2.647,0l.306.306A8.216,8.216,0,0,1,7.656,2.3V1.872A1.874,1.874,0,0,1,9.528,0H10.8a1.874,1.874,0,0,1,1.872,1.872V2.3a8.208,8.208,0,0,1,1.275.529l.306-.306a1.872,1.872,0,0,1,2.647,0l.9.9a1.872,1.872,0,0,1,0,2.647l-.306.306a8.209,8.209,0,0,1,.529,1.275h.432a1.874,1.874,0,0,1,1.872,1.872V10.8a1.874,1.874,0,0,1-1.872,1.872h-.432A8.21,8.21,0,0,1,17.5,13.95l.306.306a1.872,1.872,0,0,1,0,2.647l-.9.9a1.871,1.871,0,0,1-2.647,0L13.95,17.5a8.216,8.216,0,0,1-1.275.529v.432A1.874,1.874,0,0,1,10.8,20.331ZM6.581,16.248A7.021,7.021,0,0,0,8.4,17a.6.6,0,0,1,.447.577v.879a.681.681,0,0,0,.68.68H10.8a.681.681,0,0,0,.68-.68V17.58A.6.6,0,0,1,11.931,17a7.021,7.021,0,0,0,1.82-.755.6.6,0,0,1,.724.092l.623.623a.68.68,0,0,0,.962,0l.9-.9a.68.68,0,0,0,0-.962l-.623-.623a.6.6,0,0,1-.092-.724A7.02,7.02,0,0,0,17,11.931a.6.6,0,0,1,.577-.447h.879a.681.681,0,0,0,.68-.68V9.528a.681.681,0,0,0-.68-.68H17.58A.6.6,0,0,1,17,8.4a7.021,7.021,0,0,0-.755-1.82.6.6,0,0,1,.092-.724l.623-.623a.68.68,0,0,0,0-.962l-.9-.9a.68.68,0,0,0-.962,0l-.623.623a.6.6,0,0,1-.724.092,7.021,7.021,0,0,0-1.82-.755.6.6,0,0,1-.447-.577v-.88a.681.681,0,0,0-.68-.68H9.528a.681.681,0,0,0-.68.68v.879a.6.6,0,0,1-.447.577,7.021,7.021,0,0,0-1.82.755.6.6,0,0,1-.724-.092l-.623-.623a.68.68,0,0,0-.962,0l-.9.9a.68.68,0,0,0,0,.962l.623.623a.6.6,0,0,1,.092.724A7.02,7.02,0,0,0,3.328,8.4a.6.6,0,0,1-.577.447H1.872a.681.681,0,0,0-.68.68V10.8a.681.681,0,0,0,.68.68h.879a.6.6,0,0,1,.577.447,7.021,7.021,0,0,0,.755,1.82.6.6,0,0,1-.092.724l-.623.623a.68.68,0,0,0,0,.962l.9.9a.68.68,0,0,0,.962,0l.623-.623a.6.6,0,0,1,.724-.091Z"/><path class="b" d="M149.024,153.447a4.424,4.424,0,1,1,4.424-4.424A4.429,4.429,0,0,1,149.024,153.447Zm0-7.656a3.232,3.232,0,1,0,3.232,3.232,3.236,3.236,0,0,0-3.232-3.232Z" transform="translate(-138.858 -138.858)"/></g></g></svg>