<svg xmlns="http://www.w3.org/2000/svg" width="11.485" height="20.268" viewBox="0 0 11.485 20.268"><defs><style>.a{fill:#afc0c7;}</style></defs><g transform="translate(-110.933)"><path class="a" d="M205.139,26.276h3.378a.338.338,0,0,0,0-.676h-3.378a.338.338,0,0,0,0,.676Z" transform="translate(-90.152 -24.587)"/><path class="a" d="M341.672,26.276h.338a.338.338,0,0,0,0-.676h-.338a.338.338,0,1,0,0,.676Z" transform="translate(-221.28 -24.587)"/><path class="a" d="M223.638,435.2H222.8a.933.933,0,0,0-.932.932v.163a.933.933,0,0,0,.932.932h.839a.933.933,0,0,0,.932-.932v-.163A.933.933,0,0,0,223.638,435.2Zm.256,1.1a.256.256,0,0,1-.256.256H222.8a.256.256,0,0,1-.256-.256v-.163a.256.256,0,0,1,.256-.256h.838a.256.256,0,0,1,.256.256Z" transform="translate(-106.543 -417.972)"/><path class="a" d="M122.418,2.365h0V1.221A1.223,1.223,0,0,0,121.2,0h-9.043a1.223,1.223,0,0,0-1.221,1.221V19.047a1.223,1.223,0,0,0,1.221,1.221H121.2a1.223,1.223,0,0,0,1.221-1.221V16.553h0Zm-10.81.338h10.134V16.214H111.609Zm.546-2.027H121.2a.546.546,0,0,1,.546.546v.806H111.609V1.221A.546.546,0,0,1,112.154.676ZM121.2,19.592h-9.043a.546.546,0,0,1-.546-.545V16.89h10.134v2.157h0A.546.546,0,0,1,121.2,19.592Z"/></g></svg>