<svg xmlns="http://www.w3.org/2000/svg" width="36" height="32.854" viewBox="0 0 36 32.854"><defs><style>.a{opacity:0.25;}.b{fill:#fff;}.c{fill:#587581;stroke:#203e4b;}.d{fill:#bcc8cc;}.e{stroke:none;}.f{fill:none;}</style></defs><g transform="translate(-307 -303.769)"><g class="a" transform="translate(309 303.769)"><path class="b" d="M37.908,63.031a26.972,26.972,0,0,1-3.648-.249,4.09,4.09,0,0,1-2.487-1.327,4.869,4.869,0,0,1-1.327-2.487A25.211,25.211,0,0,1,58.969,30.445a4.574,4.574,0,0,1,3.814,3.814h0a25.353,25.353,0,0,1-7.131,21.392A25.616,25.616,0,0,1,37.908,63.031ZM55.4,31.44A24.019,24.019,0,0,0,31.772,58.719a2.566,2.566,0,0,0,.912,1.741,3.244,3.244,0,0,0,1.741.912A23.981,23.981,0,0,0,61.456,34.342,3.165,3.165,0,0,0,58.8,31.689,24.325,24.325,0,0,0,55.4,31.44Z" transform="translate(-30.183 -30.177)"/><path class="b" d="M51.587,48.834a.645.645,0,1,0,.912-.912l-.912-.912L52.5,46.1l.912.912a.645.645,0,0,0,.912-.912l-.912-.912.912-.912a.645.645,0,0,0-.912-.912l-.912.912-.912-.912a.645.645,0,0,0-.912.912l.912.912-.912.912-.912-.912a.645.645,0,0,0-.912.912l.912.912-.912.912-.829-.912a.645.645,0,0,0-.912.912l.912.912-.912.829-.912-.829a.645.645,0,0,0-.912.912l.912.912-.912.912-.912-.912a.645.645,0,1,0-.912.912l.912.912-.912.912a.645.645,0,1,0,.912.912l.912-.912.912.912a.645.645,0,1,0,.912-.912l-.912-.912.912-.912.912.912a.645.645,0,0,0,.912-.912l-.912-.995.829-.912.912.912a.645.645,0,0,0,.912-.912l-.912-.829.912-.912Z" transform="translate(-32.419 -32.397)"/></g><g class="c" transform="translate(307 308)"><rect class="e" width="36" height="24"/><rect class="f" x="0.5" y="0.5" width="35" height="23"/></g><path class="d" d="M8.877,11.981H7.507L7.24,13H6.177L7.732,8.023h.919L10.217,13H9.144Zm-1.152-.837h.93L8.19,9.37Zm6.135-3.121v3.445a1.61,1.61,0,0,1-.427,1.188,1.653,1.653,0,0,1-1.207.412,1.667,1.667,0,0,1-1.222-.417,1.622,1.622,0,0,1-.422-1.207V8.023h1.012v3.425a1.026,1.026,0,0,0,.137.6.586.586,0,0,0,.5.181.579.579,0,0,0,.492-.179,1.022,1.022,0,0,0,.137-.59V8.023Zm4.146,4.413a1.834,1.834,0,0,1-.713.473,2.6,2.6,0,0,1-.925.159,1.7,1.7,0,0,1-1.333-.531,2.3,2.3,0,0,1-.489-1.547v-.9A2.461,2.461,0,0,1,15,8.51a1.587,1.587,0,0,1,1.311-.555,1.688,1.688,0,0,1,1.222.4,1.892,1.892,0,0,1,.477,1.254h-.978a1.135,1.135,0,0,0-.2-.648.635.635,0,0,0-.492-.173.644.644,0,0,0-.591.3,1.9,1.9,0,0,0-.191.947v.9a1.852,1.852,0,0,0,.2.99.74.74,0,0,0,.668.309.873.873,0,0,0,.482-.12L17,12.053v-.913h-.7v-.759h1.712Zm3.948-4.413v3.445a1.61,1.61,0,0,1-.427,1.188,1.653,1.653,0,0,1-1.207.412,1.667,1.667,0,0,1-1.222-.417,1.622,1.622,0,0,1-.422-1.207V8.023h1.012v3.425a1.026,1.026,0,0,0,.137.6.586.586,0,0,0,.5.181.579.579,0,0,0,.492-.179,1.022,1.022,0,0,0,.137-.59V8.023Zm2.864,3.671a.624.624,0,0,0-.156-.46,1.791,1.791,0,0,0-.566-.323,2.636,2.636,0,0,1-1.077-.665,1.336,1.336,0,0,1-.328-.9,1.263,1.263,0,0,1,.446-1.01,1.854,1.854,0,0,1,1.95-.188,1.34,1.34,0,0,1,.552.545,1.635,1.635,0,0,1,.193.8h-1a.825.825,0,0,0-.149-.531.521.521,0,0,0-.429-.183.537.537,0,0,0-.41.156.585.585,0,0,0-.147.419.516.516,0,0,0,.164.371,1.887,1.887,0,0,0,.581.344,2.49,2.49,0,0,1,1.058.646,1.439,1.439,0,0,1,.33.974,1.285,1.285,0,0,1-.414,1.015,1.637,1.637,0,0,1-1.125.366,1.936,1.936,0,0,1-.878-.2,1.487,1.487,0,0,1-.62-.567,1.648,1.648,0,0,1-.224-.872h1.008a.951.951,0,0,0,.167.625.686.686,0,0,0,.547.195Q24.819,12.251,24.819,11.694Zm4.9-2.833H28.49V13H27.481V8.861h-1.21V8.023H29.72ZM14.175,19H11.243v-.684L12.589,16.6a3.751,3.751,0,0,0,.378-.624,1.248,1.248,0,0,0,.121-.514,1,1,0,0,0-.115-.52.365.365,0,0,0-.33-.188.424.424,0,0,0-.374.219,1.15,1.15,0,0,0-.138.615h-.971a1.846,1.846,0,0,1,.19-.837,1.417,1.417,0,0,1,.533-.59,1.46,1.46,0,0,1,.778-.21,1.4,1.4,0,0,1,1.034.367,1.412,1.412,0,0,1,.367,1.044,1.993,1.993,0,0,1-.2.853,5.243,5.243,0,0,1-.737,1.065l-.639.913h1.692Zm3.5-2.058a2.788,2.788,0,0,1-.374,1.579,1.321,1.321,0,0,1-2.129.015,2.692,2.692,0,0,1-.388-1.523v-.94a2.782,2.782,0,0,1,.373-1.574A1.326,1.326,0,0,1,17.3,14.5a2.732,2.732,0,0,1,.379,1.542ZM16.7,15.934a2.533,2.533,0,0,0-.116-.882.387.387,0,0,0-.362-.294q-.461,0-.479,1.077v1.241a2.551,2.551,0,0,0,.118.9.392.392,0,0,0,.367.294.375.375,0,0,0,.35-.275,2.4,2.4,0,0,0,.121-.843ZM21.257,19H18.325v-.684L19.671,16.6a3.751,3.751,0,0,0,.378-.624,1.248,1.248,0,0,0,.121-.514,1,1,0,0,0-.115-.52.365.365,0,0,0-.33-.188.424.424,0,0,0-.374.219,1.15,1.15,0,0,0-.138.615h-.971a1.846,1.846,0,0,1,.19-.837,1.417,1.417,0,0,1,.533-.59,1.46,1.46,0,0,1,.778-.21,1.4,1.4,0,0,1,1.034.367,1.412,1.412,0,0,1,.367,1.044,1.993,1.993,0,0,1-.2.853,5.243,5.243,0,0,1-.737,1.065l-.639.913h1.692Zm3.5-2.058a2.788,2.788,0,0,1-.374,1.579,1.321,1.321,0,0,1-2.129.015,2.692,2.692,0,0,1-.388-1.523v-.94a2.782,2.782,0,0,1,.373-1.574,1.326,1.326,0,0,1,2.14-.005,2.732,2.732,0,0,1,.379,1.542Zm-.971-1.008a2.533,2.533,0,0,0-.116-.882.387.387,0,0,0-.362-.294q-.461,0-.479,1.077v1.241a2.551,2.551,0,0,0,.118.9.392.392,0,0,0,.367.294.375.375,0,0,0,.35-.275,2.4,2.4,0,0,0,.121-.843Z" transform="translate(307 309)"/><path class="b" d="M11.9,7h-1L9.421,3.736V7h-1V2.023h1l1.473,3.268V2.023h1Zm4.18-1.658A1.861,1.861,0,0,1,15.6,6.631a1.69,1.69,0,0,1-1.244.438,1.568,1.568,0,0,1-1.294-.555,2.461,2.461,0,0,1-.449-1.584V4.091a2.4,2.4,0,0,1,.465-1.581,1.593,1.593,0,0,1,1.292-.555A1.6,1.6,0,0,1,15.6,2.41a2.067,2.067,0,0,1,.48,1.306H15.074a1.34,1.34,0,0,0-.162-.726.641.641,0,0,0-.545-.2.61.61,0,0,0-.571.282A1.972,1.972,0,0,0,13.618,4v.94a2.169,2.169,0,0,0,.166,1.019.609.609,0,0,0,.569.277.658.658,0,0,0,.547-.193,1.272,1.272,0,0,0,.171-.7Zm2.994.639H17.7L17.433,7H16.37l1.555-4.977h.919L20.41,7H19.336Zm-1.152-.837h.93L18.383,3.37Zm5.332.837H21.879L21.613,7H20.55L22.1,2.023h.919L24.59,7H23.517ZM22.1,5.144h.93L22.563,3.37Zm5.523-.174H26.06V7h-1V2.023H27.81v.837H26.06V4.136h1.562Z" transform="translate(306.584 309)"/></g></svg>