<svg xmlns="http://www.w3.org/2000/svg" width="15.173" height="15.169" viewBox="0 0 15.173 15.169"><defs><style>.a{fill:#afc0c7;}</style></defs><g transform="translate(-6 -6.066)"><circle class="a" cx="1" cy="1" r="1" transform="translate(16 9.365)"/><path class="a" d="M20.514,13.388a2.236,2.236,0,0,0,.5-2.4,8.672,8.672,0,0,0-1.868-2.94,8.468,8.468,0,0,0-2.916-1.83,2.257,2.257,0,0,0-2.395.508L11.455,9.094a2.245,2.245,0,0,0-.469,2.489c.123.276.257.548.4.809l.065.12L6.124,17.839a.422.422,0,0,0-.124.3v2.67a.425.425,0,0,0,.425.425H9.1a.425.425,0,0,0,.425-.425V19.536h1.275a.425.425,0,0,0,.425-.425V17.836h1.275a.425.425,0,0,0,0-.85h-1.7a.425.425,0,0,0-.425.425v1.275H9.1a.425.425,0,0,0-.425.425v1.275H6.85v-2.07l5.435-5.435a.424.424,0,0,0,.063-.521,10,10,0,0,1-.585-1.122A1.391,1.391,0,0,1,12.055,9.7l2.383-2.372a1.407,1.407,0,0,1,1.492-.316,7.613,7.613,0,0,1,2.62,1.639,7.818,7.818,0,0,1,1.677,2.648,1.387,1.387,0,0,1-.313,1.491l-2.412,2.4a1.4,1.4,0,0,1-1.534.3,8.055,8.055,0,0,1-1.118-.57.425.425,0,0,0-.444.724,8.915,8.915,0,0,0,1.236.631,2.251,2.251,0,0,0,2.46-.482Z"/></g></svg>