<svg xmlns="http://www.w3.org/2000/svg" width="25.043" height="31.171" viewBox="0 0 25.043 31.171"><defs><style>.a{fill:#587581;stroke:#fff;}</style></defs><g transform="translate(0.5 0.5)"><g transform="translate(0 0)"><path class="a" d="M72.507,11.078H70.383V6.233a6.366,6.366,0,0,0-12.728,0v4.846H55.536A3.54,3.54,0,0,0,52,14.614V26.635a3.54,3.54,0,0,0,3.536,3.536H72.507a3.54,3.54,0,0,0,3.536-3.536V14.614A3.54,3.54,0,0,0,72.507,11.078ZM60.012,6.233a4.009,4.009,0,0,1,8.014,0v4.846H60.012V6.233Zm13.673,20.4a1.18,1.18,0,0,1-1.179,1.179H55.536a1.18,1.18,0,0,1-1.179-1.179V14.614a1.18,1.18,0,0,1,1.179-1.179H72.507a1.18,1.18,0,0,1,1.179,1.179Z" transform="translate(-52 0)"/></g><g transform="translate(9.841 16.853)"><path class="a" d="M221.18,286A2.18,2.18,0,0,0,220,290.013V292.6a1.179,1.179,0,1,0,2.357,0v-2.584A2.18,2.18,0,0,0,221.18,286Z" transform="translate(-219 -286)"/></g></g></svg>