<svg xmlns="http://www.w3.org/2000/svg" width="21.166" height="20.028" viewBox="0 0 21.166 20.028"><defs><style>.a{fill:#587581;}</style></defs><g transform="translate(0 -14)"><path class="a" d="M3.968,51.026,6.05,54.632a1.654,1.654,0,1,0,2.864-1.653l-1.24-2.148,1.074-.62a.414.414,0,0,0,.151-.565l-.538-.931,7.918-1.553A1.24,1.24,0,0,0,17.285,45.3l-1.374-2.38.878-1.33a.414.414,0,0,0,.013-.435l-.827-1.432a.414.414,0,0,0-.383-.206l-1.59.1-1.525-2.642a1.229,1.229,0,0,0-1.059-.62H11.4a1.229,1.229,0,0,0-1.044.572l-5.4,6.879L1.447,45.833a2.894,2.894,0,0,0,2.521,5.193ZM8.2,53.392a.827.827,0,0,1-1.432.827L4.7,50.639l1.432-.827ZM7.26,50.114,6.847,49.4l.716-.413.413.716Zm8.127-9.752.571.99-.509.772-.985-1.706ZM11.05,37.38a.413.413,0,0,1,.711.008l4.808,8.328a.413.413,0,0,1-.348.62,1.518,1.518,0,0,0-.227.038l-5.086-8.81C11.015,37.428,11.029,37.415,11.05,37.38Zm-.692.886,4.779,8.277L7.925,47.958l-2.193-3.8ZM1.1,49.373a2.066,2.066,0,0,1,.757-2.824l3.222-1.86,2.067,3.58-3.222,1.86A2.07,2.07,0,0,1,1.1,49.373Z" transform="translate(0 -21.43)"/><path class="a" d="M438.791,56.533l-2.3,1.282a.413.413,0,1,0,.4.722l2.3-1.282a.413.413,0,0,0-.4-.722Z" transform="translate(-418.239 -40.725)"/><path class="a" d="M442.181,151.064l-1.6-.428a.413.413,0,1,0-.214.8l1.6.428a.413.413,0,1,0,.214-.8Z" transform="translate(-421.871 -130.973)"/><path class="a" d="M383.935,14.307l-.428,1.6a.413.413,0,1,0,.8.214l.428-1.6a.413.413,0,1,0-.8-.214Z" transform="translate(-367.639 0)"/></g></svg>