<svg xmlns="http://www.w3.org/2000/svg" width="36" height="33" viewBox="0 0 36 33"><defs><style>.a{fill:#8298a1;}.b,.c{fill:#587581;}.c{stroke:#203e4b;}.d{fill:#fff;}.e{fill:#bcc8cc;}.f{stroke:none;}.g{fill:none;}</style></defs><g transform="translate(-55 -415)"><path class="a" d="M62.744,44.758h.025q-.037-.361-.1-.721a.453.453,0,0,0-.05-.149,16.172,16.172,0,1,0,.24,2.778A18.251,18.251,0,0,0,62.744,44.758Zm-1.459-1.211h-.207a18.141,18.141,0,0,0-15.016,7.976,30.709,30.709,0,0,1-4.56-3.988A42.28,42.28,0,0,1,56.733,35.629c.166.158.34.315.5.473A14.872,14.872,0,0,1,61.285,43.548Zm-5.456-8.681A43.535,43.535,0,0,0,40.763,46.723,30.812,30.812,0,0,1,37.6,42.378a18.1,18.1,0,0,0,3.839-9.709,14.99,14.99,0,0,1,5.232-.937A14.751,14.751,0,0,1,55.829,34.866ZM31.742,47.237a18.1,18.1,0,0,0,5.124-4,31.876,31.876,0,0,0,3.225,4.345,43.712,43.712,0,0,0-5.074,8.433A14.755,14.755,0,0,1,31.742,47.237Zm2.6-9.03a31.522,31.522,0,0,0,1.94,4.063,17.03,17.03,0,0,1-4.552,3.74A14.9,14.9,0,0,1,34.346,38.208Zm5.962-5.066a17.047,17.047,0,0,1-3.292,8.234,30.828,30.828,0,0,1-1.907-4.187c.307-.373.638-.738.987-1.086A14.977,14.977,0,0,1,40.307,33.142ZM35.8,56.914A42.324,42.324,0,0,1,40.83,48.4a32.181,32.181,0,0,0,4.652,4.038,17.985,17.985,0,0,0-2.537,8.706A14.864,14.864,0,0,1,36.1,57.229C36,57.121,35.9,57.021,35.8,56.914Zm8.217,4.461a16.99,16.99,0,0,1,2.355-8.325,31.56,31.56,0,0,0,10.563,4.477,14.85,14.85,0,0,1-10.265,4.088A16.615,16.615,0,0,1,44.014,61.374ZM57.827,56.6a30.39,30.39,0,0,1-10.879-4.469,17.057,17.057,0,0,1,14.129-7.512c.133,0,.265,0,.4.008a15.141,15.141,0,0,1,.141,2.04A14.91,14.91,0,0,1,57.827,56.6Z" transform="translate(26.51 384.52)"/><rect class="a" width="36" height="11" transform="translate(55 437)"/><path class="b" d="M9.045,6.965a2.371,2.371,0,0,1-.578,1.575,1.959,1.959,0,0,1-1.483.547,1.833,1.833,0,0,1-1.529-.732,3.16,3.16,0,0,1-.567-1.984V5.212A3.065,3.065,0,0,1,5.47,3.239a1.928,1.928,0,0,1,1.589-.725,1.848,1.848,0,0,1,1.435.554,2.426,2.426,0,0,1,.552,1.586H8.232A1.977,1.977,0,0,0,7.9,3.538,1.033,1.033,0,0,0,7.058,3.2a1.147,1.147,0,0,0-1.006.512,2.651,2.651,0,0,0-.352,1.5V6.39a2.8,2.8,0,0,0,.327,1.49,1.061,1.061,0,0,0,.956.519,1.156,1.156,0,0,0,.905-.312,1.964,1.964,0,0,0,.343-1.121Zm5.251-.6a3.191,3.191,0,0,1-.558,2.017,1.9,1.9,0,0,1-1.586.708A1.927,1.927,0,0,1,10.589,8.4a3.042,3.042,0,0,1-.6-1.945v-1.2a3.2,3.2,0,0,1,.567-2.01,1.892,1.892,0,0,1,1.582-.727,1.915,1.915,0,0,1,1.575.7A3.139,3.139,0,0,1,14.3,5.2Zm-.8-1.121a2.742,2.742,0,0,0-.332-1.51,1.14,1.14,0,0,0-1.017-.494,1.136,1.136,0,0,0-1,.5,2.654,2.654,0,0,0-.345,1.477V6.363a2.711,2.711,0,0,0,.341,1.494,1.14,1.14,0,0,0,1.017.514,1.131,1.131,0,0,0,1-.475,2.667,2.667,0,0,0,.338-1.455ZM16.348,8.31h2.509V9H15.54V2.6h.809Zm4.276,0h2.509V9H19.816V2.6h.809Zm6.535-2.268H24.9V8.31h2.637V9H24.092V2.6h3.4v.69H24.9V5.353h2.263ZM32.564,8.2l-.141.176a2.209,2.209,0,0,1-1.775.708A2.033,2.033,0,0,1,29.02,8.4a2.944,2.944,0,0,1-.6-1.945V5.2a3.175,3.175,0,0,1,.538-2.015A2.27,2.27,0,0,1,32,3.021a2.121,2.121,0,0,1,.569,1.452h-.8a1.617,1.617,0,0,0-.332-.934,1.061,1.061,0,0,0-.859-.336,1.156,1.156,0,0,0-1.011.45,2.584,2.584,0,0,0-.334,1.439V6.4a2.529,2.529,0,0,0,.369,1.483,1.223,1.223,0,0,0,1.059.516,1.4,1.4,0,0,0,.989-.315l.119-.109V6.5H30.591v-.69h1.973Zm4.381-2.162H34.682V8.31h2.637V9H33.878V2.6h3.4v.69H34.682V5.353h2.263Z" transform="translate(52 436.486)"/><g class="c" transform="translate(55 420)"><rect class="f" width="36" height="24"/><rect class="g" x="0.5" y="0.5" width="35" height="23"/></g><path class="d" d="M11.6,7h-1L9.122,3.736V7h-1V2.023h1l1.473,3.268V2.023h1Zm4.18-1.658A1.861,1.861,0,0,1,15.3,6.631a1.69,1.69,0,0,1-1.244.438,1.568,1.568,0,0,1-1.294-.555,2.461,2.461,0,0,1-.449-1.584V4.091a2.4,2.4,0,0,1,.465-1.581,1.593,1.593,0,0,1,1.292-.555A1.6,1.6,0,0,1,15.3,2.41a2.067,2.067,0,0,1,.48,1.306H14.775a1.34,1.34,0,0,0-.162-.726.641.641,0,0,0-.545-.2.61.61,0,0,0-.571.282A1.972,1.972,0,0,0,13.319,4v.94a2.169,2.169,0,0,0,.166,1.019.609.609,0,0,0,.569.277.658.658,0,0,0,.547-.193,1.272,1.272,0,0,0,.171-.7Zm2.994.639H17.4L17.134,7H16.071l1.555-4.977h.919L20.111,7H19.037Zm-1.152-.837h.93L18.084,3.37Zm5.332.837H21.58L21.314,7H20.251l1.555-4.977h.919L24.291,7H23.218ZM21.8,5.144h.93L22.264,3.37ZM24.756,7V2.023h1.538a1.774,1.774,0,0,1,1.184.347,1.265,1.265,0,0,1,.405,1.017,1.226,1.226,0,0,1-.167.653.989.989,0,0,1-.458.4.87.87,0,0,1,.516.385,1.316,1.316,0,0,1,.181.713,1.419,1.419,0,0,1-.4,1.094A1.637,1.637,0,0,1,26.4,7Zm1-2.164v1.33H26.4A.5.5,0,0,0,26.813,6a.721.721,0,0,0,.14-.475q0-.67-.485-.687Zm0-.731h.523a.532.532,0,0,0,.591-.612.7.7,0,0,0-.137-.485.583.583,0,0,0-.444-.147H25.76Z" transform="translate(55 424)"/><path class="e" d="M5.313,11.881a.534.534,0,0,0-.133-.394,1.535,1.535,0,0,0-.485-.277,2.259,2.259,0,0,1-.923-.57,1.145,1.145,0,0,1-.281-.772A1.082,1.082,0,0,1,3.873,9a1.442,1.442,0,0,1,.971-.327,1.454,1.454,0,0,1,.7.166,1.148,1.148,0,0,1,.473.467,1.4,1.4,0,0,1,.166.686H5.325A.707.707,0,0,0,5.2,9.539a.446.446,0,0,0-.368-.157.46.46,0,0,0-.352.133.5.5,0,0,0-.126.359.442.442,0,0,0,.141.318,1.617,1.617,0,0,0,.5.294,2.134,2.134,0,0,1,.907.554,1.234,1.234,0,0,1,.283.835,1.1,1.1,0,0,1-.354.87,1.4,1.4,0,0,1-.964.313,1.66,1.66,0,0,1-.753-.17,1.274,1.274,0,0,1-.532-.486,1.413,1.413,0,0,1-.192-.747H4.25a.815.815,0,0,0,.144.536.588.588,0,0,0,.469.167Q5.313,12.358,5.313,11.881ZM9.526,8.734v2.953a1.38,1.38,0,0,1-.366,1.018,1.417,1.417,0,0,1-1.034.353A1.429,1.429,0,0,1,7.078,12.7a1.39,1.39,0,0,1-.362-1.034V8.734h.867V11.67a.879.879,0,0,0,.117.519.5.5,0,0,0,.425.155.5.5,0,0,0,.422-.154.876.876,0,0,0,.117-.505V8.734Zm2.455,3.146a.534.534,0,0,0-.133-.394,1.535,1.535,0,0,0-.485-.277,2.259,2.259,0,0,1-.923-.57,1.145,1.145,0,0,1-.281-.772A1.082,1.082,0,0,1,10.541,9a1.589,1.589,0,0,1,1.671-.161,1.148,1.148,0,0,1,.473.467,1.4,1.4,0,0,1,.166.686h-.858a.707.707,0,0,0-.127-.456.446.446,0,0,0-.368-.157.46.46,0,0,0-.352.133.5.5,0,0,0-.126.359.442.442,0,0,0,.141.318,1.617,1.617,0,0,0,.5.294,2.134,2.134,0,0,1,.907.554,1.234,1.234,0,0,1,.283.835,1.1,1.1,0,0,1-.354.87,1.4,1.4,0,0,1-.964.313,1.66,1.66,0,0,1-.753-.17,1.274,1.274,0,0,1-.532-.486,1.413,1.413,0,0,1-.192-.747h.864a.815.815,0,0,0,.144.536.588.588,0,0,0,.469.167Q11.981,12.358,11.981,11.881Zm2.3-.381V13h-.861V8.734h1.453a1.333,1.333,0,0,1,1.009.393,1.412,1.412,0,0,1,.376,1.02,1.32,1.32,0,0,1-.372.99,1.413,1.413,0,0,1-1.031.363Zm0-.718h.592a.469.469,0,0,0,.381-.161.714.714,0,0,0,.135-.469.845.845,0,0,0-.138-.508.442.442,0,0,0-.369-.192h-.6Zm4.755.372H17.694v1.131h1.588V13H16.833V8.734h2.443v.718H17.694V10.46h1.342ZM22.759,13H21.9l-1.26-2.8V13h-.861V8.734h.861l1.263,2.8v-2.8h.858Zm.691,0V8.734h1.128a1.552,1.552,0,0,1,1.191.475,1.86,1.86,0,0,1,.453,1.3V11.2a1.867,1.867,0,0,1-.444,1.32A1.585,1.585,0,0,1,24.555,13Zm.861-3.548v2.833h.258a.723.723,0,0,0,.606-.227,1.351,1.351,0,0,0,.185-.784v-.741a1.515,1.515,0,0,0-.167-.833.674.674,0,0,0-.568-.248Zm4.731,1.7H27.7v1.131H29.29V13H26.84V8.734h2.443v.718H27.7V10.46h1.342ZM29.785,13V8.734h1.128a1.552,1.552,0,0,1,1.191.475,1.86,1.86,0,0,1,.453,1.3V11.2a1.867,1.867,0,0,1-.444,1.32A1.585,1.585,0,0,1,30.889,13Zm.861-3.548v2.833H30.9a.723.723,0,0,0,.606-.227,1.351,1.351,0,0,0,.185-.784v-.741a1.515,1.515,0,0,0-.167-.833.674.674,0,0,0-.568-.248Z" transform="translate(55 424)"/></g></svg>