<svg xmlns="http://www.w3.org/2000/svg" width="36" height="33" viewBox="0 0 36 33"><defs><style>.a{fill:#203e4b;}.b{fill:#fff;}</style></defs><g transform="translate(-126 -166)"><path class="a" d="M62.744,44.758h.025q-.037-.361-.1-.721a.453.453,0,0,0-.05-.149,16.172,16.172,0,1,0,.24,2.778A18.251,18.251,0,0,0,62.744,44.758Zm-1.459-1.211h-.207a18.141,18.141,0,0,0-15.016,7.976,30.709,30.709,0,0,1-4.56-3.988A42.28,42.28,0,0,1,56.733,35.629c.166.158.34.315.5.473A14.872,14.872,0,0,1,61.285,43.548Zm-5.456-8.681A43.535,43.535,0,0,0,40.763,46.723,30.812,30.812,0,0,1,37.6,42.378a18.1,18.1,0,0,0,3.839-9.709,14.99,14.99,0,0,1,5.232-.937A14.751,14.751,0,0,1,55.829,34.866ZM31.742,47.237a18.1,18.1,0,0,0,5.124-4,31.876,31.876,0,0,0,3.225,4.345,43.712,43.712,0,0,0-5.074,8.433A14.755,14.755,0,0,1,31.742,47.237Zm2.6-9.03a31.522,31.522,0,0,0,1.94,4.063,17.03,17.03,0,0,1-4.552,3.74A14.9,14.9,0,0,1,34.346,38.208Zm5.962-5.066a17.047,17.047,0,0,1-3.292,8.234,30.828,30.828,0,0,1-1.907-4.187c.307-.373.638-.738.987-1.086A14.977,14.977,0,0,1,40.307,33.142ZM35.8,56.914A42.324,42.324,0,0,1,40.83,48.4a32.181,32.181,0,0,0,4.652,4.038,17.985,17.985,0,0,0-2.537,8.706A14.864,14.864,0,0,1,36.1,57.229C36,57.121,35.9,57.021,35.8,56.914Zm8.217,4.461a16.99,16.99,0,0,1,2.355-8.325,31.56,31.56,0,0,0,10.563,4.477,14.85,14.85,0,0,1-10.265,4.088A16.615,16.615,0,0,1,44.014,61.374ZM57.827,56.6a30.39,30.39,0,0,1-10.879-4.469,17.057,17.057,0,0,1,14.129-7.512c.133,0,.265,0,.4.008a15.141,15.141,0,0,1,.141,2.04A14.91,14.91,0,0,1,57.827,56.6Z" transform="translate(97.51 135.52)"/><rect class="a" width="36" height="11" transform="translate(126 188)"/><path class="b" d="M9.045,6.965a2.371,2.371,0,0,1-.578,1.575,1.959,1.959,0,0,1-1.483.547,1.833,1.833,0,0,1-1.529-.732,3.16,3.16,0,0,1-.567-1.984V5.212A3.065,3.065,0,0,1,5.47,3.239a1.928,1.928,0,0,1,1.589-.725,1.848,1.848,0,0,1,1.435.554,2.426,2.426,0,0,1,.552,1.586H8.232A1.977,1.977,0,0,0,7.9,3.538,1.033,1.033,0,0,0,7.058,3.2a1.147,1.147,0,0,0-1.006.512,2.651,2.651,0,0,0-.352,1.5V6.39a2.8,2.8,0,0,0,.327,1.49,1.061,1.061,0,0,0,.956.519,1.156,1.156,0,0,0,.905-.312,1.964,1.964,0,0,0,.343-1.121Zm5.251-.6a3.191,3.191,0,0,1-.558,2.017,1.9,1.9,0,0,1-1.586.708A1.927,1.927,0,0,1,10.589,8.4a3.042,3.042,0,0,1-.6-1.945v-1.2a3.2,3.2,0,0,1,.567-2.01,1.892,1.892,0,0,1,1.582-.727,1.915,1.915,0,0,1,1.575.7A3.139,3.139,0,0,1,14.3,5.2Zm-.8-1.121a2.742,2.742,0,0,0-.332-1.51,1.14,1.14,0,0,0-1.017-.494,1.136,1.136,0,0,0-1,.5,2.654,2.654,0,0,0-.345,1.477V6.363a2.711,2.711,0,0,0,.341,1.494,1.14,1.14,0,0,0,1.017.514,1.131,1.131,0,0,0,1-.475,2.667,2.667,0,0,0,.338-1.455ZM16.348,8.31h2.509V9H15.54V2.6h.809Zm4.276,0h2.509V9H19.816V2.6h.809Zm6.535-2.268H24.9V8.31h2.637V9H24.092V2.6h3.4v.69H24.9V5.353h2.263ZM32.564,8.2l-.141.176a2.209,2.209,0,0,1-1.775.708A2.033,2.033,0,0,1,29.02,8.4a2.944,2.944,0,0,1-.6-1.945V5.2a3.175,3.175,0,0,1,.538-2.015A2.27,2.27,0,0,1,32,3.021a2.121,2.121,0,0,1,.569,1.452h-.8a1.617,1.617,0,0,0-.332-.934,1.061,1.061,0,0,0-.859-.336,1.156,1.156,0,0,0-1.011.45,2.584,2.584,0,0,0-.334,1.439V6.4a2.529,2.529,0,0,0,.369,1.483,1.223,1.223,0,0,0,1.059.516,1.4,1.4,0,0,0,.989-.315l.119-.109V6.5H30.591v-.69h1.973Zm4.381-2.162H34.682V8.31h2.637V9H33.878V2.6h3.4v.69H34.682V5.353h2.263Z" transform="translate(123 187.486)"/></g></svg>