<svg xmlns="http://www.w3.org/2000/svg" width="223.618" height="131.336" viewBox="0 0 223.618 131.336"><defs><style>.a,.b,.c{fill:#587581;stroke:#fff;}.a{stroke-width:1.5px;}.b{stroke-width:2px;}</style></defs><g transform="translate(-75.501 -113.25)"><g transform="translate(207.614 82.521)"><g transform="translate(0 31.479)"><path class="a" d="M83.353,31.479H7.4a7.411,7.411,0,0,0-7.4,7.4V83.29a7.411,7.411,0,0,0,7.4,7.4H11.73v18.271a2.11,2.11,0,0,0,3.6,1.492L35.1,90.692H83.352a7.411,7.411,0,0,0,7.4-7.4V38.882A7.411,7.411,0,0,0,83.353,31.479Zm0,54.992H34.221a2.1,2.1,0,0,0-1.416.549l-.011.01c-.026.024-.052.047-.076.072L15.951,103.869V88.582a1.535,1.535,0,0,0-.011-.2,2.11,2.11,0,0,0-2.1-1.915H7.4A3.185,3.185,0,0,1,4.221,83.29V38.882A3.185,3.185,0,0,1,7.4,35.7h75.95a3.185,3.185,0,0,1,3.182,3.182V83.29h0A3.185,3.185,0,0,1,83.353,86.471Z" transform="translate(0 -31.479)"/></g><g transform="translate(16.428 46.893)"><path class="a" d="M107.094,118.437h-12.3a2.11,2.11,0,0,0,0,4.221h12.3a2.11,2.11,0,1,0,0-4.221Z" transform="translate(-92.682 -118.437)"/></g><g transform="translate(16.428 58.975)"><g transform="translate(0 0)"><path class="a" d="M129.029,186.6H94.791a2.11,2.11,0,1,0,0,4.221h34.237a2.11,2.11,0,0,0,0-4.221Z" transform="translate(-92.681 -186.6)"/></g></g><g transform="translate(41.053 46.893)"><path class="a" d="M262.765,118.437H233.711a2.11,2.11,0,0,0,0,4.221h29.054a2.11,2.11,0,0,0,0-4.221Z" transform="translate(-231.601 -118.437)"/></g><g transform="translate(62.466 58.975)"><g transform="translate(0 0)"><path class="a" d="M362.157,186.6h-7.64a2.11,2.11,0,1,0,0,4.221h7.64a2.11,2.11,0,0,0,0-4.221Z" transform="translate(-352.406 -186.6)"/></g></g><g transform="translate(16.428 71.058)"><g transform="translate(0 0)"><path class="a" d="M113.9,254.765H94.791a2.11,2.11,0,0,0,0,4.221H113.9a2.11,2.11,0,0,0,0-4.221Z" transform="translate(-92.681 -254.765)"/></g></g><g transform="translate(46.755 71.058)"><g transform="translate(0 0)"><path class="a" d="M289.231,254.765H265.88a2.11,2.11,0,1,0,0,4.221h23.352a2.11,2.11,0,1,0,0-4.221Z" transform="translate(-263.769 -254.765)"/></g></g></g><path class="b" d="M50.367,93A16.069,16.069,0,1,0,24.375,82.158,12.8,12.8,0,0,0,9.44,102.723,15.774,15.774,0,0,0,0,117.153v14.883A4.969,4.969,0,0,0,4.964,137h52.8a5.759,5.759,0,0,0,5.753-5.753V111.727A19.936,19.936,0,0,0,50.367,93ZM40.38,69.279A11.164,11.164,0,1,1,29.148,80.443,11.211,11.211,0,0,1,40.38,69.279ZM18.217,85.455a7.932,7.932,0,0,1,7.761,9.807,20.062,20.062,0,0,0-5.609,5.769,7.942,7.942,0,1,1-2.151-15.576ZM4.865,132.036V117.153a10.9,10.9,0,0,1,10.886-10.886H18a19.847,19.847,0,0,0-.761,5.459v19.521a5.78,5.78,0,0,0,.069.887H4.964A.107.107,0,0,1,4.865,132.036Zm53.787-.789a.9.9,0,0,1-.887.887H23a.9.9,0,0,1-.887-.887V111.727A15.054,15.054,0,0,1,37.145,96.69h6.47a15.054,15.054,0,0,1,15.037,15.037Z" transform="translate(149.292 106.586)"/><g transform="translate(76.001 143.298)"><g transform="translate(0)"><path class="c" d="M5.98,31.479H67.333a5.987,5.987,0,0,1,5.98,5.98V73.332a5.987,5.987,0,0,1-5.98,5.98h-3.5v14.76a1.7,1.7,0,0,1-2.91,1.206L44.961,79.312H5.98A5.987,5.987,0,0,1,0,73.332V37.459A5.986,5.986,0,0,1,5.98,31.479Zm0,44.423H45.668a1.7,1.7,0,0,1,1.144.444l.009.008c.021.019.042.038.062.058L60.427,89.956V77.607a1.239,1.239,0,0,1,.009-.158,1.7,1.7,0,0,1,1.7-1.547h5.2a2.573,2.573,0,0,0,2.57-2.57V37.459a2.573,2.573,0,0,0-2.57-2.57H5.98a2.573,2.573,0,0,0-2.57,2.57V73.332h0A2.573,2.573,0,0,0,5.98,75.9Z" transform="translate(0 -31.479)"/></g><g transform="translate(46.695 12.451)"><g transform="translate(0)"><path class="c" d="M94.387,118.437h9.937a1.7,1.7,0,0,1,0,3.41H94.387a1.7,1.7,0,1,1,0-3.41Z" transform="translate(-92.682 -118.437)"/></g></g><g transform="translate(28.975 22.212)"><g transform="translate(0 0)"><path class="c" d="M94.386,186.6h27.657a1.7,1.7,0,1,1,0,3.41H94.386a1.7,1.7,0,0,1,0-3.41Z" transform="translate(-92.681 -186.6)"/></g></g><g transform="translate(13.271 12.451)"><path class="c" d="M233.306,118.437h23.47a1.7,1.7,0,0,1,0,3.41h-23.47a1.7,1.7,0,0,1,0-3.41Z" transform="translate(-231.601 -118.437)"/></g><g transform="translate(13.27 22.212)"><g transform="translate(0 0)"><path class="c" d="M354.111,186.6h6.172a1.7,1.7,0,1,1,0,3.41h-6.172a1.7,1.7,0,0,1,0-3.41Z" transform="translate(-352.406 -186.6)"/></g></g><g transform="translate(41.193 31.972)"><g transform="translate(0 0)"><path class="c" d="M94.386,254.765h15.439a1.7,1.7,0,1,1,0,3.41H94.386a1.7,1.7,0,0,1,0-3.41Z" transform="translate(-92.681 -254.765)"/></g></g><g transform="translate(13.27 31.972)"><g transform="translate(0 0)"><path class="c" d="M265.474,254.765h18.864a1.7,1.7,0,1,1,0,3.41H265.474a1.7,1.7,0,1,1,0-3.41Z" transform="translate(-263.769 -254.765)"/></g></g></g></g></svg>