<svg xmlns="http://www.w3.org/2000/svg" width="277.274" height="131.154" viewBox="0 0 277.274 131.154"><defs><style>.a{fill:#587581;}.b{fill:#f4f4f4;}.b,.d{stroke:#587581;}.c,.d{fill:#fff;}</style></defs><g transform="translate(-44.726 -170)"><path class="a" d="M43.577,0A43.577,43.577,0,1,1,0,43.577,43.577,43.577,0,0,1,43.577,0Z" transform="translate(44.726 170)"/><path class="b" d="M20.984,76.326a6.695,6.695,0,1,0-10.829-4.519,5.334,5.334,0,0,0-6.222,8.568A6.572,6.572,0,0,0,0,86.387v6.2a2.07,2.07,0,0,0,2.068,2.068h22a2.4,2.4,0,0,0,2.4-2.4V84.126a8.306,8.306,0,0,0-5.479-7.8Zm-4.161-9.885a4.651,4.651,0,1,1-4.68,4.651A4.671,4.671,0,0,1,16.823,66.441ZM7.59,73.18a3.3,3.3,0,0,1,3.233,4.086,8.359,8.359,0,0,0-2.337,2.4,3.309,3.309,0,1,1-.9-6.489ZM2.027,92.587v-6.2a4.541,4.541,0,0,1,4.535-4.535H7.5a8.269,8.269,0,0,0-.317,2.274v8.133a2.408,2.408,0,0,0,.029.37H2.068A.045.045,0,0,1,2.027,92.587Zm22.409-.329a.375.375,0,0,1-.37.37H9.581a.375.375,0,0,1-.37-.37V84.126a6.272,6.272,0,0,1,6.265-6.265h2.7a6.272,6.272,0,0,1,6.265,6.265Z" transform="translate(74.928 123.276)"/><path class="c" d="M22.334,15h1.68V11.542h3.36a1.725,1.725,0,0,0,1.96-1.96V7.16a1.725,1.725,0,0,0-1.96-1.96h-5.04Zm1.68-5V6.74h3.122c.364,0,.518.168.518.518V9.484c0,.364-.154.518-.518.518Zm8.946,5h3.262a1.714,1.714,0,0,0,1.96-1.96V5.2H36.5v7.742c0,.378-.14.518-.518.518H33.212c-.392,0-.532-.14-.532-.518V5.2H31v7.84A1.714,1.714,0,0,0,32.96,15Zm7.476,0h5.1a1.714,1.714,0,0,0,1.96-1.96V11.486a1.464,1.464,0,0,0-1.008-1.5,1.516,1.516,0,0,0,.9-1.5V7.16A1.714,1.714,0,0,0,45.42,5.2H40.436Zm1.68-5.74V6.726h3.066c.378,0,.518.14.518.518V8.728c0,.392-.14.532-.518.532Zm0,4.214V10.716h3.178c.378,0,.518.14.518.518v1.722c0,.378-.14.518-.518.518ZM49.466,15h6.1V13.46H51.146V5.2h-1.68Zm7.77,0h1.68V5.2h-1.68Zm5.754,0h3.136a1.72,1.72,0,0,0,1.96-1.96V11.626h-1.68v1.316c0,.378-.14.518-.518.518H63.242c-.392,0-.532-.14-.532-.518V7.258c0-.378.14-.518.532-.518h2.646c.378,0,.518.14.518.518V8.574h1.68V7.16a1.714,1.714,0,0,0-1.96-1.96H62.99a1.714,1.714,0,0,0-1.96,1.96v5.88A1.72,1.72,0,0,0,62.99,15Z" transform="translate(43 220)"/><circle class="a" cx="43.5" cy="43.5" r="43.5" transform="translate(235 170)"/><path class="c" d="M22.615,15h3.136a1.72,1.72,0,0,0,1.96-1.96V11.626h-1.68v1.316c0,.378-.14.518-.518.518H22.867c-.392,0-.532-.14-.532-.518V7.258c0-.378.14-.518.532-.518h2.646c.378,0,.518.14.518.518V8.574h1.68V7.16a1.714,1.714,0,0,0-1.96-1.96H22.615a1.714,1.714,0,0,0-1.96,1.96v5.88A1.72,1.72,0,0,0,22.615,15Zm8.89,0h3.262a1.714,1.714,0,0,0,1.96-1.96V5.2h-1.68v7.742c0,.378-.14.518-.518.518H31.757c-.392,0-.532-.14-.532-.518V5.2h-1.68v7.84A1.714,1.714,0,0,0,31.5,15Zm9.1,0h3.108a1.714,1.714,0,0,0,1.96-1.96V11.556c0-1.33-.826-1.75-2.016-2.016l-2.646-.574c-.476-.112-.658-.252-.658-.7V7.23c0-.392.14-.532.532-.532h2.464c.392,0,.532.14.532.532v.98h1.638V7.16a1.714,1.714,0,0,0-1.96-1.96H40.633a1.714,1.714,0,0,0-1.96,1.96V8.5c0,1.33.84,1.75,2.016,2.016l2.66.588c.462.1.644.238.644.686V12.97c0,.392-.14.532-.518.532h-2.66c-.378,0-.518-.14-.518-.532V11.892H38.645V13.04A1.714,1.714,0,0,0,40.6,15Zm8.96,0h1.68V6.726h2.772V5.2H46.779V6.726h2.786Zm7.56,0h3.43a1.714,1.714,0,0,0,1.96-1.96V7.16a1.714,1.714,0,0,0-1.96-1.96h-3.43a1.714,1.714,0,0,0-1.96,1.96v5.88A1.714,1.714,0,0,0,57.125,15Zm.252-1.54c-.392,0-.532-.14-.532-.518V7.258c0-.378.14-.518.532-.518h2.94c.378,0,.518.14.518.518v5.684c0,.378-.14.518-.518.518ZM64.657,15h1.6V8.07l2.45,5.586h1.288l2.45-5.586V15h1.652V5.2H72.2l-2.828,6.23L66.547,5.2h-1.89Z" transform="translate(232 220)"/><g transform="translate(261.946 186.395)"><path class="d" d="M17.617,33.153H15.536A3.056,3.056,0,0,1,12.484,30.1v-.7a13.385,13.385,0,0,1-2.078-.863l-.5.5a3.052,3.052,0,0,1-4.317,0L4.12,27.563a3.052,3.052,0,0,1,0-4.317l.5-.5a13.385,13.385,0,0,1-.863-2.078h-.7A3.055,3.055,0,0,1,0,17.617V15.536a3.056,3.056,0,0,1,3.052-3.052h.7a13.388,13.388,0,0,1,.863-2.078l-.5-.5a3.052,3.052,0,0,1,0-4.317L5.591,4.12a3.052,3.052,0,0,1,4.317,0l.5.5a13.4,13.4,0,0,1,2.078-.863v-.7A3.055,3.055,0,0,1,15.536,0h2.081a3.055,3.055,0,0,1,3.052,3.052v.7a13.384,13.384,0,0,1,2.078.863l.5-.5a3.052,3.052,0,0,1,4.317,0l1.471,1.471a3.052,3.052,0,0,1,0,4.317l-.5.5a13.385,13.385,0,0,1,.863,2.078h.7a3.056,3.056,0,0,1,3.052,3.052v2.081A3.056,3.056,0,0,1,30.1,20.669h-.7a13.388,13.388,0,0,1-.863,2.078l.5.5a3.052,3.052,0,0,1,0,4.317l-1.471,1.471a3.052,3.052,0,0,1-4.317,0l-.5-.5a13.4,13.4,0,0,1-2.078.863v.7A3.055,3.055,0,0,1,17.617,33.153Zm-6.886-6.658A11.449,11.449,0,0,0,13.7,27.727a.971.971,0,0,1,.729.94V30.1a1.111,1.111,0,0,0,1.109,1.109h2.081A1.111,1.111,0,0,0,18.726,30.1V28.667a.971.971,0,0,1,.729-.94,11.449,11.449,0,0,0,2.968-1.232.971.971,0,0,1,1.181.149L24.62,27.66a1.109,1.109,0,0,0,1.569,0l1.472-1.472a1.109,1.109,0,0,0,0-1.569L26.644,23.6a.971.971,0,0,1-.149-1.181,11.447,11.447,0,0,0,1.232-2.968.971.971,0,0,1,.94-.729H30.1a1.111,1.111,0,0,0,1.109-1.109V15.536A1.111,1.111,0,0,0,30.1,14.427H28.667a.971.971,0,0,1-.94-.729,11.449,11.449,0,0,0-1.232-2.968.971.971,0,0,1,.149-1.181L27.66,8.534a1.109,1.109,0,0,0,0-1.569L26.189,5.493a1.109,1.109,0,0,0-1.569,0L23.6,6.509a.971.971,0,0,1-1.181.149,11.449,11.449,0,0,0-2.968-1.232.971.971,0,0,1-.729-.94V3.052a1.111,1.111,0,0,0-1.109-1.109H15.536a1.111,1.111,0,0,0-1.109,1.109V4.486a.971.971,0,0,1-.729.94,11.449,11.449,0,0,0-2.968,1.232.971.971,0,0,1-1.181-.149L8.534,5.493a1.109,1.109,0,0,0-1.569,0L5.493,6.964a1.109,1.109,0,0,0,0,1.569L6.509,9.549a.971.971,0,0,1,.149,1.181A11.447,11.447,0,0,0,5.427,13.7a.971.971,0,0,1-.94.729H3.052a1.111,1.111,0,0,0-1.109,1.109v2.081a1.111,1.111,0,0,0,1.109,1.109H4.486a.971.971,0,0,1,.94.729,11.449,11.449,0,0,0,1.232,2.968A.971.971,0,0,1,6.509,23.6L5.493,24.62a1.109,1.109,0,0,0,0,1.569L6.964,27.66a1.109,1.109,0,0,0,1.569,0l1.016-1.016a.976.976,0,0,1,1.181-.149Z"/><path class="d" d="M151.813,159.027a7.213,7.213,0,1,1,7.213-7.213A7.222,7.222,0,0,1,151.813,159.027Zm0-12.484a5.271,5.271,0,1,0,5.271,5.271,5.277,5.277,0,0,0-5.271-5.271Z" transform="translate(-135.237 -135.237)"/></g><path class="a" d="M43.577,0A43.577,43.577,0,1,1,0,43.577,43.577,43.577,0,0,1,43.577,0Z" transform="translate(138.961 214)"/><g transform="translate(170.888 232.121)"><g transform="translate(0 0)"><path class="d" d="M72.507,11.078H70.383V6.233a6.366,6.366,0,0,0-12.728,0v4.846H55.536A3.54,3.54,0,0,0,52,14.614V26.635a3.54,3.54,0,0,0,3.536,3.536H72.507a3.54,3.54,0,0,0,3.536-3.536V14.614A3.54,3.54,0,0,0,72.507,11.078ZM60.012,6.233a4.009,4.009,0,0,1,8.014,0v4.846H60.012V6.233Zm13.673,20.4a1.18,1.18,0,0,1-1.179,1.179H55.536a1.18,1.18,0,0,1-1.179-1.179V14.614a1.18,1.18,0,0,1,1.179-1.179H72.507a1.18,1.18,0,0,1,1.179,1.179Z" transform="translate(-52 0)"/></g><g transform="translate(9.841 16.853)"><path class="d" d="M221.18,286A2.18,2.18,0,0,0,220,290.013V292.6a1.179,1.179,0,1,0,2.357,0v-2.584A2.18,2.18,0,0,0,221.18,286Z" transform="translate(-219 -286)"/></g></g><path class="c" d="M19.114,15h1.68V11.542h3.36a1.725,1.725,0,0,0,1.96-1.96V7.16a1.725,1.725,0,0,0-1.96-1.96h-5.04Zm1.68-5V6.74h3.122c.364,0,.518.168.518.518V9.484c0,.364-.154.518-.518.518Zm12.572,1.274c1.036-.126,1.526-.756,1.526-1.932V7.16a1.714,1.714,0,0,0-1.96-1.96H27.906V15h1.68V11.346h1.988L33.38,15H35.2Zm-3.78-1.428V6.726h3.108c.378,0,.518.14.518.518V9.316c0,.392-.14.532-.518.532ZM37.034,15h1.68V5.2h-1.68Zm6.314,0h1.946l3.15-9.8H46.666l-2.324,7.952L42.032,5.2H40.2Zm11.438,0H56.62L53.442,5.2H51.09L47.912,15h1.764l.742-2.394h3.626ZM50.88,11.066l1.344-4.354,1.344,4.354ZM58.888,15h1.68V6.726H63.34V5.2H56.1V6.726h2.786Zm6.02,0h6.454V13.46H66.588V10.744h3.934V9.232H66.588V6.74h4.774V5.2H64.908Z" transform="translate(138 264)"/></g></svg>