<svg xmlns="http://www.w3.org/2000/svg" width="14.502" height="11.046" viewBox="0 0 14.502 11.046"><defs><style>.a{fill:#afc0c7;}</style></defs><g transform="translate(0 -61)"><g transform="translate(0 61)"><path class="a" d="M13.227,61H1.275A1.277,1.277,0,0,0,0,62.275v8.5a1.277,1.277,0,0,0,1.275,1.275H13.227A1.277,1.277,0,0,0,14.5,70.772v-8.5A1.277,1.277,0,0,0,13.227,61Zm-.176.85L7.278,67.623,1.455,61.85ZM.85,70.6V62.446L4.942,66.5Zm.6.6L5.545,67.1,6.98,68.524a.425.425,0,0,0,.6,0l1.4-1.4L13.051,71.2Zm12.2-.6L9.58,66.523l4.073-4.073Z" transform="translate(0 -61)"/></g></g></svg>