<svg xmlns="http://www.w3.org/2000/svg" width="38.229" height="33.477" viewBox="0 0 38.229 33.477"><defs><style>.a{fill:none;stroke-miterlimit:10;}.a,.b{stroke:#203e4b;}.b{fill:#1a1818;}.c{fill:#203e4b;}.d{fill:#587581;}</style></defs><g transform="translate(-20.423 -218.5)"><g transform="translate(0)"><path class="a" d="M101.144,155.895H82.607l-9.269,16.054L82.607,188h18.537l9.269-16.054Z" transform="translate(-52.338 63.105)"/><path class="b" d="M122.247,166.525l-2.938,5.028-3.02-5.167,2.957-5.059-.094-.162-2.957,5.06-3.02-5.167,2.976-5.091-.04-.07H116l-2.922,5-2.922-5h-.189l3.016,5.162-3.02,5.167-3.02-5.167,3.016-5.162h-.189l-2.922,5-2.922-5h-.189l3.016,5.162-3.02,5.167-3.02-5.167,3.016-5.162h-.189l-2.922,5-2.922-5h-.129l-.03.051,2.986,5.11-3.02,5.167-2.968-5.078-.094.162,2.967,5.077-3.02,5.167-2.949-5.046-.094.162,2.949,5.045-3.085,5.278.094.162,3.085-5.279,3.02,5.167-3.1,5.311.094.162,3.1-5.312,3.02,5.167-3.122,5.343.094.162,3.123-5.344,3.02,5.167-.176.3h.189l.082-.14.082.14h.189l-.176-.3,3.02-5.167,3.02,5.167-.176.3h.189l.082-.14.082.14h.189l-.176-.3,3.02-5.167,3.112,5.326.094-.162-3.112-5.325,3.02-5.167,3.093,5.293.094-.162-3.093-5.292,3.02-5.167,3.075,5.261.094-.162-3.074-5.26,2.938-5.027Zm-9.167-5.307,3.02,5.167-3.02,5.167-3.02-5.167Zm-.094,10.5-3.02,5.167-3.02-5.167,3.02-5.167Zm-6.134-10.5,3.02,5.167-3.02,5.167-3.02-5.167Zm-.094,10.5-3.02,5.167-3.02-5.167,3.02-5.167Zm-6.134-10.5,3.02,5.167-3.02,5.167-3.02-5.167Zm-6.134,10.5,3.02-5.167,3.02,5.167-3.02,5.167Zm3.114,5.329,3.02-5.167,3.02,5.167-3.02,5.167Zm6.134,10.5-3.02-5.167,3.02-5.167,3.02,5.167Zm.094-10.5,3.02-5.167,3.02,5.167-3.02,5.167Zm6.134,10.5-3.02-5.167,3.02-5.167,3.02,5.167Zm3.114-5.329-3.02-5.167,3.02-5.167,3.02,5.167Zm3.114-5.329-3.02-5.167,3.02-5.167,3.02,5.167Z" transform="translate(-67.304 63.105)"/></g><rect class="c" width="26" height="12" transform="translate(27 229)"/><path class="d" d="M2.353,1.734,3.785,6.2,5.213,1.734H7.248V8.149H5.7v-1.5l.15-3.066L4.3,8.149H3.274L1.719,3.58l.15,3.071v1.5H.322V1.734Zm7.908,0L11.694,6.2l1.427-4.463h2.035V8.149H13.606v-1.5l.15-3.066L12.2,8.149H11.182L9.627,3.58l.15,3.071v1.5H8.231V1.734Zm9.6,5.216H17.743l-.37,1.2H15.72l2.353-6.415h1.454L21.9,8.149H20.236ZM18.113,5.757h1.379L18.8,3.532Z" transform="translate(28.933 230.013)"/></g></svg>