<svg xmlns="http://www.w3.org/2000/svg" width="20.05" height="15.038" viewBox="0 0 20.05 15.038"><defs><style>.a{fill:#afc0c7;}</style></defs><g transform="translate(-97 -590)"><g transform="translate(97 590)"><path class="a" d="M10.025,64A10.7,10.7,0,0,0,0,71.519a10.7,10.7,0,0,0,10.025,7.519A10.7,10.7,0,0,0,20.05,71.519,10.7,10.7,0,0,0,10.025,64Zm0,12.531a5.013,5.013,0,1,1,5.013-5.013A5.013,5.013,0,0,1,10.025,76.531Z" transform="translate(0 -64)"/><path class="a" d="M196.279,192.734a2.506,2.506,0,1,1-3.544,0,2.506,2.506,0,0,1,3.544,0" transform="translate(-184.481 -186.988)"/></g></g></svg>