<svg xmlns="http://www.w3.org/2000/svg" width="33.853" height="33.853" viewBox="0 0 33.853 33.853"><defs><style>.a{fill:#587581;stroke:#fff;stroke-width:0.7px;}</style></defs><g transform="translate(0.35 0.35)"><path class="a" d="M17.617,33.153H15.536A3.056,3.056,0,0,1,12.484,30.1v-.7a13.385,13.385,0,0,1-2.078-.863l-.5.5a3.052,3.052,0,0,1-4.317,0L4.12,27.563a3.052,3.052,0,0,1,0-4.317l.5-.5a13.385,13.385,0,0,1-.863-2.078h-.7A3.055,3.055,0,0,1,0,17.617V15.536a3.056,3.056,0,0,1,3.052-3.052h.7a13.388,13.388,0,0,1,.863-2.078l-.5-.5a3.052,3.052,0,0,1,0-4.317L5.591,4.12a3.052,3.052,0,0,1,4.317,0l.5.5a13.4,13.4,0,0,1,2.078-.863v-.7A3.055,3.055,0,0,1,15.536,0h2.081a3.055,3.055,0,0,1,3.052,3.052v.7a13.384,13.384,0,0,1,2.078.863l.5-.5a3.052,3.052,0,0,1,4.317,0l1.471,1.471a3.052,3.052,0,0,1,0,4.317l-.5.5a13.385,13.385,0,0,1,.863,2.078h.7a3.056,3.056,0,0,1,3.052,3.052v2.081A3.056,3.056,0,0,1,30.1,20.669h-.7a13.388,13.388,0,0,1-.863,2.078l.5.5a3.052,3.052,0,0,1,0,4.317l-1.471,1.471a3.052,3.052,0,0,1-4.317,0l-.5-.5a13.4,13.4,0,0,1-2.078.863v.7A3.055,3.055,0,0,1,17.617,33.153Zm-6.886-6.658A11.449,11.449,0,0,0,13.7,27.727a.971.971,0,0,1,.729.94V30.1a1.111,1.111,0,0,0,1.109,1.109h2.081A1.111,1.111,0,0,0,18.726,30.1V28.667a.971.971,0,0,1,.729-.94,11.449,11.449,0,0,0,2.968-1.232.971.971,0,0,1,1.181.149L24.62,27.66a1.109,1.109,0,0,0,1.569,0l1.472-1.472a1.109,1.109,0,0,0,0-1.569L26.644,23.6a.971.971,0,0,1-.149-1.181,11.447,11.447,0,0,0,1.232-2.968.971.971,0,0,1,.94-.729H30.1a1.111,1.111,0,0,0,1.109-1.109V15.536A1.111,1.111,0,0,0,30.1,14.427H28.667a.971.971,0,0,1-.94-.729,11.449,11.449,0,0,0-1.232-2.968.971.971,0,0,1,.149-1.181L27.66,8.534a1.109,1.109,0,0,0,0-1.569L26.189,5.493a1.109,1.109,0,0,0-1.569,0L23.6,6.509a.971.971,0,0,1-1.181.149,11.449,11.449,0,0,0-2.968-1.232.971.971,0,0,1-.729-.94V3.052a1.111,1.111,0,0,0-1.109-1.109H15.536a1.111,1.111,0,0,0-1.109,1.109V4.486a.971.971,0,0,1-.729.94,11.449,11.449,0,0,0-2.968,1.232.971.971,0,0,1-1.181-.149L8.534,5.493a1.109,1.109,0,0,0-1.569,0L5.493,6.964a1.109,1.109,0,0,0,0,1.569L6.509,9.549a.971.971,0,0,1,.149,1.181A11.447,11.447,0,0,0,5.427,13.7a.971.971,0,0,1-.94.729H3.052a1.111,1.111,0,0,0-1.109,1.109v2.081a1.111,1.111,0,0,0,1.109,1.109H4.486a.971.971,0,0,1,.94.729,11.449,11.449,0,0,0,1.232,2.968A.971.971,0,0,1,6.509,23.6L5.493,24.62a1.109,1.109,0,0,0,0,1.569L6.964,27.66a1.109,1.109,0,0,0,1.569,0l1.016-1.016a.976.976,0,0,1,1.181-.149Z"/><path class="a" d="M151.813,159.027a7.213,7.213,0,1,1,7.213-7.213A7.222,7.222,0,0,1,151.813,159.027Zm0-12.484a5.271,5.271,0,1,0,5.271,5.271,5.277,5.277,0,0,0-5.271-5.271Z" transform="translate(-135.237 -135.237)"/></g></svg>