<svg xmlns="http://www.w3.org/2000/svg" width="36" height="32.337" viewBox="0 0 36 32.337"><defs><style>.a{opacity:0.25;}.b{fill:#fff;}.c{fill:#587581;stroke:#203e4b;}.d{fill:#bcc8cc;}.e{stroke:none;}.f{fill:none;}</style></defs><g transform="translate(-87 -304)"><g class="a" transform="translate(58.5 273.5)"><path class="b" d="M46.669,62.837A16.165,16.165,0,1,1,58.1,58.1,16.069,16.069,0,0,1,46.669,62.837Zm0-31.093a14.919,14.919,0,1,0,10.555,4.37A14.826,14.826,0,0,0,46.669,31.744Z"/><g transform="translate(37.779 39.082)"><path class="b" d="M44.947,62.916a.863.863,0,0,0-.6.763.88.88,0,0,0,.813.937.621.621,0,0,0,.174-.017.377.377,0,0,0,.166-.041.53.53,0,0,0,.158-.066c.05-.033.1-.066.141-.1a.75.75,0,0,0,.207-.274,1.1,1.1,0,0,0,.1-.332.88.88,0,0,0-.813-.937A2.162,2.162,0,0,0,44.947,62.916Z" transform="translate(-40.145 -44.609)"/><path class="b" d="M49.867,61.69c-.058,0-.116.008-.166.008a1.325,1.325,0,0,0-.174.041.41.41,0,0,0-.149.066.894.894,0,0,0-.448.7.947.947,0,0,0,.216.638l.124.124a.485.485,0,0,0,.141.083.579.579,0,0,0,.166.066,1.174,1.174,0,0,1,.166.033.947.947,0,0,0,.638-.216l.124-.124a.485.485,0,0,0,.083-.141.579.579,0,0,0,.066-.166.752.752,0,0,0,.025-.332,1.326,1.326,0,0,0-.041-.174.53.53,0,0,0-.066-.158c-.033-.05-.066-.1-.1-.141A.943.943,0,0,0,49.867,61.69Z" transform="translate(-40.928 -44.41)"/><path class="b" d="M53.745,59.72a.79.79,0,0,0-.34.05.908.908,0,0,0-.506.439,1.1,1.1,0,0,0-.1.332.88.88,0,0,0,.813.937,1.163,1.163,0,0,0,.34-.05.807.807,0,0,0,.506-.439,1.1,1.1,0,0,0,.1-.332.88.88,0,0,0-.813-.937Z" transform="translate(-41.589 -44.073)"/><path class="b" d="M54.059,63.509a1.326,1.326,0,0,0-.174.041.53.53,0,0,0-.158.066.881.881,0,0,0-.448.7.947.947,0,0,0,.216.638l.124.124a.486.486,0,0,0,.141.083.579.579,0,0,0,.166.066,1.175,1.175,0,0,1,.166.033.947.947,0,0,0,.638-.216l.124-.124a.485.485,0,0,0,.083-.141A.579.579,0,0,0,55,64.62a1.174,1.174,0,0,1,.033-.166c0-.058-.008-.116-.008-.166a1.327,1.327,0,0,0-.041-.174.53.53,0,0,0-.066-.158c-.033-.05-.066-.1-.1-.141a.951.951,0,0,0-.6-.307A.555.555,0,0,0,54.059,63.509Z" transform="translate(-41.671 -44.72)"/><path class="b" d="M58.115,61.52c-.058,0-.116.008-.166.008a1.326,1.326,0,0,0-.174.041.53.53,0,0,0-.158.066.881.881,0,0,0-.448.7,1.163,1.163,0,0,0,.05.34.886.886,0,0,0,.166.3.951.951,0,0,0,.6.307,1.057,1.057,0,0,0,.166-.008,1.327,1.327,0,0,0,.174-.041.53.53,0,0,0,.158-.066c.05-.033.1-.066.141-.1l.124-.124a.485.485,0,0,0,.083-.141.579.579,0,0,0,.066-.166,1.174,1.174,0,0,0,.033-.166.947.947,0,0,0-.216-.638.854.854,0,0,0-.274-.207A.877.877,0,0,0,58.115,61.52Z" transform="translate(-42.336 -44.381)"/><path class="b" d="M61.307,58.75a1.163,1.163,0,0,0-.34.05.863.863,0,0,0-.6.763,1.163,1.163,0,0,0,.05.34.886.886,0,0,0,.166.3A.876.876,0,0,0,61.9,59.048a.854.854,0,0,0-.274-.207A.979.979,0,0,0,61.307,58.75Z" transform="translate(-42.882 -43.908)"/><path class="b" d="M63.639,55.189a1.325,1.325,0,0,0-.174.041.53.53,0,0,0-.158.066.881.881,0,0,0-.448.7.947.947,0,0,0,.216.638l.124.124a.485.485,0,0,0,.141.083.579.579,0,0,0,.166.066,1.174,1.174,0,0,1,.166.033.947.947,0,0,0,.638-.216l.124-.124a.485.485,0,0,0,.083-.141.579.579,0,0,0,.066-.166,1.173,1.173,0,0,1,.033-.166c0-.058-.008-.116-.008-.166a1.324,1.324,0,0,0-.041-.174.53.53,0,0,0-.066-.158c-.033-.05-.066-.1-.1-.141a.951.951,0,0,0-.6-.307A.556.556,0,0,0,63.639,55.189Z" transform="translate(-43.308 -43.299)"/><path class="b" d="M56.937,56.939h0a.858.858,0,0,0-.788.39.88.88,0,0,0,.672,1.368,1.057,1.057,0,0,0,.166-.008,1.325,1.325,0,0,0,.174-.041.53.53,0,0,0,.158-.066c.05-.033.1-.066.141-.1l.124-.124a.485.485,0,0,0,.083-.141.579.579,0,0,0,.066-.166,1.174,1.174,0,0,0,.033-.166A.907.907,0,0,0,56.937,56.939Z" transform="translate(-42.136 -43.598)"/><path class="b" d="M60.135,54.17h0c-.058,0-.116.008-.166.008a1.325,1.325,0,0,0-.174.041.53.53,0,0,0-.158.066.894.894,0,0,0-.448.7c0,.058.008.108.008.174a.377.377,0,0,0,.041.166.53.53,0,0,0,.066.158c.033.05.066.1.1.141a.877.877,0,0,0,.6.307.859.859,0,0,0,.638-.216l.124-.124a.485.485,0,0,0,.083-.141.579.579,0,0,0,.066-.166,1.174,1.174,0,0,0,.033-.166A.89.89,0,0,0,60.135,54.17Z" transform="translate(-42.681 -43.126)"/><path class="b" d="M62.459,50.609a1.325,1.325,0,0,0-.174.041.53.53,0,0,0-.158.066.881.881,0,0,0-.448.7.947.947,0,0,0,.216.638l.124.124a.485.485,0,0,0,.141.083.579.579,0,0,0,.166.066,1.174,1.174,0,0,1,.166.033.947.947,0,0,0,.638-.216l.124-.124a.486.486,0,0,0,.083-.141.579.579,0,0,0,.066-.166.753.753,0,0,0,.025-.332,1.326,1.326,0,0,0-.041-.174.53.53,0,0,0-.066-.158c-.033-.05-.066-.1-.1-.141a.951.951,0,0,0-.6-.307A.555.555,0,0,0,62.459,50.609Z" transform="translate(-43.106 -42.516)"/><path class="b" d="M64.1,46.28a.807.807,0,0,0-.506.439,1.1,1.1,0,0,0-.1.332.947.947,0,0,0,.216.638l.124.124a.485.485,0,0,0,.141.083.579.579,0,0,0,.166.066A1.175,1.175,0,0,1,64.3,48a1.163,1.163,0,0,0,.34-.05.807.807,0,0,0,.506-.439,1.1,1.1,0,0,0,.1-.332c0-.058-.008-.116-.008-.166a1.326,1.326,0,0,0-.041-.174.53.53,0,0,0-.066-.158c-.033-.05-.066-.1-.1-.141a.951.951,0,0,0-.6-.307A1.163,1.163,0,0,0,64.1,46.28Z" transform="translate(-43.415 -41.769)"/><path class="b" d="M40.225,60.27a.912.912,0,0,0-.846.489,1.1,1.1,0,0,0-.1.332.947.947,0,0,0,.216.638.854.854,0,0,0,.274.207.8.8,0,0,0,.672.05.886.886,0,0,0,.3-.166.951.951,0,0,0,.307-.6,1.163,1.163,0,0,0-.05-.34.886.886,0,0,0-.166-.3A.925.925,0,0,0,40.225,60.27Z" transform="translate(-39.279 -44.168)"/><path class="b" d="M45.126,59.189a.8.8,0,0,0-.672-.05.908.908,0,0,0-.506.439.8.8,0,0,0-.05.672.886.886,0,0,0,.166.3.951.951,0,0,0,.6.307,1.163,1.163,0,0,0,.34-.05.807.807,0,0,0,.506-.439,1.1,1.1,0,0,0,.1-.332.947.947,0,0,0-.216-.638A.66.66,0,0,0,45.126,59.189Z" transform="translate(-40.06 -43.966)"/><path class="b" d="M62.567,40.85a1.163,1.163,0,0,0-.34.05.825.825,0,0,0-.415.29.486.486,0,0,0-.083.141.579.579,0,0,0-.066.166,1.174,1.174,0,0,0-.033.166.947.947,0,0,0,.216.638.854.854,0,0,0,.274.207,1.1,1.1,0,0,0,.332.1.947.947,0,0,0,.638-.216.854.854,0,0,0,.207-.274.8.8,0,0,0,.05-.672.886.886,0,0,0-.166-.3A1.048,1.048,0,0,0,62.567,40.85Z" transform="translate(-43.098 -40.85)"/><path class="b" d="M61.086,45.319a.8.8,0,0,0-.672-.05.908.908,0,0,0-.506.439.8.8,0,0,0-.05.672.886.886,0,0,0,.166.3.951.951,0,0,0,.6.307,1.163,1.163,0,0,0,.34-.05.807.807,0,0,0,.506-.439,1.1,1.1,0,0,0,.1-.332.947.947,0,0,0-.216-.638A.8.8,0,0,0,61.086,45.319Z" transform="translate(-42.786 -41.596)"/><path class="b" d="M48.56,58.866a1.163,1.163,0,0,0,.34-.05.807.807,0,0,0,.506-.439.8.8,0,0,0,.05-.672.807.807,0,0,0-.439-.506.8.8,0,0,0-.672-.05.908.908,0,0,0-.506.439.8.8,0,0,0-.05.672.917.917,0,0,0,.771.605Z" transform="translate(-40.724 -43.626)"/><path class="b" d="M53.083,56.684a.877.877,0,0,0,.307-.6.859.859,0,0,0-.216-.638l-.124-.124a.485.485,0,0,0-.141-.083.363.363,0,0,0-.158-.058.646.646,0,0,0-.174-.033.909.909,0,0,0-.937.813c0,.058.008.108.008.174a.377.377,0,0,0,.041.166.53.53,0,0,0,.066.158c.033.05.066.1.1.141a.877.877,0,0,0,.6.307A.919.919,0,0,0,53.083,56.684Z" transform="translate(-41.391 -43.293)"/><path class="b" d="M56.283,53.9a.877.877,0,0,0,.307-.6.859.859,0,0,0-.216-.638l-.124-.124a.485.485,0,0,0-.141-.083.363.363,0,0,0-.158-.058.646.646,0,0,0-.174-.033.909.909,0,0,0-.937.813,1.225,1.225,0,0,0,.008.174.377.377,0,0,0,.041.166.53.53,0,0,0,.066.158c.033.05.066.1.1.141a.877.877,0,0,0,.6.307A.894.894,0,0,0,56.283,53.9Z" transform="translate(-41.938 -42.818)"/><path class="b" d="M58.143,50.546a.947.947,0,0,0,.638-.216.854.854,0,0,0,.207-.274,1.1,1.1,0,0,0,.1-.332,1.163,1.163,0,0,0-.05-.34.807.807,0,0,0-.439-.506,1.1,1.1,0,0,0-.332-.1.79.79,0,0,0-.34.05.863.863,0,0,0-.6.763,1.163,1.163,0,0,0,.05.34.807.807,0,0,0,.439.506A.627.627,0,0,0,58.143,50.546Z" transform="translate(-42.363 -42.204)"/></g></g><g class="c" transform="translate(87 308)"><rect class="e" width="36" height="24"/><rect class="f" x="0.5" y="0.5" width="35" height="23"/></g><path class="d" d="M9.874,11.342A1.861,1.861,0,0,1,9.4,12.631a1.69,1.69,0,0,1-1.244.438,1.568,1.568,0,0,1-1.294-.555,2.461,2.461,0,0,1-.449-1.584v-.837A2.4,2.4,0,0,1,6.873,8.51a1.593,1.593,0,0,1,1.292-.555A1.6,1.6,0,0,1,9.4,8.41a2.067,2.067,0,0,1,.48,1.306H8.872a1.34,1.34,0,0,0-.162-.726.641.641,0,0,0-.545-.2.61.61,0,0,0-.571.282A1.972,1.972,0,0,0,7.416,10v.94a2.169,2.169,0,0,0,.166,1.019.609.609,0,0,0,.569.277.658.658,0,0,0,.547-.193,1.272,1.272,0,0,0,.171-.7ZM14,10.959a2.321,2.321,0,0,1-.473,1.555,1.636,1.636,0,0,1-1.314.554,1.655,1.655,0,0,1-1.316-.549,2.287,2.287,0,0,1-.485-1.536v-.851a2.447,2.447,0,0,1,.475-1.6A1.616,1.616,0,0,1,12.2,7.955a1.624,1.624,0,0,1,1.309.566A2.413,2.413,0,0,1,14,10.108Zm-1.008-.834a2.044,2.044,0,0,0-.191-1,.707.707,0,0,0-1.186-.012,1.942,1.942,0,0,0-.2.962v.885a1.851,1.851,0,0,0,.195.962.661.661,0,0,0,.6.309.644.644,0,0,0,.584-.3,1.815,1.815,0,0,0,.195-.938Zm3.042-2.1.94,3.6.937-3.6h1.313V13H18.21V11.653L18.3,9.579,17.308,13h-.684L15.63,9.579l.092,2.075V13h-1V8.023ZM21.074,13h-1V8.023h1ZM25.4,13h-1l-1.47-3.264V13h-1V8.023h1L24.4,11.291V8.023h1Zm4.19-.564a1.834,1.834,0,0,1-.713.473,2.6,2.6,0,0,1-.925.159,1.7,1.7,0,0,1-1.333-.531,2.3,2.3,0,0,1-.489-1.547v-.9a2.461,2.461,0,0,1,.449-1.584,1.587,1.587,0,0,1,1.311-.555,1.688,1.688,0,0,1,1.222.4,1.892,1.892,0,0,1,.477,1.254h-.978a1.135,1.135,0,0,0-.2-.648.635.635,0,0,0-.492-.173.644.644,0,0,0-.591.3,1.9,1.9,0,0,0-.191.947v.9a1.852,1.852,0,0,0,.2.99.74.74,0,0,0,.668.309.873.873,0,0,0,.482-.12l.089-.062v-.913h-.7v-.759h1.712ZM12.244,17.694a.624.624,0,0,0-.156-.46,1.791,1.791,0,0,0-.566-.323,2.636,2.636,0,0,1-1.077-.665,1.336,1.336,0,0,1-.328-.9,1.263,1.263,0,0,1,.446-1.01,1.854,1.854,0,0,1,1.95-.188,1.34,1.34,0,0,1,.552.545,1.635,1.635,0,0,1,.193.8h-1a.825.825,0,0,0-.149-.531.521.521,0,0,0-.429-.183.537.537,0,0,0-.41.156.585.585,0,0,0-.147.419.516.516,0,0,0,.164.371,1.887,1.887,0,0,0,.581.344,2.49,2.49,0,0,1,1.058.646,1.439,1.439,0,0,1,.33.974,1.285,1.285,0,0,1-.414,1.015,1.637,1.637,0,0,1-1.125.366,1.936,1.936,0,0,1-.878-.2,1.487,1.487,0,0,1-.62-.567A1.648,1.648,0,0,1,10,17.431H11a.951.951,0,0,0,.167.625.686.686,0,0,0,.547.195Q12.244,18.251,12.244,17.694Zm5.182-.735a2.321,2.321,0,0,1-.473,1.555,1.636,1.636,0,0,1-1.314.554,1.655,1.655,0,0,1-1.316-.549,2.287,2.287,0,0,1-.485-1.536v-.851a2.447,2.447,0,0,1,.475-1.6,1.616,1.616,0,0,1,1.319-.576,1.624,1.624,0,0,1,1.309.566,2.413,2.413,0,0,1,.485,1.588Zm-1.008-.834a2.044,2.044,0,0,0-.191-1,.707.707,0,0,0-1.186-.012,1.942,1.942,0,0,0-.2.962v.885a1.851,1.851,0,0,0,.195.962.661.661,0,0,0,.6.309.644.644,0,0,0,.584-.3,1.815,1.815,0,0,0,.195-.938Zm5.233.834a2.321,2.321,0,0,1-.473,1.555,1.636,1.636,0,0,1-1.314.554,1.655,1.655,0,0,1-1.316-.549,2.287,2.287,0,0,1-.485-1.536v-.851a2.447,2.447,0,0,1,.475-1.6,1.8,1.8,0,0,1,2.628-.01,2.413,2.413,0,0,1,.485,1.588Zm-1.008-.834a2.044,2.044,0,0,0-.191-1,.707.707,0,0,0-1.186-.012,1.942,1.942,0,0,0-.2.962v.885a1.851,1.851,0,0,0,.195.962.661.661,0,0,0,.6.309.644.644,0,0,0,.584-.3,1.815,1.815,0,0,0,.195-.938ZM25.851,19h-1l-1.47-3.264V19h-1V14.023h1l1.473,3.268V14.023h1Z" transform="translate(87 309)"/><path class="b" d="M14.285,6.436a1.834,1.834,0,0,1-.713.473,2.6,2.6,0,0,1-.925.159,1.7,1.7,0,0,1-1.333-.531,2.3,2.3,0,0,1-.489-1.547v-.9a2.461,2.461,0,0,1,.449-1.584,1.587,1.587,0,0,1,1.311-.555,1.688,1.688,0,0,1,1.222.4,1.892,1.892,0,0,1,.477,1.254h-.978a1.135,1.135,0,0,0-.2-.648.635.635,0,0,0-.492-.173.644.644,0,0,0-.591.3,1.9,1.9,0,0,0-.191.947v.9a1.852,1.852,0,0,0,.2.99.74.74,0,0,0,.668.309.873.873,0,0,0,.482-.12l.089-.062V5.141h-.7V4.382h1.712ZM18.5,4.959a2.321,2.321,0,0,1-.473,1.555,1.636,1.636,0,0,1-1.314.554A1.655,1.655,0,0,1,15.4,6.52a2.287,2.287,0,0,1-.485-1.536V4.132a2.447,2.447,0,0,1,.475-1.6,1.8,1.8,0,0,1,2.628-.01A2.413,2.413,0,0,1,18.5,4.108Zm-1.008-.834a2.044,2.044,0,0,0-.191-1,.707.707,0,0,0-1.186-.012,1.942,1.942,0,0,0-.2.962v.885a1.851,1.851,0,0,0,.195.962.661.661,0,0,0,.6.309.644.644,0,0,0,.584-.3,1.815,1.815,0,0,0,.195-.938Zm2.734,2.041h1.764V7H19.22V2.023h1Zm4.912-1.2H23.575V7h-1V2.023h2.755v.837h-1.75V4.136h1.562Z" transform="translate(87 309)"/></g></svg>