<svg xmlns="http://www.w3.org/2000/svg" width="35.401" height="23.803" viewBox="0 0 35.401 23.803"><defs><style>.a{fill:#fff;}</style></defs><g transform="translate(-8 -233)"><g transform="translate(8 134.882)"><path class="a" d="M3.052,232.858H23.8a3.039,3.039,0,0,0,2.969-2.364c.115-.494.083-.077.083-7.614a.61.61,0,0,0-1.221,0c0,7.564.022,7.024-.051,7.338a1.823,1.823,0,0,1-1.78,1.42H3.052a1.831,1.831,0,0,1-1.831-1.831v-9.155a1.831,1.831,0,0,1,1.831-1.831H21.574a.61.61,0,1,0,0-1.221H3.052A3.055,3.055,0,0,0,0,220.652v9.155a3.055,3.055,0,0,0,3.052,3.051Z" transform="translate(0 -110.937)"/><path class="a" d="M251.446,115.291a9.15,9.15,0,1,0-13.1-12.721.61.61,0,1,1-.934-.783A10.368,10.368,0,1,1,252.252,116.2a.61.61,0,1,1-.806-.912Z" transform="translate(-220.3 0)"/><path class="a" d="M305.837,167.639a4.286,4.286,0,0,0-3,.778.618.618,0,0,1-.93-.488.558.558,0,0,1,.228-.505,5.49,5.49,0,0,1,7.629,7.708.61.61,0,0,1-1.012-.074.587.587,0,0,1,.018-.638,4.272,4.272,0,0,0-2.937-6.779Z" transform="translate(-280.315 -63.389)"/><path class="a" d="M324.267,219.431A1.831,1.831,0,1,0,326.1,217.6,1.831,1.831,0,0,0,324.267,219.431Zm2.441,0a.61.61,0,1,1-.61-.61A.61.61,0,0,1,326.708,219.431Z" transform="translate(-301.075 -110.937)"/></g><path class="a" d="M10.549,13.6H9.628V4.58H10.5q.062.383.241,1.273l.309,1.521.3,1.57q.111.593.235,1.422h.037L11.55,8.932,11.5,7.554V4.58h.921V13.6h-.869q-.074-.414-.284-1.4l-.321-1.533-.284-1.509q-.025-.117-.093-.631l-.108-.7h-.039L10.5,9.2l.049,1.44Zm4.3-4.043v3.122h1.873V13.6H14.871a.916.916,0,0,1-.686-.266.949.949,0,0,1-.26-.692V5.526a.915.915,0,0,1,.946-.946h1.848V5.5H14.846V8.63h1.409v.927ZM18.889,11.2h.037q.124-1.076.3-2.077l.253-1.44h.773l.278,1.589q.179,1.026.278,1.929h.043l-.031-.816V9.1L20.88,4.58h.933l-.3,9.019h-.859q-.235-1.032-.451-2.182-.167-.909-.21-1.193a8.674,8.674,0,0,1-.1-1.255h-.037a8.508,8.508,0,0,1-.124,1.348q-.031.179-.155.878-.216,1.249-.482,2.4h-.859L17.925,4.58h.94l.049,4.432q.006.365,0,1.385Zm4.359-5.329a1.327,1.327,0,0,1,.4-.961,1.346,1.346,0,0,1,1-.411,1.361,1.361,0,0,1,.952.383A1.328,1.328,0,0,1,26.043,5.9V6.923h-.921V5.5H24.17V8.63H25.1a.926.926,0,0,1,.674.266.887.887,0,0,1,.272.661v2.732a1.289,1.289,0,0,1-.4.964,1.374,1.374,0,0,1-.989.408,1.391,1.391,0,0,1-.992-.389,1.282,1.282,0,0,1-.411-.971V11.263h.921v1.416h.952V9.557h-.9a.955.955,0,0,1-.7-.266.939.939,0,0,1-.269-.7Z" transform="translate(3.372 240)"/></g></svg>