<svg xmlns="http://www.w3.org/2000/svg" width="36" height="32.37" viewBox="0 0 36 32.37"><defs><style>.a{fill:#8298a1;}.b{fill:#587581;stroke:#203e4b;}.c{fill:#fff;}.d{fill:#bcc8cc;}.e{stroke:none;}.f{fill:none;}</style></defs><g transform="translate(-8 -416)"><path class="a" d="M62.744,44.758h.025q-.037-.361-.1-.721a.453.453,0,0,0-.05-.149,16.172,16.172,0,1,0,.24,2.778A18.251,18.251,0,0,0,62.744,44.758Zm-1.459-1.211h-.207a18.141,18.141,0,0,0-15.016,7.976,30.709,30.709,0,0,1-4.56-3.988A42.28,42.28,0,0,1,56.733,35.629c.166.158.34.315.5.473A14.872,14.872,0,0,1,61.285,43.548Zm-5.456-8.681A43.535,43.535,0,0,0,40.763,46.723,30.812,30.812,0,0,1,37.6,42.378a18.1,18.1,0,0,0,3.839-9.709,14.99,14.99,0,0,1,5.232-.937A14.751,14.751,0,0,1,55.829,34.866ZM31.742,47.237a18.1,18.1,0,0,0,5.124-4,31.876,31.876,0,0,0,3.225,4.345,43.712,43.712,0,0,0-5.074,8.433A14.755,14.755,0,0,1,31.742,47.237Zm2.6-9.03a31.522,31.522,0,0,0,1.94,4.063,17.03,17.03,0,0,1-4.552,3.74A14.9,14.9,0,0,1,34.346,38.208Zm5.962-5.066a17.047,17.047,0,0,1-3.292,8.234,30.828,30.828,0,0,1-1.907-4.187c.307-.373.638-.738.987-1.086A14.977,14.977,0,0,1,40.307,33.142ZM35.8,56.914A42.324,42.324,0,0,1,40.83,48.4a32.181,32.181,0,0,0,4.652,4.038,17.985,17.985,0,0,0-2.537,8.706A14.864,14.864,0,0,1,36.1,57.229C36,57.121,35.9,57.021,35.8,56.914Zm8.217,4.461a16.99,16.99,0,0,1,2.355-8.325,31.56,31.56,0,0,0,10.563,4.477,14.85,14.85,0,0,1-10.265,4.088A16.615,16.615,0,0,1,44.014,61.374ZM57.827,56.6a30.39,30.39,0,0,1-10.879-4.469,17.057,17.057,0,0,1,14.129-7.512c.133,0,.265,0,.4.008a15.141,15.141,0,0,1,.141,2.04A14.91,14.91,0,0,1,57.827,56.6Z" transform="translate(-20.49 385.52)"/><g class="b" transform="translate(8 420)"><rect class="e" width="36" height="24"/><rect class="f" x="0.5" y="0.5" width="35" height="23"/></g><path class="c" d="M15.683,7h-1l-1.47-3.264V7h-1V2.023h1l1.473,3.268V2.023h1Zm.807,0V2.023h1.538a1.774,1.774,0,0,1,1.184.347,1.265,1.265,0,0,1,.405,1.017,1.226,1.226,0,0,1-.167.653.989.989,0,0,1-.458.4.87.87,0,0,1,.516.385,1.316,1.316,0,0,1,.181.713,1.419,1.419,0,0,1-.4,1.094A1.637,1.637,0,0,1,18.137,7Zm1-2.164v1.33h.643A.5.5,0,0,0,18.547,6a.721.721,0,0,0,.14-.475q0-.67-.485-.687Zm0-.731h.523a.532.532,0,0,0,.591-.612.7.7,0,0,0-.137-.485.583.583,0,0,0-.444-.147h-.533Zm5.3,1.876H21.421L21.155,7H20.092l1.555-4.977h.919L24.132,7H23.059ZM21.64,5.144h.93L22.1,3.37Z" transform="translate(8 424)"/><path class="d" d="M5.313,11.881a.534.534,0,0,0-.133-.394,1.535,1.535,0,0,0-.485-.277,2.259,2.259,0,0,1-.923-.57,1.145,1.145,0,0,1-.281-.772A1.082,1.082,0,0,1,3.873,9a1.442,1.442,0,0,1,.971-.327,1.454,1.454,0,0,1,.7.166,1.148,1.148,0,0,1,.473.467,1.4,1.4,0,0,1,.166.686H5.325A.707.707,0,0,0,5.2,9.539a.446.446,0,0,0-.368-.157.46.46,0,0,0-.352.133.5.5,0,0,0-.126.359.442.442,0,0,0,.141.318,1.617,1.617,0,0,0,.5.294,2.134,2.134,0,0,1,.907.554,1.234,1.234,0,0,1,.283.835,1.1,1.1,0,0,1-.354.87,1.4,1.4,0,0,1-.964.313,1.66,1.66,0,0,1-.753-.17,1.274,1.274,0,0,1-.532-.486,1.413,1.413,0,0,1-.192-.747H4.25a.815.815,0,0,0,.144.536.588.588,0,0,0,.469.167Q5.313,12.358,5.313,11.881ZM9.526,8.734v2.953a1.38,1.38,0,0,1-.366,1.018,1.417,1.417,0,0,1-1.034.353A1.429,1.429,0,0,1,7.078,12.7a1.39,1.39,0,0,1-.362-1.034V8.734h.867V11.67a.879.879,0,0,0,.117.519.5.5,0,0,0,.425.155.5.5,0,0,0,.422-.154.876.876,0,0,0,.117-.505V8.734Zm2.455,3.146a.534.534,0,0,0-.133-.394,1.535,1.535,0,0,0-.485-.277,2.259,2.259,0,0,1-.923-.57,1.145,1.145,0,0,1-.281-.772A1.082,1.082,0,0,1,10.541,9a1.589,1.589,0,0,1,1.671-.161,1.148,1.148,0,0,1,.473.467,1.4,1.4,0,0,1,.166.686h-.858a.707.707,0,0,0-.127-.456.446.446,0,0,0-.368-.157.46.46,0,0,0-.352.133.5.5,0,0,0-.126.359.442.442,0,0,0,.141.318,1.617,1.617,0,0,0,.5.294,2.134,2.134,0,0,1,.907.554,1.234,1.234,0,0,1,.283.835,1.1,1.1,0,0,1-.354.87,1.4,1.4,0,0,1-.964.313,1.66,1.66,0,0,1-.753-.17,1.274,1.274,0,0,1-.532-.486,1.413,1.413,0,0,1-.192-.747h.864a.815.815,0,0,0,.144.536.588.588,0,0,0,.469.167Q11.981,12.358,11.981,11.881Zm2.3-.381V13h-.861V8.734h1.453a1.333,1.333,0,0,1,1.009.393,1.412,1.412,0,0,1,.376,1.02,1.32,1.32,0,0,1-.372.99,1.413,1.413,0,0,1-1.031.363Zm0-.718h.592a.469.469,0,0,0,.381-.161.714.714,0,0,0,.135-.469.845.845,0,0,0-.138-.508.442.442,0,0,0-.369-.192h-.6Zm4.755.372H17.694v1.131h1.588V13H16.833V8.734h2.443v.718H17.694V10.46h1.342ZM22.759,13H21.9l-1.26-2.8V13h-.861V8.734h.861l1.263,2.8v-2.8h.858Zm.691,0V8.734h1.128a1.552,1.552,0,0,1,1.191.475,1.86,1.86,0,0,1,.453,1.3V11.2a1.867,1.867,0,0,1-.444,1.32A1.585,1.585,0,0,1,24.555,13Zm.861-3.548v2.833h.258a.723.723,0,0,0,.606-.227,1.351,1.351,0,0,0,.185-.784v-.741a1.515,1.515,0,0,0-.167-.833.674.674,0,0,0-.568-.248Zm4.731,1.7H27.7v1.131H29.29V13H26.84V8.734h2.443v.718H27.7V10.46h1.342ZM29.785,13V8.734h1.128a1.552,1.552,0,0,1,1.191.475,1.86,1.86,0,0,1,.453,1.3V11.2a1.867,1.867,0,0,1-.444,1.32A1.585,1.585,0,0,1,30.889,13Zm.861-3.548v2.833H30.9a.723.723,0,0,0,.606-.227,1.351,1.351,0,0,0,.185-.784v-.741a1.515,1.515,0,0,0-.167-.833.674.674,0,0,0-.568-.248Z" transform="translate(8 424)"/></g></svg>