<svg xmlns="http://www.w3.org/2000/svg" width="14.497" height="17.044" viewBox="0 0 14.497 17.044"><defs><style>.a{fill:#afc0c7;}</style></defs><g transform="translate(0)"><path class="a" d="M140.7,9.184h.113A3.257,3.257,0,0,0,143.3,8.107c1.359-1.532,1.133-4.158,1.108-4.408A3.6,3.6,0,0,0,142.7.5a3.924,3.924,0,0,0-1.9-.5h-.06a3.93,3.93,0,0,0-1.9.484A3.6,3.6,0,0,0,137.111,3.7c-.025.251-.251,2.876,1.108,4.408A3.244,3.244,0,0,0,140.7,9.184Zm-2.651-5.4c0-.011,0-.021,0-.028.116-2.531,1.913-2.8,2.682-2.8h.042a2.58,2.58,0,0,1,2.682,2.8.069.069,0,0,0,0,.028c0,.025.251,2.425-.872,3.688a2.313,2.313,0,0,1-1.818.755h-.035a2.306,2.306,0,0,1-1.814-.755C137.809,6.219,138.049,3.808,138.053,3.787Z" transform="translate(-133.517)"/><path class="a" d="M50.569,263.633v-.011c0-.028,0-.057,0-.088-.021-.7-.067-2.333-1.6-2.855l-.035-.011A10.185,10.185,0,0,1,46,259.334a.476.476,0,0,0-.547.78,10.993,10.993,0,0,0,3.222,1.472c.822.293.914,1.172.939,1.977a.711.711,0,0,0,0,.088,6.407,6.407,0,0,1-.074,1.091,12.991,12.991,0,0,1-6.222,1.447,13.063,13.063,0,0,1-6.226-1.451,6.065,6.065,0,0,1-.074-1.091c0-.028,0-.056,0-.088.025-.8.116-1.684.939-1.976a11.094,11.094,0,0,0,3.222-1.472.476.476,0,1,0-.547-.78,10.074,10.074,0,0,1-2.929,1.334l-.035.011c-1.532.526-1.578,2.16-1.6,2.855a.707.707,0,0,1,0,.088v.011a5.412,5.412,0,0,0,.18,1.6.453.453,0,0,0,.184.222,13.35,13.35,0,0,0,6.889,1.687,13.39,13.39,0,0,0,6.889-1.687.472.472,0,0,0,.184-.222A5.678,5.678,0,0,0,50.569,263.633Z" transform="translate(-36.073 -250.094)"/></g></svg>