<svg xmlns="http://www.w3.org/2000/svg" width="16.811" height="19.212" viewBox="0 0 16.811 19.212"><defs><style>.a{fill:#fff;}</style></defs><path class="a" d="M13.331,71.981A4.253,4.253,0,1,0,6.452,69.11,3.389,3.389,0,0,0,2.5,74.554,4.175,4.175,0,0,0,0,78.373v3.939a1.315,1.315,0,0,0,1.314,1.314H15.289A1.524,1.524,0,0,0,16.811,82.1V76.936a5.277,5.277,0,0,0-3.48-4.955ZM10.688,65.7a2.955,2.955,0,1,1-2.973,2.955A2.967,2.967,0,0,1,10.688,65.7ZM4.822,69.983a2.1,2.1,0,0,1,2.054,2.6,5.31,5.31,0,0,0-1.485,1.527,2.1,2.1,0,1,1-.569-4.123ZM1.288,82.312V78.373a2.885,2.885,0,0,1,2.881-2.881h.6a5.253,5.253,0,0,0-.2,1.445V82.1a1.53,1.53,0,0,0,.018.235H1.314A.028.028,0,0,1,1.288,82.312ZM15.524,82.1a.238.238,0,0,1-.235.235h-9.2a.238.238,0,0,1-.235-.235V76.936a3.984,3.984,0,0,1,3.98-3.98h1.712a3.984,3.984,0,0,1,3.98,3.98Z" transform="translate(0 -64.414)"/></svg>