<svg xmlns="http://www.w3.org/2000/svg" width="28.251" height="20.381" viewBox="0 0 28.251 20.381"><defs><style>.a{fill:none;stroke:#203E4B;}.b{fill:#203E4B;}</style></defs><g transform="translate(0.005)"><path class="a" d="M41.626,47.741C34.132,47.741,28,45.449,28,42.6v9.1c0,2.849,6.07,5.141,13.626,5.141S55.251,54.553,55.251,51.7V42.6C55.251,45.449,49.12,47.741,41.626,47.741Z" transform="translate(-27.505 -36.964)"/><path class="b" d="M41.321,53.877c-7.928,0-14.121-2.477-14.121-5.636v-9.1c0-3.159,6.193-5.636,14.121-5.636s14.121,2.477,14.121,5.636v9.1C55.442,51.461,49.249,53.877,41.321,53.877ZM28.191,39.57v8.671c0,2.23,5.264,4.645,13.13,4.645s13.13-2.415,13.13-4.645v-9.1c0-2.23-5.264-4.645-13.13-4.645s-13.13,2.415-13.13,4.645v.434Z" transform="translate(-27.2 -33.5)"/></g></svg>