<svg xmlns="http://www.w3.org/2000/svg" width="36" height="32.37" viewBox="0 0 36 32.37"><defs><style>.a{fill:#8298a1;}.b{fill:#587581;stroke:#203e4b;}.c{fill:#fff;}.d{fill:#bcc8cc;}.e{stroke:none;}.f{fill:none;}</style></defs><g transform="translate(-125 -43)"><path class="a" d="M62.744,44.758h.025q-.037-.361-.1-.721a.453.453,0,0,0-.05-.149,16.172,16.172,0,1,0,.24,2.778A18.251,18.251,0,0,0,62.744,44.758Zm-1.459-1.211h-.207a18.141,18.141,0,0,0-15.016,7.976,30.709,30.709,0,0,1-4.56-3.988A42.28,42.28,0,0,1,56.733,35.629c.166.158.34.315.5.473A14.872,14.872,0,0,1,61.285,43.548Zm-5.456-8.681A43.535,43.535,0,0,0,40.763,46.723,30.812,30.812,0,0,1,37.6,42.378a18.1,18.1,0,0,0,3.839-9.709,14.99,14.99,0,0,1,5.232-.937A14.751,14.751,0,0,1,55.829,34.866ZM31.742,47.237a18.1,18.1,0,0,0,5.124-4,31.876,31.876,0,0,0,3.225,4.345,43.712,43.712,0,0,0-5.074,8.433A14.755,14.755,0,0,1,31.742,47.237Zm2.6-9.03a31.522,31.522,0,0,0,1.94,4.063,17.03,17.03,0,0,1-4.552,3.74A14.9,14.9,0,0,1,34.346,38.208Zm5.962-5.066a17.047,17.047,0,0,1-3.292,8.234,30.828,30.828,0,0,1-1.907-4.187c.307-.373.638-.738.987-1.086A14.977,14.977,0,0,1,40.307,33.142ZM35.8,56.914A42.324,42.324,0,0,1,40.83,48.4a32.181,32.181,0,0,0,4.652,4.038,17.985,17.985,0,0,0-2.537,8.706A14.864,14.864,0,0,1,36.1,57.229C36,57.121,35.9,57.021,35.8,56.914Zm8.217,4.461a16.99,16.99,0,0,1,2.355-8.325,31.56,31.56,0,0,0,10.563,4.477,14.85,14.85,0,0,1-10.265,4.088A16.615,16.615,0,0,1,44.014,61.374ZM57.827,56.6a30.39,30.39,0,0,1-10.879-4.469,17.057,17.057,0,0,1,14.129-7.512c.133,0,.265,0,.4.008a15.141,15.141,0,0,1,.141,2.04A14.91,14.91,0,0,1,57.827,56.6Z" transform="translate(96.51 12.52)"/><g class="b" transform="translate(125 47)"><rect class="e" width="36" height="24"/><rect class="f" x="0.5" y="0.5" width="35" height="23"/></g><path class="c" d="M15.683,7h-1l-1.47-3.264V7h-1V2.023h1l1.473,3.268V2.023h1Zm.807,0V2.023h1.538a1.774,1.774,0,0,1,1.184.347,1.265,1.265,0,0,1,.405,1.017,1.226,1.226,0,0,1-.167.653.989.989,0,0,1-.458.4.87.87,0,0,1,.516.385,1.316,1.316,0,0,1,.181.713,1.419,1.419,0,0,1-.4,1.094A1.637,1.637,0,0,1,18.137,7Zm1-2.164v1.33h.643A.5.5,0,0,0,18.547,6a.721.721,0,0,0,.14-.475q0-.67-.485-.687Zm0-.731h.523a.532.532,0,0,0,.591-.612.7.7,0,0,0-.137-.485.583.583,0,0,0-.444-.147h-.533Zm5.3,1.876H21.421L21.155,7H20.092l1.555-4.977h.919L24.132,7H23.059ZM21.64,5.144h.93L22.1,3.37Z" transform="translate(125 48)"/><path class="d" d="M9.874,11.342A1.861,1.861,0,0,1,9.4,12.631a1.69,1.69,0,0,1-1.244.438,1.568,1.568,0,0,1-1.294-.555,2.461,2.461,0,0,1-.449-1.584v-.837A2.4,2.4,0,0,1,6.873,8.51a1.593,1.593,0,0,1,1.292-.555A1.6,1.6,0,0,1,9.4,8.41a2.067,2.067,0,0,1,.48,1.306H8.872a1.34,1.34,0,0,0-.162-.726.641.641,0,0,0-.545-.2.61.61,0,0,0-.571.282A1.972,1.972,0,0,0,7.416,10v.94a2.169,2.169,0,0,0,.166,1.019.609.609,0,0,0,.569.277.658.658,0,0,0,.547-.193,1.272,1.272,0,0,0,.171-.7ZM14,10.959a2.321,2.321,0,0,1-.473,1.555,1.636,1.636,0,0,1-1.314.554,1.655,1.655,0,0,1-1.316-.549,2.287,2.287,0,0,1-.485-1.536v-.851a2.447,2.447,0,0,1,.475-1.6A1.616,1.616,0,0,1,12.2,7.955a1.624,1.624,0,0,1,1.309.566A2.413,2.413,0,0,1,14,10.108Zm-1.008-.834a2.044,2.044,0,0,0-.191-1,.707.707,0,0,0-1.186-.012,1.942,1.942,0,0,0-.2.962v.885a1.851,1.851,0,0,0,.195.962.661.661,0,0,0,.6.309.644.644,0,0,0,.584-.3,1.815,1.815,0,0,0,.195-.938Zm3.042-2.1.94,3.6.937-3.6h1.313V13H18.21V11.653L18.3,9.579,17.308,13h-.684L15.63,9.579l.092,2.075V13h-1V8.023ZM21.074,13h-1V8.023h1ZM25.4,13h-1l-1.47-3.264V13h-1V8.023h1L24.4,11.291V8.023h1Zm4.19-.564a1.834,1.834,0,0,1-.713.473,2.6,2.6,0,0,1-.925.159,1.7,1.7,0,0,1-1.333-.531,2.3,2.3,0,0,1-.489-1.547v-.9a2.461,2.461,0,0,1,.449-1.584,1.587,1.587,0,0,1,1.311-.555,1.688,1.688,0,0,1,1.222.4,1.892,1.892,0,0,1,.477,1.254h-.978a1.135,1.135,0,0,0-.2-.648.635.635,0,0,0-.492-.173.644.644,0,0,0-.591.3,1.9,1.9,0,0,0-.191.947v.9a1.852,1.852,0,0,0,.2.99.74.74,0,0,0,.668.309.873.873,0,0,0,.482-.12l.089-.062v-.913h-.7v-.759h1.712ZM8.877,14.023h1v3.445a1.647,1.647,0,0,1-.4,1.162,1.349,1.349,0,0,1-1.039.438,1.382,1.382,0,0,1-1.063-.407A1.594,1.594,0,0,1,7,17.53H8.006q0,.7.434.7t.438-.813Zm5.031,0v3.445a1.61,1.61,0,0,1-.427,1.188,1.653,1.653,0,0,1-1.207.412,1.667,1.667,0,0,1-1.222-.417,1.622,1.622,0,0,1-.422-1.207V14.023h1.012v3.425a1.026,1.026,0,0,0,.137.6.586.586,0,0,0,.5.181.579.579,0,0,0,.492-.179,1.022,1.022,0,0,0,.137-.59V14.023Zm1.767,4.143h1.764V19H14.671V14.023h1Zm2.892-1.907.749-2.235H20.41L19.077,17.2V19H18.058V17.2l-1.336-3.172h1.094Zm4.7-.188h.468a.437.437,0,0,0,.391-.186.881.881,0,0,0,.125-.5.741.741,0,0,0-.128-.463.412.412,0,0,0-.344-.166.406.406,0,0,0-.33.157.607.607,0,0,0-.128.4h-.967a1.367,1.367,0,0,1,.179-.7,1.26,1.26,0,0,1,.5-.484,1.652,1.652,0,0,1,1.793.205,1.383,1.383,0,0,1,.39,1.039,1.183,1.183,0,0,1-.176.627,1.2,1.2,0,0,1-.463.443,1.064,1.064,0,0,1,.525.451,1.55,1.55,0,0,1-.25,1.774,1.546,1.546,0,0,1-1.109.4,1.361,1.361,0,0,1-1.436-1.432h.967a.71.71,0,0,0,.14.448.431.431,0,0,0,.355.181.476.476,0,0,0,.395-.185.774.774,0,0,0,.145-.492q0-.735-.571-.738h-.475Zm5.571.872a2.788,2.788,0,0,1-.374,1.579,1.321,1.321,0,0,1-2.129.015,2.692,2.692,0,0,1-.388-1.523v-.94a2.782,2.782,0,0,1,.373-1.574,1.326,1.326,0,0,1,2.14-.005,2.732,2.732,0,0,1,.379,1.542Zm-.971-1.008a2.533,2.533,0,0,0-.116-.882.387.387,0,0,0-.362-.294q-.461,0-.479,1.077v1.241a2.551,2.551,0,0,0,.118.9.392.392,0,0,0,.367.294.375.375,0,0,0,.35-.275,2.4,2.4,0,0,0,.121-.843Z" transform="translate(125 48)"/></g></svg>