<svg xmlns="http://www.w3.org/2000/svg" width="27.163" height="30.941" viewBox="0 0 27.163 30.941"><defs><style>.a{fill:#587581;stroke:#fff;stroke-width:0.7px;}</style></defs><path class="a" d="M20.984,76.326a6.695,6.695,0,1,0-10.829-4.519,5.334,5.334,0,0,0-6.222,8.568A6.572,6.572,0,0,0,0,86.387v6.2a2.07,2.07,0,0,0,2.068,2.068h22a2.4,2.4,0,0,0,2.4-2.4V84.126a8.306,8.306,0,0,0-5.479-7.8Zm-4.161-9.885a4.651,4.651,0,1,1-4.68,4.651A4.671,4.671,0,0,1,16.823,66.441ZM7.59,73.18a3.3,3.3,0,0,1,3.233,4.086,8.359,8.359,0,0,0-2.337,2.4,3.309,3.309,0,1,1-.9-6.489ZM2.027,92.587v-6.2a4.541,4.541,0,0,1,4.535-4.535H7.5a8.269,8.269,0,0,0-.317,2.274v8.133a2.408,2.408,0,0,0,.029.37H2.068A.045.045,0,0,1,2.027,92.587Zm22.409-.329a.375.375,0,0,1-.37.37H9.581a.375.375,0,0,1-.37-.37V84.126a6.272,6.272,0,0,1,6.265-6.265h2.7a6.272,6.272,0,0,1,6.265,6.265Z" transform="translate(0.35 -64.064)"/></svg>