<svg xmlns="http://www.w3.org/2000/svg" width="12.206" height="9.155" viewBox="0 0 12.206 9.155"><defs><style>.a{fill:#fff;}</style></defs><path class="a" d="M11.062,73.154H1.144A1.146,1.146,0,0,1,0,72.01V70.1a.381.381,0,0,1,.381-.381,1.144,1.144,0,0,0,0-2.289A.381.381,0,0,1,0,67.051V65.143A1.146,1.146,0,0,1,1.144,64h9.918a1.146,1.146,0,0,1,1.144,1.144v1.907a.381.381,0,0,1-.381.381,1.144,1.144,0,0,0,0,2.289.381.381,0,0,1,.381.381V72.01a1.146,1.146,0,0,1-1.144,1.144ZM.763,70.445V72.01a.382.382,0,0,0,.381.381h9.918a.382.382,0,0,0,.381-.381V70.445a1.907,1.907,0,0,1,0-3.738V65.143a.382.382,0,0,0-.381-.381H1.144a.382.382,0,0,0-.381.381v1.564a1.907,1.907,0,0,1,0,3.738Z" transform="translate(0 -63.999)"/></svg>