<svg xmlns="http://www.w3.org/2000/svg" width="16.319" height="18.649" viewBox="0 0 16.319 18.649"><defs><style>.a{fill:#213f4c;}</style></defs><path class="a" d="M12.94,71.76a4.128,4.128,0,1,0-6.678-2.787,3.29,3.29,0,0,0-3.837,5.284A4.053,4.053,0,0,0,0,77.964v3.824a1.277,1.277,0,0,0,1.275,1.275H14.841a1.48,1.48,0,0,0,1.478-1.478V76.57a5.122,5.122,0,0,0-3.378-4.81Zm-2.566-6.1a2.868,2.868,0,1,1-2.886,2.868A2.88,2.88,0,0,1,10.375,65.664ZM4.68,69.82a2.038,2.038,0,0,1,1.994,2.52,5.154,5.154,0,0,0-1.441,1.482,2.041,2.041,0,1,1-.553-4ZM1.25,81.788V77.964a2.8,2.8,0,0,1,2.8-2.8h.579a5.1,5.1,0,0,0-.2,1.4v5.015a1.485,1.485,0,0,0,.018.228H1.275A.027.027,0,0,1,1.25,81.788Zm13.819-.2a.231.231,0,0,1-.228.228H5.908a.231.231,0,0,1-.228-.228V76.57a3.868,3.868,0,0,1,3.863-3.863h1.662a3.868,3.868,0,0,1,3.863,3.863Z" transform="translate(0 -64.414)"/></svg>