<svg xmlns="http://www.w3.org/2000/svg" width="28.631" height="28.623" viewBox="0 0 28.631 28.623"><defs><style>.a{fill:#f47b4e;}</style></defs><path class="a" d="M36.913,58.8a23.5,23.5,0,0,1-3.178-.217,3.563,3.563,0,0,1-2.167-1.156,4.242,4.242,0,0,1-1.156-2.167,21.965,21.965,0,0,1,24.85-24.85,3.985,3.985,0,0,1,3.323,3.323h0a22.088,22.088,0,0,1-6.213,18.638A22.317,22.317,0,0,1,36.913,58.8ZM52.156,31.277A20.926,20.926,0,0,0,31.568,55.044a2.235,2.235,0,0,0,.795,1.517,2.826,2.826,0,0,0,1.517.795,20.892,20.892,0,0,0,23.55-23.55,2.758,2.758,0,0,0-2.312-2.312A21.193,21.193,0,0,0,52.156,31.277Z" transform="translate(-30.183 -30.177)"/><path class="a" d="M50.517,48.105a.562.562,0,0,0,.795-.795l-.795-.795.795-.795.795.795a.562.562,0,0,0,.795-.795l-.795-.795.795-.795a.562.562,0,1,0-.795-.795l-.795.795-.795-.795a.562.562,0,0,0-.795.795l.795.795-.795.795-.795-.795a.562.562,0,0,0-.795.795l.795.795-.795.795-.722-.795a.562.562,0,0,0-.795.795l.795.795-.795.722-.795-.722a.562.562,0,0,0-.795.795l.795.795-.795.795-.795-.795a.562.562,0,1,0-.795.795l.795.795-.795.795a.562.562,0,1,0,.795.795l.795-.795.795.795a.562.562,0,1,0,.795-.795l-.795-.795.795-.795.795.795a.562.562,0,0,0,.795-.795l-.795-.867.722-.795.795.795a.562.562,0,0,0,.795-.795l-.795-.722.795-.795Z" transform="translate(-33.817 -33.785)"/></svg>