<svg xmlns="http://www.w3.org/2000/svg" width="45.489" height="38.659" viewBox="0 0 45.489 38.659"><defs><style>.a,.b{fill:#203e4b;stroke:#fff;}.a{stroke-width:1.5px;}.b{stroke-width:0.2px;}</style></defs><g transform="translate(-33.189 -485.25)"><path class="a" d="M42.538,66.528a18.581,18.581,0,0,0-16.07-27.9,18.659,18.659,0,0,0-18.4,16.129l-.023.173-4.8-4.8L1.414,51.963l7.769,7.769,7.769-7.769L15.12,50.13l-4.414,4.408.052-.275a15.972,15.972,0,1,1,7.763,16.821l-1.3,2.242a18.591,18.591,0,0,0,25.32-6.8Z" transform="translate(32.835 447.373)"/><path class="b" d="M40.763,1.751H37.844V.584A.584.584,0,0,0,37.26,0H29.087A.584.584,0,0,0,28.5.584V1.751H25.584A.584.584,0,0,0,25,2.335V3.5a4.09,4.09,0,0,0,3.5,4.04v.047a4.674,4.674,0,0,0,4.087,4.63v1.208H29.67a.584.584,0,0,0-.584.584V16.93H28.5a.584.584,0,1,0,0,1.168h9.341a.584.584,0,1,0,0-1.168H37.26V14.011a.584.584,0,0,0-.584-.584H33.757V12.219a4.674,4.674,0,0,0,4.087-4.63V7.543a4.09,4.09,0,0,0,3.5-4.04V2.335A.584.584,0,0,0,40.763,1.751Zm-4.67,12.844V16.93H30.254V14.595ZM26.168,3.5V2.919H28.5V6.363A2.924,2.924,0,0,1,26.168,3.5ZM36.676,7.589a3.5,3.5,0,0,1-7.006,0V1.168h7.006Zm3.5-4.087a2.924,2.924,0,0,1-2.335,2.86V2.919h2.335Z" transform="translate(26.714 495.513)"/></g></svg>