<svg xmlns="http://www.w3.org/2000/svg" width="10" height="11.428" viewBox="0 0 10 11.428"><defs><style>.a{fill:#203e4b;}</style></defs><path class="a" d="M7.93,68.915a2.53,2.53,0,1,0-4.092-1.708,2.016,2.016,0,0,0-2.351,3.238A2.483,2.483,0,0,0,0,72.717V75.06a.782.782,0,0,0,.781.781H9.094A.907.907,0,0,0,10,74.936V71.863a3.139,3.139,0,0,0-2.07-2.948ZM6.357,65.18a1.758,1.758,0,1,1-1.768,1.758A1.765,1.765,0,0,1,6.357,65.18ZM2.868,67.727A1.249,1.249,0,0,1,4.09,69.271a3.159,3.159,0,0,0-.883.908,1.25,1.25,0,1,1-.339-2.452ZM.766,75.06V72.717A1.716,1.716,0,0,1,2.48,71h.355a3.125,3.125,0,0,0-.12.859v3.073a.91.91,0,0,0,.011.14H.781A.017.017,0,0,1,.766,75.06Zm8.468-.124a.142.142,0,0,1-.14.14H3.62a.142.142,0,0,1-.14-.14V71.863A2.37,2.37,0,0,1,5.848,69.5H6.867a2.37,2.37,0,0,1,2.367,2.367Z" transform="translate(0 -64.414)"/></svg>