<svg xmlns="http://www.w3.org/2000/svg" xmlns:xlink="http://www.w3.org/1999/xlink" width="32.337" height="32.337" viewBox="0 0 32.337 32.337"><defs><style>.a{fill:#fff;}.b{clip-path:url(#a);}</style><clipPath id="a"><circle class="a" cx="15.547" cy="15.547" r="15.547"/></clipPath></defs><path class="a" d="M46.669,62.837A16.165,16.165,0,1,1,58.1,58.1,16.069,16.069,0,0,1,46.669,62.837Zm0-31.093a14.919,14.919,0,1,0,10.555,4.37A14.826,14.826,0,0,0,46.669,31.744Z" transform="translate(-30.5 -30.5)"/><g transform="translate(0.622 0.622)"><g transform="translate(0)"><g class="b"><g transform="translate(-2.206 -2.288)"><path class="a" d="M46.609,43.03l-3.159,6.2,4.925,4.925L54.586,51l-1.094-6.882Z" transform="translate(-31.129 -30.974)"/><path class="a" d="M42.86,63.408l.813,5.406,5.39.9,2.512-4.851L47.744,60.97Z" transform="translate(-31.028 -34.039)"/><path class="a" d="M28.59,48.886l.821,5.4,5.381.9,2.521-4.851L33.482,46.44Z" transform="translate(-28.59 -31.557)"/><path class="a" d="M65.774,51.72,60.89,54.158l.813,5.4,5.39.9,2.521-4.851Z" transform="translate(-34.108 -32.459)"/><path class="a" d="M66.453,35.629,62.622,31.74,57.73,34.186l.821,5.4,5.381.9Z" transform="translate(-33.568 -29.045)"/><path class="a" d="M44.1,37.229l2.521-4.851L42.784,28.49,37.9,30.936l.821,5.4Z" transform="translate(-30.181 -28.49)"/></g></g></g></g></svg>