<svg xmlns="http://www.w3.org/2000/svg" width="32.863" height="33.231" viewBox="0 0 32.863 33.231"><defs><style>.a{fill:#fff;}.b{fill:#587581;}</style></defs><g transform="translate(-298 -34.769)"><g transform="translate(298 34.769)"><path class="a" d="M37.908,63.031a26.972,26.972,0,0,1-3.648-.249,4.09,4.09,0,0,1-2.487-1.327,4.869,4.869,0,0,1-1.327-2.487A25.211,25.211,0,0,1,58.969,30.445a4.574,4.574,0,0,1,3.814,3.814h0a25.353,25.353,0,0,1-7.131,21.392A25.616,25.616,0,0,1,37.908,63.031ZM55.4,31.44A24.019,24.019,0,0,0,31.772,58.719a2.566,2.566,0,0,0,.912,1.741,3.244,3.244,0,0,0,1.741.912A23.981,23.981,0,0,0,61.456,34.342,3.165,3.165,0,0,0,58.8,31.689,24.325,24.325,0,0,0,55.4,31.44Z" transform="translate(-30.183 -30.177)"/><path class="a" d="M51.587,48.834a.645.645,0,1,0,.912-.912l-.912-.912L52.5,46.1l.912.912a.645.645,0,0,0,.912-.912l-.912-.912.912-.912a.645.645,0,0,0-.912-.912l-.912.912-.912-.912a.645.645,0,0,0-.912.912l.912.912-.912.912-.912-.912a.645.645,0,0,0-.912.912l.912.912-.912.912-.829-.912a.645.645,0,0,0-.912.912l.912.912-.912.829-.912-.829a.645.645,0,0,0-.912.912l.912.912-.912.912-.912-.912a.645.645,0,1,0-.912.912l.912.912-.912.912a.645.645,0,1,0,.912.912l.912-.912.912.912a.645.645,0,1,0,.912-.912l-.912-.912.912-.912.912.912a.645.645,0,0,0,.912-.912l-.912-.995.829-.912.912.912a.645.645,0,0,0,.912-.912l-.912-.829.912-.912Z" transform="translate(-32.419 -32.397)"/></g><g transform="translate(-1 -82)"><g transform="translate(230.152 1)"><rect class="a" width="23" height="11" transform="translate(73.848 138)"/></g><path class="b" d="M7.062,13.687H8.686l1.2-2,1.2,2h1.688l-2.016-3.23L12.728,7.3H11.1L9.954,9.243,8.8,7.3H7.117l1.962,3.13Zm6.423,0H15V11.15h2.308v-1.3H15V8.614h2.883V7.3h-4.4Zm5.274,0h4.17V12.355H20.274V7.3H18.759Z" transform="translate(300.938 133.784)"/></g></g></svg>