<svg xmlns="http://www.w3.org/2000/svg" width="36" height="33.231" viewBox="0 0 36 33.231"><defs><style>.a{fill:#fff;}.b{fill:#587581;}</style></defs><g transform="translate(-223 -116.769)"><g transform="translate(225 116.769)"><path class="a" d="M37.908,63.031a26.972,26.972,0,0,1-3.648-.249,4.09,4.09,0,0,1-2.487-1.327,4.869,4.869,0,0,1-1.327-2.487A25.211,25.211,0,0,1,58.969,30.445a4.574,4.574,0,0,1,3.814,3.814h0a25.353,25.353,0,0,1-7.131,21.392A25.616,25.616,0,0,1,37.908,63.031ZM55.4,31.44A24.019,24.019,0,0,0,31.772,58.719a2.566,2.566,0,0,0,.912,1.741,3.244,3.244,0,0,0,1.741.912A23.981,23.981,0,0,0,61.456,34.342,3.165,3.165,0,0,0,58.8,31.689,24.325,24.325,0,0,0,55.4,31.44Z" transform="translate(-30.183 -30.177)"/><path class="a" d="M51.587,48.834a.645.645,0,1,0,.912-.912l-.912-.912L52.5,46.1l.912.912a.645.645,0,0,0,.912-.912l-.912-.912.912-.912a.645.645,0,0,0-.912-.912l-.912.912-.912-.912a.645.645,0,0,0-.912.912l.912.912-.912.912-.912-.912a.645.645,0,0,0-.912.912l.912.912-.912.912-.829-.912a.645.645,0,0,0-.912.912l.912.912-.912.829-.912-.829a.645.645,0,0,0-.912.912l.912.912-.912.912-.912-.912a.645.645,0,1,0-.912.912l.912.912-.912.912a.645.645,0,1,0,.912.912l.912-.912.912.912a.645.645,0,1,0,.912-.912l-.912-.912.912-.912.912.912a.645.645,0,0,0,.912-.912l-.912-.995.829-.912.912.912a.645.645,0,0,0,.912-.912l-.912-.829.912-.912Z" transform="translate(-32.419 -32.397)"/></g><g transform="translate(149 1)"><rect class="a" width="36" height="11" transform="translate(74 138)"/><path class="b" d="M9.045,6.965a2.371,2.371,0,0,1-.578,1.575,1.959,1.959,0,0,1-1.483.547,1.833,1.833,0,0,1-1.529-.732,3.16,3.16,0,0,1-.567-1.984V5.212A3.065,3.065,0,0,1,5.47,3.239a1.928,1.928,0,0,1,1.589-.725,1.848,1.848,0,0,1,1.435.554,2.426,2.426,0,0,1,.552,1.586H8.232A1.977,1.977,0,0,0,7.9,3.538,1.033,1.033,0,0,0,7.058,3.2a1.147,1.147,0,0,0-1.006.512,2.651,2.651,0,0,0-.352,1.5V6.39a2.8,2.8,0,0,0,.327,1.49,1.061,1.061,0,0,0,.956.519,1.156,1.156,0,0,0,.905-.312,1.964,1.964,0,0,0,.343-1.121Zm5.251-.6a3.191,3.191,0,0,1-.558,2.017,1.9,1.9,0,0,1-1.586.708A1.927,1.927,0,0,1,10.589,8.4a3.042,3.042,0,0,1-.6-1.945v-1.2a3.2,3.2,0,0,1,.567-2.01,1.892,1.892,0,0,1,1.582-.727,1.915,1.915,0,0,1,1.575.7A3.139,3.139,0,0,1,14.3,5.2Zm-.8-1.121a2.742,2.742,0,0,0-.332-1.51,1.14,1.14,0,0,0-1.017-.494,1.136,1.136,0,0,0-1,.5,2.654,2.654,0,0,0-.345,1.477V6.363a2.711,2.711,0,0,0,.341,1.494,1.14,1.14,0,0,0,1.017.514,1.131,1.131,0,0,0,1-.475,2.667,2.667,0,0,0,.338-1.455ZM16.348,8.31h2.509V9H15.54V2.6h.809Zm4.276,0h2.509V9H19.816V2.6h.809Zm6.535-2.268H24.9V8.31h2.637V9H24.092V2.6h3.4v.69H24.9V5.353h2.263ZM32.564,8.2l-.141.176a2.209,2.209,0,0,1-1.775.708A2.033,2.033,0,0,1,29.02,8.4a2.944,2.944,0,0,1-.6-1.945V5.2a3.175,3.175,0,0,1,.538-2.015A2.27,2.27,0,0,1,32,3.021a2.121,2.121,0,0,1,.569,1.452h-.8a1.617,1.617,0,0,0-.332-.934,1.061,1.061,0,0,0-.859-.336,1.156,1.156,0,0,0-1.011.45,2.584,2.584,0,0,0-.334,1.439V6.4a2.529,2.529,0,0,0,.369,1.483,1.223,1.223,0,0,0,1.059.516,1.4,1.4,0,0,0,.989-.315l.119-.109V6.5H30.591v-.69h1.973Zm4.381-2.162H34.682V8.31h2.637V9H33.878V2.6h3.4v.69H34.682V5.353h2.263Z" transform="translate(71 137.486)"/></g></g></svg>